#N canvas 810 229 567 259 10;
#N canvas 367 352 814 314 arpscales 0;
#X floatatom 64 104 5 1 8 0 - - -;
#X obj 64 82 r stp;
#X floatatom 197 104 5 1 8 0 - - -;
#X obj 197 82 r stp;
#X floatatom 326 104 5 1 8 0 - - -;
#X obj 326 82 r stp;
#X floatatom 7 251 5 1 8 0 - - -;
#X obj 7 273 s stp;
#X floatatom 595 102 5 1 8 0 - - -;
#X obj 595 80 r stp;
#X text 675 57 <- edit these;
#X text 44 249 <- change the;
#X text 634 101 <- these control;
#X text 632 112 the number of steps;
#X text 44 261 global number of steps;
#X text 219 267 e.g the major triad would be entered as 0 4 7;
#X text 606 129 <- the numerical argument;
#X text 626 140 corresponds to the column no.;
#X text 37 145 col 0;
#X text 171 146 col 1;
#X text 299 147 col 2;
#X msg 7 60 0 4 7 12 7 9 4 7;
#X text 217 179 the above sequences of numbers map to the columns of
the monome \, the first four columns have been set up already. you
can edit the existing sequences or create new ones. the arpscale object
takes two inputs. first \, it takes a list of note information (i.e.
number of semitones from the root note). secondly \, it take the number
of steps in the sequence.;
#X obj 6 4 cnv 15 150 20 empty empty arpeggio_editor 20 12 0 14 -66577
-262144 0;
#X msg 269 60 0 5 7 10 5 0 0 5;
#X msg 140 60 0 3 7 10 7 3 7 2;
#X obj 7 203 delay 100;
#X obj 7 182 loadbang;
#X obj 7 131 arpscale 0;
#X floatatom 448 103 5 1 8 0 - - -;
#X obj 448 81 r stp;
#X text 421 146 col 3;
#X text 568 143 col 4;
#X msg 391 59 0 3 6 9 12 15 18 21 24;
#X msg 538 58 0 7 10 12 14 17 14 12;
#X msg 7 225 8;
#X obj 362 7 r initbang;
#X obj 140 131 arpscale 1;
#X obj 269 131 arpscale 2;
#X obj 391 130 arpscale 3;
#X obj 538 129 arpscale 4;
#X obj 46 226 s initbang;
#X connect 0 0 28 1;
#X connect 1 0 0 0;
#X connect 2 0 37 1;
#X connect 3 0 2 0;
#X connect 4 0 38 1;
#X connect 5 0 4 0;
#X connect 6 0 7 0;
#X connect 8 0 40 1;
#X connect 9 0 8 0;
#X connect 21 0 28 0;
#X connect 24 0 38 0;
#X connect 25 0 37 0;
#X connect 26 0 35 0;
#X connect 26 0 41 0;
#X connect 27 0 26 0;
#X connect 29 0 39 1;
#X connect 30 0 29 0;
#X connect 33 0 39 0;
#X connect 34 0 40 0;
#X connect 35 0 6 0;
#X connect 36 0 21 0;
#X connect 36 0 25 0;
#X connect 36 0 24 0;
#X connect 36 0 33 0;
#X connect 36 0 34 0;
#X restore -53 197 pd arpscales;
#N canvas 499 80 575 173 systemsetup 0;
#X obj 158 73 OSCroute /press;
#X obj 158 94 s grid_in;
#X obj 7 5 cnv 15 125 20 empty empty connection 20 12 1 14 -66577 -262144
0;
#X obj 9 34 loadbang;
#X msg 9 54 connect localhost 8080;
#X obj 9 128 sendOSC;
#X obj 21 80 r send_osc;
#X obj 158 30 dumpOSC 8000;
#X obj 279 30 loadbang;
#X msg 279 54 90;
#X floatatom 279 79 5 0 0 0 - - -;
#X obj 279 103 s vel;
#X obj 158 53 OSCroute /accord;
#X obj 279 5 cnv 15 125 20 empty empty parameters 20 12 1 14 -66577
-262144 0;
#X text 6 147 OSC stuff;
#X msg 358 52 100;
#X floatatom 358 76 5 0 0 0 - - -;
#X obj 358 102 s dur;
#X text 240 119 midi: velocity;
#X text 355 120 duration;
#N canvas 232 234 341 300 midisetup 0;
#X obj 15 6 midirealtimein;
#X obj 47 146 + 1;
#X obj 15 146 f;
#X obj 15 220 sel 0;
#X obj 15 243 t b;
#X obj 15 262 s time;
#X obj 15 27 route 248;
#X obj 15 199 mod 24;
#X obj 15 119 spigot;
#X obj 48 59 r useinternalclock;
#X obj 48 97 tgl 15 0 empty empty empty 17 7 0 10 -262144 -1 -1 0 1
;
#X obj 48 78 == 0;
#X obj 183 17 r clockdiv;
#X floatatom 183 43 5 0 0 0 - - -;
#X obj 183 69 expr 24/$f1;
#X obj 183 89 i;
#X obj 183 112 route 0;
#X floatatom 222 160 5 0 0 0 - - -;
#X obj 183 136 == 0;
#X connect 0 0 6 0;
#X connect 1 0 2 1;
#X connect 2 0 1 0;
#X connect 2 0 7 0;
#X connect 3 0 4 0;
#X connect 4 0 5 0;
#X connect 6 0 8 0;
#X connect 7 0 3 0;
#X connect 8 0 2 0;
#X connect 9 0 11 0;
#X connect 10 0 8 1;
#X connect 11 0 10 0;
#X connect 12 0 13 0;
#X connect 13 0 14 0;
#X connect 14 0 15 0;
#X connect 15 0 16 0;
#X connect 16 0 18 0;
#X connect 16 1 17 0;
#X connect 17 0 7 1;
#X connect 18 0 17 0;
#X restore 430 27 pd midisetup;
#X obj 430 4 cnv 15 125 20 empty empty midi_setup 20 12 1 14 -66577
-262144 0;
#N canvas 113 93 398 188 buttons 0;
#X text 13 146 this is the button handler. to extend to 128 etc \,
just add more button objects;
#X obj 15 43 btn 0 2;
#X obj 15 9 btn 0 0;
#X obj 15 111 btn 0 6;
#X obj 15 26 btn 0 1;
#X obj 61 26 btn 1 1;
#X obj 15 128 btn 0 7;
#X obj 199 60 btn 4 3;
#X obj 61 60 btn 1 3;
#X obj 15 77 btn 0 4;
#X obj 15 94 btn 0 5;
#X obj 153 9 btn 3 0;
#X obj 199 77 btn 4 4;
#X obj 199 111 btn 4 6;
#X obj 199 128 btn 4 7;
#X obj 107 77 btn 2 4;
#X obj 107 128 btn 2 7;
#X obj 61 128 btn 1 7;
#X obj 153 128 btn 3 7;
#X obj 153 111 btn 3 6;
#X obj 61 9 btn 1 0;
#X obj 15 60 btn 0 3;
#X obj 61 43 btn 1 2;
#X obj 61 111 btn 1 6;
#X obj 61 94 btn 1 5;
#X obj 61 77 btn 1 4;
#X obj 107 9 btn 2 0;
#X obj 107 26 btn 2 1;
#X obj 107 43 btn 2 2;
#X obj 107 60 btn 2 3;
#X obj 107 94 btn 2 5;
#X obj 107 111 btn 2 6;
#X obj 153 26 btn 3 1;
#X obj 153 43 btn 3 2;
#X obj 153 60 btn 3 3;
#X obj 153 77 btn 3 4;
#X obj 153 94 btn 3 5;
#X obj 199 9 btn 4 0;
#X obj 199 26 btn 4 1;
#X obj 199 43 btn 4 2;
#X obj 199 94 btn 4 5;
#X obj 245 128 btn 5 7;
#X obj 245 111 btn 5 6;
#X obj 245 94 btn 5 5;
#X obj 245 77 btn 5 4;
#X obj 245 60 btn 5 3;
#X obj 245 43 btn 5 2;
#X obj 245 26 btn 5 1;
#X obj 245 9 btn 5 0;
#X obj 291 9 btn 6 0;
#X obj 291 26 btn 6 1;
#X obj 291 43 btn 6 2;
#X obj 291 60 btn 6 3;
#X obj 291 77 btn 6 4;
#X obj 291 94 btn 6 5;
#X obj 291 111 btn 6 6;
#X obj 291 128 btn 6 7;
#X obj 337 9 btn 7 0;
#X obj 337 26 btn 7 1;
#X obj 337 43 btn 7 2;
#X obj 337 60 btn 7 3;
#X obj 337 77 btn 7 4;
#X obj 337 95 btn 7 5;
#X obj 337 111 btn 7 6;
#X obj 337 128 btn 7 7;
#X restore 430 83 pd buttons;
#X obj 430 59 cnv 15 125 20 empty empty buttons 20 12 1 14 -66577 -262144
0;
#X obj 21 101 prepend send;
#X connect 0 0 1 0;
#X connect 3 0 4 0;
#X connect 4 0 5 0;
#X connect 6 0 24 0;
#X connect 7 0 12 0;
#X connect 8 0 9 0;
#X connect 8 0 15 0;
#X connect 9 0 10 0;
#X connect 10 0 11 0;
#X connect 12 0 0 0;
#X connect 15 0 16 0;
#X connect 16 0 17 0;
#X connect 24 0 5 0;
#X restore 314 202 pd systemsetup;
#N canvas 0 0 295 150 chordmode 0;
#X obj 26 115 s chordmode;
#X text 43 45 arpeggio mode;
#X text 44 62 chord mode;
#X obj 20 20 cnv 15 180 20 empty empty chord_mode 20 12 1 14 -66577
-262144 0;
#X obj 26 48 vradio 15 1 0 2 empty empty empty 0 -8 0 10 -262144 -1
-1 0;
#X obj -8 -3 loadbang;
#X msg -8 25 0;
#X connect 4 0 0 0;
#X connect 5 0 6 0;
#X connect 6 0 4 0;
#X coords 0 -1 1 1 180 70 1 20 20;
#X restore 123 175 pd chordmode;
#N canvas 0 0 393 368 timing 0;
#X obj 60 141 tgl 15 0 empty empty empty 17 7 0 10 -262144 -1 -1 1
1;
#X obj 51 -4 loadbang;
#X obj 60 296 metro;
#X floatatom 60 167 0 10 500 1 - - -;
#X obj 60 316 s time;
#X obj 50 50 cnv 15 180 20 empty empty timing 20 12 1 14 -66577 -262144
0;
#X text 86 163 change the arpeggio;
#X text 86 138 use internal clock;
#X obj 87 241 expr 60000 / $f1;
#X msg 51 28 120;
#X floatatom 59 104 3 1 32 0 - - -;
#X text 87 103 number of divisions;
#X obj 87 214 *;
#X obj 75 191 t b f;
#X msg 89 27 16;
#X obj 228 245 s useinternalclock;
#X text 86 172 speed here (BPM);
#X obj 236 104 s clockdiv;
#X text 227 262 let midi sync know which;
#X text 227 272 clock is in use;
#X text 234 121 set rate of arpeggio;
#X text 233 131 relative to BPM;
#X text 108 225 convert to ms;
#X text 60 71 (this is only required;
#X text 60 81 for the arpeggios);
#X text 54 119 --------------------------;
#X obj 87 260 i;
#X obj 17 101 bng 15 250 50 0 empty empty empty 17 7 0 10 -262144 -1
-1;
#X obj 115 297 s dur;
#X connect 0 0 2 0;
#X connect 0 0 15 0;
#X connect 1 0 9 0;
#X connect 1 0 14 0;
#X connect 1 0 27 0;
#X connect 2 0 4 0;
#X connect 3 0 12 0;
#X connect 8 0 26 0;
#X connect 9 0 3 0;
#X connect 10 0 13 0;
#X connect 10 0 17 0;
#X connect 12 0 8 0;
#X connect 13 0 3 0;
#X connect 13 1 12 1;
#X connect 14 0 10 0;
#X connect 26 0 2 1;
#X connect 26 0 28 0;
#X connect 27 0 0 0;
#X coords 0 -1 1 1 180 155 1 50 50;
#X restore -63 4 pd timing;
#N canvas 620 32 296 537 notesetup 0;
#X obj 26 97 s initnote;
#X obj 26 -2 loadbang;
#X floatatom 138 167 5 1 12 0 - - -;
#X floatatom 26 78 5 0 0 0 - - -;
#X msg 26 22 56;
#X msg 139 22 2;
#X obj 20 50 cnv 15 180 20 empty empty note_setup 20 12 1 14 -66577
-262144 0;
#X text 62 72 set starting note;
#X text 61 81 for vertical axis;
#X obj 26 399 unpack 0 0 0 0 0 0 0 0;
#X msg 26 328 0 2 4 5 7 9 11 12;
#X obj 26 433 s vinc-0;
#X obj 44 456 s vinc-1;
#X obj 62 478 s vinc-2;
#X obj 80 501 s vinc-3;
#X obj 99 432 s vinc-4;
#X obj 118 455 s vinc-5;
#X obj 136 477 s vinc-6;
#X obj 155 500 s vinc-7;
#X obj 26 139 vradio 15 1 0 4 empty empty empty 0 -8 0 10 -262144 -1
-1 2;
#X obj 26 276 select 0 1 2 3;
#X obj 26 302 t b;
#X obj 54 302 t b;
#X obj 80 302 t b;
#X obj 108 302 t b;
#X msg 54 348 0 2 3 5 7 8 10 12;
#X text 46 136 major;
#X text 46 152 minor;
#X msg 63 22 0;
#X text 45 167 fixed interval;
#X obj 138 266 f;
#X obj 162 266 +;
#X msg 157 215 0;
#X obj 138 240 repeat 7;
#X obj 138 321 l;
#X obj 138 294 prepend;
#X obj 138 194 t b b f;
#X text 40 113 vertical axis scale;
#X text 47 183 custom;
#X obj 106 0 r banginitnote;
#X msg 83 220 2;
#X connect 1 0 4 0;
#X connect 1 0 28 0;
#X connect 1 0 5 0;
#X connect 2 0 36 0;
#X connect 3 0 0 0;
#X connect 4 0 3 0;
#X connect 5 0 2 0;
#X connect 9 0 11 0;
#X connect 9 1 12 0;
#X connect 9 2 13 0;
#X connect 9 3 14 0;
#X connect 9 4 15 0;
#X connect 9 5 16 0;
#X connect 9 6 17 0;
#X connect 9 7 18 0;
#X connect 10 0 9 0;
#X connect 19 0 20 0;
#X connect 20 0 21 0;
#X connect 20 1 22 0;
#X connect 20 2 23 0;
#X connect 20 3 24 0;
#X connect 21 0 10 0;
#X connect 22 0 25 0;
#X connect 23 0 34 0;
#X connect 25 0 9 0;
#X connect 28 0 20 0;
#X connect 30 0 31 0;
#X connect 30 0 35 0;
#X connect 31 0 30 1;
#X connect 32 0 30 0;
#X connect 32 0 34 0;
#X connect 33 0 30 0;
#X connect 34 0 35 1;
#X connect 34 0 9 0;
#X connect 35 0 34 0;
#X connect 36 0 33 0;
#X connect 36 1 32 0;
#X connect 36 1 40 0;
#X connect 36 2 31 1;
#X connect 39 0 4 0;
#X connect 40 0 19 0;
#X coords 0 -1 1 1 180 165 1 20 50;
#X restore 123 5 pd notesetup;
#N canvas 0 0 324 163 infobox 0;
#X text 26 73 designed by ewan hemingway;
#X text 26 87 ewanhemingway.co.uk;
#X obj 20 20 cnv 15 180 20 empty empty info 20 12 1 14 -66577 -262144
0;
#X obj 29 129 s send_osc;
#X msg 29 107 /sys/prefix /accord;
#X text 48 47 set prefix to /accord;
#X obj 29 48 bng 15 250 50 0 empty empty empty 17 7 0 10 -262144 -1
-1;
#X connect 4 0 3 0;
#X connect 6 0 4 0;
#X coords 0 -1 1 1 180 100 1 20 20;
#X restore 308 5 pd infobox;
#N canvas 0 0 363 108 todo 0;
#X obj 20 20 cnv 15 180 20 empty empty todo 20 12 1 14 -66577 -262144
0;
#X text 23 57 * better LEDS;
#X text 23 44 * hex tracker code support;
#X coords 0 -1 1 1 180 60 1 20 20;
#X restore 308 110 pd todo;
#N canvas 0 0 343 208 arpeggios 0;
#X obj 100 100 cnv 15 180 20 empty empty arpeggios 20 12 1 14 -66577
-262144 0;
#X text 108 149 click to edit;
#X text 107 159 chord/arpeggiator scales;
#X coords 0 -1 1 1 180 80 1 100 100;
#X restore -62 165 pd arpeggios;
#N canvas 0 0 318 187 system 0;
#X obj 100 100 cnv 15 180 20 empty empty system 20 12 1 14 -66577 -262144
0;
#X text 105 151 only for when it goes wrong;
#X coords 0 -1 1 1 180 70 1 100 100;
#X restore 307 175 pd system;
