#N canvas 578 588 511 207 10;
#X obj 389 53 inlet;
#X text 387 34 step length;
#X floatatom 389 83 5 1 8 0 - - -;
#X floatatom 17 136 5 0 24 0 - - -;
#X floatatom 63 136 5 0 24 0 - - -;
#X floatatom 110 136 5 0 24 0 - - -;
#X floatatom 296 138 5 0 24 0 - - -;
#X floatatom 249 137 5 0 24 0 - - -;
#X floatatom 203 137 5 0 24 0 - - -;
#X floatatom 156 136 5 0 24 0 - - -;
#X floatatom 342 138 5 0 24 0 - - -;
#X obj 17 170 s \$1-0;
#X obj 63 170 s \$1-1;
#X obj 110 170 s \$1-2;
#X obj 156 170 s \$1-3;
#X obj 203 170 s \$1-4;
#X obj 249 170 s \$1-5;
#X obj 296 170 s \$1-6;
#X obj 342 170 s \$1-7;
#X obj 389 108 s \$1-steplength;
#X obj 17 29 inlet;
#X obj 17 55 unpack 0 0 0 0 0 0 0 0;
#X text 15 7 step input;
#X obj 17 107 +;
#X obj 236 47 r initnote;
#X obj 63 107 +;
#X obj 110 106 +;
#X obj 156 106 +;
#X obj 203 106 +;
#X obj 249 106 +;
#X obj 296 105 +;
#X obj 342 105 +;
#X text 234 30 base midi note;
#X connect 0 0 2 0;
#X connect 2 0 19 0;
#X connect 3 0 11 0;
#X connect 4 0 12 0;
#X connect 5 0 13 0;
#X connect 6 0 17 0;
#X connect 7 0 16 0;
#X connect 8 0 15 0;
#X connect 9 0 14 0;
#X connect 10 0 18 0;
#X connect 20 0 21 0;
#X connect 21 0 23 0;
#X connect 21 1 25 0;
#X connect 21 2 26 0;
#X connect 21 3 27 0;
#X connect 21 4 28 0;
#X connect 21 5 29 0;
#X connect 21 6 30 0;
#X connect 21 7 31 0;
#X connect 23 0 3 0;
#X connect 24 0 23 1;
#X connect 24 0 25 1;
#X connect 24 0 26 1;
#X connect 24 0 27 1;
#X connect 24 0 28 1;
#X connect 24 0 29 1;
#X connect 24 0 30 1;
#X connect 24 0 31 1;
#X connect 25 0 4 0;
#X connect 26 0 5 0;
#X connect 27 0 9 0;
#X connect 28 0 8 0;
#X connect 29 0 7 0;
#X connect 30 0 6 0;
#X connect 31 0 10 0;
