#N canvas 248 156 1300 746 10;
#X obj 841 5 r grid_in;
#X obj -43 563 noteout;
#X obj -43 535 makenote;
#X obj -43 386 spigot;
#X obj 841 26 route \$1;
#X obj 841 47 route \$2;
#X obj -43 -19 r time;
#X obj -43 5 f;
#X obj -10 5 + 1;
#X obj -43 104 hradio 15 1 0 8 empty empty empty 0 -8 0 10 -262144
-1 -1 1;
#X obj -43 134 select 0 1 2 3 4 5 6 7;
#X floatatom -43 209 5 0 0 0 - - -;
#X floatatom -7 210 5 0 0 0 - - -;
#X floatatom 29 211 5 0 0 0 - - -;
#X floatatom 65 211 5 0 0 0 - - -;
#X floatatom 101 212 5 0 0 0 - - -;
#X floatatom 137 212 5 0 0 0 - - -;
#X floatatom 173 212 5 0 0 0 - - -;
#X floatatom 209 212 5 0 0 0 - - -;
#X floatatom -43 257 5 0 0 0 - - -;
#X floatatom -21 513 5 0 0 0 - - -;
#X floatatom 22 515 5 0 0 0 - - -;
#X obj -21 491 r vel;
#X obj 22 491 r dur;
#X obj -43 324 +;
#X obj 110 132 r \$1-0;
#X obj 157 132 r \$1-1;
#X obj 202 133 r \$1-2;
#X obj 246 133 r \$1-3;
#X obj 246 154 r \$1-4;
#X obj 290 154 r \$1-5;
#X obj 334 155 r \$1-6;
#X obj 379 155 r \$1-7;
#X obj -43 56 mod;
#X obj -28 34 r \$1-steplength;
#X obj 728 219 s send_osc;
#X text -25 476 receive velocity and duration;
#X text 57 496 info from main app;
#X obj 83 31 r chordmode;
#X text 22 249 how much the vertical;
#X text 15 260 axis increments;
#X obj 847 431 spigot;
#X obj 761 84 r chordmode;
#X obj -43 80 spigot;
#X obj 23 280 r vinc-\$2;
#X floatatom 23 304 5 0 0 0 - - -;
#X obj 728 199 prepend /accord/led \$1 \$2;
#X text 526 25 if we are in chord mode;
#X text 616 2 ====chord mode====;
#X obj 841 72 select 1;
#X obj 89 315 r grid_in;
#X obj 89 336 route \$1;
#X obj 89 357 route \$2;
#X obj 89 416 select;
#X obj -200 482 spigot;
#X obj 89 396 tgl 15 0 empty empty empty 17 7 0 10 -262144 -1 -1 0
1;
#X obj -200 524 expr pow(2 \, $i1 + $i2);
#X obj -104 478 loadbang;
#X obj 189 446 \$2;
#X obj 189 469 list append 0;
#X obj 189 492 prepend /accord/led_row;
#X obj 189 518 s send_osc;
#X obj -200 588 prepend /accord/led_row \$2;
#X obj -200 622 s send_osc;
#X obj -104 500 \$1;
#X text 188 535 clear any lingering LEDS;
#X text 12 -19 ======arpeggio mode========;
#X floatatom 532 343 5 0 0 0 - - -;
#X floatatom 568 344 5 0 0 0 - - -;
#X floatatom 604 345 5 0 0 0 - - -;
#X floatatom 640 345 5 0 0 0 - - -;
#X floatatom 676 346 5 0 0 0 - - -;
#X floatatom 712 346 5 0 0 0 - - -;
#X floatatom 748 346 5 0 0 0 - - -;
#X floatatom 784 346 5 0 0 0 - - -;
#X obj 499 316 r \$1-0;
#X obj 546 316 r \$1-1;
#X obj 591 317 r \$1-2;
#X obj 635 317 r \$1-3;
#X obj 679 316 r \$1-4;
#X obj 723 316 r \$1-5;
#X obj 767 317 r \$1-6;
#X obj 812 317 r \$1-7;
#X obj 667 417 +;
#X obj 778 369 r vinc-\$2;
#X floatatom 778 393 5 0 0 0 - - -;
#X floatatom 667 441 5 0 0 0 - - -;
#X msg 841 94 1;
#X msg 900 94 0;
#X obj 900 116 t f b f;
#X obj 841 115 t b f f;
#X text 948 111 order changes for;
#X text 948 120 button up/down;
#X obj 605 292 select 0 1 2 3 4 5 6 7;
#X obj 939 330 select 1;
#X obj 847 464 list append;
#X msg 939 356 100;
#X msg 984 386 0;
#X obj 680 251 r \$1-steplength;
#X obj 83 57 == 0;
#X obj 728 158 spigot;
#X obj 728 181 tgl 15 0 empty empty empty 17 7 0 10 -262144 -1 -1 0
1;
#X obj 847 517 noteout;
#X obj 605 271 nicecounter 8;
#X connect 0 0 4 0;
#X connect 2 0 1 0;
#X connect 2 1 1 1;
#X connect 3 0 2 0;
#X connect 4 0 5 0;
#X connect 5 0 49 0;
#X connect 6 0 7 0;
#X connect 7 0 8 0;
#X connect 7 0 33 0;
#X connect 8 0 7 1;
#X connect 9 0 10 0;
#X connect 9 0 54 0;
#X connect 10 0 11 0;
#X connect 10 1 12 0;
#X connect 10 2 13 0;
#X connect 10 3 14 0;
#X connect 10 4 15 0;
#X connect 10 5 16 0;
#X connect 10 6 17 0;
#X connect 10 7 18 0;
#X connect 11 0 19 0;
#X connect 12 0 19 0;
#X connect 13 0 19 0;
#X connect 14 0 19 0;
#X connect 15 0 19 0;
#X connect 16 0 19 0;
#X connect 17 0 19 0;
#X connect 18 0 19 0;
#X connect 19 0 24 0;
#X connect 20 0 2 1;
#X connect 21 0 2 2;
#X connect 22 0 20 0;
#X connect 23 0 21 0;
#X connect 24 0 3 0;
#X connect 25 0 11 0;
#X connect 26 0 12 0;
#X connect 27 0 13 0;
#X connect 28 0 14 0;
#X connect 29 0 15 0;
#X connect 30 0 16 0;
#X connect 31 0 17 0;
#X connect 32 0 18 0;
#X connect 33 0 43 0;
#X connect 34 0 33 1;
#X connect 38 0 99 0;
#X connect 41 0 95 0;
#X connect 42 0 100 1;
#X connect 43 0 9 0;
#X connect 44 0 45 0;
#X connect 45 0 24 1;
#X connect 46 0 35 0;
#X connect 49 0 87 0;
#X connect 49 1 88 0;
#X connect 50 0 51 0;
#X connect 51 0 52 0;
#X connect 52 0 3 1;
#X connect 52 0 54 1;
#X connect 52 0 55 0;
#X connect 53 0 58 0;
#X connect 54 0 56 0;
#X connect 55 0 53 0;
#X connect 56 0 62 0;
#X connect 57 0 64 0;
#X connect 58 0 59 0;
#X connect 59 0 60 0;
#X connect 60 0 61 0;
#X connect 62 0 63 0;
#X connect 64 0 56 1;
#X connect 67 0 83 0;
#X connect 68 0 83 0;
#X connect 69 0 83 0;
#X connect 70 0 83 0;
#X connect 71 0 83 0;
#X connect 72 0 83 0;
#X connect 73 0 83 0;
#X connect 74 0 83 0;
#X connect 75 0 67 0;
#X connect 76 0 68 0;
#X connect 77 0 69 0;
#X connect 78 0 70 0;
#X connect 79 0 71 0;
#X connect 80 0 72 0;
#X connect 81 0 73 0;
#X connect 82 0 74 0;
#X connect 83 0 86 0;
#X connect 84 0 85 0;
#X connect 85 0 83 1;
#X connect 86 0 95 0;
#X connect 87 0 90 0;
#X connect 88 0 89 0;
#X connect 89 0 41 1;
#X connect 89 1 100 0;
#X connect 89 2 94 0;
#X connect 90 0 100 0;
#X connect 90 1 94 0;
#X connect 90 2 41 1;
#X connect 93 0 67 0;
#X connect 93 1 68 0;
#X connect 93 2 69 0;
#X connect 93 3 70 0;
#X connect 93 4 71 0;
#X connect 93 5 72 0;
#X connect 93 6 73 0;
#X connect 93 7 74 0;
#X connect 94 0 96 0;
#X connect 94 1 97 0;
#X connect 95 0 102 0;
#X connect 96 0 95 1;
#X connect 97 0 95 1;
#X connect 98 0 103 1;
#X connect 99 0 43 1;
#X connect 100 0 101 0;
#X connect 100 0 103 0;
#X connect 101 0 46 0;
#X connect 103 0 93 0;
