#N canvas 396 456 295 212 10;
#X obj 151 28 inlet;
#X obj 17 26 inlet;
#X text 16 9 bang in;
#X text 150 8 count to this;
#X obj 100 128 f;
#X obj 142 128 + 1;
#X msg 44 107 0;
#X obj 17 53 t b b;
#X obj 100 89 repeat \$1;
#X obj 100 176 outlet;
#X obj 151 58 - 1;
#X text 182 54 zero indexed;
#X text 181 62 counting;
#X connect 0 0 10 0;
#X connect 1 0 7 0;
#X connect 4 0 5 0;
#X connect 4 0 9 0;
#X connect 5 0 4 1;
#X connect 6 0 4 0;
#X connect 7 0 8 0;
#X connect 7 1 6 0;
#X connect 8 0 4 0;
#X connect 10 0 8 1;
