#N canvas 315 169 617 346 10;
#X obj 18 11 puma.connect;
#N canvas 179 163 835 578 button_to_array 0;
#X obj 223 -177 unpack f f f;
#X floatatom 257 -150 3 0 0 0 - - -;
#X floatatom 292 -150 3 0 0 0 - - -;
#X obj 257 -70 sel 0 1 2 3 4 5 6 7;
#X obj 315 12 spigot;
#X obj 315 40 bng 15 250 50 0 empty empty empty 17 7 0 10 -262144 -1
-1;
#X obj 358 12 spigot;
#X obj 358 40 bng 15 250 50 0 empty empty empty 17 7 0 10 -262144 -1
-1;
#X obj 401 12 spigot;
#X obj 444 12 spigot;
#X obj 488 12 spigot;
#X obj 531 12 spigot;
#X obj 574 12 spigot;
#X obj 617 12 spigot;
#X obj 401 40 bng 15 250 50 0 empty empty empty 17 7 0 10 -262144 -1
-1;
#X obj 444 40 bng 15 250 50 0 empty empty empty 17 7 0 10 -262144 -1
-1;
#X obj 488 40 bng 15 250 50 0 empty empty empty 17 7 0 10 -262144 -1
-1;
#X obj 531 40 bng 15 250 50 0 empty empty empty 17 7 0 10 -262144 -1
-1;
#X obj 574 40 bng 15 250 50 0 empty empty empty 17 7 0 10 -262144 -1
-1;
#X obj 617 40 bng 15 250 50 0 empty empty empty 17 7 0 10 -262144 -1
-1;
#X obj 223 -210 r monome.press;
#X obj 315 108 send arrayval;
#X msg 358 63 0.75;
#X msg 401 63 0.5;
#X msg 444 63 0.25;
#X msg 488 63 -0.25;
#X msg 531 62 -0.5;
#X msg 574 62 -0.75;
#X obj 93 -41 unpack f f f;
#X floatatom 93 -17 3 0 0 0 - - -;
#X obj 93 -61 r monome.press;
#X obj 18 37 tabwrite wave;
#X obj 18 -59 r arrayval;
#X text 316 -211 receives button presses;
#X text 307 -178 unpacks button presses;
#X text 649 37 selects array value;
#X text 116 -18 selects array index;
#N canvas 1 51 735 481 (subpatch) 0;
#X array wave 11 float 3;
#A 0 0.5 0.75 0.75 0.5 -0.5 -0.75 -0.75 -0.5 0.5 0.75 0.75;
#X coords 0 1 11 -1 200 140 1;
#X restore 14 -210 graph;
#X msg 315 63 1;
#X msg 617 61 -1;
#X obj 93 86 unpack f f f;
#X floatatom 93 110 3 0 0 0 - - -;
#X obj 93 66 r monome.press;
#X obj 18 354 tabwrite wave;
#X obj 18 68 r arrayval;
#X floatatom 93 163 5 0 0 0 - - -;
#X floatatom 93 214 5 0 0 0 - - -;
#X floatatom 150 214 5 0 0 0 - - -;
#X obj 93 136 + 8;
#X obj 93 190 split 8 10;
#X obj 18 300 spigot;
#X msg 51 253 1;
#X msg 150 241 0;
#X text 186 216 For wraparound to work smoothly \, you should make
the last three points copies of the first three. This is done because
tabread4~ does 4-point interpolation.;
#X text 122 136 offset;
#X connect 0 1 1 0;
#X connect 0 2 2 0;
#X connect 1 0 3 0;
#X connect 2 0 4 1;
#X connect 2 0 6 1;
#X connect 2 0 8 1;
#X connect 2 0 9 1;
#X connect 2 0 10 1;
#X connect 2 0 11 1;
#X connect 2 0 12 1;
#X connect 2 0 13 1;
#X connect 3 0 4 0;
#X connect 3 1 6 0;
#X connect 3 2 8 0;
#X connect 3 3 9 0;
#X connect 3 4 10 0;
#X connect 3 5 11 0;
#X connect 3 6 12 0;
#X connect 3 7 13 0;
#X connect 4 0 5 0;
#X connect 5 0 38 0;
#X connect 6 0 7 0;
#X connect 7 0 22 0;
#X connect 8 0 14 0;
#X connect 9 0 15 0;
#X connect 10 0 16 0;
#X connect 11 0 17 0;
#X connect 12 0 18 0;
#X connect 13 0 19 0;
#X connect 14 0 23 0;
#X connect 15 0 24 0;
#X connect 16 0 25 0;
#X connect 17 0 26 0;
#X connect 18 0 27 0;
#X connect 19 0 39 0;
#X connect 20 0 0 0;
#X connect 22 0 21 0;
#X connect 23 0 21 0;
#X connect 24 0 21 0;
#X connect 25 0 21 0;
#X connect 26 0 21 0;
#X connect 27 0 21 0;
#X connect 28 0 29 0;
#X connect 29 0 31 1;
#X connect 30 0 28 0;
#X connect 32 0 31 0;
#X connect 38 0 21 0;
#X connect 39 0 21 0;
#X connect 40 0 41 0;
#X connect 41 0 48 0;
#X connect 42 0 40 0;
#X connect 44 0 50 0;
#X connect 45 0 49 0;
#X connect 46 0 43 1;
#X connect 46 0 51 0;
#X connect 47 0 52 0;
#X connect 48 0 45 0;
#X connect 49 0 46 0;
#X connect 49 1 47 0;
#X connect 50 0 43 0;
#X connect 51 0 50 1;
#X connect 52 0 50 1;
#X restore 269 46 pd button_to_array;
#N canvas 15 429 755 269 (subpatch) 0;
#N canvas 497 364 450 300 (subpatch) 0;
#X obj 5 -62 select 0 1 2 3 4 5 6 7;
#X obj 5 -83 r buttons;
#X obj 3 2 bng 20 250 50 0 empty empty empty 17 7 0 10 -262144 -1 -1
;
#X obj 33 2 bng 20 250 50 0 empty empty empty 17 7 0 10 -262144 -1
-1;
#X obj 63 2 bng 20 250 50 0 empty empty empty 17 7 0 10 -262144 -1
-1;
#X obj 93 2 bng 20 250 50 0 empty empty empty 17 7 0 10 -262144 -1
-1;
#X obj 123 2 bng 20 250 50 0 empty empty empty 17 7 0 10 -262144 -1
-1;
#X obj 153 2 bng 20 250 50 0 empty empty empty 17 7 0 10 -262144 -1
-1;
#X obj 183 2 bng 20 250 50 0 empty empty empty 17 7 0 10 -262144 -1
-1;
#X obj 213 2 bng 20 250 50 0 empty empty empty 17 7 0 10 -262144 -1
-1;
#X msg 3 34 4;
#X obj 3 68 s 0_up;
#X obj 17 122 s 0_dn;
#X msg 17 97 0;
#X msg 53 34 4;
#X msg 67 97 0;
#X msg 101 34 4;
#X msg 115 97 0;
#X msg 151 34 4;
#X msg 165 97 0;
#X msg 201 34 4;
#X msg 215 97 0;
#X msg 251 34 4;
#X msg 265 97 0;
#X msg 299 34 4;
#X msg 313 97 0;
#X msg 349 34 4;
#X msg 363 97 0;
#X obj 53 68 s 1_up;
#X obj 67 122 s 1_dn;
#X obj 101 68 s 2_up;
#X obj 151 68 s 3_up;
#X obj 201 68 s 4_up;
#X obj 251 68 s 5_up;
#X obj 299 68 s 6_up;
#X obj 349 68 s 7_up;
#X obj 115 122 s 2_dn;
#X obj 165 122 s 3_dn;
#X obj 215 122 s 4_dn;
#X obj 265 122 s 5_dn;
#X obj 313 122 s 6_dn;
#X obj 363 122 s 7_dn;
#X connect 0 0 2 0;
#X connect 0 1 3 0;
#X connect 0 2 4 0;
#X connect 0 3 5 0;
#X connect 0 4 6 0;
#X connect 0 5 7 0;
#X connect 0 6 8 0;
#X connect 0 7 9 0;
#X connect 1 0 0 0;
#X connect 2 0 10 0;
#X connect 2 0 13 0;
#X connect 3 0 14 0;
#X connect 3 0 15 0;
#X connect 4 0 16 0;
#X connect 4 0 17 0;
#X connect 5 0 18 0;
#X connect 5 0 19 0;
#X connect 6 0 20 0;
#X connect 6 0 21 0;
#X connect 7 0 22 0;
#X connect 7 0 23 0;
#X connect 8 0 24 0;
#X connect 8 0 25 0;
#X connect 9 0 26 0;
#X connect 9 0 27 0;
#X connect 10 0 11 0;
#X connect 13 0 12 0;
#X connect 14 0 28 0;
#X connect 15 0 29 0;
#X connect 16 0 30 0;
#X connect 17 0 36 0;
#X connect 18 0 31 0;
#X connect 19 0 37 0;
#X connect 20 0 32 0;
#X connect 21 0 38 0;
#X connect 22 0 33 0;
#X connect 23 0 39 0;
#X connect 24 0 34 0;
#X connect 25 0 40 0;
#X connect 26 0 35 0;
#X connect 27 0 41 0;
#X coords 0 1 100 -1 236 24 1 0 0;
#X restore 4 2 graph;
#N canvas 7 213 450 300 (subpatch) 0;
#X obj 3 -62 select 8 9 10 11 12 13 14 15;
#X obj 3 -83 r buttons;
#X obj 3 2 bng 20 250 50 0 empty empty empty 17 7 0 10 -262144 -1 -1
;
#X obj 33 2 bng 20 250 50 0 empty empty empty 17 7 0 10 -262144 -1
-1;
#X obj 63 2 bng 20 250 50 0 empty empty empty 17 7 0 10 -262144 -1
-1;
#X obj 93 2 bng 20 250 50 0 empty empty empty 17 7 0 10 -262144 -1
-1;
#X obj 123 2 bng 20 250 50 0 empty empty empty 17 7 0 10 -262144 -1
-1;
#X obj 153 2 bng 20 250 50 0 empty empty empty 17 7 0 10 -262144 -1
-1;
#X obj 183 2 bng 20 250 50 0 empty empty empty 17 7 0 10 -262144 -1
-1;
#X obj 213 2 bng 20 250 50 0 empty empty empty 17 7 0 10 -262144 -1
-1;
#X obj 3 68 s 0_up;
#X obj 17 122 s 0_dn;
#X msg 17 97 0;
#X msg 67 97 0;
#X msg 115 97 0;
#X msg 165 97 0;
#X msg 215 97 0;
#X msg 265 97 0;
#X msg 313 97 0;
#X msg 363 97 0;
#X obj 53 68 s 1_up;
#X obj 67 122 s 1_dn;
#X obj 101 68 s 2_up;
#X obj 151 68 s 3_up;
#X obj 201 68 s 4_up;
#X obj 251 68 s 5_up;
#X obj 299 68 s 6_up;
#X obj 349 68 s 7_up;
#X obj 115 122 s 2_dn;
#X obj 165 122 s 3_dn;
#X obj 215 122 s 4_dn;
#X obj 265 122 s 5_dn;
#X obj 313 122 s 6_dn;
#X obj 363 122 s 7_dn;
#X msg 3 34 3;
#X msg 53 34 3;
#X msg 101 34 3;
#X msg 151 34 3;
#X msg 201 34 3;
#X msg 251 34 3;
#X msg 299 34 3;
#X msg 349 34 3;
#X connect 0 0 2 0;
#X connect 0 1 3 0;
#X connect 0 2 4 0;
#X connect 0 3 5 0;
#X connect 0 4 6 0;
#X connect 0 5 7 0;
#X connect 0 6 8 0;
#X connect 0 7 9 0;
#X connect 1 0 0 0;
#X connect 2 0 34 0;
#X connect 2 0 12 0;
#X connect 3 0 35 0;
#X connect 3 0 13 0;
#X connect 4 0 36 0;
#X connect 4 0 14 0;
#X connect 5 0 37 0;
#X connect 5 0 15 0;
#X connect 6 0 38 0;
#X connect 6 0 16 0;
#X connect 7 0 39 0;
#X connect 7 0 17 0;
#X connect 8 0 40 0;
#X connect 8 0 18 0;
#X connect 9 0 41 0;
#X connect 9 0 19 0;
#X connect 12 0 11 0;
#X connect 13 0 21 0;
#X connect 14 0 28 0;
#X connect 15 0 29 0;
#X connect 16 0 30 0;
#X connect 17 0 31 0;
#X connect 18 0 32 0;
#X connect 19 0 33 0;
#X connect 34 0 10 0;
#X connect 35 0 20 0;
#X connect 36 0 22 0;
#X connect 37 0 23 0;
#X connect 38 0 24 0;
#X connect 39 0 25 0;
#X connect 40 0 26 0;
#X connect 41 0 27 0;
#X coords 0 1 100 -1 236 24 1 0 0;
#X restore 4 34 graph;
#N canvas 440 267 450 300 (subpatch) 0;
#X obj 3 -62 select 16 17 18 19 20 21 22 23;
#X obj 3 -83 r buttons;
#X obj 3 2 bng 20 250 50 0 empty empty empty 17 7 0 10 -262144 -1 -1
;
#X obj 33 2 bng 20 250 50 0 empty empty empty 17 7 0 10 -262144 -1
-1;
#X obj 63 2 bng 20 250 50 0 empty empty empty 17 7 0 10 -262144 -1
-1;
#X obj 93 2 bng 20 250 50 0 empty empty empty 17 7 0 10 -262144 -1
-1;
#X obj 123 2 bng 20 250 50 0 empty empty empty 17 7 0 10 -262144 -1
-1;
#X obj 153 2 bng 20 250 50 0 empty empty empty 17 7 0 10 -262144 -1
-1;
#X obj 183 2 bng 20 250 50 0 empty empty empty 17 7 0 10 -262144 -1
-1;
#X obj 213 2 bng 20 250 50 0 empty empty empty 17 7 0 10 -262144 -1
-1;
#X obj 3 68 s 0_up;
#X obj 17 122 s 0_dn;
#X msg 17 97 0;
#X msg 67 97 0;
#X msg 115 97 0;
#X msg 165 97 0;
#X msg 215 97 0;
#X msg 265 97 0;
#X msg 313 97 0;
#X msg 363 97 0;
#X obj 53 68 s 1_up;
#X obj 67 122 s 1_dn;
#X obj 101 68 s 2_up;
#X obj 151 68 s 3_up;
#X obj 201 68 s 4_up;
#X obj 251 68 s 5_up;
#X obj 299 68 s 6_up;
#X obj 349 68 s 7_up;
#X obj 115 122 s 2_dn;
#X obj 165 122 s 3_dn;
#X obj 215 122 s 4_dn;
#X obj 265 122 s 5_dn;
#X obj 313 122 s 6_dn;
#X obj 363 122 s 7_dn;
#X msg 3 34 2;
#X msg 53 34 2;
#X msg 101 34 2;
#X msg 151 34 2;
#X msg 201 34 2;
#X msg 251 34 2;
#X msg 299 34 2;
#X msg 349 34 2;
#X connect 0 0 2 0;
#X connect 0 1 3 0;
#X connect 0 2 4 0;
#X connect 0 3 5 0;
#X connect 0 4 6 0;
#X connect 0 5 7 0;
#X connect 0 6 8 0;
#X connect 0 7 9 0;
#X connect 1 0 0 0;
#X connect 2 0 34 0;
#X connect 2 0 12 0;
#X connect 3 0 35 0;
#X connect 3 0 13 0;
#X connect 4 0 36 0;
#X connect 4 0 14 0;
#X connect 5 0 37 0;
#X connect 5 0 15 0;
#X connect 6 0 38 0;
#X connect 6 0 16 0;
#X connect 7 0 39 0;
#X connect 7 0 17 0;
#X connect 8 0 40 0;
#X connect 8 0 18 0;
#X connect 9 0 41 0;
#X connect 9 0 19 0;
#X connect 12 0 11 0;
#X connect 13 0 21 0;
#X connect 14 0 28 0;
#X connect 15 0 29 0;
#X connect 16 0 30 0;
#X connect 17 0 31 0;
#X connect 18 0 32 0;
#X connect 19 0 33 0;
#X connect 34 0 10 0;
#X connect 35 0 20 0;
#X connect 36 0 22 0;
#X connect 37 0 23 0;
#X connect 38 0 24 0;
#X connect 39 0 25 0;
#X connect 40 0 26 0;
#X connect 41 0 27 0;
#X coords 0 1 100 -1 236 24 1 0 0;
#X restore 4 65 graph;
#N canvas 4 132 450 300 (subpatch) 0;
#X obj 3 -62 select 24 25 26 27 28 29 30 31;
#X obj 3 -83 r buttons;
#X obj 3 2 bng 20 250 50 0 empty empty empty 17 7 0 10 -262144 -1 -1
;
#X obj 33 2 bng 20 250 50 0 empty empty empty 17 7 0 10 -262144 -1
-1;
#X obj 63 2 bng 20 250 50 0 empty empty empty 17 7 0 10 -262144 -1
-1;
#X obj 93 2 bng 20 250 50 0 empty empty empty 17 7 0 10 -262144 -1
-1;
#X obj 123 2 bng 20 250 50 0 empty empty empty 17 7 0 10 -262144 -1
-1;
#X obj 153 2 bng 20 250 50 0 empty empty empty 17 7 0 10 -262144 -1
-1;
#X obj 183 2 bng 20 250 50 0 empty empty empty 17 7 0 10 -262144 -1
-1;
#X obj 213 2 bng 20 250 50 0 empty empty empty 17 7 0 10 -262144 -1
-1;
#X obj 3 68 s 0_up;
#X obj 17 122 s 0_dn;
#X msg 17 97 0;
#X msg 67 97 0;
#X msg 115 97 0;
#X msg 165 97 0;
#X msg 215 97 0;
#X msg 265 97 0;
#X msg 313 97 0;
#X msg 363 97 0;
#X obj 53 68 s 1_up;
#X obj 67 122 s 1_dn;
#X obj 101 68 s 2_up;
#X obj 151 68 s 3_up;
#X obj 201 68 s 4_up;
#X obj 251 68 s 5_up;
#X obj 299 68 s 6_up;
#X obj 349 68 s 7_up;
#X obj 115 122 s 2_dn;
#X obj 165 122 s 3_dn;
#X obj 215 122 s 4_dn;
#X obj 265 122 s 5_dn;
#X obj 313 122 s 6_dn;
#X obj 363 122 s 7_dn;
#X msg 3 34 1;
#X msg 53 34 1;
#X msg 101 34 1;
#X msg 151 34 1;
#X msg 201 34 1;
#X msg 251 34 1;
#X msg 299 34 1;
#X msg 349 34 1;
#X connect 0 0 2 0;
#X connect 0 1 3 0;
#X connect 0 2 4 0;
#X connect 0 3 5 0;
#X connect 0 4 6 0;
#X connect 0 5 7 0;
#X connect 0 6 8 0;
#X connect 0 7 9 0;
#X connect 1 0 0 0;
#X connect 2 0 34 0;
#X connect 2 0 12 0;
#X connect 3 0 35 0;
#X connect 3 0 13 0;
#X connect 4 0 36 0;
#X connect 4 0 14 0;
#X connect 5 0 37 0;
#X connect 5 0 15 0;
#X connect 6 0 38 0;
#X connect 6 0 16 0;
#X connect 7 0 39 0;
#X connect 7 0 17 0;
#X connect 8 0 40 0;
#X connect 8 0 18 0;
#X connect 9 0 41 0;
#X connect 9 0 19 0;
#X connect 12 0 11 0;
#X connect 13 0 21 0;
#X connect 14 0 28 0;
#X connect 15 0 29 0;
#X connect 16 0 30 0;
#X connect 17 0 31 0;
#X connect 18 0 32 0;
#X connect 19 0 33 0;
#X connect 34 0 10 0;
#X connect 35 0 20 0;
#X connect 36 0 22 0;
#X connect 37 0 23 0;
#X connect 38 0 24 0;
#X connect 39 0 25 0;
#X connect 40 0 26 0;
#X connect 41 0 27 0;
#X coords 0 1 100 -1 236 24 1 0 0;
#X restore 4 98 graph;
#N canvas 5 159 450 300 (subpatch) 0;
#X obj 3 -62 select 32 33 34 35 36 37 38 39;
#X obj 3 -83 r buttons;
#X obj 3 2 bng 20 250 50 0 empty empty empty 17 7 0 10 -262144 -1 -1
;
#X obj 33 2 bng 20 250 50 0 empty empty empty 17 7 0 10 -262144 -1
-1;
#X obj 63 2 bng 20 250 50 0 empty empty empty 17 7 0 10 -262144 -1
-1;
#X obj 93 2 bng 20 250 50 0 empty empty empty 17 7 0 10 -262144 -1
-1;
#X obj 123 2 bng 20 250 50 0 empty empty empty 17 7 0 10 -262144 -1
-1;
#X obj 153 2 bng 20 250 50 0 empty empty empty 17 7 0 10 -262144 -1
-1;
#X obj 183 2 bng 20 250 50 0 empty empty empty 17 7 0 10 -262144 -1
-1;
#X obj 213 2 bng 20 250 50 0 empty empty empty 17 7 0 10 -262144 -1
-1;
#X obj 3 68 s 0_up;
#X obj 17 122 s 0_dn;
#X obj 53 68 s 1_up;
#X obj 67 122 s 1_dn;
#X obj 101 68 s 2_up;
#X obj 151 68 s 3_up;
#X obj 201 68 s 4_up;
#X obj 251 68 s 5_up;
#X obj 299 68 s 6_up;
#X obj 349 68 s 7_up;
#X obj 115 122 s 2_dn;
#X obj 165 122 s 3_dn;
#X obj 215 122 s 4_dn;
#X obj 265 122 s 5_dn;
#X obj 313 122 s 6_dn;
#X obj 363 122 s 7_dn;
#X msg 67 97 1;
#X msg 17 97 1;
#X msg 115 97 1;
#X msg 165 97 1;
#X msg 215 97 1;
#X msg 265 97 1;
#X msg 313 97 1;
#X msg 363 97 1;
#X msg 299 34 0;
#X msg 349 34 0;
#X msg 251 34 0;
#X msg 201 34 0;
#X msg 151 34 0;
#X msg 101 34 0;
#X msg 53 34 0;
#X msg 3 34 0;
#X connect 0 0 2 0;
#X connect 0 1 3 0;
#X connect 0 2 4 0;
#X connect 0 3 5 0;
#X connect 0 4 6 0;
#X connect 0 5 7 0;
#X connect 0 6 8 0;
#X connect 0 7 9 0;
#X connect 1 0 0 0;
#X connect 2 0 41 0;
#X connect 2 0 27 0;
#X connect 3 0 40 0;
#X connect 3 0 26 0;
#X connect 4 0 39 0;
#X connect 4 0 28 0;
#X connect 5 0 38 0;
#X connect 5 0 29 0;
#X connect 6 0 37 0;
#X connect 6 0 30 0;
#X connect 7 0 36 0;
#X connect 7 0 31 0;
#X connect 8 0 34 0;
#X connect 8 0 32 0;
#X connect 9 0 35 0;
#X connect 9 0 33 0;
#X connect 26 0 13 0;
#X connect 27 0 11 0;
#X connect 28 0 20 0;
#X connect 29 0 21 0;
#X connect 30 0 22 0;
#X connect 31 0 23 0;
#X connect 32 0 24 0;
#X connect 33 0 25 0;
#X connect 34 0 18 0;
#X connect 35 0 19 0;
#X connect 36 0 17 0;
#X connect 37 0 16 0;
#X connect 38 0 15 0;
#X connect 39 0 14 0;
#X connect 40 0 12 0;
#X connect 41 0 10 0;
#X coords 0 1 100 -1 236 24 1 0 0;
#X restore 4 132 graph;
#N canvas 5 159 450 300 (subpatch) 0;
#X obj 3 -62 select 40 41 42 43 44 45 46 47;
#X obj 3 -83 r buttons;
#X obj 3 2 bng 20 250 50 0 empty empty empty 17 7 0 10 -262144 -1 -1
;
#X obj 33 2 bng 20 250 50 0 empty empty empty 17 7 0 10 -262144 -1
-1;
#X obj 63 2 bng 20 250 50 0 empty empty empty 17 7 0 10 -262144 -1
-1;
#X obj 93 2 bng 20 250 50 0 empty empty empty 17 7 0 10 -262144 -1
-1;
#X obj 123 2 bng 20 250 50 0 empty empty empty 17 7 0 10 -262144 -1
-1;
#X obj 153 2 bng 20 250 50 0 empty empty empty 17 7 0 10 -262144 -1
-1;
#X obj 183 2 bng 20 250 50 0 empty empty empty 17 7 0 10 -262144 -1
-1;
#X obj 213 2 bng 20 250 50 0 empty empty empty 17 7 0 10 -262144 -1
-1;
#X obj 3 68 s 0_up;
#X obj 17 122 s 0_dn;
#X obj 53 68 s 1_up;
#X obj 67 122 s 1_dn;
#X obj 101 68 s 2_up;
#X obj 151 68 s 3_up;
#X obj 201 68 s 4_up;
#X obj 251 68 s 5_up;
#X obj 299 68 s 6_up;
#X obj 349 68 s 7_up;
#X obj 115 122 s 2_dn;
#X obj 165 122 s 3_dn;
#X obj 215 122 s 4_dn;
#X obj 265 122 s 5_dn;
#X obj 313 122 s 6_dn;
#X obj 363 122 s 7_dn;
#X msg 299 34 0;
#X msg 349 34 0;
#X msg 251 34 0;
#X msg 201 34 0;
#X msg 151 34 0;
#X msg 101 34 0;
#X msg 53 34 0;
#X msg 3 34 0;
#X msg 17 97 2;
#X msg 67 97 2;
#X msg 115 97 2;
#X msg 165 97 2;
#X msg 215 97 2;
#X msg 265 97 2;
#X msg 313 97 2;
#X msg 363 97 2;
#X connect 0 0 2 0;
#X connect 0 1 3 0;
#X connect 0 2 4 0;
#X connect 0 3 5 0;
#X connect 0 4 6 0;
#X connect 0 5 7 0;
#X connect 0 6 8 0;
#X connect 0 7 9 0;
#X connect 1 0 0 0;
#X connect 2 0 33 0;
#X connect 2 0 34 0;
#X connect 3 0 32 0;
#X connect 3 0 35 0;
#X connect 4 0 31 0;
#X connect 4 0 36 0;
#X connect 5 0 30 0;
#X connect 5 0 37 0;
#X connect 6 0 29 0;
#X connect 6 0 38 0;
#X connect 7 0 28 0;
#X connect 7 0 39 0;
#X connect 8 0 26 0;
#X connect 8 0 40 0;
#X connect 9 0 27 0;
#X connect 9 0 41 0;
#X connect 26 0 18 0;
#X connect 27 0 19 0;
#X connect 28 0 17 0;
#X connect 29 0 16 0;
#X connect 30 0 15 0;
#X connect 31 0 14 0;
#X connect 32 0 12 0;
#X connect 33 0 10 0;
#X connect 34 0 11 0;
#X connect 35 0 13 0;
#X connect 36 0 20 0;
#X connect 37 0 21 0;
#X connect 38 0 22 0;
#X connect 39 0 23 0;
#X connect 40 0 24 0;
#X connect 41 0 25 0;
#X coords 0 1 100 -1 236 24 2 0 0;
#X restore 4 163 graph;
#N canvas 4 132 450 300 (subpatch) 0;
#X obj 3 -62 select 48 49 50 51 52 53 54 55;
#X obj 3 -83 r buttons;
#X obj 3 2 bng 20 250 50 0 empty empty empty 17 7 0 10 -262144 -1 -1
;
#X obj 33 2 bng 20 250 50 0 empty empty empty 17 7 0 10 -262144 -1
-1;
#X obj 63 2 bng 20 250 50 0 empty empty empty 17 7 0 10 -262144 -1
-1;
#X obj 93 2 bng 20 250 50 0 empty empty empty 17 7 0 10 -262144 -1
-1;
#X obj 123 2 bng 20 250 50 0 empty empty empty 17 7 0 10 -262144 -1
-1;
#X obj 153 2 bng 20 250 50 0 empty empty empty 17 7 0 10 -262144 -1
-1;
#X obj 183 2 bng 20 250 50 0 empty empty empty 17 7 0 10 -262144 -1
-1;
#X obj 213 2 bng 20 250 50 0 empty empty empty 17 7 0 10 -262144 -1
-1;
#X obj 3 68 s 0_up;
#X obj 17 122 s 0_dn;
#X obj 53 68 s 1_up;
#X obj 67 122 s 1_dn;
#X obj 101 68 s 2_up;
#X obj 151 68 s 3_up;
#X obj 201 68 s 4_up;
#X obj 251 68 s 5_up;
#X obj 299 68 s 6_up;
#X obj 349 68 s 7_up;
#X obj 115 122 s 2_dn;
#X obj 165 122 s 3_dn;
#X obj 215 122 s 4_dn;
#X obj 265 122 s 5_dn;
#X obj 313 122 s 6_dn;
#X obj 363 122 s 7_dn;
#X msg 299 34 0;
#X msg 349 34 0;
#X msg 251 34 0;
#X msg 201 34 0;
#X msg 151 34 0;
#X msg 101 34 0;
#X msg 53 34 0;
#X msg 3 34 0;
#X msg 17 97 3;
#X msg 67 97 3;
#X msg 115 97 3;
#X msg 165 97 3;
#X msg 215 97 3;
#X msg 265 97 3;
#X msg 313 97 3;
#X msg 363 97 3;
#X connect 0 0 2 0;
#X connect 0 1 3 0;
#X connect 0 2 4 0;
#X connect 0 3 5 0;
#X connect 0 4 6 0;
#X connect 0 5 7 0;
#X connect 0 6 8 0;
#X connect 0 7 9 0;
#X connect 1 0 0 0;
#X connect 2 0 33 0;
#X connect 2 0 34 0;
#X connect 3 0 32 0;
#X connect 3 0 35 0;
#X connect 4 0 31 0;
#X connect 4 0 36 0;
#X connect 5 0 30 0;
#X connect 5 0 37 0;
#X connect 6 0 29 0;
#X connect 6 0 38 0;
#X connect 7 0 28 0;
#X connect 7 0 39 0;
#X connect 8 0 26 0;
#X connect 8 0 40 0;
#X connect 9 0 27 0;
#X connect 9 0 41 0;
#X connect 26 0 18 0;
#X connect 27 0 19 0;
#X connect 28 0 17 0;
#X connect 29 0 16 0;
#X connect 30 0 15 0;
#X connect 31 0 14 0;
#X connect 32 0 12 0;
#X connect 33 0 10 0;
#X connect 34 0 11 0;
#X connect 35 0 13 0;
#X connect 36 0 20 0;
#X connect 37 0 21 0;
#X connect 38 0 22 0;
#X connect 39 0 23 0;
#X connect 40 0 24 0;
#X connect 41 0 25 0;
#X coords 0 1 100 -1 236 24 1 0 0;
#X restore 4 193 graph;
#N canvas 4 132 450 300 (subpatch) 0;
#X obj 3 -62 select 56 57 58 59 60 61 62 63;
#X obj 3 -83 r buttons;
#X obj 3 2 bng 20 250 50 0 empty empty empty 17 7 0 10 -262144 -1 -1
;
#X obj 33 2 bng 20 250 50 0 empty empty empty 17 7 0 10 -262144 -1
-1;
#X obj 63 2 bng 20 250 50 0 empty empty empty 17 7 0 10 -262144 -1
-1;
#X obj 93 2 bng 20 250 50 0 empty empty empty 17 7 0 10 -262144 -1
-1;
#X obj 123 2 bng 20 250 50 0 empty empty empty 17 7 0 10 -262144 -1
-1;
#X obj 153 2 bng 20 250 50 0 empty empty empty 17 7 0 10 -262144 -1
-1;
#X obj 183 2 bng 20 250 50 0 empty empty empty 17 7 0 10 -262144 -1
-1;
#X obj 213 2 bng 20 250 50 0 empty empty empty 17 7 0 10 -262144 -1
-1;
#X obj 3 68 s 0_up;
#X obj 17 122 s 0_dn;
#X obj 53 68 s 1_up;
#X obj 67 122 s 1_dn;
#X obj 101 68 s 2_up;
#X obj 151 68 s 3_up;
#X obj 201 68 s 4_up;
#X obj 251 68 s 5_up;
#X obj 299 68 s 6_up;
#X obj 349 68 s 7_up;
#X obj 115 122 s 2_dn;
#X obj 165 122 s 3_dn;
#X obj 215 122 s 4_dn;
#X obj 265 122 s 5_dn;
#X obj 313 122 s 6_dn;
#X obj 363 122 s 7_dn;
#X msg 299 34 0;
#X msg 349 34 0;
#X msg 251 34 0;
#X msg 201 34 0;
#X msg 151 34 0;
#X msg 101 34 0;
#X msg 53 34 0;
#X msg 3 34 0;
#X msg 17 97 4;
#X msg 67 97 4;
#X msg 115 97 4;
#X msg 165 97 4;
#X msg 215 97 4;
#X msg 265 97 4;
#X msg 313 97 4;
#X msg 363 97 4;
#X connect 0 0 2 0;
#X connect 0 1 3 0;
#X connect 0 2 4 0;
#X connect 0 3 5 0;
#X connect 0 4 6 0;
#X connect 0 5 7 0;
#X connect 0 6 8 0;
#X connect 0 7 9 0;
#X connect 1 0 0 0;
#X connect 2 0 33 0;
#X connect 2 0 34 0;
#X connect 3 0 32 0;
#X connect 3 0 35 0;
#X connect 4 0 31 0;
#X connect 4 0 36 0;
#X connect 5 0 30 0;
#X connect 5 0 37 0;
#X connect 6 0 29 0;
#X connect 6 0 38 0;
#X connect 7 0 28 0;
#X connect 7 0 39 0;
#X connect 8 0 26 0;
#X connect 8 0 40 0;
#X connect 9 0 27 0;
#X connect 9 0 41 0;
#X connect 26 0 18 0;
#X connect 27 0 19 0;
#X connect 28 0 17 0;
#X connect 29 0 16 0;
#X connect 30 0 15 0;
#X connect 31 0 14 0;
#X connect 32 0 12 0;
#X connect 33 0 10 0;
#X connect 34 0 11 0;
#X connect 35 0 13 0;
#X connect 36 0 20 0;
#X connect 37 0 21 0;
#X connect 38 0 22 0;
#X connect 39 0 23 0;
#X connect 40 0 24 0;
#X connect 41 0 25 0;
#X coords 0 1 100 -1 236 24 1 0 0;
#X restore 4 223 graph;
#X obj 251 4 r monome.press;
#X obj 251 34 puma.press.mono 0 0 8 8;
#X obj 251 60 s buttons;
#X text 341 3 receives monome button data;
#X text 399 33 translates button data to unique numeric value;
#X text 312 60 sends button data to bang objects;
#X connect 8 0 9 0;
#X connect 9 0 10 0;
#X coords 0 1 100 -1 243 250 1 0 0;
#X restore 19 45 graph;
#N canvas 11 375 1268 312 sliders 0;
#X obj 29 91 s monome.led;
#X floatatom 29 35 5 0 4 0 - - -;
#X obj 29 254 s monome.led;
#X floatatom 29 205 5 0 4 0 - - -;
#X obj 29 66 puma.led.slider 0 3 1 4;
#X obj 29 229 puma.led.slider 0 4 3 4;
#X obj 183 89 s monome.led;
#X floatatom 183 35 5 0 4 0 - - -;
#X obj 339 89 s monome.led;
#X floatatom 339 35 5 0 4 0 - - -;
#X obj 493 89 s monome.led;
#X floatatom 493 35 5 0 4 0 - - -;
#X obj 649 89 s monome.led;
#X floatatom 649 35 5 0 4 0 - - -;
#X obj 803 89 s monome.led;
#X floatatom 803 35 5 0 4 0 - - -;
#X obj 959 89 s monome.led;
#X floatatom 959 35 5 0 4 0 - - -;
#X obj 1113 89 s monome.led;
#X floatatom 1113 35 5 0 4 0 - - -;
#X obj 183 64 puma.led.slider 1 3 1 4;
#X obj 339 64 puma.led.slider 2 3 1 4;
#X obj 493 64 puma.led.slider 3 3 1 4;
#X obj 649 64 puma.led.slider 4 3 1 4;
#X obj 803 64 puma.led.slider 5 3 1 4;
#X obj 959 64 puma.led.slider 6 3 1 4;
#X obj 1113 64 puma.led.slider 7 3 1 4;
#X obj 179 254 s monome.led;
#X floatatom 179 205 5 0 4 0 - - -;
#X obj 333 254 s monome.led;
#X floatatom 333 205 5 0 4 0 - - -;
#X obj 483 254 s monome.led;
#X floatatom 483 205 5 0 4 0 - - -;
#X obj 649 254 s monome.led;
#X floatatom 649 205 5 0 4 0 - - -;
#X obj 799 254 s monome.led;
#X floatatom 799 205 5 0 4 0 - - -;
#X obj 953 254 s monome.led;
#X floatatom 953 205 5 0 4 0 - - -;
#X obj 1103 254 s monome.led;
#X floatatom 1103 205 5 0 4 0 - - -;
#X obj 29 9 r 0_up;
#X obj 29 177 r 0_dn;
#X obj 183 9 r 1_up;
#X obj 339 9 r 2_up;
#X obj 493 9 r 3_up;
#X obj 649 9 r 4_up;
#X obj 803 9 r 5_up;
#X obj 959 9 r 6_up;
#X obj 1113 9 r 7_up;
#X obj 179 177 r 1_dn;
#X obj 333 177 r 2_dn;
#X obj 483 177 r 3_dn;
#X obj 649 177 r 4_dn;
#X obj 799 177 r 5_dn;
#X obj 953 177 r 6_dn;
#X obj 1103 177 r 7_dn;
#X obj 179 229 puma.led.slider 1 4 3 4;
#X obj 333 229 puma.led.slider 2 4 3 4;
#X obj 483 229 puma.led.slider 3 4 3 4;
#X obj 649 229 puma.led.slider 4 4 3 4;
#X obj 799 229 puma.led.slider 5 4 3 4;
#X obj 953 229 puma.led.slider 6 4 3 4;
#X obj 1103 229 puma.led.slider 7 4 3 4;
#X connect 1 0 4 0;
#X connect 3 0 5 0;
#X connect 4 0 0 0;
#X connect 5 0 2 0;
#X connect 7 0 20 0;
#X connect 9 0 21 0;
#X connect 11 0 22 0;
#X connect 13 0 23 0;
#X connect 15 0 24 0;
#X connect 17 0 25 0;
#X connect 19 0 26 0;
#X connect 20 0 6 0;
#X connect 21 0 8 0;
#X connect 22 0 10 0;
#X connect 23 0 12 0;
#X connect 24 0 14 0;
#X connect 25 0 16 0;
#X connect 26 0 18 0;
#X connect 28 0 57 0;
#X connect 30 0 58 0;
#X connect 32 0 59 0;
#X connect 34 0 60 0;
#X connect 36 0 61 0;
#X connect 38 0 62 0;
#X connect 40 0 63 0;
#X connect 41 0 1 0;
#X connect 42 0 3 0;
#X connect 43 0 7 0;
#X connect 44 0 9 0;
#X connect 45 0 11 0;
#X connect 46 0 13 0;
#X connect 47 0 15 0;
#X connect 48 0 17 0;
#X connect 49 0 19 0;
#X connect 50 0 28 0;
#X connect 51 0 30 0;
#X connect 52 0 32 0;
#X connect 53 0 34 0;
#X connect 54 0 36 0;
#X connect 55 0 38 0;
#X connect 56 0 40 0;
#X connect 57 0 27 0;
#X connect 58 0 29 0;
#X connect 59 0 31 0;
#X connect 60 0 33 0;
#X connect 61 0 35 0;
#X connect 62 0 37 0;
#X connect 63 0 39 0;
#X restore 390 46 pd sliders;
#N canvas 289 422 450 300 synth 0;
#X obj 26 96 tabosc4~ wave;
#X obj 164 198 tabwrite~ osc-output;
#X obj 164 141 tgl 15 0 empty empty empty 17 7 0 10 -262144 -1 -1 1
1;
#X obj 164 118 loadbang;
#X obj 126 132 *~;
#X obj 141 67 loadbang;
#X obj 27 245 dac~;
#X obj 26 212 *~;
#X obj 47 180 r volume;
#X obj 26 15 r freq;
#X msg 141 99 0.5;
#X obj 26 46 sig~ 20;
#X obj 164 174 metro 100;
#X text 70 15 receives freq from vlslider;
#X text 227 172 writes to osc-output every 100ms;
#X connect 0 0 4 0;
#X connect 0 0 7 0;
#X connect 2 0 12 0;
#X connect 3 0 2 0;
#X connect 4 0 1 0;
#X connect 5 0 10 0;
#X connect 7 0 6 0;
#X connect 7 0 6 1;
#X connect 8 0 7 1;
#X connect 9 0 11 0;
#X connect 10 0 4 1;
#X connect 11 0 0 0;
#X connect 12 0 1 0;
#X restore 465 46 pd synth;
#N canvas 1 51 450 300 (subpatch) 0;
#X array osc-output 2000 float 2;
#X coords 0 1.02 2000 -1.02 200 130 1 0 0;
#X restore 298 106 graph;
#X obj 301 255 hsl 195 30 0 1 0 0 volume empty vol -2 -8 0 10 -1 -128992
-1 16300 1;
#X msg 545 11 \; pd dsp 1;
#X msg 545 72 \; pd dsp 0;
#X text 562 45 ON;
#X text 562 105 OFF;
#X obj 559 154 vsl 30 128 20 600 0 0 freq empty freq 0 -9 0 10 -1 -162280
-66577 800 1;
#X obj 488 303 cnv 15 100 30 empty empty unsymbol 20 12 0 10 -128992
-262144 0;
