#N canvas 64 22 448 771 10;
#X obj 10 15 inlet;
#X obj 131 737 outlet;
#X obj 336 13 inlet;
#X obj 131 359 until;
#X obj 131 427 i 0;
#X obj 131 495 moses;
#X obj 157 427 + 1;
#N canvas 666 82 580 337 load-coords 0;
#X obj 5 95 i \$1;
#X obj 38 95 i \$2;
#X obj 5 15 loadbang;
#X obj 5 72 t b b b b;
#X obj 5 158 s \$0-x;
#X obj 38 178 s \$0-y;
#X obj 288 121 s \$0-s;
#X obj 97 226 s \$0-xn;
#X obj 288 98 i \$4;
#X msg 97 204 1;
#X obj 127 204 i \$4;
#X msg 177 63 bang;
#X obj 177 98 i \$3;
#X obj 177 121 route 1 2 3 4;
#X obj 165 207 i \$4;
#X msg 199 207 0;
#X obj 165 258 s \$0-xo;
#X obj 165 226 - 1;
#X obj 245 207 i \$4;
#X msg 279 207 0;
#X obj 245 226 - 1;
#X obj 245 258 s \$0-yo;
#X obj 331 246 s \$0-rv;
#X msg 331 211 1;
#X msg 361 211 0;
#X connect 0 0 4 0;
#X connect 1 0 5 0;
#X connect 2 0 3 0;
#X connect 3 0 0 0;
#X connect 3 1 1 0;
#X connect 3 2 12 0;
#X connect 3 3 8 0;
#X connect 8 0 6 0;
#X connect 9 0 7 0;
#X connect 10 0 7 0;
#X connect 11 0 12 0;
#X connect 12 0 13 0;
#X connect 13 0 9 0;
#X connect 13 0 18 0;
#X connect 13 0 15 0;
#X connect 13 0 24 0;
#X connect 13 1 10 0;
#X connect 13 1 15 0;
#X connect 13 1 19 0;
#X connect 13 1 23 0;
#X connect 13 2 9 0;
#X connect 13 2 19 0;
#X connect 13 2 15 0;
#X connect 13 2 23 0;
#X connect 13 3 10 0;
#X connect 13 3 14 0;
#X connect 13 3 19 0;
#X connect 13 3 24 0;
#X connect 14 0 17 0;
#X connect 15 0 16 0;
#X connect 17 0 16 0;
#X connect 18 0 20 0;
#X connect 19 0 21 0;
#X connect 20 0 21 0;
#X connect 23 0 22 0;
#X connect 24 0 22 0;
#X restore 329 99 pd load-coords;
#X msg 160 190 0;
#X obj 131 163 spigot;
#X obj 170 138 &&;
#X obj 131 97 t f f f;
#X obj 150 119 >= 0;
#X obj 182 249 f 0;
#X obj 131 266 -;
#X obj 131 332 abs;
#X obj 131 216 t f b f b;
#X obj 131 308 sel 0;
#X obj 131 286 t f f;
#X obj 196 309 < 0;
#X msg 228 403 1;
#X msg 258 403 -1;
#X obj 196 328 sel 0 1;
#X obj 176 377 f;
#X obj 206 377 f;
#X obj 202 403 - 1;
#X obj 131 190 i;
#X obj 190 119 <= \$4;
#X obj 131 564 t f f;
#X obj 131 589 mod;
#X obj 161 589 div;
#X obj 131 615 +;
#X obj 161 615 +;
#X obj 231 564 t f f;
#X obj 231 589 mod;
#X obj 261 589 div;
#X obj 231 615 +;
#X obj 261 615 +;
#X obj 85 599 r \$0-x;
#X obj 303 599 r \$0-y;
#X obj 293 565 r \$0-xn;
#X obj 131 476 spigot;
#X obj 175 476 spigot;
#X obj 207 449 == 0;
#X obj 131 647 - 0;
#X obj 231 647 - 0;
#X obj 79 631 r \$0-xo;
#X obj 171 647 - 0;
#X obj 271 647 - 0;
#X obj 309 631 r \$0-yo;
#X obj 219 429 r \$0-rv;
#X obj 10 34 route coords;
#N canvas 0 22 435 480 unpack-coords 0;
#X obj 33 19 inlet;
#X obj 33 53 unpack f f f f;
#X obj 30 133 s \$0-x;
#X obj 63 155 s \$0-y;
#X obj 236 128 s \$0-s;
#X obj 45 233 s \$0-xn;
#X msg 45 211 1;
#X obj 75 211 i \$4;
#X obj 125 128 route 1 2 3 4;
#X obj 113 214 i \$4;
#X msg 147 214 0;
#X obj 113 265 s \$0-xo;
#X obj 113 233 - 1;
#X obj 193 214 i \$4;
#X msg 227 214 0;
#X obj 193 233 - 1;
#X obj 193 265 s \$0-yo;
#X obj 286 251 s \$0-rv;
#X msg 286 216 1;
#X msg 316 216 0;
#X connect 0 0 1 0;
#X connect 1 0 2 0;
#X connect 1 1 3 0;
#X connect 1 2 8 0;
#X connect 1 3 4 0;
#X connect 1 3 7 1;
#X connect 1 3 9 1;
#X connect 1 3 13 1;
#X connect 6 0 5 0;
#X connect 7 0 5 0;
#X connect 8 0 6 0;
#X connect 8 0 13 0;
#X connect 8 0 10 0;
#X connect 8 0 19 0;
#X connect 8 1 7 0;
#X connect 8 1 10 0;
#X connect 8 1 14 0;
#X connect 8 1 18 0;
#X connect 8 2 6 0;
#X connect 8 2 14 0;
#X connect 8 2 10 0;
#X connect 8 2 18 0;
#X connect 8 3 7 0;
#X connect 8 3 9 0;
#X connect 8 3 14 0;
#X connect 8 3 19 0;
#X connect 9 0 12 0;
#X connect 10 0 11 0;
#X connect 12 0 11 0;
#X connect 13 0 15 0;
#X connect 14 0 16 0;
#X connect 15 0 16 0;
#X connect 18 0 17 0;
#X connect 19 0 17 0;
#X restore 29 125 pd unpack-coords;
#X obj 10 71 t b l b;
#X msg 155 50 1;
#X msg 185 50 0;
#X obj 131 74 spigot 1;
#X obj 131 678 pack f f;
#X obj 231 678 pack f f;
#X obj 175 495 moses;
#X obj 218 93 r \$0-s;
#X msg 131 700 /led \$1 \$2 0;
#X msg 231 700 /led \$1 \$2 1;
#X obj 131 522 expr $f2 - $f1;
#X obj 157 541 expr $f2 - $f1;
#X obj 238 490 r \$0-s;
#X obj 238 511 - 1;
#X obj 336 43 route clear redraw;
#X connect 0 0 51 0;
#X connect 2 0 67 0;
#X connect 3 0 4 0;
#X connect 4 0 6 0;
#X connect 4 0 41 0;
#X connect 4 0 42 0;
#X connect 5 0 63 0;
#X connect 5 1 64 0;
#X connect 6 0 4 1;
#X connect 8 0 16 0;
#X connect 9 0 26 0;
#X connect 10 0 9 1;
#X connect 11 0 9 0;
#X connect 11 1 12 0;
#X connect 11 2 27 0;
#X connect 12 0 10 0;
#X connect 13 0 14 1;
#X connect 13 0 5 1;
#X connect 13 0 23 1;
#X connect 13 0 24 1;
#X connect 13 0 59 1;
#X connect 14 0 18 0;
#X connect 15 0 3 0;
#X connect 16 0 14 0;
#X connect 16 2 13 1;
#X connect 16 3 13 0;
#X connect 17 1 15 0;
#X connect 18 0 17 0;
#X connect 18 1 19 0;
#X connect 19 0 22 0;
#X connect 20 0 6 1;
#X connect 21 0 6 1;
#X connect 22 0 20 0;
#X connect 22 0 23 0;
#X connect 22 1 21 0;
#X connect 22 1 24 0;
#X connect 23 0 4 1;
#X connect 24 0 25 0;
#X connect 25 0 4 1;
#X connect 26 0 16 0;
#X connect 27 0 10 1;
#X connect 28 0 29 0;
#X connect 28 1 30 0;
#X connect 29 0 31 0;
#X connect 30 0 32 0;
#X connect 31 0 44 0;
#X connect 32 0 47 0;
#X connect 33 0 34 0;
#X connect 33 1 35 0;
#X connect 34 0 36 0;
#X connect 35 0 37 0;
#X connect 36 0 45 0;
#X connect 37 0 48 0;
#X connect 38 0 31 1;
#X connect 38 0 36 1;
#X connect 39 0 37 1;
#X connect 39 0 32 1;
#X connect 40 0 35 1;
#X connect 40 0 34 1;
#X connect 40 0 30 1;
#X connect 40 0 29 1;
#X connect 41 0 5 0;
#X connect 42 0 59 0;
#X connect 43 0 41 1;
#X connect 44 0 57 0;
#X connect 45 0 58 0;
#X connect 46 0 44 1;
#X connect 46 0 45 1;
#X connect 47 0 57 1;
#X connect 48 0 58 1;
#X connect 49 0 47 1;
#X connect 49 0 48 1;
#X connect 50 0 43 0;
#X connect 50 0 42 1;
#X connect 51 0 53 0;
#X connect 51 1 56 0;
#X connect 53 0 54 0;
#X connect 53 0 26 0;
#X connect 53 1 52 0;
#X connect 53 2 55 0;
#X connect 53 2 8 0;
#X connect 54 0 56 1;
#X connect 55 0 56 1;
#X connect 56 0 11 0;
#X connect 57 0 61 0;
#X connect 58 0 62 0;
#X connect 59 0 28 0;
#X connect 59 1 33 0;
#X connect 60 0 27 1;
#X connect 61 0 1 0;
#X connect 62 0 1 0;
#X connect 63 0 28 0;
#X connect 64 0 33 0;
#X connect 65 0 66 0;
#X connect 66 0 64 1;
#X connect 66 0 63 1;
#X connect 67 0 8 0;
#X connect 67 1 26 0;
