#N canvas 964 13 316 228 10;
#N canvas 213 262 911 458 mlr_sample_load 0;
#X msg -205 -75 bang;
#X obj -205 -48 openpanel;
#X obj -205 -21 s \$1-filename;
#X obj -205 274 soundfiler;
#X obj -205 208 r \$1-filename;
#X obj -205 230 pack s \$1;
#X msg -205 252 read -resize \$1 \$2-L \$2-R;
#X msg -195 107 label \$1;
#X obj -205 53 symbol;
#X obj -195 80 splitfilename;
#X obj -205 161 s \$1-filenamesave;
#X obj -205 26 r \$1-filename;
#X obj -205 -102 r \$1-sample-load;
#X obj -168 -74 s \$1-sample-stop;
#X obj -195 134 s \$1-filename-display-r;
#X obj 337 229 r mpb;
#X text -102 -102 on click to load sample;
#X text -66 -74 stop loop \, if playing;
#X text -141 -50 prompt for file name;
#X text -106 80 strip path for filename display;
#X text -95 161 save full file path for saved settings;
#X text -41 252 read stereo file into L/R arrays;
#X obj 483 -49 r mpb;
#X obj 285 81 t f f;
#X obj 208 256 expr $f1 / ($f2 * $f3);
#X obj 208 175 pipe 10;
#X obj -205 301 s \$1-sample-length;
#X obj 285 -103 r \$1-sample-length;
#X obj 285 -76 / 44.1;
#X text -90 289 send original sample length (in samples);
#X text 329 -76 convert sample length to millisec's;
#X obj 397 -49 r std-beats;
#X obj 312 108 expr int(($f1/($f2*$f3))+0.5);
#X text 497 102 calculate nearest multiple of;
#X text 497 112 standard beats for this sample;
#X obj 312 175 *;
#X text 339 159 multiple of standard beats;
#X text 339 169 x standard beats;
#X text 339 179 = beats for this sample;
#X obj 327 135 r std-beats;
#X text 370 251 original sample length (ms);
#X text 370 261 / (sample beats x millisec's per beat);
#X text 370 271 = speed adjustment for this sample;
#X text 370 281 to be exact multiple of standard beats;
#X text -90 309 to adjust to multiple of standard beats;
#X obj 250 283 s \$1-speed-set;
#X obj 312 202 s \$1-beats-set;
#X text -90 299 to mlr_sample_play and to the right;
#X floatatom 355 -48 5 0 0 0 - - -;
#X floatatom 527 -48 5 0 0 0 - - -;
#X floatatom 280 136 5 0 0 0 - - -;
#X floatatom 208 284 5 0 0 0 - - -;
#X floatatom 410 203 5 0 0 0 - - -;
#X floatatom 218 -75 10 0 0 0 - - -;
#X obj 314 -7 spigot;
#X obj 285 49 f;
#X obj 314 20 t b f;
#X text 357 -12 if either std bpm or beats changes force;
#X text 357 -2 recalculation if sample loaded in this row;
#X connect 0 0 1 0;
#X connect 1 0 2 0;
#X connect 3 0 26 0;
#X connect 4 0 5 0;
#X connect 5 0 6 0;
#X connect 6 0 3 0;
#X connect 7 0 14 0;
#X connect 8 0 9 0;
#X connect 8 0 10 0;
#X connect 9 1 7 0;
#X connect 11 0 8 0;
#X connect 12 0 0 0;
#X connect 12 0 13 0;
#X connect 15 0 24 2;
#X connect 22 0 32 2;
#X connect 22 0 49 0;
#X connect 22 0 54 0;
#X connect 23 0 25 0;
#X connect 23 1 32 0;
#X connect 24 0 45 0;
#X connect 24 0 51 0;
#X connect 25 0 24 0;
#X connect 27 0 28 0;
#X connect 28 0 53 0;
#X connect 28 0 54 1;
#X connect 28 0 55 0;
#X connect 31 0 32 1;
#X connect 31 0 48 0;
#X connect 31 0 54 0;
#X connect 32 0 35 0;
#X connect 32 0 50 0;
#X connect 35 0 24 1;
#X connect 35 0 46 0;
#X connect 35 0 52 0;
#X connect 39 0 35 1;
#X connect 54 0 56 0;
#X connect 55 0 23 0;
#X connect 56 0 55 0;
#X restore -52 -8 pd mlr_sample_load;
#N canvas 8 0 1138 757 mlr_sample_play 0;
#X obj 281 350 phasor~;
#X obj 378 142 route 0 1 2 3 4 5 6 7;
#X obj 378 169 f 0;
#X obj 393 189 f 0.125;
#X obj 408 209 f 0.25;
#X obj 424 229 f 0.375;
#X obj 439 249 f 0.5;
#X obj 454 269 f 0.625;
#X obj 470 289 f 0.75;
#X obj 485 309 f 0.875;
#X obj 213 169 loadbang;
#X msg 157 196 0;
#X obj 282 450 *~;
#X obj 297 424 r \$1-sample-length;
#X obj 282 488 tabread4~ \$1-L;
#X obj 418 488 tabread4~ \$1-R;
#X obj 540 451 s~ \$1-phasor_position;
#X obj 511 585 catch~ \$1-left;
#X obj 647 586 catch~ \$1-right;
#X obj 281 542 throw~ \$1-left;
#X obj 418 543 throw~ \$1-right;
#X obj 282 515 *~;
#X obj 418 515 *~;
#X obj 418 451 line~;
#X obj 157 -6 r \$1-A-stop;
#X obj 418 424 r \$1-A-line;
#X obj 378 -6 r \$1-A-step-press;
#X obj -132 139 tgl 15 0 empty empty empty 17 7 0 10 -262144 -1 -1
0 3;
#X obj -159 281 spigot;
#X obj -24 281 spigot;
#X obj -159 112 t f b;
#X obj -126 241 expr if ($f1==0 \, 1 \, 0) \; if ($f1!=0 \, 1 \, 0)
;
#X obj -142 313 s \$1-A-step-press;
#X obj -159 340 s \$1-B-stop;
#X obj -7 313 s \$1-B-step-press;
#X obj -24 341 s \$1-A-stop;
#X obj -109 282 tgl 15 0 \$1-A-toggle empty empty 17 7 0 10 -262144
-1 -1 0 1;
#X obj 26 282 tgl 15 0 \$1-B-toggle empty empty 17 7 0 10 -262144 -1
-1 0 1;
#X obj 417 48 float \$1;
#X obj 692 450 *~;
#X obj 707 424 r \$1-sample-length;
#X obj 692 488 tabread4~ \$1-L;
#X obj 828 488 tabread4~ \$1-R;
#X obj 691 542 throw~ \$1-left;
#X obj 828 543 throw~ \$1-right;
#X obj 692 515 *~;
#X obj 828 515 *~;
#X obj 828 451 line~;
#X obj 828 424 r \$1-B-line;
#X obj 337 351 tgl 15 0 empty \$1-A-toggle empty 17 7 0 10 -262144
-1 -1 0 1;
#X obj 302 377 *~;
#X obj 541 424 +~;
#X text -161 387 playing \, and a press/fade-in to the other.;
#X obj 573 617 r \$1-group;
#X obj 510 681 throw~ 0-group-L;
#X obj 646 681 throw~ 0-group-R;
#X msg 520 654 set \$1-group-L;
#X msg 656 654 set \$1-group-R;
#X text -161 357 A vs. B used to micro crossfade when;
#X text -161 367 sample is cut. Each press sends a;
#X text -162 377 fade-out/stop to sample currently;
#X obj 212 21 r microfade;
#X obj 167 68 f \$1;
#X obj 167 95 pack f f;
#X msg 167 129 \; \$1-A-line 0 \$2;
#X obj 157 169 delay;
#X obj 157 21 t b b;
#X obj 378 21 t b f b;
#X obj 434 21 r microfade;
#X obj 417 75 pack f f;
#X msg 417 102 \; \$1-A-line 1 \$2;
#X obj 691 350 phasor~;
#X obj 788 142 route 0 1 2 3 4 5 6 7;
#X obj 788 169 f 0;
#X obj 803 189 f 0.125;
#X obj 818 209 f 0.25;
#X obj 834 229 f 0.375;
#X obj 849 249 f 0.5;
#X obj 864 269 f 0.625;
#X obj 880 289 f 0.75;
#X obj 895 309 f 0.875;
#X obj 747 351 tgl 15 0 empty \$1-B-toggle empty 17 7 0 10 -262144
-1 -1 0 1;
#X obj 712 377 *~;
#X obj 623 169 loadbang;
#X msg 567 196 0;
#X obj 622 21 r microfade;
#X obj 577 68 f \$1;
#X obj 577 95 pack f f;
#X obj 567 169 delay;
#X obj 567 21 t b b;
#X obj 567 -6 r \$1-B-stop;
#X msg 577 129 \; \$1-B-line 0 \$2;
#X obj 827 48 float \$1;
#X obj 788 21 t b f b;
#X obj 844 21 r microfade;
#X obj 827 75 pack f f;
#X obj 788 -6 r \$1-B-step-press;
#X msg 827 102 \; \$1-B-line 1 \$2;
#X obj -35 102 r \$1-stop;
#X obj -18 174 s \$1-A-stop;
#X obj -1 154 s \$1-B-stop;
#X msg 99 214 0;
#X obj -19 -6 r quantize-bang;
#X obj -4 21 r \$1-step-press;
#X msg 47 65 -1;
#X obj -19 75 moses 0;
#X obj -159 -6 r \$1-step-press;
#X obj -126 21 r quantize-off;
#X obj -126 48 tgl 15 0 empty empty empty 17 7 0 10 -262144 -1 -1 0
1;
#X obj -159 73 spigot;
#X obj -88 48 == 0;
#X obj -44 48 tgl 15 0 empty empty empty 17 7 0 10 -262144 -1 -1 1
1;
#X obj -77 75 spigot;
#X obj -19 48 f -1;
#X obj -159 420 r \$1-sample-length;
#X obj -159 501 /;
#X obj -159 447 t b f;
#X obj -159 474 f 44100;
#X obj -149 528 r \$1-speed;
#X obj -149 555 t b f;
#X obj -159 612 * 1;
#X obj -99 555 r \$1-reverse-toggle;
#X obj -99 582 sel 0 1;
#X msg -99 609 1;
#X msg -60 609 -1;
#X obj -109 690 * 1;
#X obj -99 636 t b f;
#X obj -109 663 f;
#X obj -159 582 f;
#X obj -109 717 s \$1-phasor-freq;
#X obj 691 85 f;
#X obj 691 48 r \$1-phasor-freq;
#X obj 281 85 f;
#X obj 281 48 r \$1-phasor-freq;
#X text -72 691 sample-length/44100 * speed * reverse toggle;
#X text -71 681 Compute current phasor frequency =;
#X floatatom -1 718 10 0 0 0 - - -;
#X floatatom -47 527 5 0 0 0 - - -;
#X floatatom -83 452 10 0 0 0 - - -;
#X floatatom -43 658 5 0 0 0 - - -;
#X obj -35 214 s \$1-sample-stop-led;
#X obj -35 127 t b b b b;
#X obj -35 194 delay 20;
#X obj 826 635 spigot;
#X connect 0 0 12 0;
#X connect 0 0 50 0;
#X connect 1 0 2 0;
#X connect 1 1 3 0;
#X connect 1 2 4 0;
#X connect 1 3 5 0;
#X connect 1 4 6 0;
#X connect 1 5 7 0;
#X connect 1 6 8 0;
#X connect 1 7 9 0;
#X connect 2 0 0 1;
#X connect 3 0 0 1;
#X connect 4 0 0 1;
#X connect 5 0 0 1;
#X connect 6 0 0 1;
#X connect 7 0 0 1;
#X connect 8 0 0 1;
#X connect 9 0 0 1;
#X connect 10 0 11 0;
#X connect 11 0 0 0;
#X connect 12 0 14 0;
#X connect 12 0 15 0;
#X connect 13 0 12 1;
#X connect 14 0 21 0;
#X connect 15 0 22 0;
#X connect 17 0 54 0;
#X connect 18 0 55 0;
#X connect 21 0 19 0;
#X connect 22 0 20 0;
#X connect 23 0 22 1;
#X connect 23 0 21 1;
#X connect 24 0 66 0;
#X connect 25 0 23 0;
#X connect 26 0 67 0;
#X connect 27 0 31 0;
#X connect 28 0 32 0;
#X connect 28 0 33 0;
#X connect 29 0 34 0;
#X connect 29 0 35 0;
#X connect 30 0 29 0;
#X connect 30 0 28 0;
#X connect 30 1 27 0;
#X connect 31 0 28 1;
#X connect 31 0 36 0;
#X connect 31 1 29 1;
#X connect 31 1 37 0;
#X connect 38 0 69 0;
#X connect 39 0 41 0;
#X connect 39 0 42 0;
#X connect 40 0 39 1;
#X connect 41 0 45 0;
#X connect 42 0 46 0;
#X connect 45 0 43 0;
#X connect 46 0 44 0;
#X connect 47 0 46 1;
#X connect 47 0 45 1;
#X connect 48 0 47 0;
#X connect 49 0 50 1;
#X connect 50 0 51 0;
#X connect 51 0 16 0;
#X connect 53 0 56 0;
#X connect 53 0 57 0;
#X connect 56 0 54 0;
#X connect 57 0 55 0;
#X connect 61 0 65 1;
#X connect 61 0 63 1;
#X connect 62 0 63 0;
#X connect 63 0 64 0;
#X connect 65 0 11 0;
#X connect 66 0 65 0;
#X connect 66 1 62 0;
#X connect 67 0 132 0;
#X connect 67 1 1 0;
#X connect 67 2 38 0;
#X connect 68 0 69 1;
#X connect 69 0 70 0;
#X connect 71 0 82 0;
#X connect 71 0 39 0;
#X connect 72 0 73 0;
#X connect 72 1 74 0;
#X connect 72 2 75 0;
#X connect 72 3 76 0;
#X connect 72 4 77 0;
#X connect 72 5 78 0;
#X connect 72 6 79 0;
#X connect 72 7 80 0;
#X connect 73 0 71 1;
#X connect 74 0 71 1;
#X connect 75 0 71 1;
#X connect 76 0 71 1;
#X connect 77 0 71 1;
#X connect 78 0 71 1;
#X connect 79 0 71 1;
#X connect 80 0 71 1;
#X connect 81 0 82 1;
#X connect 82 0 51 1;
#X connect 83 0 84 0;
#X connect 84 0 71 0;
#X connect 85 0 88 1;
#X connect 85 0 87 1;
#X connect 86 0 87 0;
#X connect 87 0 91 0;
#X connect 88 0 84 0;
#X connect 89 0 88 0;
#X connect 89 1 86 0;
#X connect 90 0 89 0;
#X connect 92 0 95 0;
#X connect 93 0 130 0;
#X connect 93 1 72 0;
#X connect 93 2 92 0;
#X connect 94 0 95 1;
#X connect 95 0 97 0;
#X connect 96 0 93 0;
#X connect 98 0 141 0;
#X connect 101 0 37 0;
#X connect 101 0 36 0;
#X connect 101 0 49 0;
#X connect 101 0 81 0;
#X connect 102 0 113 0;
#X connect 103 0 113 1;
#X connect 104 0 113 1;
#X connect 105 1 104 0;
#X connect 105 1 112 0;
#X connect 106 0 109 0;
#X connect 107 0 108 0;
#X connect 108 0 109 1;
#X connect 108 0 110 0;
#X connect 109 0 30 0;
#X connect 110 0 111 0;
#X connect 111 0 112 1;
#X connect 112 0 30 0;
#X connect 113 0 105 0;
#X connect 114 0 116 0;
#X connect 114 0 138 0;
#X connect 115 0 128 0;
#X connect 116 0 117 0;
#X connect 116 1 115 1;
#X connect 117 0 115 0;
#X connect 118 0 119 0;
#X connect 118 0 137 0;
#X connect 119 0 128 0;
#X connect 119 1 120 1;
#X connect 120 0 127 0;
#X connect 121 0 122 0;
#X connect 122 0 123 0;
#X connect 122 1 124 0;
#X connect 123 0 126 0;
#X connect 124 0 126 0;
#X connect 125 0 129 0;
#X connect 125 0 136 0;
#X connect 126 0 127 0;
#X connect 126 1 125 1;
#X connect 126 1 139 0;
#X connect 127 0 125 0;
#X connect 128 0 120 0;
#X connect 130 0 71 0;
#X connect 131 0 130 0;
#X connect 132 0 0 0;
#X connect 133 0 132 0;
#X connect 141 0 142 0;
#X connect 141 1 99 0;
#X connect 141 2 100 0;
#X connect 141 3 101 0;
#X connect 141 3 140 0;
#X connect 142 0 140 0;
#X restore -52 72 pd mlr_sample_play;
#N canvas 38 536 429 105 mlr_led_messages 0;
#N canvas 48 479 282 198 phasor_to_led_number 0;
#X obj 39 76 * 8;
#X obj 39 100 int;
#X obj 39 125 change;
#X obj 184 36 metro 10;
#X obj 184 12 loadbang;
#X obj 39 28 r~ \$1-phasor_position;
#X obj 39 153 s \$1-led-number;
#X obj 39 53 snapshot~ 10;
#X connect 0 0 1 0;
#X connect 1 0 2 0;
#X connect 2 0 6 0;
#X connect 3 0 7 0;
#X connect 4 0 3 0;
#X connect 5 0 7 0;
#X connect 7 0 0 0;
#X restore 98 1 pd phasor_to_led_number;
#N canvas 353 455 329 303 ui_led_messages 0;
#X obj 32 68 s \$1-0-smp-led-r;
#X obj 22 88 s \$1-1-smp-led-r;
#X obj 12 108 s \$1-2-smp-led-r;
#X obj 2 128 s \$1-3-smp-led-r;
#X obj -8 148 s \$1-4-smp-led-r;
#X obj -18 168 s \$1-5-smp-led-r;
#X obj -28 188 s \$1-6-smp-led-r;
#X obj -38 208 s \$1-7-smp-led-r;
#X obj 92 -72 r \$1-led-number;
#X msg -38 2 color 0;
#X obj 92 29 route 0 1 2 3 4 5 6 7;
#X msg 92 2 \$1 color 18;
#X obj 92 -45 t f b;
#X obj -28 -45 delay 10;
#X obj -38 -72 r \$1-sample-stop-led;
#X obj -18 -25 delay 30;
#X connect 8 0 12 0;
#X connect 9 0 0 0;
#X connect 9 0 1 0;
#X connect 9 0 2 0;
#X connect 9 0 3 0;
#X connect 9 0 4 0;
#X connect 9 0 5 0;
#X connect 9 0 6 0;
#X connect 9 0 7 0;
#X connect 10 0 0 0;
#X connect 10 1 1 0;
#X connect 10 2 2 0;
#X connect 10 3 3 0;
#X connect 10 4 4 0;
#X connect 10 5 5 0;
#X connect 10 6 6 0;
#X connect 10 7 7 0;
#X connect 11 0 10 0;
#X connect 12 0 11 0;
#X connect 12 1 9 0;
#X connect 14 0 13 0;
#X connect 14 0 9 0;
#X connect 14 0 15 0;
#X restore 250 28 pd ui_led_messages;
#N canvas 675 295 389 250 monome_led_messages 0;
#X obj -76 -68 pow;
#X obj -88 -115 t b f;
#X obj -88 -90 f 2;
#X obj -76 -41 t b f;
#X obj -88 -138 r \$1-led-number;
#X obj -76 -14 f \$1;
#X obj -76 9 pack f f;
#X obj 104 -111 f \$1;
#X msg -76 63 \; \$1-led-row \$2;
#X msg 104 -84 \; \$1-led-row 0;
#X obj 104 -138 r \$1-sample-stop-led;
#X msg 24 -71 0;
#X msg 54 -71 1;
#X obj -76 36 spigot 1;
#X obj 54 -44 pipe 20;
#X connect 0 0 3 0;
#X connect 1 0 2 0;
#X connect 1 1 0 1;
#X connect 2 0 0 0;
#X connect 3 0 5 0;
#X connect 3 1 6 1;
#X connect 4 0 1 0;
#X connect 5 0 6 0;
#X connect 6 0 13 0;
#X connect 7 0 9 0;
#X connect 10 0 7 0;
#X connect 10 0 11 0;
#X connect 10 0 12 0;
#X connect 11 0 13 1;
#X connect 12 0 14 0;
#X connect 13 0 8 0;
#X connect 14 0 13 1;
#X restore 250 1 pd monome_led_messages;
#X obj -6 1 r \$1-step-press;
#X obj -6 28 s \$1-led-number;
#X connect 3 0 4 0;
#X restore -52 142 pd mlr_led_messages;
#N canvas 497 353 321 412 mlr_sample_clear 0;
#X obj -197 227 s \$1-filenamesave;
#X msg -197 200;
#X msg -182 146 label ---;
#X obj -137 -42 s \$1-sample-stop;
#X obj -212 -96 r \$1-sample-clear;
#X msg -212 254 0;
#X obj -212 281 s \$1-group-r;
#X obj -182 173 s \$1-filename-display-r;
#X obj -167 119 s \$1-sample-length-display-r;
#X msg -167 92 label 0_seconds;
#X msg -152 52 \; \$1-speed-set 1;
#X msg -142 12 \; \$1-beats-set 8;
#X obj -152 -15 f \$1;
#X obj -212 -69 t b b b b b b;
#X connect 1 0 0 0;
#X connect 2 0 7 0;
#X connect 4 0 13 0;
#X connect 5 0 6 0;
#X connect 9 0 8 0;
#X connect 12 0 11 0;
#X connect 12 0 10 0;
#X connect 13 0 5 0;
#X connect 13 1 1 0;
#X connect 13 2 2 0;
#X connect 13 3 9 0;
#X connect 13 4 12 0;
#X connect 13 5 3 0;
#X restore -52 12 pd mlr_sample_clear;
#N canvas 107 388 522 390 mlr_ui_toggle_messages 0;
#X obj -22 -56 r \$1-0-smp-toggle;
#X obj 238 -56 r \$1-2-smp-toggle;
#X obj 368 -56 r \$1-3-smp-toggle;
#X obj -22 35 r \$1-4-smp-toggle;
#X obj 108 35 r \$1-5-smp-toggle;
#X obj 238 35 r \$1-6-smp-toggle;
#X obj 367 35 r \$1-7-smp-toggle;
#X obj 108 -56 r \$1-1-smp-toggle;
#X msg -22 -29 0;
#X msg 108 -29 1;
#X msg 238 -29 2;
#X msg 368 -29 3;
#X msg -22 62 4;
#X msg 108 62 5;
#X msg 238 62 6;
#X msg 367 62 7;
#X obj 17 261 s smp-press;
#X obj 45 207 f \$1;
#X obj 17 234 pack f f f;
#X obj -22 126 r \$1-tgl-val;
#X obj 8 -29 s \$1-tgl-val;
#X obj 138 -29 s \$1-tgl-val;
#X obj 268 -29 s \$1-tgl-val;
#X obj 398 -29 s \$1-tgl-val;
#X obj 397 62 s \$1-tgl-val;
#X obj 268 62 s \$1-tgl-val;
#X obj 138 62 s \$1-tgl-val;
#X obj 8 62 s \$1-tgl-val;
#X obj -22 89 s \$1-tgl-pos;
#X obj 108 89 s \$1-tgl-pos;
#X obj 238 89 s \$1-tgl-pos;
#X obj 367 89 s \$1-tgl-pos;
#X obj -22 -2 s \$1-tgl-pos;
#X obj 108 -2 s \$1-tgl-pos;
#X obj 238 -2 s \$1-tgl-pos;
#X obj 368 -2 s \$1-tgl-pos;
#X obj 64 126 r \$1-tgl-pos;
#X obj 17 207 f;
#X obj 17 180 t b b f;
#X obj -22 153 moses 1;
#X connect 0 0 8 0;
#X connect 0 0 20 0;
#X connect 1 0 10 0;
#X connect 1 0 22 0;
#X connect 2 0 11 0;
#X connect 2 0 23 0;
#X connect 3 0 12 0;
#X connect 3 0 27 0;
#X connect 4 0 13 0;
#X connect 4 0 26 0;
#X connect 5 0 14 0;
#X connect 5 0 25 0;
#X connect 6 0 15 0;
#X connect 6 0 24 0;
#X connect 7 0 9 0;
#X connect 7 0 21 0;
#X connect 8 0 32 0;
#X connect 9 0 33 0;
#X connect 10 0 34 0;
#X connect 11 0 35 0;
#X connect 12 0 28 0;
#X connect 13 0 29 0;
#X connect 14 0 30 0;
#X connect 15 0 31 0;
#X connect 17 0 18 1;
#X connect 18 0 16 0;
#X connect 19 0 39 0;
#X connect 36 0 37 1;
#X connect 37 0 18 0;
#X connect 38 0 37 0;
#X connect 38 1 17 0;
#X connect 38 2 18 2;
#X connect 39 1 38 0;
#X restore -52 122 pd mlr_ui_toggle_messages;
#N canvas 441 44 705 280 mlr_sample_stop 0;
#X obj 68 -55 r \$1-group;
#X obj -169 -55 r stop-group;
#X obj -169 9 unpack f f;
#X obj -169 36 t b f;
#X obj -169 64 f \$1;
#X obj -169 91 expr if ($f1 != $f2 && $f3 == $f4 \, 1 \, 0);
#X obj -169 138 sel 1;
#X obj 191 -55 r \$1-sample-stop;
#X text -170 -85 Receive row#-group# for button pressed \,;
#X text -170 -75 and group number for this sample.;
#X text -117 110 If group # matches & row # does not \,;
#X text -117 120 sample play is stopped.;
#X text 295 -58 On sample stop PD ui for this row;
#X obj 191 40 f;
#X msg 191 67 \; \$1-group-toggle-r 0;
#X text 315 73 toggle off group for this row;
#X text 278 13 send stop to A & B players;
#X obj 191 -28 t b b;
#X text 296 -48 sample play is stopped.;
#X obj 218 13 s \$1-stop;
#X text -109 165 send stop to A & B players;
#X obj -169 165 s \$1-stop;
#X obj -73 -55 r \$1-sample-length;
#X obj -169 -18 spigot;
#X text -126 -25 stop only sent if sample has;
#X text -126 -15 been loaded for this row;
#X connect 0 0 5 3;
#X connect 0 0 13 1;
#X connect 1 0 23 0;
#X connect 2 0 3 0;
#X connect 2 1 5 2;
#X connect 3 0 4 0;
#X connect 3 1 5 1;
#X connect 4 0 5 0;
#X connect 5 0 6 0;
#X connect 6 0 21 0;
#X connect 7 0 17 0;
#X connect 13 0 14 0;
#X connect 17 0 13 0;
#X connect 17 1 19 0;
#X connect 22 0 23 1;
#X connect 23 0 2 0;
#X restore -52 92 pd mlr_sample_stop;
#N canvas 0 5 1154 858 mlr_sample_ctl 0;
#X obj 443 -84 r \$1-speed-ctl;
#X obj 443 -3 change;
#X obj 443 78 s \$1-speed-ctl-r;
#X msg 443 51 label \$1x;
#X obj 726 47 s \$1-speed;
#X obj 683 20 spigot;
#X obj 443 -57 * 1000;
#X obj 443 -30 int;
#X obj 443 24 / 1000;
#X obj 818 221 int;
#X obj 818 329 s \$1-pitch-ctl-r;
#X obj 818 275 moses 0;
#X msg 888 302 label +\$1+;
#X msg 818 302 label \$1-;
#X obj 928 329 s \$1-pitch;
#X obj 818 194 r \$1-pitch-ctl;
#X obj 818 248 change;
#X obj 817 148 cnv 15 104 33 empty empty pitch 2 6 0 10 -262144 -1
0;
#X obj 818 163 vsl 30 16 -12.5 12.5 0 0 \$1-pitch-ctl \$1-pitch-ctl-r
+0+ 6 10 0 10 -228856 -228856 -1 0 1;
#X text 859 147 pitch removed;
#X text 858 160 from ui -;
#X text 858 171 not working;
#X text 844 210 pitch disconnected for now;
#X obj 726 20 f;
#X obj 726 -57 t b;
#X text 755 7 only allow speed;
#X text 755 17 change once sample;
#X text 756 27 has been loaded;
#X obj 716 -84 r \$1-sample-length;
#X obj 345 -84 r \$1-speed-set;
#X text 196 -89 receive speed setting;
#X obj -30 24 s \$1-beats-ctl-r;
#X msg -30 -3 label \$1;
#X obj -30 -30 ftos;
#X obj -100 -84 r \$1-beats;
#X obj -100 -57 moses 10;
#X msg -100 -3 label 0\$1;
#X obj -100 64 r \$1-beats-plus;
#X obj -70 84 r \$1-beats-minus;
#X msg -100 111 1;
#X msg -70 111 -1;
#X obj -45 165 r \$1-beats;
#X obj -70 246 s \$1-beats;
#X obj -70 192 +;
#X obj -70 219 expr if ($f1<1 \, 1 \, $f1);
#X text 196 -79 from initial sample load;
#X obj -59 358 r \$1-beats;
#X obj -70 277 r \$1-beats-set;
#X obj -12 439 r \$1-speed-set;
#X obj -47 503 *;
#X obj -58 412 f;
#X obj -47 439 /;
#X obj -59 385 t b f;
#X obj 351 299 int;
#X obj 351 326 / 1000;
#X obj 351 380 s \$1-sample-length-display-r;
#X msg 351 353 label \$1_seconds;
#X obj 351 137 r \$1-sample-length;
#X text 75 25 ui sample beats display;
#X text 33 66 adjust beats up;
#X text 33 76 or down;
#X text 20 278 initial beats from sample load;
#X text 80 448 / beats as set on ui;
#X text 80 458 x initial speed from sample load;
#X text 80 468 = current speed setting;
#X obj 351 164 / 44100;
#X obj 351 245 /;
#X obj 351 218 f;
#X obj 407 191 t b f;
#X obj 351 272 * 1000;
#X text 406 243 / speed adjustment for this sample;
#X text 406 295 display adjusted sample length;
#X text 406 233 / 44100;
#X text 406 223 original sample length (in samples);
#X text 406 253 = adjusted sample length (in seconds);
#X text 406 305 in seconds rounded to milliseconds;
#X obj -47 530 s \$1-speed-ctl-current;
#X obj 407 164 r \$1-speed-ctl-current;
#X obj 570 -84 r \$1-speed-ctl-current;
#X obj -70 331 s \$1-beats;
#X obj -70 304 t f f;
#X text -4 331 set current ui beats to initial beats;
#X text 80 438 initial beats from sample load;
#X obj 351 504 tgl 15 0 \$1-reverse-toggle \$1-reverse-toggle-r empty
17 7 0 10 -262144 -1 -1 1 1;
#X obj 351 479 bng 15 250 50 0 empty empty empty 17 7 0 10 -262144
-1 -1;
#X obj 351 529 sel 0;
#X text 508 616 set ui for;
#X text 508 626 sequence record mode;
#X text 372 502 sample play direction toggle;
#X obj 351 623 s \$1-reverse-mode-r;
#X obj 351 452 r \$1-reverse-mode;
#X msg 311 556 label >F>;
#X msg 420 556 label <R<;
#X msg 301 576 color 0 0 28;
#X msg 410 576 color 28 28 0;
#X obj 475 452 loadbang;
#X msg 475 479 0;
#X obj -12 466 t b f;
#X connect 0 0 6 0;
#X connect 0 0 5 0;
#X connect 1 0 8 0;
#X connect 3 0 2 0;
#X connect 5 0 4 0;
#X connect 6 0 7 0;
#X connect 7 0 1 0;
#X connect 8 0 3 0;
#X connect 9 0 16 0;
#X connect 11 0 13 0;
#X connect 11 1 12 0;
#X connect 12 0 10 0;
#X connect 13 0 10 0;
#X connect 16 0 11 0;
#X connect 16 0 14 0;
#X connect 23 0 4 0;
#X connect 24 0 23 0;
#X connect 28 0 5 1;
#X connect 28 0 24 0;
#X connect 29 0 2 0;
#X connect 29 0 5 0;
#X connect 32 0 31 0;
#X connect 33 0 32 0;
#X connect 34 0 35 0;
#X connect 35 0 36 0;
#X connect 35 1 33 0;
#X connect 36 0 31 0;
#X connect 37 0 39 0;
#X connect 38 0 40 0;
#X connect 39 0 43 0;
#X connect 40 0 43 0;
#X connect 41 0 43 1;
#X connect 43 0 44 0;
#X connect 44 0 42 0;
#X connect 46 0 52 0;
#X connect 47 0 80 0;
#X connect 48 0 97 0;
#X connect 49 0 76 0;
#X connect 50 0 51 0;
#X connect 51 0 49 0;
#X connect 52 0 50 0;
#X connect 52 1 51 1;
#X connect 53 0 54 0;
#X connect 54 0 56 0;
#X connect 56 0 55 0;
#X connect 57 0 65 0;
#X connect 65 0 67 0;
#X connect 66 0 69 0;
#X connect 67 0 66 0;
#X connect 68 0 67 0;
#X connect 68 1 66 1;
#X connect 69 0 53 0;
#X connect 77 0 68 0;
#X connect 78 0 5 0;
#X connect 78 0 23 1;
#X connect 78 0 2 0;
#X connect 80 0 79 0;
#X connect 80 1 50 1;
#X connect 83 0 85 0;
#X connect 84 0 83 0;
#X connect 85 0 93 0;
#X connect 85 0 91 0;
#X connect 85 1 94 0;
#X connect 85 1 92 0;
#X connect 90 0 84 0;
#X connect 91 0 89 0;
#X connect 92 0 89 0;
#X connect 93 0 89 0;
#X connect 94 0 89 0;
#X connect 95 0 96 0;
#X connect 96 0 83 0;
#X connect 97 0 49 0;
#X connect 97 1 49 1;
#X restore -52 42 pd mlr_sample_ctl;
