#N canvas 4 0 1276 858 10;
#X obj -274 289 bng 15 250 50 0 \$1-start-listening-r empty empty 17
7 0 10 -262144 -1 -1;
#X obj 209 351 tgl 15 0 \$1-play-mode empty empty 17 7 0 10 -262144
-1 -1 0 1;
#X obj 209 376 sel 1;
#X obj 209 403 bng 15 250 50 0 \$1-play-sequence-r empty empty 17 7
0 10 -262144 -1 -1;
#X obj 236 404 bng 15 250 50 0 \$1-stop-sequence-r empty empty 17 7
0 10 -262144 -1 -1;
#X text 181 403 PLAY;
#X text 135 243 tap toggles;
#X text 135 253 play/stop;
#X text 228 345 play/stop;
#X text 228 354 play-mode;
#X obj 209 251 r \$1-tap;
#X msg -212 208 1;
#X obj -138 181 r \$1-recording-done;
#X msg -138 208 0;
#X msg 257 283 0;
#X msg 161 276 1;
#X obj 614 251 r mpb;
#X obj 682 305 f;
#X obj 682 251 r \$1-sequence-beats;
#X obj 714 305 f;
#X obj 682 278 t b b;
#X obj 699 332 *;
#X obj 672 359 delay;
#X floatatom 731 333 5 0 0 0 - - -;
#X obj 565 332 r \$1-start-recording;
#X text 548 246 millisec's;
#X text 548 256 per beat;
#X text 808 246 # of beats;
#X text 808 256 to record;
#X text 768 332 record time;
#X obj 672 383 s \$1-stop-recording;
#X obj 731 359 s \$1-record-time;
#X text 418 322 start recording after;
#X text 838 353 send record time to;
#X text 838 363 sequence_record_audio;
#X text 418 332 start listening + first;
#X text 417 351 sequence_record_button);
#X text 418 342 button press (from;
#X text 791 377 send stop after record time;
#X text 791 387 to sequence_record_button;
#X obj 498 423 tgl 15 0 empty \$1-record-audio-toggle empty 17 7 0
10 -262144 -1 -1 0 1;
#X obj 187 528 tgl 15 0 empty empty empty 17 7 0 10 -262144 -1 -1 1
1;
#X obj 465 448 spigot;
#X obj 465 479 s \$1-start-recording-audio;
#X obj 154 553 spigot;
#X text 253 403 STOP;
#X obj 199 553 spigot;
#X text 57 526 play using buttons;
#X obj 332 528 tgl 15 0 empty empty empty 17 7 0 10 -262144 -1 -1 0
1;
#X obj 254 553 spigot;
#X obj 299 553 spigot;
#X text 352 526 play audio;
#X obj 154 647 s \$1-play-sequence-button-r;
#X obj 199 627 s \$1-stop-sequence-button-r;
#X obj 299 580 s \$1-stop-sequence-audio-r;
#X obj 254 600 s \$1-play-sequence-audio-r;
#X obj 187 501 != 1;
#X obj 653 516 s mlr-stop;
#X obj 638 462 spigot;
#X obj 671 437 tgl 15 0 empty \$1-record-audio-toggle empty 17 7 0
10 -262144 -1 -1 0 1;
#X obj 76 -14 s \$1-sequence-beats;
#X obj 66 -41 int;
#X obj 66 -68 r \$1-sequence-length;
#X obj 66 127 s \$1-sequence-length-r;
#X obj 146 73 ftos;
#X msg 146 100 label \$1;
#X text 196 -14 round to nearest integer;
#X text 194 -68 receive sequence length from ui slider;
#X text 204 127 send sequence length (beats) to ui;
#X msg -185 56 color 28 28 0;
#X obj -234 -16 tgl 15 0 \$1-record-audio-toggle \$1-record-audio-toggle-r
empty 17 7 0 10 -262144 -1 -1 0 1;
#X obj -234 -41 bng 15 250 50 0 empty empty empty 17 7 0 10 -262144
-1 -1;
#X obj -234 9 sel 0;
#X text -107 97 set ui for;
#X text -213 -18 record audio toggle;
#X msg -264 36 label B;
#X msg -175 36 label A;
#X text -107 107 sequence record mode;
#X text 513 422 record audio toggle;
#X text 686 436 record audio toggle;
#X obj -234 -68 r \$1-sequence-mode;
#X obj -234 103 s \$1-sequence-mode-r;
#X msg -273 56 color 26 26 0;
#X obj 66 13 moses 10;
#X msg 66 100 label 0\$1;
#X obj 271 251 r \$1-reset;
#X obj 209 324 spigot;
#X text 42 319 tap only controls play/stop;
#X text 42 329 if recording done AND;
#X text 42 339 if not reset;
#X obj -212 181 r \$1-reset;
#X obj -274 181 r \$1-tap;
#X obj -274 242 spigot;
#X text -258 290 listening for 1st button press;
#X text -258 280 arm recording: start;
#X text -234 238 tap arms recording;
#X text -234 248 if recorder reset;
#X obj -274 347 loadbang;
#X obj -274 374 s \$1-reset;
#X text 336 251 reset stops play;
#X obj 206 283 delay 1;
#X obj 259 324 pipe 5;
#X obj 653 489 delay 200;
#X obj -56 224 delay 5;
#X obj -20 400 r quantize-bang;
#X msg 46 471 -1;
#X obj -20 481 moses 0;
#X obj -127 427 r quantize-off;
#X obj -127 454 tgl 15 0 empty empty empty 17 7 0 10 -262144 -1 -1
0 1;
#X obj -160 479 spigot;
#X obj -89 454 == 0;
#X obj -45 454 tgl 15 0 empty empty empty 17 7 0 10 -262144 -1 -1 1
1;
#X obj -78 481 spigot;
#X obj -20 454 f -1;
#X obj 638 410 delay 90;
#X connect 1 0 2 0;
#X connect 2 0 3 0;
#X connect 2 1 4 0;
#X connect 3 0 44 0;
#X connect 3 0 49 0;
#X connect 4 0 46 0;
#X connect 4 0 50 0;
#X connect 10 0 100 0;
#X connect 11 0 92 1;
#X connect 12 0 13 0;
#X connect 12 0 103 0;
#X connect 13 0 92 1;
#X connect 14 0 1 0;
#X connect 14 0 86 1;
#X connect 14 0 101 0;
#X connect 15 0 86 1;
#X connect 15 0 109 0;
#X connect 15 0 113 1;
#X connect 16 0 17 1;
#X connect 16 0 20 0;
#X connect 17 0 21 0;
#X connect 18 0 19 1;
#X connect 18 0 20 0;
#X connect 19 0 21 1;
#X connect 20 0 17 0;
#X connect 20 1 19 0;
#X connect 21 0 22 1;
#X connect 21 0 23 0;
#X connect 21 0 31 0;
#X connect 22 0 30 0;
#X connect 22 0 114 0;
#X connect 24 0 42 0;
#X connect 24 0 22 0;
#X connect 40 0 42 1;
#X connect 40 0 56 0;
#X connect 40 0 48 0;
#X connect 41 0 44 1;
#X connect 41 0 46 1;
#X connect 42 0 43 0;
#X connect 44 0 52 0;
#X connect 46 0 53 0;
#X connect 48 0 49 1;
#X connect 48 0 50 1;
#X connect 49 0 55 0;
#X connect 50 0 54 0;
#X connect 56 0 41 0;
#X connect 58 0 57 0;
#X connect 58 0 102 0;
#X connect 59 0 58 1;
#X connect 61 0 60 0;
#X connect 61 0 83 0;
#X connect 62 0 61 0;
#X connect 64 0 65 0;
#X connect 65 0 63 0;
#X connect 69 0 81 0;
#X connect 70 0 72 0;
#X connect 71 0 70 0;
#X connect 72 0 75 0;
#X connect 72 0 82 0;
#X connect 72 1 69 0;
#X connect 72 1 76 0;
#X connect 75 0 81 0;
#X connect 76 0 81 0;
#X connect 80 0 71 0;
#X connect 82 0 81 0;
#X connect 83 0 84 0;
#X connect 83 1 64 0;
#X connect 84 0 63 0;
#X connect 85 0 14 0;
#X connect 86 0 1 0;
#X connect 90 0 11 0;
#X connect 91 0 92 0;
#X connect 92 0 0 0;
#X connect 97 0 98 0;
#X connect 100 0 86 0;
#X connect 101 0 1 0;
#X connect 102 0 57 0;
#X connect 103 0 15 0;
#X connect 104 0 113 0;
#X connect 105 0 113 1;
#X connect 106 1 105 0;
#X connect 106 1 112 0;
#X connect 107 0 108 0;
#X connect 108 0 109 1;
#X connect 108 0 110 0;
#X connect 109 0 86 0;
#X connect 110 0 111 0;
#X connect 111 0 112 1;
#X connect 112 0 86 0;
#X connect 113 0 106 0;
#X connect 114 0 58 0;
