#N canvas 0 50 1045 452 10;
#X obj -2 346 qlist;
#X msg -185 297 clear;
#X obj -131 122 timer;
#X msg -2 176 add \$1;
#X obj -185 203 -;
#X msg -206 150 0;
#X obj -131 149 pipe 1;
#X obj -170 176 float 0;
#X obj -170 152 bng 15 250 50 0 empty empty empty 17 7 0 10 -262144
-1 -1;
#X msg -92 -38 1;
#X msg 547 -13 0;
#X obj -163 41 + 1;
#X obj -131 68 sel 1;
#X obj -78 16 bng 15 250 50 0 empty empty empty 17 7 0 10 -262144 -1
-1;
#X obj -78 68 delay;
#X text 153 -39 receive button press;
#X text -158 198 time difference;
#X obj 464 -65 bng 15 250 50 0 empty empty empty 17 7 0 10 -262144
-1 -1;
#X obj -92 -63 bng 15 250 50 0 \$1-start-listening \$1-start-listening-r
empty 17 7 0 10 -262144 -1 -1;
#X obj 303 230 prepend write;
#X obj 303 176 float \$1;
#X obj 303 203 makefilename sequencer%d-play.txt;
#X obj 37 -11 prepend \$1-button;
#X obj -185 270 r \$1-start-listening;
#X text -158 208 current - last;
#X obj 37 -38 r smp-press-record;
#X obj -2 203 spigot;
#X obj -131 95 bng 15 250 50 0 \$1-start-recording empty empty 17 7
0 10 -262144 -1 -1;
#X obj -78 95 bng 15 250 50 0 empty empty empty 17 7 0 10 -262144 -1
-1;
#X obj 515 203 f;
#X msg 515 230 add \$1;
#X obj 515 149 delay;
#X obj 303 152 delay;
#X text 341 147 write file to disc;
#X obj -185 230 s \$1-sequence-timer;
#X obj -2 149 r \$1-sequence-timer;
#X obj -204 -11 s \$1-sequence-gate;
#X obj 48 176 r \$1-sequence-gate;
#X obj 547 14 s \$1-sequence-gate;
#X obj 530 176 r \$1-sequence-timer;
#X text -282 84 2) start recording;
#X obj 531 41 s \$1-sequence-final;
#X obj -34 68 r \$1-sequence-final;
#X obj -2 230 zl join;
#X text -75 -67 0) start listening;
#X text -322 297 1) clear sequence list;
#X text -11 111 3) record time \, relative;
#X text -282 94 after start listening;
#X text -282 104 + first button press;
#X text -11 121 to 1st button press \,;
#X text -11 131 of each button press;
#X text 530 57 4) stop recording when;
#X text 530 67 record time reached:;
#X text 530 77 a) close gate - do not;
#X text 530 87 record button presses;
#X text 530 97 b) send final bang to timer;
#X text 530 107 c) add final time entry;
#X text 530 117 d) write sequence file;
#X obj 484 -40 t b b b b b;
#X text 530 127 e) trigger sequence play;
#X obj 303 41 s \$1-recording-done;
#X obj -131 41 float 2;
#X obj 484 -67 r \$1-stop-recording;
#X connect 1 0 0 0;
#X connect 2 0 6 0;
#X connect 2 0 8 0;
#X connect 2 0 4 0;
#X connect 3 0 26 0;
#X connect 4 0 34 0;
#X connect 5 0 7 1;
#X connect 6 0 7 1;
#X connect 7 0 4 1;
#X connect 8 0 7 0;
#X connect 9 0 36 0;
#X connect 9 0 61 1;
#X connect 10 0 38 0;
#X connect 11 0 61 1;
#X connect 12 0 27 0;
#X connect 13 0 14 0;
#X connect 13 0 61 0;
#X connect 14 0 28 0;
#X connect 17 0 58 0;
#X connect 18 0 9 0;
#X connect 19 0 0 0;
#X connect 20 0 21 0;
#X connect 21 0 19 0;
#X connect 22 0 43 1;
#X connect 23 0 1 0;
#X connect 25 0 13 0;
#X connect 25 0 22 0;
#X connect 26 0 43 0;
#X connect 27 0 2 0;
#X connect 27 0 5 0;
#X connect 28 0 2 1;
#X connect 29 0 30 0;
#X connect 30 0 0 0;
#X connect 31 0 29 0;
#X connect 32 0 20 0;
#X connect 35 0 3 0;
#X connect 37 0 26 1;
#X connect 39 0 29 1;
#X connect 42 0 28 0;
#X connect 43 0 0 0;
#X connect 58 0 60 0;
#X connect 58 1 32 0;
#X connect 58 2 31 0;
#X connect 58 3 41 0;
#X connect 58 4 10 0;
#X connect 61 0 11 0;
#X connect 61 0 12 0;
#X connect 62 0 58 0;
