#N canvas 92 74 1508 758 10;
#X obj -260 155 list trim;
#X obj 384 -21 bng 15 250 50 0 empty empty empty 17 7 0 10 -262144
-1 -1;
#X obj 438 650 textfile;
#X msg 1018 137 clear;
#X obj 438 623 prepend add;
#X obj 835 257 pack s f;
#X obj 845 237 r bpm;
#X msg 835 217 symbol bpm;
#X text 883 230 beats per;
#X text 883 240 minute;
#X obj 448 517 r monome-size;
#X obj 438 537 pack s f;
#X msg 438 497 symbol monome;
#X text 540 514 1 = 64;
#X text 540 524 2 = 128 horizontal;
#X obj 98 317 r prefix-toggle;
#X msg 88 297 symbol prefix;
#X obj 88 337 pack s f;
#X text 196 311 auto-set;
#X text 196 321 monomeserial;
#X text 196 331 prefix;
#X obj 755 327 pack s f;
#X msg 755 287 symbol quantize;
#X text 874 300 quantization;
#X text 874 314 0 = off;
#X text 874 324 1 = 1/32;
#X text 874 334 2 = 1/16;
#X text 874 344 3 = 1/8;
#X text 874 354 4 = 1/4;
#X obj 697 397 pack s f;
#X obj 707 377 r microfade;
#X msg 697 357 symbol microfade;
#X text 780 372 microfade;
#X text 780 386 in millisec's;
#X obj 227 397 r load-file-config;
#X msg 217 377 symbol lastfile;
#X text 342 397 last sample file loaded;
#X obj 217 417 pack s s;
#X obj 317 477 pack s f;
#X obj 327 457 r auto-file-toggle;
#X msg 317 437 symbol autofile;
#X text 443 457 auto-load last sample file;
#X obj 384 -48 r mlr-save-config;
#X obj -260 422 r mlr-save-config;
#X msg -260 581 color 28 28 0;
#X msg -240 521 color 0 0 28;
#X msg -250 561 label saving;
#X msg -230 501 label save_current;
#X obj -230 608 s mlr-save-config-r;
#X text -103 601 ui for configuration;
#X text -103 611 save-current button;
#X obj -260 449 bng 15 250 50 0 empty empty empty 17 7 0 10 -262144
-1 -1;
#X obj -240 474 delay 1000;
#X obj 765 307 r quantize-main;
#X text 540 534 3 = 128 vertical (not used);
#X text 540 544 4 = 256 (not used);
#X msg -260 128 write lpy_config.txt;
#X msg -84 144 symbol sequence-master;
#X obj -66 164 r sequence-mode;
#X obj -10 224 r sequence-count-in-click;
#X obj 9 244 r latency;
#X obj -84 264 pack s f f f f f;
#X obj -47 184 r sequence-length;
#X obj -29 204 r sequence-count-in-beats;
#X obj 928 196 pack s f;
#X msg 928 156 symbol sync;
#X obj 938 176 r sync-mode;
#X obj 384 4 t b b b b b b b b b b b b b;
#X msg 627 427 symbol repeat;
#X obj 627 487 pack s f f;
#X obj 655 447 r repeat-A-save;
#X obj 684 467 r repeat-B-save;
#X text 784 444 0 = off;
#X text 784 454 1 = 1/32;
#X text 784 464 2 = 1/16;
#X text 784 474 3 = 1/8;
#X text 784 484 4 = 1/4;
#X text 784 430 repeat;
#X connect 0 0 2 0;
#X connect 1 0 67 0;
#X connect 3 0 2 0;
#X connect 4 0 2 0;
#X connect 5 0 4 0;
#X connect 6 0 5 1;
#X connect 7 0 5 0;
#X connect 10 0 11 1;
#X connect 11 0 4 0;
#X connect 12 0 11 0;
#X connect 15 0 17 1;
#X connect 16 0 17 0;
#X connect 17 0 4 0;
#X connect 21 0 4 0;
#X connect 22 0 21 0;
#X connect 29 0 4 0;
#X connect 30 0 29 1;
#X connect 31 0 29 0;
#X connect 34 0 37 1;
#X connect 35 0 37 0;
#X connect 37 0 4 0;
#X connect 38 0 4 0;
#X connect 39 0 38 1;
#X connect 40 0 38 0;
#X connect 42 0 1 0;
#X connect 43 0 51 0;
#X connect 44 0 48 0;
#X connect 45 0 48 0;
#X connect 46 0 48 0;
#X connect 47 0 48 0;
#X connect 51 0 46 0;
#X connect 51 0 44 0;
#X connect 51 0 52 0;
#X connect 52 0 47 0;
#X connect 52 0 45 0;
#X connect 53 0 21 1;
#X connect 56 0 0 0;
#X connect 57 0 61 0;
#X connect 58 0 61 1;
#X connect 59 0 61 4;
#X connect 60 0 61 5;
#X connect 61 0 4 0;
#X connect 62 0 61 2;
#X connect 63 0 61 3;
#X connect 64 0 4 0;
#X connect 65 0 64 0;
#X connect 66 0 64 1;
#X connect 67 0 56 0;
#X connect 67 2 57 0;
#X connect 67 3 16 0;
#X connect 67 4 35 0;
#X connect 67 5 40 0;
#X connect 67 6 12 0;
#X connect 67 7 68 0;
#X connect 67 8 31 0;
#X connect 67 9 22 0;
#X connect 67 10 7 0;
#X connect 67 11 65 0;
#X connect 67 12 3 0;
#X connect 68 0 69 0;
#X connect 69 0 4 0;
#X connect 70 0 69 1;
#X connect 71 0 69 2;
