#N canvas 352 12 710 954 10;
#X obj -416 275 textfile;
#X obj -416 -25 openpanel;
#X msg -376 239 rewind;
#X msg -327 240 clear;
#X obj -416 239 until;
#X msg -416 157 read \$1;
#X obj -416 184 t b b a b;
#X msg -276 194 label \$1;
#X obj -351 157 splitfilename;
#X obj -378 211 bng 15 250 50 0 empty empty empty 17 7 0 10 -262144
-1 -1;
#X obj -390 581 s bpm;
#X msg -416 211 500;
#X obj -239 167 s load-file-config;
#X text -144 220 load file name for ui display;
#X text -124 167 load file name for config file save/load;
#X obj -276 219 s load-file-display-r;
#X obj -416 -77 r mlr-load-set;
#X obj -351 76 r lastfile;
#X text -323 -78 load sample set file - click on ui;
#X text -282 76 load sample set file - config auto load;
#X obj -351 103 l2s;
#X obj -368 40 s clear-all-sample;
#X obj -351 130 pipe s 1000;
#X obj -363 554 s beats-r;
#X obj -257 379 s monome-size;
#X obj -310 480 s microfade-r;
#X obj -363 534 + 0.001;
#X obj -416 -50 bng 15 250 50 0 empty empty empty 17 7 0 10 -262144
-1 -1;
#X obj -143 379 pack f f;
#X obj -116 399 pack f f;
#X obj -89 419 pack f f;
#X obj -7 643 s 5-gain-r;
#X obj 9 623 s 6-gain-r;
#X obj 26 603 s 7-gain-r;
#X msg -143 526 \; \$1-row-mode-r \$2;
#X msg -89 446 \; \$1-sample-mode-r \$2;
#X obj -125 352 unpack f f f f;
#X obj 68 352 unpack f f f f s;
#X obj 57 379 pack f f f;
#X obj 80 399 pack f f f;
#X obj 104 419 pack f f s;
#X msg 104 446 \; \$1-\$2-filename \$3;
#X msg 57 526 \; \$1-\$2-smp-quantize-toggle-r \$3;
#X msg 80 486 \; \$1-\$2-smp-mode-r \$3;
#X obj -241 352 lpy_load_sequence;
#X text -253 34 on whole page load \, stop all;
#X text -253 44 & clear rows \, samples \, leds;
#X obj -239 100 r clear-all-sample;
#X msg -239 120 ---;
#X obj -239 140 l2s;
#X obj -23 663 s 4-gain-r;
#X obj -39 683 s 3-gain-r;
#X obj -55 703 s 2-gain-r;
#X obj -71 723 s 1-gain-r;
#X obj -416 608 s sync-mode-r;
#X obj -151 576 unpack f f f f f f f f f f f f;
#X obj -87 743 s in-gain-r;
#X obj -151 823 s 1-out-gain-r;
#X obj -135 803 s 2-out-gain-r;
#X obj -119 783 s 3-out-gain-r;
#X obj -103 763 s 4-out-gain-r;
#X obj -337 507 s quantize-load;
#X msg -116 486 \; \$1-row-quantize-load \$2;
#X obj -416 302 route sync-mode bpm beats quantize microfade repeat
monome sequence-master sequence-beats sequence-mode gain row smp;
#X obj -284 453 s repeat-A-load;
#X obj -227 433 s repeat-B-load;
#X obj -284 406 unpack f f;
#X obj -416 2 t s b;
#X connect 0 0 63 0;
#X connect 0 1 4 1;
#X connect 1 0 67 0;
#X connect 2 0 0 0;
#X connect 3 0 0 0;
#X connect 4 0 0 0;
#X connect 5 0 6 0;
#X connect 6 0 11 0;
#X connect 6 1 2 0;
#X connect 6 2 0 0;
#X connect 6 3 3 0;
#X connect 7 0 15 0;
#X connect 8 1 7 0;
#X connect 9 0 0 0;
#X connect 11 0 4 0;
#X connect 16 0 27 0;
#X connect 17 0 20 0;
#X connect 20 0 22 0;
#X connect 22 0 5 0;
#X connect 22 0 8 0;
#X connect 26 0 23 0;
#X connect 27 0 1 0;
#X connect 28 0 34 0;
#X connect 29 0 62 0;
#X connect 30 0 35 0;
#X connect 36 0 28 0;
#X connect 36 0 29 0;
#X connect 36 0 30 0;
#X connect 36 1 28 1;
#X connect 36 2 29 1;
#X connect 36 3 30 1;
#X connect 37 0 38 0;
#X connect 37 0 39 0;
#X connect 37 0 40 0;
#X connect 37 1 38 1;
#X connect 37 1 39 1;
#X connect 37 1 40 1;
#X connect 37 2 38 2;
#X connect 37 3 39 2;
#X connect 37 4 40 2;
#X connect 38 0 42 0;
#X connect 39 0 43 0;
#X connect 40 0 41 0;
#X connect 47 0 48 0;
#X connect 48 0 49 0;
#X connect 49 0 12 0;
#X connect 49 0 7 0;
#X connect 55 0 57 0;
#X connect 55 1 58 0;
#X connect 55 2 59 0;
#X connect 55 3 60 0;
#X connect 55 4 56 0;
#X connect 55 5 53 0;
#X connect 55 6 52 0;
#X connect 55 7 51 0;
#X connect 55 8 50 0;
#X connect 55 9 31 0;
#X connect 55 10 32 0;
#X connect 55 11 33 0;
#X connect 63 0 54 0;
#X connect 63 1 10 0;
#X connect 63 2 26 0;
#X connect 63 3 61 0;
#X connect 63 4 25 0;
#X connect 63 5 66 0;
#X connect 63 6 24 0;
#X connect 63 7 44 0;
#X connect 63 8 44 1;
#X connect 63 9 44 2;
#X connect 63 10 55 0;
#X connect 63 11 36 0;
#X connect 63 12 37 0;
#X connect 66 0 64 0;
#X connect 66 1 65 0;
#X connect 67 0 22 0;
#X connect 67 0 12 0;
#X connect 67 1 21 0;
