#N canvas 1005 203 595 709 10;
#X obj -238 -18 textfile;
#X msg -198 -54 rewind;
#X msg -149 -53 clear;
#X obj -238 -54 until;
#X obj -238 -109 t b b a b;
#X obj -200 -82 bng 15 250 50 0 empty empty empty 17 7 0 10 -262144
-1 -1;
#X obj -207 486 s bpm;
#X msg -238 -82 500;
#X obj -50 284 s monome-size;
#X obj -176 459 s beats-r;
#X obj -113 385 s microfade-r;
#X obj 44 183 s prefix-toggle-r;
#X obj -19 237 spigot;
#X obj -238 -163 r load-config;
#X obj -19 257 s lastfile;
#X obj -176 439 + 0.001;
#X obj 12 210 s auto-file-toggle-r;
#X msg -238 -136 read lpy_config.txt;
#X obj 75 49 unpack f f f f f;
#X obj 75 156 s sequence-mode-load;
#X obj 98 136 s sequence-length-load;
#X obj 144 96 s sequence-count-in-click-load;
#X obj 121 116 s sequence-count-in-beats-load;
#X obj 168 76 s latency-load;
#X obj -238 513 s sync-mode-r;
#X obj -144 412 s quantize-load;
#X obj -238 9 route sync-mode bpm beats quantize microfade repeat monome
lastfile autofile prefix sequence-master;
#X obj -82 358 s repeat-A-load;
#X obj -25 338 s repeat-B-load;
#X obj -82 311 unpack f f;
#X connect 0 0 26 0;
#X connect 0 1 3 1;
#X connect 1 0 0 0;
#X connect 2 0 0 0;
#X connect 3 0 0 0;
#X connect 4 0 7 0;
#X connect 4 1 1 0;
#X connect 4 2 0 0;
#X connect 4 3 2 0;
#X connect 5 0 0 0;
#X connect 7 0 3 0;
#X connect 12 0 14 0;
#X connect 13 0 17 0;
#X connect 15 0 9 0;
#X connect 17 0 4 0;
#X connect 18 0 19 0;
#X connect 18 1 20 0;
#X connect 18 2 22 0;
#X connect 18 3 21 0;
#X connect 18 4 23 0;
#X connect 26 0 24 0;
#X connect 26 1 6 0;
#X connect 26 2 15 0;
#X connect 26 3 25 0;
#X connect 26 4 10 0;
#X connect 26 5 29 0;
#X connect 26 6 8 0;
#X connect 26 7 12 0;
#X connect 26 8 16 0;
#X connect 26 9 11 0;
#X connect 26 10 18 0;
#X connect 29 0 27 0;
#X connect 29 1 28 0;
