#N canvas 717 73 529 456 10;
#X obj -414 -41 inlet;
#X obj -165 371 outlet;
#X obj -414 -14 t b b b b b b b b b;
#X msg -165 34 symbol row;
#X obj -122 61 r \$1-row-mode;
#X obj -78 115 r \$1-smp-mode;
#X obj -165 142 pack s \$1 f f f;
#X obj -317 176 lpy_save_sample 0 \$1;
#X obj -100 88 r \$1-row-quantize;
#X obj -331 196 lpy_save_sample 1 \$1;
#X obj -345 216 lpy_save_sample 2 \$1;
#X obj -359 236 lpy_save_sample 3 \$1;
#X obj -373 256 lpy_save_sample 4 \$1;
#X obj -387 276 lpy_save_sample 5 \$1;
#X obj -401 296 lpy_save_sample 6 \$1;
#X obj -414 316 lpy_save_sample 7 \$1;
#X connect 0 0 2 0;
#X connect 2 0 15 0;
#X connect 2 1 14 0;
#X connect 2 2 13 0;
#X connect 2 3 12 0;
#X connect 2 4 11 0;
#X connect 2 5 10 0;
#X connect 2 6 9 0;
#X connect 2 7 7 0;
#X connect 2 8 3 0;
#X connect 3 0 6 0;
#X connect 4 0 6 2;
#X connect 5 0 6 4;
#X connect 6 0 1 0;
#X connect 7 0 1 0;
#X connect 8 0 6 3;
#X connect 9 0 1 0;
#X connect 10 0 1 0;
#X connect 11 0 1 0;
#X connect 12 0 1 0;
#X connect 13 0 1 0;
#X connect 14 0 1 0;
#X connect 15 0 1 0;
