#N canvas 0 0 1280 982 10;
#X obj 598 862 textfile;
#X msg 1150 125 clear;
#X obj -20 657 savepanel;
#X obj -20 695 list trim;
#X obj 288 735 prepend add;
#X msg -20 676 write \$1;
#X obj -20 -1 bng 15 250 50 0 empty empty empty 17 7 0 10 -262144 -1
-1;
#X obj 598 735 prepend add;
#X obj 970 282 prepend set bpm;
#X obj 970 255 r bpm;
#X msg 970 309 bpm 120;
#X text 70 -28 saves bpm \, sample loads \, sample pitch & speed \,
sample group;
#X obj -20 -28 r mlr-save-set;
#X obj 845 377 pack s f;
#X msg 845 337 symbol quantize;
#X text 964 350 quantization;
#X text 964 364 0 = off;
#X text 964 374 1 = 1/32;
#X text 964 384 2 = 1/16;
#X text 964 394 3 = 1/8;
#X text 964 404 4 = 1/4;
#X obj 697 627 r monome-size;
#X obj 687 647 pack s f;
#X msg 687 607 symbol monome;
#X text 789 624 1 = 64;
#X text 789 634 2 = 128 horizontal;
#X text 789 644 3 = 128 vertical;
#X text 789 654 4 = 256;
#X obj 807 457 pack s f;
#X obj 817 437 r microfade;
#X msg 807 417 symbol microfade;
#X text 890 432 microfade;
#X text 890 446 in millisec's;
#X obj -20 24 t b b b b b;
#X msg 45 762 label \$1;
#X obj -30 735 splitfilename;
#X obj 45 787 s load-file-display-r;
#X text -48 759 save file name;
#X text -48 769 to ui display;
#X obj 87 319 t b b b b b b b;
#X obj 373 339 r 1-gain;
#X obj 388 359 r 2-gain;
#X obj 403 379 r 3-gain;
#X obj 417 399 r 4-gain;
#X obj 432 419 r 5-gain;
#X obj 447 439 r 6-gain;
#X obj 462 459 r 7-gain;
#X msg 285 209 symbol gain;
#X obj 408 735 prepend add;
#X obj 855 357 r quantize-main;
#X obj 513 609 lpy_save_sequence;
#X obj 174 346 lpy_save_row 1;
#X obj 159 366 lpy_save_row 2;
#X obj 145 386 lpy_save_row 3;
#X obj 130 406 lpy_save_row 4;
#X obj 116 426 lpy_save_row 5;
#X obj 101 446 lpy_save_row 6;
#X obj 87 466 lpy_save_row 7;
#X obj 513 125 t b b b b b b b;
#X obj 1048 246 pack s f;
#X msg 1048 206 symbol sync;
#X obj 1058 226 r sync-mode;
#X obj 358 319 r in-gain;
#X obj 299 239 r 1-out-gain;
#X obj 314 259 r 2-out-gain;
#X obj 329 279 r 3-out-gain;
#X obj 344 299 r 4-out-gain;
#X obj 285 499 pack s f f f f f f f f f f f f;
#X msg 727 497 symbol repeat;
#X obj 727 557 pack s f f;
#X obj 755 517 r repeat-A-save;
#X obj 784 537 r repeat-B-save;
#X text 884 514 0 = off;
#X text 884 524 1 = 1/32;
#X text 884 534 2 = 1/16;
#X text 884 544 3 = 1/8;
#X text 884 554 4 = 1/4;
#X text 884 500 repeat;
#X connect 1 0 0 0;
#X connect 2 0 5 0;
#X connect 2 0 35 0;
#X connect 3 0 0 0;
#X connect 4 0 0 0;
#X connect 5 0 3 0;
#X connect 6 0 33 0;
#X connect 7 0 0 0;
#X connect 8 0 10 0;
#X connect 9 0 8 0;
#X connect 10 0 7 0;
#X connect 12 0 6 0;
#X connect 13 0 7 0;
#X connect 14 0 13 0;
#X connect 21 0 22 1;
#X connect 22 0 7 0;
#X connect 23 0 22 0;
#X connect 28 0 7 0;
#X connect 29 0 28 1;
#X connect 30 0 28 0;
#X connect 33 0 2 0;
#X connect 33 1 39 0;
#X connect 33 2 47 0;
#X connect 33 3 58 0;
#X connect 33 4 1 0;
#X connect 34 0 36 0;
#X connect 35 1 34 0;
#X connect 39 0 57 0;
#X connect 39 1 56 0;
#X connect 39 2 55 0;
#X connect 39 3 54 0;
#X connect 39 4 53 0;
#X connect 39 5 52 0;
#X connect 39 6 51 0;
#X connect 40 0 67 6;
#X connect 41 0 67 7;
#X connect 42 0 67 8;
#X connect 43 0 67 9;
#X connect 44 0 67 10;
#X connect 45 0 67 11;
#X connect 46 0 67 12;
#X connect 47 0 67 0;
#X connect 48 0 0 0;
#X connect 49 0 13 1;
#X connect 50 0 7 0;
#X connect 51 0 4 0;
#X connect 52 0 4 0;
#X connect 53 0 4 0;
#X connect 54 0 4 0;
#X connect 55 0 4 0;
#X connect 56 0 4 0;
#X connect 57 0 4 0;
#X connect 58 0 50 0;
#X connect 58 1 23 0;
#X connect 58 2 68 0;
#X connect 58 3 30 0;
#X connect 58 4 14 0;
#X connect 58 5 10 0;
#X connect 58 6 60 0;
#X connect 59 0 7 0;
#X connect 60 0 59 0;
#X connect 61 0 59 1;
#X connect 62 0 67 5;
#X connect 63 0 67 1;
#X connect 64 0 67 2;
#X connect 65 0 67 3;
#X connect 66 0 67 4;
#X connect 67 0 48 0;
#X connect 68 0 69 0;
#X connect 70 0 69 1;
#X connect 71 0 69 2;
