#N canvas 66 258 1184 518 10;
#X obj 669 -41 inlet;
#X obj 236 -41 inlet;
#X obj 353 173 s 7-sequence-length;
#X obj 333 193 s 6-sequence-length;
#X obj 314 213 s 5-sequence-length;
#X obj 294 233 s 4-sequence-length;
#X obj 255 273 s 2-sequence-length;
#X obj 236 293 s 1-sequence-length;
#X obj 275 253 s 3-sequence-length;
#X obj -22 -14 unpack f f f f f;
#X obj -22 93 s sequence-mode-load;
#X obj 1 73 s sequence-length-load;
#X obj 47 33 s sequence-count-in-click-load;
#X obj 24 53 s sequence-count-in-beats-load;
#X obj 71 13 s latency-load;
#X obj -22 -41 inlet;
#X obj 236 -14 unpack f f f f f f f f f f f f f f f;
#X obj 669 -14 unpack f f f f f f f f f f f f f f f;
#X obj 363 153 s 8-sequence-length;
#X obj 382 133 s 9-sequence-length;
#X obj 402 113 s 10-sequence-length;
#X obj 421 93 s 11-sequence-length;
#X obj 441 73 s 12-sequence-length;
#X obj 460 53 s 13-sequence-length;
#X obj 480 33 s 14-sequence-length;
#X obj 490 13 s 15-sequence-length;
#X obj 639 293 s 1-sequence-mode-load;
#X obj 658 273 s 2-sequence-mode-load;
#X obj 678 253 s 3-sequence-mode-load;
#X obj 697 233 s 4-sequence-mode-load;
#X obj 717 213 s 5-sequence-mode-load;
#X obj 736 193 s 6-sequence-mode-load;
#X obj 756 173 s 7-sequence-mode-load;
#X obj 766 153 s 8-sequence-mode-load;
#X obj 785 133 s 9-sequence-mode-load;
#X obj 805 113 s 10-sequence-mode-load;
#X obj 824 93 s 11-sequence-mode-load;
#X obj 844 73 s 12-sequence-mode-load;
#X obj 863 53 s 13-sequence-mode-load;
#X obj 883 33 s 14-sequence-mode-load;
#X obj 893 13 s 15-sequence-mode-load;
#X connect 0 0 17 0;
#X connect 1 0 16 0;
#X connect 9 0 10 0;
#X connect 9 1 11 0;
#X connect 9 2 13 0;
#X connect 9 3 12 0;
#X connect 9 4 14 0;
#X connect 15 0 9 0;
#X connect 16 0 7 0;
#X connect 16 1 6 0;
#X connect 16 2 8 0;
#X connect 16 3 5 0;
#X connect 16 4 4 0;
#X connect 16 5 3 0;
#X connect 16 6 2 0;
#X connect 16 7 18 0;
#X connect 16 8 19 0;
#X connect 16 9 20 0;
#X connect 16 10 21 0;
#X connect 16 11 22 0;
#X connect 16 12 23 0;
#X connect 16 13 24 0;
#X connect 17 0 26 0;
#X connect 17 1 27 0;
#X connect 17 2 28 0;
#X connect 17 3 29 0;
#X connect 17 4 30 0;
#X connect 17 5 31 0;
#X connect 17 6 32 0;
#X connect 17 7 33 0;
#X connect 17 8 34 0;
#X connect 17 9 35 0;
#X connect 17 10 36 0;
#X connect 17 11 37 0;
#X connect 17 12 38 0;
#X connect 17 13 39 0;
#X connect 17 14 40 0;
