#N canvas 696 470 504 451 10;
#X obj -383 368 outlet;
#X obj -394 9 inlet;
#X msg -316 62 1;
#X obj -383 90 spigot;
#X obj -350 9 loadbang;
#X msg -350 63 0;
#X obj -38 9 r \$1-\$2-filenamesave;
#X msg -383 233 symbol smp;
#X obj -299 287 r \$1-\$2-smp-quantize-toggle;
#X obj -278 314 r \$1-\$2-smp-mode;
#X obj -383 341 pack s \$1 \$2 f f s;
#X floatatom -349 312 5 0 0 0 - - -;
#X floatatom -226 347 5 0 0 0 - - -;
#X obj -288 9 r \$1-\$2-sample-save-off;
#X connect 1 0 3 0;
#X connect 2 0 3 1;
#X connect 3 0 7 0;
#X connect 4 0 5 0;
#X connect 5 0 3 1;
#X connect 6 0 2 0;
#X connect 6 0 10 5;
#X connect 7 0 10 0;
#X connect 8 0 10 3;
#X connect 8 0 11 0;
#X connect 9 0 10 4;
#X connect 9 0 12 0;
#X connect 10 0 0 0;
#X connect 13 0 5 0;
