#N canvas 25 149 1225 687 10;
#X obj -41 -61 inlet;
#X msg -41 34 symbol sequence-mode;
#X msg 356 34 symbol sequence-beats;
#X obj -41 423 outlet;
#X obj 389 74 r 2-sequence-beats-code;
#X obj 406 94 r 3-sequence-beats-code;
#X obj 422 114 r 4-sequence-beats-code;
#X obj 439 134 r 5-sequence-beats-code;
#X obj 456 154 r 6-sequence-beats-code;
#X obj 473 174 r 7-sequence-beats-code;
#X msg 736 34 symbol sequence-master;
#X obj 754 54 r sequence-mode;
#X obj 810 114 r sequence-count-in-click;
#X obj 829 134 r latency;
#X obj -41 -34 t b b b;
#X obj 736 356 pack s f f f f f;
#X obj 372 54 r 1-sequence-beats-code;
#X obj 773 74 r sequence-length;
#X obj 791 94 r sequence-count-in-beats;
#X obj -41 356 pack s f f f f f f f f f f f f f f f;
#X obj 356 356 pack s f f f f f f f f f f f f f f f;
#X obj 593 334 r 15-sequence-beats-code;
#X obj 583 314 r 14-sequence-beats-code;
#X obj 566 294 r 13-sequence-beats-code;
#X obj 549 274 r 12-sequence-beats-code;
#X obj 532 254 r 11-sequence-beats-code;
#X obj 516 234 r 10-sequence-beats-code;
#X obj 499 214 r 9-sequence-beats-code;
#X obj 482 194 r 8-sequence-beats-code;
#X obj -25 54 r 1-sequence-mode;
#X obj -8 74 r 2-sequence-mode;
#X obj 9 94 r 3-sequence-mode;
#X obj 25 114 r 4-sequence-mode;
#X obj 42 134 r 5-sequence-mode;
#X obj 59 154 r 6-sequence-mode;
#X obj 76 174 r 7-sequence-mode;
#X obj 85 194 r 8-sequence-mode;
#X obj 102 214 r 9-sequence-mode;
#X obj 119 234 r 10-sequence-mode;
#X obj 135 254 r 11-sequence-mode;
#X obj 152 274 r 12-sequence-mode;
#X obj 169 294 r 13-sequence-mode;
#X obj 186 314 r 14-sequence-mode;
#X obj 195 334 r 15-sequence-mode;
#X connect 0 0 14 0;
#X connect 1 0 19 0;
#X connect 2 0 20 0;
#X connect 4 0 20 2;
#X connect 5 0 20 3;
#X connect 6 0 20 4;
#X connect 7 0 20 5;
#X connect 8 0 20 6;
#X connect 9 0 20 7;
#X connect 10 0 15 0;
#X connect 11 0 15 1;
#X connect 12 0 15 4;
#X connect 13 0 15 5;
#X connect 14 0 1 0;
#X connect 14 1 2 0;
#X connect 14 2 10 0;
#X connect 15 0 3 0;
#X connect 16 0 20 1;
#X connect 17 0 15 2;
#X connect 18 0 15 3;
#X connect 19 0 3 0;
#X connect 20 0 3 0;
#X connect 21 0 20 15;
#X connect 22 0 20 14;
#X connect 23 0 20 13;
#X connect 24 0 20 12;
#X connect 25 0 20 11;
#X connect 26 0 20 10;
#X connect 27 0 20 9;
#X connect 28 0 20 8;
#X connect 29 0 19 1;
#X connect 30 0 19 2;
#X connect 31 0 19 3;
#X connect 32 0 19 4;
#X connect 33 0 19 5;
#X connect 34 0 19 6;
#X connect 35 0 19 7;
#X connect 36 0 19 8;
#X connect 37 0 19 9;
#X connect 38 0 19 10;
#X connect 39 0 19 11;
#X connect 40 0 19 12;
#X connect 41 0 19 13;
#X connect 42 0 19 14;
#X connect 43 0 19 15;
