#N canvas 562 129 462 312 10;
#X obj 62 31 ctlin;
#X obj 31 108 / 127;
#X obj 121 108 == 16;
#X obj 76 108 == \$1;
#X obj 94 145 &&;
#X obj 31 180 spigot;
#X obj 31 216 outlet;
#X connect 0 0 1 0;
#X connect 0 1 3 0;
#X connect 0 2 2 0;
#X connect 1 0 5 0;
#X connect 2 0 4 1;
#X connect 3 0 4 0;
#X connect 4 0 5 1;
#X connect 5 0 6 0;
