#N canvas 290 128 639 447 10;
#X obj 274 48 inlet;
#X msg 56 82 bang;
#X msg 56 331 bang;
#X obj 56 224 \$1 \$2;
#X obj 247 99 \$1 \$2;
#X obj 247 317 s send_osc;
#X obj 56 206 bng 15 50 10 0 empty empty empty 0 -6 0 10 -262144 -1
-1;
#X obj 56 365 spigot;
#X floatatom 462 351 1 0 0 0 - - -;
#X msg 462 82 1;
#X msg 501 334 0;
#X obj 501 65 bng 15 250 50 0 empty empty empty 0 -6 0 10 -262144 -1
-1;
#X obj 375 183 i;
#X obj 400 183 + 1;
#X floatatom 401 220 5 0 0 0 - - -;
#X msg 321 251 1;
#X msg 291 251 0;
#X msg 247 166 bang;
#X obj 247 285 spigot;
#X floatatom 278 268 1 0 0 0 - - -;
#X msg 501 166 0;
#X obj 193 65 pipe 2;
#X obj 375 65 pipe 1;
#X obj 501 314 r reset1_off;
#X obj 501 83 s reset1_off;
#X msg 247 121 send /box/led \$1 \$2 1;
#X msg 56 300 send /box/led \$1 \$2 0;
#X obj 351 234 sel 1 5;
#X obj 375 203 % 8;
#X obj 350 351 cup;
#X floatatom 349 371 5 0 0 0 - - -;
#X obj 350 268 bng 10 250 50 0 empty empty empty 0 -6 0 10 -262144
-1 -1;
#X obj 350 317 sel 1;
#X obj 56 147 delay 40;
#X obj 99 348 delay 40;
#X obj 139 116 s r_present_on;
#X obj 112 207 r r_present_on;
#X connect 0 0 4 1;
#X connect 0 0 11 0;
#X connect 0 0 21 0;
#X connect 0 0 22 0;
#X connect 1 0 4 0;
#X connect 1 0 33 0;
#X connect 2 0 34 0;
#X connect 3 0 26 0;
#X connect 4 0 25 0;
#X connect 4 0 35 0;
#X connect 6 0 3 0;
#X connect 7 0 1 0;
#X connect 8 0 7 1;
#X connect 9 0 8 0;
#X connect 10 0 8 0;
#X connect 10 0 29 0;
#X connect 11 0 20 0;
#X connect 11 0 24 0;
#X connect 12 0 13 0;
#X connect 12 0 28 0;
#X connect 13 0 12 1;
#X connect 14 0 27 0;
#X connect 15 0 19 0;
#X connect 16 0 19 0;
#X connect 16 0 31 0;
#X connect 17 0 12 0;
#X connect 18 0 5 0;
#X connect 19 0 18 1;
#X connect 20 0 12 1;
#X connect 21 0 1 0;
#X connect 22 0 9 0;
#X connect 23 0 10 0;
#X connect 25 0 17 0;
#X connect 25 0 18 0;
#X connect 26 0 5 0;
#X connect 26 0 2 0;
#X connect 27 0 15 0;
#X connect 27 1 16 0;
#X connect 28 0 14 0;
#X connect 29 0 30 0;
#X connect 30 0 32 0;
#X connect 31 0 29 0;
#X connect 32 0 10 0;
#X connect 33 0 6 0;
#X connect 34 0 7 0;
#X connect 36 0 3 1;
