#N canvas 0 12 1024 702 10;
#X obj 415 135 r grid_in;
#X obj 415 155 unpack f f f;
#X floatatom 352 172 2 0 0 0 - - -;
#X floatatom 449 215 2 0 0 0 - - -;
#X msg 238 304 send /box/led \$1 \$2 1;
#X obj 238 325 s send_osc;
#X floatatom 352 252 2 0 0 0 - - -;
#X floatatom 449 252 2 0 0 0 - - -;
#X obj 538 215 r first;
#X obj 486 192 r fourth;
#X obj 352 189 myrange 1 15;
#X obj 449 232 myrange \$1 \$2;
#X obj 486 212 + 1;
#X obj 238 266 2in2out;
#X connect 0 0 1 0;
#X connect 1 0 2 0;
#X connect 1 1 3 0;
#X connect 2 0 10 0;
#X connect 3 0 11 0;
#X connect 4 0 5 0;
#X connect 6 0 13 0;
#X connect 7 0 13 1;
#X connect 8 0 11 2;
#X connect 9 0 12 0;
#X connect 10 0 6 0;
#X connect 11 0 7 0;
#X connect 12 0 11 1;
#X connect 13 0 4 0;
