#N canvas 279 283 647 289 10;
#X msg 41 55 1;
#X obj 73 45 bng 10 250 50 0 empty empty empty 0 -6 0 10 -262144 -1
-1;
#X obj 148 45 bng 10 250 50 0 empty empty empty 0 -6 0 10 -262144 -1
-1;
#X obj 223 45 bng 10 250 50 0 empty empty empty 0 -6 0 10 -262144 -1
-1;
#X obj 298 45 bng 10 250 50 0 empty empty empty 0 -6 0 10 -262144 -1
-1;
#X obj 373 45 bng 10 250 50 0 empty empty empty 0 -6 0 10 -262144 -1
-1;
#X obj 448 45 bng 10 250 50 0 empty empty empty 0 -6 0 10 -262144 -1
-1;
#X obj 523 45 bng 10 250 50 0 empty empty empty 0 -6 0 10 -262144 -1
-1;
#X obj 73 155 bng 10 250 50 0 empty empty empty 0 -6 0 10 -262144 -1
-1;
#X obj 148 155 bng 10 250 50 0 empty empty empty 0 -6 0 10 -262144
-1 -1;
#X obj 223 155 bng 10 250 50 0 empty empty empty 0 -6 0 10 -262144
-1 -1;
#X obj 298 155 bng 10 250 50 0 empty empty empty 0 -6 0 10 -262144
-1 -1;
#X obj 373 155 bng 10 250 50 0 empty empty empty 0 -6 0 10 -262144
-1 -1;
#X obj 448 155 bng 10 250 50 0 empty empty empty 0 -6 0 10 -262144
-1 -1;
#X obj 523 155 bng 10 250 50 0 empty empty empty 0 -6 0 10 -262144
-1 -1;
#X msg 116 55 2;
#X msg 191 55 3;
#X msg 266 55 4;
#X msg 341 55 5;
#X msg 416 55 6;
#X msg 491 55 7;
#X msg 41 165 8;
#X msg 116 165 9;
#X msg 192 165 10;
#X msg 266 165 11;
#X msg 341 165 12;
#X msg 416 165 13;
#X msg 491 165 14;
#X obj 41 92 dist_pack;
#X obj 116 92 dist_pack;
#X obj 191 92 dist_pack;
#X obj 266 92 dist_pack;
#X obj 341 92 dist_pack;
#X obj 416 92 dist_pack;
#X obj 491 92 dist_pack;
#X obj 41 202 dist_pack;
#X obj 116 202 dist_pack;
#X obj 192 202 dist_pack;
#X obj 266 202 dist_pack;
#X obj 341 202 dist_pack;
#X obj 416 202 dist_pack;
#X obj 491 202 dist_pack;
#X obj 92 28 r second;
#X obj 167 28 r second;
#X obj 242 28 r second;
#X obj 317 28 r second;
#X obj 392 28 r second;
#X obj 467 28 r second;
#X obj 542 28 r second;
#X obj 92 138 r second;
#X obj 167 138 r second;
#X obj 243 138 r second;
#X obj 317 138 r second;
#X obj 392 138 r second;
#X obj 467 138 r second;
#X obj 542 138 r second;
#X obj 41 113 s o;
#X obj 116 113 s p;
#X obj 191 113 s q;
#X obj 266 113 s r;
#X obj 341 113 s s;
#X obj 416 113 s t;
#X obj 491 113 s u;
#X obj 41 223 s v;
#X obj 116 223 s w;
#X obj 191 223 s x;
#X obj 266 223 s y;
#X obj 341 223 s z;
#X obj 416 223 s a';
#X obj 491 223 s b';
#X connect 0 0 28 0;
#X connect 1 0 0 0;
#X connect 2 0 15 0;
#X connect 3 0 16 0;
#X connect 4 0 17 0;
#X connect 5 0 18 0;
#X connect 6 0 19 0;
#X connect 7 0 20 0;
#X connect 8 0 21 0;
#X connect 9 0 22 0;
#X connect 10 0 23 0;
#X connect 11 0 24 0;
#X connect 12 0 25 0;
#X connect 13 0 26 0;
#X connect 14 0 27 0;
#X connect 15 0 29 0;
#X connect 16 0 30 0;
#X connect 17 0 31 0;
#X connect 18 0 32 0;
#X connect 19 0 33 0;
#X connect 20 0 34 0;
#X connect 21 0 35 0;
#X connect 22 0 36 0;
#X connect 23 0 37 0;
#X connect 24 0 38 0;
#X connect 25 0 39 0;
#X connect 26 0 40 0;
#X connect 27 0 41 0;
#X connect 28 0 56 0;
#X connect 29 0 57 0;
#X connect 30 0 58 0;
#X connect 31 0 59 0;
#X connect 32 0 60 0;
#X connect 33 0 61 0;
#X connect 34 0 62 0;
#X connect 35 0 63 0;
#X connect 36 0 64 0;
#X connect 37 0 65 0;
#X connect 38 0 66 0;
#X connect 39 0 67 0;
#X connect 40 0 68 0;
#X connect 41 0 69 0;
#X connect 42 0 1 0;
#X connect 42 0 28 1;
#X connect 43 0 2 0;
#X connect 43 0 29 1;
#X connect 44 0 3 0;
#X connect 44 0 30 1;
#X connect 45 0 4 0;
#X connect 45 0 31 1;
#X connect 46 0 5 0;
#X connect 46 0 32 1;
#X connect 47 0 6 0;
#X connect 47 0 33 1;
#X connect 48 0 7 0;
#X connect 48 0 34 1;
#X connect 49 0 8 0;
#X connect 49 0 35 1;
#X connect 50 0 9 0;
#X connect 50 0 36 1;
#X connect 51 0 10 0;
#X connect 51 0 37 1;
#X connect 52 0 11 0;
#X connect 52 0 38 1;
#X connect 53 0 12 0;
#X connect 53 0 39 1;
#X connect 54 0 13 0;
#X connect 54 0 40 1;
#X connect 55 0 14 0;
#X connect 55 0 41 1;
