#N canvas 1104 201 259 175 10;
#X obj 71 49 bng 10 250 50 0 empty empty empty 0 -6 0 10 -262144 -1
-1;
#X obj 150 49 bng 10 250 50 0 empty empty empty 0 -6 0 10 -262144 -1
-1;
#X obj 118 96 dist_pack;
#X obj 39 96 dist_pack;
#X obj 39 116 s c5;
#X obj 118 116 s c6;
#X obj 90 32 r second;
#X msg 39 59 15;
#X obj 169 32 r third;
#X msg 118 59 15;
#X connect 0 0 7 0;
#X connect 1 0 9 0;
#X connect 2 0 5 0;
#X connect 3 0 4 0;
#X connect 6 0 0 0;
#X connect 6 0 3 1;
#X connect 7 0 3 0;
#X connect 8 0 1 0;
#X connect 8 0 2 1;
#X connect 9 0 2 0;
