#N canvas 358 149 592 182 10;
#X obj 32 98 dist_pack;
#X obj 64 51 bng 10 250 50 0 empty empty empty 0 -6 0 10 -262144 -1
-1;
#X obj 83 34 r row_choice;
#X msg 32 61 5;
#X obj 32 118 s c7;
#X obj 111 98 dist_pack;
#X obj 143 51 bng 10 250 50 0 empty empty empty 0 -6 0 10 -262144 -1
-1;
#X obj 162 34 r row_choice;
#X obj 190 98 dist_pack;
#X obj 222 51 bng 10 250 50 0 empty empty empty 0 -6 0 10 -262144 -1
-1;
#X obj 241 34 r row_choice;
#X obj 269 98 dist_pack;
#X obj 301 51 bng 10 250 50 0 empty empty empty 0 -6 0 10 -262144 -1
-1;
#X obj 320 34 r row_choice;
#X obj 348 98 dist_pack;
#X obj 380 51 bng 10 250 50 0 empty empty empty 0 -6 0 10 -262144 -1
-1;
#X obj 399 34 r row_choice;
#X obj 427 98 dist_pack;
#X obj 459 51 bng 10 250 50 0 empty empty empty 0 -6 0 10 -262144 -1
-1;
#X obj 478 34 r row_choice;
#X msg 111 61 6;
#X msg 190 61 7;
#X msg 269 61 8;
#X msg 348 61 9;
#X msg 427 61 10;
#X obj 111 118 s c8;
#X obj 190 118 s c9;
#X obj 269 118 s c10;
#X obj 348 118 s c11;
#X obj 427 118 s c12;
#X connect 0 0 4 0;
#X connect 1 0 3 0;
#X connect 2 0 0 1;
#X connect 2 0 1 0;
#X connect 3 0 0 0;
#X connect 5 0 25 0;
#X connect 6 0 20 0;
#X connect 7 0 5 1;
#X connect 7 0 6 0;
#X connect 8 0 26 0;
#X connect 9 0 21 0;
#X connect 10 0 8 1;
#X connect 10 0 9 0;
#X connect 11 0 27 0;
#X connect 12 0 22 0;
#X connect 13 0 11 1;
#X connect 13 0 12 0;
#X connect 14 0 28 0;
#X connect 15 0 23 0;
#X connect 16 0 14 1;
#X connect 16 0 15 0;
#X connect 17 0 29 0;
#X connect 18 0 24 0;
#X connect 19 0 17 1;
#X connect 19 0 18 0;
#X connect 20 0 5 0;
#X connect 21 0 8 0;
#X connect 22 0 11 0;
#X connect 23 0 14 0;
#X connect 24 0 17 0;
