#N canvas 432 397 550 184 10;
#X obj 90 53 bng 10 250 50 0 empty empty empty 0 -6 0 10 -262144 -1
-1;
#X obj 425 53 bng 10 250 50 0 empty empty empty 0 -6 0 10 -262144 -1
-1;
#X obj 109 36 r fifth;
#X obj 444 36 r fifth;
#X obj 393 100 dist_pack;
#X obj 58 100 dist_pack;
#X obj 58 120 s c15;
#X obj 393 120 s c16;
#X msg 58 63 0;
#X msg 393 63 15;
#X connect 0 0 8 0;
#X connect 1 0 9 0;
#X connect 2 0 0 0;
#X connect 2 0 5 1;
#X connect 3 0 1 0;
#X connect 3 0 4 1;
#X connect 4 0 7 0;
#X connect 5 0 6 0;
#X connect 8 0 5 0;
#X connect 9 0 4 0;
