#N canvas 322 362 355 208 10;
#X msg 41 52 0;
#X obj 41 72 tabwrite col;
#X obj 110 32 r broken_quantity;
#X obj 250 49 - 1;
#X obj 250 160 outlet;
#X msg 250 69 set \$1;
#X floatatom 250 134 5 0 0 0 - - -;
#X obj 110 52 - 1;
#X obj 41 92 tabwrite row;
#X obj 41 117 inlet;
#X connect 0 0 1 0;
#X connect 0 0 8 0;
#X connect 2 0 3 0;
#X connect 2 0 7 0;
#X connect 3 0 5 0;
#X connect 5 0 6 0;
#X connect 6 0 4 0;
#X connect 7 0 1 1;
#X connect 7 0 8 1;
#X connect 9 0 6 0;
#X connect 9 0 0 0;
