#N canvas 470 242 304 347 10;
#X obj 63 144 ==;
#X obj 120 144 ==;
#X obj 177 127 inlet;
#X obj 214 127 inlet;
#X obj 177 161 &&;
#X obj 177 261 tgl 15 0 empty empty empty 0 -6 0 10 -262144 -1 -1 0
1;
#X obj 63 58 unpack f f;
#X obj 177 279 outlet;
#X msg 177 202 0;
#X obj 63 38 r from_array;
#X obj 177 182 pipe 1;
#X connect 0 0 4 0;
#X connect 1 0 4 1;
#X connect 2 0 0 1;
#X connect 3 0 1 1;
#X connect 4 0 8 0;
#X connect 4 0 10 0;
#X connect 5 0 7 0;
#X connect 6 0 0 0;
#X connect 6 1 1 0;
#X connect 8 0 5 0;
#X connect 9 0 6 0;
#X connect 10 0 5 0;
