#N canvas 934 35 1024 730 10;
#N canvas 0 0 450 300 graph15 0;
#X array col 12 float 3;
#A 0 0 0 0 0 0 0 0 0 0 0 0 0;
#X coords 0 15 12 0 200 140 1;
#X restore 69 61 graph;
#X obj 581 391 bng 15 250 50 0 empty empty empty 0 -6 0 10 -262144
-1 -1;
#X obj 582 432 bng 15 250 50 0 empty empty empty 0 -6 0 10 -262144
-1 -1;
#N canvas 0 0 450 300 graph16 0;
#X array row 12 float 3;
#A 0 0 0 0 0 0 0 0 0 0 0 0 0;
#X coords 0 15 12 0 200 140 1;
#X restore 69 236 graph;
#N canvas 621 99 268 498 array_appearance 0;
#X obj 35 29 loadbang;
#X msg 35 61 \; col bounds 0 15 12 0;
#X msg 35 98 \; col yticks 0 1 1;
#X msg 35 131 \; col xticks 0 1 1;
#X msg 35 168 \; col xlabel -1.5 1 4 8 12;
#X msg 35 201 \; col ylabel 13 1 4 8 12;
#X msg 35 266 \; row bounds 0 15 12 0;
#X msg 35 303 \; row yticks 0 1 1;
#X msg 35 336 \; row xticks 0 1 1;
#X msg 35 373 \; row xlabel -1.5 1 4 8 12;
#X msg 35 406 \; row ylabel -1 1 4 8 12;
#X connect 0 0 1 0;
#X connect 0 0 2 0;
#X connect 0 0 3 0;
#X connect 0 0 4 0;
#X connect 0 0 5 0;
#X connect 0 0 6 0;
#X connect 0 0 7 0;
#X connect 0 0 8 0;
#X connect 0 0 9 0;
#X connect 0 0 10 0;
#X restore 69 447 pd array_appearance;
#X obj 91 36 cnv 3 3 340 empty empty empty 20 12 0 14 -245500 -66577
0;
#X obj 125 36 cnv 3 3 340 empty empty empty 20 12 0 14 -245500 -66577
0;
#X obj 159 36 cnv 3 3 340 empty empty empty 20 12 0 14 -245500 -66577
0;
#X obj 192 36 cnv 3 3 340 empty empty empty 20 12 0 14 -245500 -66577
0;
#X obj 226 36 cnv 3 3 340 empty empty empty 20 12 0 14 -245500 -66577
0;
#N canvas 332 215 462 355 col_array_clear 0;
#X obj 77 35 inlet;
#X obj 77 81 t b b;
#X msg 77 101 0;
#X obj 77 182 +;
#X obj 102 182 f;
#X msg 48 165 1;
#X msg 128 165 0;
#X obj 180 199 moses;
#X obj 180 262 t b b f;
#X obj 48 279 bang;
#X obj 207 148 bang;
#X msg 232 279 0;
#X text 342 254 index;
#X text 261 253 value;
#X obj 207 98 arraysize col;
#X obj 262 279 tabwrite col;
#X connect 0 0 1 0;
#X connect 1 0 2 0;
#X connect 1 1 14 0;
#X connect 2 0 3 0;
#X connect 3 0 4 0;
#X connect 3 0 7 0;
#X connect 4 0 3 1;
#X connect 5 0 3 0;
#X connect 6 0 4 0;
#X connect 7 0 8 0;
#X connect 7 1 10 0;
#X connect 8 0 9 0;
#X connect 8 1 11 0;
#X connect 8 2 15 1;
#X connect 9 0 5 0;
#X connect 10 0 6 0;
#X connect 11 0 15 0;
#X connect 14 0 7 1;
#X restore 581 410 pd col_array_clear;
#N canvas 332 215 466 359 row_array_clear 0;
#X obj 77 35 inlet;
#X obj 77 81 t b b;
#X msg 77 101 0;
#X obj 77 182 +;
#X obj 102 182 f;
#X msg 48 165 1;
#X msg 128 165 0;
#X obj 180 199 moses;
#X obj 180 262 t b b f;
#X obj 48 279 bang;
#X obj 207 148 bang;
#X msg 232 279 0;
#X text 342 254 index;
#X text 261 253 value;
#X obj 207 98 arraysize row;
#X obj 262 279 tabwrite row;
#X connect 0 0 1 0;
#X connect 1 0 2 0;
#X connect 1 1 14 0;
#X connect 2 0 3 0;
#X connect 3 0 4 0;
#X connect 3 0 7 0;
#X connect 4 0 3 1;
#X connect 5 0 3 0;
#X connect 6 0 4 0;
#X connect 7 0 8 0;
#X connect 7 1 10 0;
#X connect 8 0 9 0;
#X connect 8 1 11 0;
#X connect 8 2 15 1;
#X connect 9 0 5 0;
#X connect 10 0 6 0;
#X connect 11 0 15 0;
#X connect 14 0 7 1;
#X restore 582 451 pd row_array_clear;
#X msg 577 343 \; row 0 2 4 5 5 3 15;
#X msg 574 282 \; col 0 8 12 5 7 14 2;
#X connect 1 0 10 0;
#X connect 2 0 11 0;
