#N canvas 42 351 712 247 10;
#X obj 75 131 spigot;
#X floatatom 108 114 1 0 0 0 - - -;
#X obj 25 114 inlet;
#X msg 108 53 1;
#X msg 108 93 0;
#X obj 108 26 inlet;
#X obj 119 131 spigot;
#X floatatom 152 114 1 0 0 0 - - -;
#X msg 152 53 1;
#X msg 152 93 0;
#X obj 152 26 inlet;
#X obj 163 131 spigot;
#X floatatom 196 114 1 0 0 0 - - -;
#X msg 196 53 1;
#X msg 196 93 0;
#X obj 196 26 inlet;
#X obj 196 73 pipe 2;
#X obj 207 131 spigot;
#X floatatom 240 114 1 0 0 0 - - -;
#X msg 240 53 1;
#X msg 240 93 0;
#X obj 240 26 inlet;
#X obj 251 131 spigot;
#X floatatom 284 114 1 0 0 0 - - -;
#X msg 284 53 1;
#X msg 284 93 0;
#X obj 284 26 inlet;
#X obj 284 73 pipe 2;
#X obj 295 131 spigot;
#X floatatom 328 114 1 0 0 0 - - -;
#X msg 328 53 1;
#X msg 328 93 0;
#X obj 328 26 inlet;
#X obj 339 131 spigot;
#X floatatom 372 114 1 0 0 0 - - -;
#X msg 372 53 1;
#X msg 372 93 0;
#X obj 372 26 inlet;
#X obj 383 131 spigot;
#X floatatom 416 114 1 0 0 0 - - -;
#X msg 416 53 1;
#X msg 416 93 0;
#X obj 416 26 inlet;
#X obj 427 131 spigot;
#X floatatom 460 114 1 0 0 0 - - -;
#X msg 460 53 1;
#X msg 460 93 0;
#X obj 460 26 inlet;
#X obj 471 131 spigot;
#X floatatom 504 114 1 0 0 0 - - -;
#X msg 504 53 1;
#X msg 504 93 0;
#X obj 504 26 inlet;
#X obj 515 131 spigot;
#X floatatom 548 114 1 0 0 0 - - -;
#X msg 548 53 1;
#X msg 548 93 0;
#X obj 548 26 inlet;
#X obj 559 131 spigot;
#X floatatom 592 114 1 0 0 0 - - -;
#X msg 592 53 1;
#X msg 592 93 0;
#X obj 592 26 inlet;
#X obj 75 152 outlet;
#X obj 119 152 outlet;
#X obj 163 152 outlet;
#X obj 207 152 outlet;
#X obj 251 152 outlet;
#X obj 295 152 outlet;
#X obj 339 152 outlet;
#X obj 383 152 outlet;
#X obj 427 152 outlet;
#X obj 471 152 outlet;
#X obj 515 152 outlet;
#X obj 559 152 outlet;
#X obj 108 73 pipe 2;
#X obj 152 73 pipe 2;
#X obj 240 73 pipe 2;
#X obj 328 73 pipe 2;
#X obj 372 73 pipe 2;
#X obj 416 73 pipe 2;
#X obj 460 73 pipe 2;
#X obj 504 73 pipe 2;
#X obj 548 73 pipe 2;
#X obj 592 73 pipe 2;
#X connect 0 0 63 0;
#X connect 1 0 0 1;
#X connect 2 0 0 0;
#X connect 2 0 6 0;
#X connect 2 0 11 0;
#X connect 2 0 17 0;
#X connect 2 0 22 0;
#X connect 2 0 28 0;
#X connect 2 0 33 0;
#X connect 2 0 38 0;
#X connect 2 0 43 0;
#X connect 2 0 48 0;
#X connect 2 0 53 0;
#X connect 2 0 58 0;
#X connect 3 0 1 0;
#X connect 3 0 75 0;
#X connect 4 0 1 0;
#X connect 5 0 3 0;
#X connect 6 0 64 0;
#X connect 7 0 6 1;
#X connect 8 0 7 0;
#X connect 8 0 76 0;
#X connect 9 0 7 0;
#X connect 10 0 8 0;
#X connect 11 0 65 0;
#X connect 12 0 11 1;
#X connect 13 0 16 0;
#X connect 13 0 12 0;
#X connect 14 0 12 0;
#X connect 15 0 13 0;
#X connect 16 0 14 0;
#X connect 17 0 66 0;
#X connect 18 0 17 1;
#X connect 19 0 18 0;
#X connect 19 0 77 0;
#X connect 20 0 18 0;
#X connect 21 0 19 0;
#X connect 22 0 67 0;
#X connect 23 0 22 1;
#X connect 24 0 27 0;
#X connect 24 0 23 0;
#X connect 25 0 23 0;
#X connect 26 0 24 0;
#X connect 27 0 25 0;
#X connect 28 0 68 0;
#X connect 29 0 28 1;
#X connect 30 0 29 0;
#X connect 30 0 78 0;
#X connect 31 0 29 0;
#X connect 32 0 30 0;
#X connect 33 0 69 0;
#X connect 34 0 33 1;
#X connect 35 0 34 0;
#X connect 35 0 79 0;
#X connect 36 0 34 0;
#X connect 37 0 35 0;
#X connect 38 0 70 0;
#X connect 39 0 38 1;
#X connect 40 0 39 0;
#X connect 40 0 80 0;
#X connect 41 0 39 0;
#X connect 42 0 40 0;
#X connect 43 0 71 0;
#X connect 44 0 43 1;
#X connect 45 0 44 0;
#X connect 45 0 81 0;
#X connect 46 0 44 0;
#X connect 47 0 45 0;
#X connect 48 0 72 0;
#X connect 49 0 48 1;
#X connect 50 0 49 0;
#X connect 50 0 82 0;
#X connect 51 0 49 0;
#X connect 52 0 50 0;
#X connect 53 0 73 0;
#X connect 54 0 53 1;
#X connect 55 0 54 0;
#X connect 55 0 83 0;
#X connect 56 0 54 0;
#X connect 57 0 55 0;
#X connect 58 0 74 0;
#X connect 59 0 58 1;
#X connect 60 0 59 0;
#X connect 60 0 84 0;
#X connect 61 0 59 0;
#X connect 62 0 60 0;
#X connect 75 0 4 0;
#X connect 76 0 9 0;
#X connect 77 0 20 0;
#X connect 78 0 31 0;
#X connect 79 0 36 0;
#X connect 80 0 41 0;
#X connect 81 0 46 0;
#X connect 82 0 51 0;
#X connect 83 0 56 0;
#X connect 84 0 61 0;
