#N canvas 685 322 343 352 10;
#X obj 52 41 inlet;
#X obj 97 41 inlet;
#X obj 52 155 pipe \$1;
#X obj 217 138 r led_delay;
#X obj 52 93 pack f f;
#X obj 52 195 pack f f;
#X msg 52 215 send /box/led \$1 \$2 0;
#X msg 52 113 send /box/led \$1 \$2 1;
#X obj 52 269 s send_osc;
#X connect 0 0 2 0;
#X connect 0 0 4 0;
#X connect 1 0 4 1;
#X connect 1 0 5 1;
#X connect 2 0 5 0;
#X connect 3 0 2 1;
#X connect 4 0 7 0;
#X connect 5 0 6 0;
#X connect 6 0 8 0;
#X connect 7 0 8 0;
