#N canvas 807 261 221 294 10;
#X obj 54 153 sweeper;
#X obj 103 136 r first;
#X obj 103 156 r second;
#X obj 104 176 r third;
#X obj 104 196 r fourth;
#X obj 54 44 inlet;
#X obj 54 173 sweeper;
#X obj 54 193 sweeper;
#X obj 54 213 sweeper;
#X connect 1 0 0 1;
#X connect 2 0 6 1;
#X connect 3 0 7 1;
#X connect 4 0 8 1;
#X connect 5 0 0 0;
#X connect 5 0 6 0;
#X connect 5 0 7 0;
#X connect 5 0 8 0;
