#N canvas 441 57 329 275 10;
#X floatatom 167 151 5 0 0 0 - - -;
#X msg 87 182 1;
#X msg 57 182 0;
#X floatatom 44 199 1 0 0 0 - - -;
#X obj 44 216 outlet;
#X obj 117 67 once;
#X obj 117 87 bng 10 250 50 0 empty empty empty 0 -6 0 10 -262144 -1
-1;
#X obj 138 30 r array_clear;
#X obj 199 50 r array_clear2;
#X obj 37 50 r from_array;
#X obj 91 117 cup;
#X msg 199 83 0;
#X obj 199 103 r play+clear;
#X obj 117 134 % 16;
#X obj 117 100 metro 100;
#X obj 117 165 sel 1 4 5 7 11 15;
#X connect 0 0 15 0;
#X connect 1 0 3 0;
#X connect 2 0 3 0;
#X connect 3 0 4 0;
#X connect 5 0 6 0;
#X connect 6 0 14 0;
#X connect 7 0 5 1;
#X connect 8 0 5 1;
#X connect 8 0 11 0;
#X connect 9 0 5 0;
#X connect 10 0 13 0;
#X connect 11 0 14 0;
#X connect 12 0 11 0;
#X connect 13 0 0 0;
#X connect 14 0 10 0;
#X connect 15 0 1 0;
#X connect 15 1 2 0;
#X connect 15 2 1 0;
#X connect 15 3 2 0;
#X connect 15 4 1 0;
#X connect 15 5 2 0;
