#N canvas 615 156 374 581 10;
#X obj -148 356 arraycopy;
#X obj -107 -63 r \$1-record-time;
#X obj -107 -26 * 44.1;
#X obj -145 -26 f \$1;
#X obj -219 -26 unpack f f;
#X msg -149 269 copy \$3-sequence-A-L 0 \$4 \$1-\$2-L-A;
#X msg -163 289 copy \$3-sequence-A-L 0 \$4 \$1-\$2-L-B;
#X msg -191 329 copy \$3-sequence-A-L 0 \$4 \$1-\$2-R-B;
#X obj -219 -90 r \$1-sequence-send;
#X msg -177 309 copy \$3-sequence-A-R 0 \$4 \$1-\$2-R-A;
#X obj -219 -63 t l b;
#X obj -219 79 pack f f f f s;
#X msg -219 443 \; \$1-\$2-filename-catch \$5;
#X msg -205 393 \; \$1-\$2-sample-length-catch \$4;
#X msg -135 183 \; \$1-\$2-L-A resize \$4 \; \$1-\$2-R-A resize \$4
\; \$1-\$2-L-B resize \$4 \; \$1-\$2-R-B resize \$4;
#X msg -120 133 \; \$1-\$2-smp-clear bang;
#X obj -219 106 t l l l l l l l l;
#X obj 3 -63 r \$1-sequence-name;
#X connect 1 0 2 0;
#X connect 2 0 11 3;
#X connect 3 0 11 2;
#X connect 4 0 11 0;
#X connect 4 1 11 1;
#X connect 5 0 0 0;
#X connect 6 0 0 0;
#X connect 7 0 0 0;
#X connect 8 0 10 0;
#X connect 9 0 0 0;
#X connect 10 0 4 0;
#X connect 10 1 3 0;
#X connect 11 0 16 0;
#X connect 16 0 12 0;
#X connect 16 1 13 0;
#X connect 16 2 7 0;
#X connect 16 3 9 0;
#X connect 16 4 6 0;
#X connect 16 5 5 0;
#X connect 16 6 14 0;
#X connect 16 7 15 0;
#X connect 17 0 11 4;
