#N canvas 78 97 1202 805 10;
#X obj -32 636 qlist;
#X msg -215 527 clear;
#X obj -161 352 timer;
#X msg -32 406 add \$1;
#X obj -215 433 -;
#X msg -236 380 0;
#X obj -161 379 pipe 1;
#X obj -200 406 float 0;
#X obj -200 382 bng 15 250 50 0 empty empty empty 17 7 0 10 -262144
-1 -1;
#X msg -122 -8 1;
#X msg 587 73 0;
#X obj -193 271 + 1;
#X obj -161 298 sel 1;
#X obj -108 246 bng 15 250 50 0 empty empty empty 17 7 0 10 -262144
-1 -1;
#X obj -108 298 delay;
#X text 183 -9 receive button press;
#X text -188 428 time difference;
#X obj 504 21 bng 15 250 50 0 empty empty empty 17 7 0 10 -262144 -1
-1;
#X obj 343 316 prepend write;
#X obj 343 262 float \$1;
#X obj 343 289 makefilename sequencer%d-play.txt;
#X obj 7 249 prepend \$1-button;
#X text -188 438 current - last;
#X obj 67 -8 r smp-press-record;
#X obj -32 433 spigot;
#X obj -161 325 bng 15 250 50 0 \$1-start-recording empty empty 17
7 0 10 -262144 -1 -1;
#X obj -108 325 bng 15 250 50 0 empty empty empty 17 7 0 10 -262144
-1 -1;
#X obj 555 289 f;
#X msg 555 316 add \$1;
#X obj 555 235 delay;
#X obj 343 238 delay;
#X text 381 233 write file to disc;
#X obj -215 460 s \$1-sequence-timer;
#X obj -32 379 r \$1-sequence-timer;
#X obj -234 19 s \$1-sequence-gate;
#X obj 18 406 r \$1-sequence-gate;
#X obj 587 100 s \$1-sequence-gate;
#X obj 570 262 r \$1-sequence-timer;
#X text -312 314 2) start recording;
#X obj 571 127 s \$1-sequence-final;
#X obj -64 298 r \$1-sequence-final;
#X obj -32 460 zl join;
#X text -5 -37 0) start listening;
#X text -352 527 1) clear sequence list;
#X text -41 341 3) record time \, relative;
#X text -312 324 after start listening;
#X text -312 334 + first button press;
#X text -41 351 to 1st button press \,;
#X text -41 361 of each button press;
#X text 570 143 4) stop recording when;
#X text 570 153 record time reached:;
#X text 570 163 a) close gate - do not;
#X text 570 173 record button presses;
#X text 570 183 b) send final bang to timer;
#X text 570 193 c) add final time entry;
#X text 570 203 d) write sequence file;
#X obj 524 46 t b b b b b;
#X text 570 213 e) trigger sequence play;
#X obj -161 271 float 2;
#X obj -67 -8 r slice-press-record;
#X obj 524 19 delay;
#X obj 524 -28 r \$1-start-recording;
#X obj 551 -8 r \$1-record-time;
#X text 653 -14 receive record time from;
#X text 653 -4 sequence_ctl.pd;
#X text 561 19 stop after record time elapsed;
#X obj -122 -35 r \$1-listen-button;
#X obj -215 500 r \$1-listen-button;
#X obj 343 127 s \$1-recording-done-button;
#X obj 98 188 == \$1;
#X obj 67 134 t l l;
#X obj 94 161 unpack f f f;
#X obj 67 215 spigot 0;
#X obj 100 82 tgl 15 0 \$1-seq-row-toggle empty empty 17 7 0 10 -262144
-1 -1 0 1;
#X obj -14 80 tgl 15 0 \$1-seq-all-toggle empty empty 17 7 0 10 -262144
-1 -1 1 1;
#X obj -14 33 r \$1-sequence-mode;
#X text 99 26 sequence record mode;
#X text 105 46 3=audio row n \, 4=audio external only);
#X text 99 36 (0=button all rows \, 1=button row n \, 2=audio all rows
;
#X text 118 81 button row n;
#X obj -14 60 != 1;
#X text 2 79 all other modes;
#X text -15 15 route button press based upon recorder input selection
;
#X obj 100 62 == 1;
#X obj -47 105 spigot 0;
#X obj 67 107 spigot 0;
#X obj 199 190 t f b;
#X obj 226 210 f \$1;
#X obj 119 255 expr if($f1==$f2||$f1==$f2-8 \, 1 \, 0);
#X connect 1 0 0 0;
#X connect 2 0 6 0;
#X connect 2 0 8 0;
#X connect 2 0 4 0;
#X connect 3 0 24 0;
#X connect 4 0 32 0;
#X connect 5 0 7 1;
#X connect 6 0 7 1;
#X connect 7 0 4 1;
#X connect 8 0 7 0;
#X connect 9 0 34 0;
#X connect 9 0 58 1;
#X connect 10 0 36 0;
#X connect 11 0 58 1;
#X connect 12 0 25 0;
#X connect 13 0 14 0;
#X connect 13 0 58 0;
#X connect 14 0 26 0;
#X connect 17 0 56 0;
#X connect 18 0 0 0;
#X connect 19 0 20 0;
#X connect 20 0 18 0;
#X connect 21 0 41 1;
#X connect 23 0 84 0;
#X connect 23 0 85 0;
#X connect 24 0 41 0;
#X connect 25 0 2 0;
#X connect 25 0 5 0;
#X connect 26 0 2 1;
#X connect 27 0 28 0;
#X connect 28 0 0 0;
#X connect 29 0 27 0;
#X connect 30 0 19 0;
#X connect 33 0 3 0;
#X connect 35 0 24 1;
#X connect 37 0 27 1;
#X connect 40 0 26 0;
#X connect 41 0 0 0;
#X connect 56 0 68 0;
#X connect 56 1 30 0;
#X connect 56 2 29 0;
#X connect 56 3 39 0;
#X connect 56 4 10 0;
#X connect 58 0 11 0;
#X connect 58 0 12 0;
#X connect 59 0 84 0;
#X connect 59 0 85 0;
#X connect 60 0 56 0;
#X connect 61 0 60 0;
#X connect 62 0 60 1;
#X connect 66 0 9 0;
#X connect 67 0 1 0;
#X connect 70 0 72 0;
#X connect 70 1 71 0;
#X connect 71 1 86 0;
#X connect 72 0 21 0;
#X connect 72 0 13 0;
#X connect 73 0 85 1;
#X connect 74 0 84 1;
#X connect 75 0 80 0;
#X connect 75 0 83 0;
#X connect 80 0 74 0;
#X connect 83 0 73 0;
#X connect 84 0 21 0;
#X connect 84 0 13 0;
#X connect 85 0 70 0;
#X connect 86 0 88 0;
#X connect 86 1 87 0;
#X connect 87 0 88 1;
#X connect 88 0 72 1;
