#N canvas 91 160 1160 552 10;
#X obj 607 14 r \$1-listen-audio;
#X obj 574 224 f;
#X obj 606 224 + 1;
#X obj 574 199 bng 15 250 50 0 empty empty empty 17 7 0 10 -262144
-1 -1;
#X obj 607 91 t b b;
#X msg 607 145 1;
#X obj 574 172 spigot;
#X msg 648 118 0;
#X obj 585 328 s \$1-seq-record-trigger;
#X obj 574 118 r bpm-bang;
#X msg 541 445 color \$1;
#X msg 568 418 1;
#X obj 541 472 s \$1-sequence-progress-r;
#X msg 541 418 26;
#X obj 636 391 s \$1-sequence-led-on;
#X obj 648 445 s \$1-sequence-led-off;
#X obj 648 420 bng 15 250 50 0 empty empty empty 17 7 0 10 -262144
-1 -1;
#X msg 650 145 0;
#X obj 377 383 s lpy-count-in;
#X obj 568 391 delay 100;
#X obj 618 251 sel 4;
#X obj 541 356 bng 15 250 50 0 empty empty empty 17 7 0 10 -262144
-1 -1;
#X obj 574 252 < 4;
#X obj 541 329 spigot;
#X obj 607 66 spigot;
#X obj 640 41 tgl 15 0 empty \$1-seq-ext-mode empty 17 7 0 10 -262144
-1 -1 0 1;
#X obj 645 224 r seq-count-in-beats;
#X obj 377 329 r sequence-count-in-click;
#X obj 377 356 spigot;
#X text 642 85 on start listening reset count-in;
#X text 636 95 counter \, then pass bpm beats;
#X text 769 225 set count-in beats (4 or 8);
#X text 374 399 if click=on \, trigger click;
#X text 374 409 on each count-in beat;
#X obj 700 118 r \$1-reset;
#X text 765 118 recorder reset stops count-in;
#X text 656 246 if count<total: blink sequence led \, progress bar
;
#X text 656 256 if count=total: stop counting/blinking \, trigger record
;
#X obj 794 526 s \$1-sequence-progress-r;
#X obj 794 364 f;
#X msg 883 333 label;
#X obj 883 313 delay 200;
#X obj 794 310 sel 1;
#X obj 794 337 delay 1;
#X msg 873 286 label -GO-;
#X obj 117 70 receive~ seq-ext-1;
#X obj 133 90 receive~ seq-ext-2;
#X obj 150 110 receive~ seq-ext-3;
#X obj 167 130 receive~ seq-ext-4;
#X obj 184 150 receive~ seq-ext-5;
#X obj 201 170 receive~ seq-ext-6;
#X obj 218 190 receive~ seq-ext-7;
#X obj -19 247 mux~ . . . . . . . .;
#X obj 117 247 mux~ . . . . . . . .;
#X obj 235 210 receive~ seq-ext-8;
#X obj -19 18 r \$1-sequence-ext-source-L;
#X obj -8 38 r \$1-sequence-ext-source-R;
#X obj -19 274 send~ \$1-seq-ext-L;
#X obj 117 274 send~ \$1-seq-ext-R;
#X text 246 69 external audio inputs;
#X text 153 19 external source channel selection from ui;
#X text -22 -5 ROUTE EXTERNAL AUDIO INPUT TO RECORDER L/R;
#X text 606 -5 COUNT IN \, CLICK \, LED FLASH FOR EXTERNAL AUDIO RECORDING
;
#X text 658 41 external audio (mode 4);
#X obj 839 418 mod 4;
#X obj 794 418 div 4;
#X obj 794 472 pack f f;
#X obj 794 391 t f f;
#X obj 839 445 + 1;
#X obj 794 445 + 1;
#X msg 794 499 label \$1.\$2;
#X connect 0 0 24 0;
#X connect 1 0 2 0;
#X connect 1 0 20 0;
#X connect 1 0 22 0;
#X connect 1 0 39 1;
#X connect 1 0 28 0;
#X connect 2 0 1 1;
#X connect 3 0 1 0;
#X connect 3 0 23 0;
#X connect 4 0 5 0;
#X connect 4 1 7 0;
#X connect 5 0 6 1;
#X connect 6 0 3 0;
#X connect 7 0 1 1;
#X connect 9 0 6 0;
#X connect 10 0 12 0;
#X connect 11 0 10 0;
#X connect 13 0 10 0;
#X connect 16 0 15 0;
#X connect 17 0 6 1;
#X connect 19 0 16 0;
#X connect 19 0 11 0;
#X connect 20 0 17 0;
#X connect 20 0 8 0;
#X connect 20 0 14 0;
#X connect 20 0 44 0;
#X connect 20 0 41 0;
#X connect 21 0 13 0;
#X connect 21 0 14 0;
#X connect 21 0 19 0;
#X connect 22 0 23 1;
#X connect 22 0 42 0;
#X connect 23 0 21 0;
#X connect 24 0 4 0;
#X connect 25 0 24 1;
#X connect 26 0 22 1;
#X connect 26 0 20 1;
#X connect 27 0 28 1;
#X connect 28 0 18 0;
#X connect 34 0 17 0;
#X connect 39 0 67 0;
#X connect 40 0 38 0;
#X connect 41 0 40 0;
#X connect 42 0 43 0;
#X connect 43 0 39 0;
#X connect 44 0 38 0;
#X connect 45 0 53 0;
#X connect 45 0 52 0;
#X connect 46 0 52 1;
#X connect 46 0 53 1;
#X connect 47 0 52 2;
#X connect 47 0 53 2;
#X connect 48 0 52 3;
#X connect 48 0 53 3;
#X connect 49 0 52 4;
#X connect 49 0 53 4;
#X connect 50 0 52 5;
#X connect 50 0 53 5;
#X connect 51 0 52 6;
#X connect 51 0 53 6;
#X connect 52 0 57 0;
#X connect 53 0 58 0;
#X connect 54 0 52 7;
#X connect 54 0 53 7;
#X connect 55 0 52 0;
#X connect 56 0 53 0;
#X connect 64 0 68 0;
#X connect 65 0 69 0;
#X connect 66 0 70 0;
#X connect 67 0 65 0;
#X connect 67 1 64 0;
#X connect 68 0 66 1;
#X connect 69 0 66 0;
#X connect 70 0 38 0;
