#N canvas 880 393 355 438 10;
#X obj -39 339 arraycopy;
#X obj 109 -43 r \$1-record-time;
#X obj 109 -6 * 44.1;
#X obj -15 -6 f \$1;
#X obj -89 -70 r \$1-sequence-assign;
#X obj -90 149 pack f f f f;
#X obj -89 -6 unpack f f;
#X msg -39 242 copy \$3-sequence-A-L 0 \$4 \$1-\$2-L-A;
#X msg -56 262 copy \$3-sequence-A-L 0 \$4 \$1-\$2-L-B;
#X msg -73 282 copy \$3-sequence-A-L 0 \$4 \$1-\$2-R-A;
#X msg -90 302 copy \$3-sequence-A-L 0 \$4 \$1-\$2-R-B;
#X msg 23 176 \$1-\$2-L-A resize \$3 \; \$1-\$2-R-A resize \$3 \; \$1-\$2-L-B
resize \$3 \; \$1-\$2-R-B resize \$3;
#X obj 23 149 pack f f f;
#X obj 23 -6 unpack f f;
#X obj -89 -43 t l b l;
#X obj -90 176 t l l l l;
#X connect 1 0 2 0;
#X connect 2 0 5 3;
#X connect 2 0 12 2;
#X connect 3 0 5 2;
#X connect 4 0 14 0;
#X connect 5 0 15 0;
#X connect 6 0 5 0;
#X connect 6 1 5 1;
#X connect 7 0 0 0;
#X connect 8 0 0 0;
#X connect 9 0 0 0;
#X connect 10 0 0 0;
#X connect 12 0 11 0;
#X connect 13 0 12 0;
#X connect 13 1 12 1;
#X connect 14 0 6 0;
#X connect 14 1 3 0;
#X connect 14 2 13 0;
#X connect 15 0 10 0;
#X connect 15 1 9 0;
#X connect 15 2 8 0;
#X connect 15 3 7 0;
