#N canvas 696 245 481 510 10;
#X obj -129 59 bng 15 250 50 0 \$1-play-sequence-button \$1-play-sequence-button-r
empty 17 7 0 10 -262144 -1 -1;
#X text -131 43 play;
#X obj -91 59 bng 15 250 50 0 \$1-stop-sequence-button \$1-stop-sequence-button-r
empty 17 7 0 10 -262144 -1 -1;
#X text -94 43 stop;
#X obj -136 138 qlist;
#X obj -176 -3 prepend read;
#X msg -129 111 bang;
#X msg -91 111 rewind;
#X obj -176 -84 delay 1;
#X obj -176 -30 makefilename sequencer%d-play.txt;
#X obj -176 175 r \$1-button;
#X text -93 0 with timing;
#X text -91 -12 'play' file \,;
#X obj -176 337 spigot;
#X obj -176 371 s smp-press;
#X obj -41 337 spigot;
#X obj -41 371 s slice-press;
#X obj -143 283 expr if ($f1<=7 \, 1 \, 0) \; if ($f1>=8 \, 1 \, 0)
\;;
#X obj -176 256 t l l;
#X obj -176 -111 r \$1-recording-done-button;
#X obj -176 -57 f \$1;
#X obj -92 138 t b b;
#X obj -176 229 spigot 1;
#X obj -131 202 r \$1-sequence-mute;
#X connect 0 0 6 0;
#X connect 2 0 7 0;
#X connect 4 1 21 0;
#X connect 5 0 4 0;
#X connect 6 0 4 0;
#X connect 7 0 4 0;
#X connect 8 0 20 0;
#X connect 9 0 5 0;
#X connect 10 0 22 0;
#X connect 13 0 14 0;
#X connect 15 0 16 0;
#X connect 17 0 13 1;
#X connect 17 1 15 1;
#X connect 18 0 13 0;
#X connect 18 0 15 0;
#X connect 18 1 17 0;
#X connect 19 0 8 0;
#X connect 20 0 9 0;
#X connect 21 0 0 0;
#X connect 21 1 2 0;
#X connect 22 0 18 0;
#X connect 23 0 22 1;
