#N canvas 447 50 594 756 10;
#X obj -149 -13 bng 15 250 50 0 \$1-play-sequence-audio \$1-play-sequence-audio-r
empty 17 7 0 10 -262144 -1 -1;
#X text -151 -29 play;
#X obj -85 -12 bng 15 250 50 0 \$1-stop-sequence-audio \$1-stop-sequence-audio-r
empty 17 7 0 10 -262144 -1 -1;
#X text -98 -28 stop;
#X msg -30 412 stop;
#X obj -122 67 r \$1-record-time;
#X obj -116 148 tgl 15 0 empty empty empty 17 7 0 10 -262144 -1 -1
0 3;
#X obj -149 271 spigot;
#X obj -14 271 spigot;
#X obj -116 231 expr if ($f1==0 \, 1 \, 0) \; if ($f1!=0 \, 1 \, 0)
;
#X obj -99 272 tgl 15 0 empty empty empty 17 7 0 10 -262144 -1 -1 0
1;
#X obj 36 272 tgl 15 0 empty empty empty 17 7 0 10 -262144 -1 -1 0
1;
#X obj -149 121 t b b;
#X obj -148 539 *~;
#X obj -30 539 *~;
#X obj -122 503 line~;
#X msg -122 477 1 5;
#X msg 270 412 stop;
#X obj 152 539 *~;
#X obj 270 539 *~;
#X obj 178 503 line~;
#X msg 178 477 1 5;
#X obj -149 449 tabplay~ \$1-sequence-A-L;
#X obj -30 476 tabplay~ \$1-sequence-A-R;
#X obj -139 301 s \$1-seq-A-begin;
#X obj -149 321 s \$1-seq-B-end;
#X obj -4 301 s \$1-seq-B-begin;
#X obj -149 357 r \$1-seq-A-begin;
#X obj -30 358 r \$1-seq-A-end;
#X obj 151 357 r \$1-seq-B-begin;
#X obj 270 358 r \$1-seq-B-end;
#X obj 151 449 tabplay~ \$1-sequence-B-L;
#X obj 270 476 tabplay~ \$1-sequence-B-R;
#X obj -14 321 s \$1-seq-A-end;
#X obj -149 94 metro;
#X obj -75 13 s \$1-seq-B-end;
#X obj -85 40 s \$1-seq-A-end;
#X msg -125 13 stop;
#X msg -82 477 0 10;
#X obj -30 385 delay 10;
#X obj 270 385 delay 10;
#X msg 218 477 0 10;
#X obj -149 203 f;
#X text -121 202 adjust for external audio lag;
#X obj -134 176 r \$1-seq-latency;
#X obj -148 696 throw~ 1-out-L;
#X obj -30 696 throw~ 1-out-R;
#X obj 152 696 throw~ 1-out-L;
#X obj 270 696 throw~ 1-out-R;
#X obj 18 539 r \$1-sequence-mute;
#X obj 18 566 sel 0 1;
#X obj -148 666 *~;
#X obj -30 666 *~;
#X obj 152 666 *~;
#X obj 270 666 *~;
#X msg 58 593 1 5;
#X msg 18 593 0 10;
#X obj 18 620 line~;
#X obj 70 566 loadbang;
#X connect 0 0 34 0;
#X connect 2 0 35 0;
#X connect 2 0 36 0;
#X connect 2 0 37 0;
#X connect 4 0 22 0;
#X connect 4 0 23 0;
#X connect 5 0 34 1;
#X connect 6 0 9 0;
#X connect 7 0 24 0;
#X connect 7 0 25 0;
#X connect 8 0 26 0;
#X connect 8 0 33 0;
#X connect 9 0 7 1;
#X connect 9 0 10 0;
#X connect 9 1 8 1;
#X connect 9 1 11 0;
#X connect 12 0 42 0;
#X connect 12 1 6 0;
#X connect 13 0 51 0;
#X connect 14 0 52 0;
#X connect 15 0 14 1;
#X connect 15 0 13 1;
#X connect 16 0 15 0;
#X connect 17 0 31 0;
#X connect 17 0 32 0;
#X connect 18 0 53 0;
#X connect 19 0 54 0;
#X connect 20 0 19 1;
#X connect 20 0 18 1;
#X connect 21 0 20 0;
#X connect 22 0 13 0;
#X connect 23 0 14 0;
#X connect 27 0 16 0;
#X connect 27 0 22 0;
#X connect 27 0 23 0;
#X connect 28 0 38 0;
#X connect 28 0 39 0;
#X connect 29 0 21 0;
#X connect 29 0 31 0;
#X connect 29 0 32 0;
#X connect 30 0 41 0;
#X connect 30 0 40 0;
#X connect 31 0 18 0;
#X connect 32 0 19 0;
#X connect 34 0 12 0;
#X connect 37 0 34 0;
#X connect 38 0 15 0;
#X connect 39 0 4 0;
#X connect 40 0 17 0;
#X connect 41 0 20 0;
#X connect 42 0 7 0;
#X connect 42 0 8 0;
#X connect 44 0 42 1;
#X connect 49 0 50 0;
#X connect 50 0 56 0;
#X connect 50 1 55 0;
#X connect 51 0 45 0;
#X connect 52 0 46 0;
#X connect 53 0 47 0;
#X connect 54 0 48 0;
#X connect 55 0 57 0;
#X connect 56 0 57 0;
#X connect 57 0 51 1;
#X connect 57 0 52 1;
#X connect 57 0 53 1;
#X connect 57 0 54 1;
#X connect 58 0 55 0;
