#N canvas 6 6 1254 854 10;
#X obj 179 451 tgl 15 0 \$1-play-mode \$1-play-mode-r empty 17 7 0
10 -262144 -1 -1 0 1;
#X obj 179 476 sel 1;
#X obj 179 503 bng 15 250 50 0 \$1-play-sequence-r empty empty 17 7
0 10 -262144 -1 -1;
#X obj 206 504 bng 15 250 50 0 \$1-stop-sequence-r empty empty 17 7
0 10 -262144 -1 -1;
#X text 151 503 PLAY;
#X text 198 445 play/stop;
#X text 198 454 play-mode;
#X msg -242 288 1;
#X msg -168 288 0;
#X msg 229 273 0;
#X msg 81 286 1;
#X obj 648 76 r mpb;
#X obj 692 130 f;
#X obj 692 76 r \$1-sequence-beats;
#X obj 724 130 f;
#X obj 692 103 t b b;
#X obj 709 157 *;
#X floatatom 741 158 5 0 0 0 - - -;
#X text 585 73 millisec's;
#X text 585 83 per beat;
#X text 813 70 # of beats;
#X text 813 80 to record;
#X text 778 157 record time;
#X obj 709 184 s \$1-record-time;
#X text 816 178 send record time to;
#X text 816 188 sequence_record_audio;
#X obj 157 568 tgl 15 0 empty empty empty 17 7 0 10 -262144 -1 -1 0
1;
#X obj 124 593 spigot;
#X text 223 503 STOP;
#X obj 169 593 spigot;
#X obj 224 593 spigot;
#X obj 269 593 spigot;
#X obj 124 687 s \$1-play-sequence-button-r;
#X obj 169 667 s \$1-stop-sequence-button-r;
#X obj 269 620 s \$1-stop-sequence-audio-r;
#X obj 224 640 s \$1-play-sequence-audio-r;
#X obj 157 541 != 1;
#X obj 236 -148 r \$1-sequence-length;
#X obj 336 103 ftos;
#X text 394 157 send sequence length (beats) to ui;
#X obj 236 76 moses 10;
#X obj 235 241 r \$1-reset;
#X obj 179 424 spigot;
#X text 12 429 if recording done AND;
#X text 12 439 if not reset;
#X obj -242 231 r \$1-reset;
#X obj -304 231 r \$1-tap;
#X text -251 318 tap arms recording;
#X text -251 328 if recorder reset;
#X text 306 241 reset stops play;
#X obj 229 424 pipe 5;
#X obj 60 317 r quantize-bang;
#X msg 126 361 -1;
#X obj 60 371 moses 0;
#X obj -47 344 tgl 15 0 empty empty empty 17 7 0 10 -262144 -1 -1 0
1;
#X obj -80 369 spigot;
#X obj -85 342 == 0;
#X obj 35 344 tgl 15 0 empty empty empty 17 7 0 10 -262144 -1 -1 1
1;
#X obj 2 371 spigot;
#X obj 60 344 f -1;
#X obj -286 296 bng 15 250 50 0 empty empty empty 17 7 0 10 -262144
-1 -1;
#X msg 289 287 0;
#X obj 289 424 spigot;
#X obj 289 267 r all-off-sequence;
#X obj 302 503 tgl 15 0 empty \$1-record-audio-toggle empty 17 7 0
10 -262144 -1 -1 1 1;
#X text 317 502 play audio;
#X text 77 566 play buttons;
#X obj -304 359 bng 15 250 50 0 \$1-start-listening-r empty empty 17
7 0 10 -262144 -1 -1;
#X obj -271 468 tgl 15 0 empty empty empty 17 7 0 10 -262144 -1 -1
0 1;
#X obj -271 441 != 1;
#X obj -304 493 spigot;
#X obj -259 493 spigot;
#X obj -304 520 s \$1-listen-button;
#X obj -259 540 s \$1-listen-audio;
#X obj -226 413 tgl 15 0 empty \$1-record-audio-toggle empty 17 7 0
10 -262144 -1 -1 1 1;
#X text -211 412 record audio;
#X text -255 467 record buttons;
#X obj 582 -148 r \$1-sequence-send-ui;
#X obj 582 -121 bng 15 250 50 0 empty empty empty 17 7 0 10 -262144
-1 -1;
#X obj 582 -96 f \$1;
#X obj 582 -69 s sequence-send;
#X obj 236 49 pow;
#X obj 236 -5 t b f;
#X msg 236 22 2;
#X obj 236 -59 f;
#X obj 272 -59 + 1;
#X obj 236 -32 mod 7;
#X obj 256 -81 bng 15 250 50 0 empty empty empty 17 7 0 10 -262144
-1 -1;
#X text 276 -82 click on ui;
#X obj 256 -108 r \$1-sequence-length-ui;
#X obj 236 157 s \$1-sequence-length-ui-r;
#X obj 297 76 s \$1-sequence-beats;
#X text 423 77 sequence length = code^2;
#X obj 286 -5 s \$1-sequence-beats-code;
#X msg 236 130 label 0\$1_beats;
#X msg 336 130 label \$1_beats;
#X obj -267 -60 f;
#X obj -231 -60 + 1;
#X obj -247 -82 bng 15 250 50 0 empty empty empty 17 7 0 10 -262144
-1 -1;
#X text -227 -83 click on ui;
#X obj -222 81 f \$1;
#X text -64 197 set ui for;
#X text -64 207 sequence record mode;
#X obj -207 203 s \$1-sequence-mode-ui-r;
#X obj -247 -108 r \$1-sequence-mode-ui;
#X obj -227 -6 tgl 15 0 \$1-record-audio-toggle \$1-record-audio-toggle-r
empty 17 7 0 10 -262144 -1 -1 1 1;
#X text -206 -8 record audio toggle;
#X obj -267 -148 r \$1-sequence-mode-load;
#X obj -257 13 s \$1-sequence-mode;
#X text -143 14 send to recorders;
#X obj -168 231 r \$1-recording-done-button;
#X obj -128 258 r \$1-recording-done-audio;
#X obj -257 -128 r sequence-mode;
#X text -204 -45 sequence record mode;
#X obj 246 -128 r sequence-length;
#X text -124 -152 receive sequence mode;
#X text -124 -142 ...from config or saved set;
#X text -164 -128 ...from master recorder settings;
#X text 360 -153 receive sequence length code;
#X text 360 -143 ...from config or saved set;
#X text 352 -127 ...from master recorder settings;
#X text 714 -153 click on ui to send contents of this;
#X text 714 -143 recorder to a sample bank location;
#X obj -304 322 spigot 1;
#X text -288 350 arm recording: start listening;
#X text -288 360 for 1st button press (button or;
#X text -288 370 internal audio mode) or begin;
#X text -288 380 count-in (external audio mode);
#X text 436 -10 send sequence length code;
#X text 436 0 to save with set;
#X obj 528 241 r \$1-sequence-ext-L-ui;
#X obj 508 425 s \$1-sequence-ext-L-ui-r;
#X obj 508 290 f;
#X obj 544 290 + 1;
#X obj 528 268 bng 15 250 50 0 empty empty empty 17 7 0 10 -262144
-1 -1;
#X text 548 267 click on ui;
#X obj 508 317 mod 8;
#X obj 508 344 + 1;
#X obj 508 371 ftos;
#X msg 508 398 label \$1;
#X obj 713 290 f;
#X obj 749 290 + 1;
#X obj 733 268 bng 15 250 50 0 empty empty empty 17 7 0 10 -262144
-1 -1;
#X text 753 267 click on ui;
#X obj 713 317 mod 8;
#X obj 713 344 + 1;
#X obj 713 371 ftos;
#X msg 713 398 label \$1;
#X obj 733 241 r \$1-sequence-ext-R-ui;
#X obj 713 425 s \$1-sequence-ext-R-ui-r;
#X obj 741 344 s \$1-sequence-ext-source-R;
#X obj 536 344 s \$1-sequence-ext-source-L;
#X msg 498 241 0;
#X msg 703 241 1;
#X obj 628 201 loadbang;
#X obj -267 34 sel 0 1 2 3 4;
#X obj -267 -33 mod 5;
#X text -204 -35 (0=button \, 1=button row n \, 2=audio all rows;
#X text -198 -25 3=audio row n \, 4=audio external only);
#X obj -252 141 f \$1;
#X obj -227 -33 > 1;
#X obj -47 317 r quantize-on;
#X msg -252 161 label Button-\$1;
#X msg -207 61 label Audio-EXT;
#X msg -222 101 label Audio-\$1;
#X msg -237 121 label Audio-ALL;
#X msg -267 181 label Button-ALL;
#X obj -52 552 tgl 15 0 empty empty empty 17 7 0 10 -262144 -1 -1 1
1;
#X obj -52 577 s \$1-sequence-mute;
#X text 339 325 tap toggles;
#X obj -52 493 r \$1-tap;
#X obj -52 525 delay 1;
#X text 339 335 mute on/off;
#X text 339 345 in play mode;
#X msg 14 525 1;
#X text 12 419 tap only controls play/mute;
#X text -35 551 0=mute \, 1=sound;
#X connect 0 0 1 0;
#X connect 0 0 62 1;
#X connect 0 0 174 0;
#X connect 1 0 2 0;
#X connect 1 1 3 0;
#X connect 2 0 27 0;
#X connect 2 0 30 0;
#X connect 3 0 29 0;
#X connect 3 0 31 0;
#X connect 7 0 123 1;
#X connect 8 0 123 1;
#X connect 9 0 0 0;
#X connect 9 0 42 1;
#X connect 9 0 50 0;
#X connect 10 0 42 1;
#X connect 10 0 55 0;
#X connect 10 0 59 1;
#X connect 11 0 12 1;
#X connect 11 0 15 0;
#X connect 12 0 16 0;
#X connect 13 0 14 1;
#X connect 13 0 15 0;
#X connect 14 0 16 1;
#X connect 15 0 12 0;
#X connect 15 1 14 0;
#X connect 16 0 17 0;
#X connect 16 0 23 0;
#X connect 26 0 27 1;
#X connect 26 0 29 1;
#X connect 27 0 32 0;
#X connect 29 0 33 0;
#X connect 30 0 35 0;
#X connect 31 0 34 0;
#X connect 36 0 26 0;
#X connect 37 0 84 0;
#X connect 38 0 95 0;
#X connect 40 0 94 0;
#X connect 40 1 38 0;
#X connect 41 0 9 0;
#X connect 42 0 0 0;
#X connect 45 0 7 0;
#X connect 46 0 60 0;
#X connect 46 0 123 0;
#X connect 50 0 0 0;
#X connect 51 0 59 0;
#X connect 52 0 59 1;
#X connect 53 1 52 0;
#X connect 53 1 58 0;
#X connect 54 0 55 1;
#X connect 55 0 42 0;
#X connect 56 0 54 0;
#X connect 57 0 58 1;
#X connect 58 0 42 0;
#X connect 59 0 53 0;
#X connect 61 0 62 0;
#X connect 62 0 0 0;
#X connect 63 0 61 0;
#X connect 64 0 30 1;
#X connect 64 0 31 1;
#X connect 64 0 36 0;
#X connect 67 0 70 0;
#X connect 67 0 71 0;
#X connect 68 0 70 1;
#X connect 69 0 68 0;
#X connect 70 0 72 0;
#X connect 71 0 73 0;
#X connect 74 0 69 0;
#X connect 74 0 71 1;
#X connect 77 0 78 0;
#X connect 78 0 79 0;
#X connect 79 0 80 0;
#X connect 81 0 40 0;
#X connect 81 0 91 0;
#X connect 82 0 83 0;
#X connect 82 1 81 1;
#X connect 83 0 81 0;
#X connect 84 0 86 0;
#X connect 85 0 84 1;
#X connect 86 0 85 0;
#X connect 86 0 82 0;
#X connect 86 0 93 0;
#X connect 87 0 84 0;
#X connect 89 0 87 0;
#X connect 94 0 90 0;
#X connect 95 0 90 0;
#X connect 96 0 156 0;
#X connect 97 0 96 1;
#X connect 98 0 96 0;
#X connect 100 0 164 0;
#X connect 104 0 98 0;
#X connect 107 0 96 0;
#X connect 110 0 8 0;
#X connect 110 0 10 0;
#X connect 111 0 8 0;
#X connect 111 0 10 0;
#X connect 112 0 96 0;
#X connect 114 0 84 0;
#X connect 123 0 67 0;
#X connect 130 0 134 0;
#X connect 132 0 136 0;
#X connect 133 0 132 1;
#X connect 134 0 132 0;
#X connect 136 0 133 0;
#X connect 136 0 137 0;
#X connect 136 0 151 0;
#X connect 137 0 138 0;
#X connect 138 0 139 0;
#X connect 139 0 131 0;
#X connect 140 0 144 0;
#X connect 141 0 140 1;
#X connect 142 0 140 0;
#X connect 144 0 141 0;
#X connect 144 0 145 0;
#X connect 144 0 150 0;
#X connect 145 0 146 0;
#X connect 146 0 147 0;
#X connect 147 0 149 0;
#X connect 148 0 142 0;
#X connect 152 0 132 0;
#X connect 153 0 140 0;
#X connect 154 0 152 0;
#X connect 154 0 153 0;
#X connect 155 0 166 0;
#X connect 155 1 159 0;
#X connect 155 2 165 0;
#X connect 155 3 100 0;
#X connect 155 4 163 0;
#X connect 156 0 97 0;
#X connect 156 0 108 0;
#X connect 156 0 155 0;
#X connect 156 0 160 0;
#X connect 159 0 162 0;
#X connect 160 0 105 0;
#X connect 161 0 57 0;
#X connect 161 0 56 0;
#X connect 162 0 103 0;
#X connect 163 0 103 0;
#X connect 164 0 103 0;
#X connect 165 0 103 0;
#X connect 166 0 103 0;
#X connect 167 0 168 0;
#X connect 170 0 171 0;
#X connect 171 0 167 0;
#X connect 174 0 167 0;
