#N canvas 324 500 833 300 10;
#X obj 294 -10 r \$1-play-mode;
#X obj 294 17 sel 1;
#X obj -46 248 s \$1-sequence-led-on;
#X obj 597 -10 r \$1-sequence-led-on;
#X obj 629 10 r \$1-sequence-led-off;
#X msg 635 43 1;
#X msg 674 43 0;
#X obj 674 80 t b f;
#X obj 674 107 f \$1;
#X obj 674 161 pack f f;
#X obj 108 -10 r \$1-reset;
#X obj 108 44 t b b;
#X obj -46 -10 r \$1-start-listening-r;
#X obj 267 248 s \$1-sequence-led-off;
#X obj -10 90 r bpm-bang;
#X obj -10 184 sel 1;
#X obj 395 133 r mpb;
#X obj 267 221 delay;
#X obj 395 160 * 0.2;
#X obj -10 156 spigot;
#X msg 135 71 0;
#X msg 175 71 1;
#X obj 349 160 * 1.8;
#X obj 294 194 f;
#X obj 321 194 f;
#X obj -10 119 counter 1;
#X obj 182 -10 r clear-all-led;
#X obj 108 17 delay 10;
#X text 329 111 adjust blink delay for play/stop;
#X text 147 33 on reset or clear-all;
#X text 147 43 stop blink from bpm;
#X text 147 53 and clear led;
#X text -36 6 on recording armed;
#X text -36 16 turn led on;
#X text 383 -15 on play/stop;
#X text 383 -5 start blink from bpm;
#X obj 294 44 bng 15 250 50 0 empty empty empty 17 7 0 10 -262144 -1
-1;
#X obj 321 44 bng 15 250 50 0 empty empty empty 17 7 0 10 -262144 -1
-1;
#X obj 311 221 r \$1-recording-done;
#X text 433 221 blink led off when;
#X text 433 231 recording finishes;
#X obj 674 134 + 0;
#X msg 674 188 \; leds-out \$1 0 \$2;
#X msg 527 134 26 0;
#X msg 589 134 0 12;
#X msg 527 161 color \$1 \$1 \$2;
#X obj 527 188 s \$1-sequence-name-ui-r;
#X connect 0 0 1 0;
#X connect 0 0 21 0;
#X connect 1 0 36 0;
#X connect 1 1 37 0;
#X connect 3 0 43 0;
#X connect 3 0 5 0;
#X connect 4 0 44 0;
#X connect 4 0 6 0;
#X connect 5 0 7 0;
#X connect 6 0 7 0;
#X connect 7 0 8 0;
#X connect 7 1 9 1;
#X connect 8 0 41 0;
#X connect 9 0 42 0;
#X connect 10 0 27 0;
#X connect 11 0 13 0;
#X connect 11 1 20 0;
#X connect 12 0 2 0;
#X connect 14 0 25 0;
#X connect 15 0 2 0;
#X connect 15 0 17 0;
#X connect 16 0 22 0;
#X connect 16 0 18 0;
#X connect 17 0 13 0;
#X connect 18 0 24 1;
#X connect 19 0 15 0;
#X connect 20 0 19 1;
#X connect 21 0 19 1;
#X connect 22 0 23 1;
#X connect 23 0 17 1;
#X connect 24 0 17 1;
#X connect 25 0 19 0;
#X connect 26 0 27 0;
#X connect 27 0 11 0;
#X connect 36 0 23 0;
#X connect 37 0 24 0;
#X connect 38 0 13 0;
#X connect 41 0 9 0;
#X connect 43 0 45 0;
#X connect 44 0 45 0;
#X connect 45 0 46 0;
