#N canvas 122 296 419 354 10;
#X obj -76 118 metro;
#X obj -66 -37 r \$1-record-audio;
#X obj -76 -10 t b b;
#X msg -49 64 0;
#X obj -76 145 f;
#X obj -44 145 + 1;
#X obj -19 64 r \$1-record-time;
#X msg 82 10 stop;
#X obj -19 91 / 128;
#X obj 122 10 delay 500;
#X obj 122 -15 bng 15 250 50 0 empty empty empty 17 7 0 10 -262144
-1 -1;
#X obj -76 253 s \$1-sequence-progress-r;
#X obj -76 -64 r \$1-start-recording;
#X obj 122 -64 r \$1-recording-done-button;
#X obj 142 -43 r \$1-recording-done-audio;
#X obj -66 172 sel 1 95 119;
#X msg -66 226 color \$1 \$2 \$3;
#X msg -66 199 26 0 0;
#X msg -16 199 14 12 12;
#X msg 45 199 13 12 12;
#X msg 105 199 1 12 12;
#X connect 0 0 4 0;
#X connect 1 0 2 0;
#X connect 2 0 0 0;
#X connect 2 1 3 0;
#X connect 3 0 4 0;
#X connect 4 0 5 0;
#X connect 4 0 11 0;
#X connect 4 0 15 0;
#X connect 5 0 4 1;
#X connect 6 0 8 0;
#X connect 7 0 0 0;
#X connect 8 0 0 1;
#X connect 9 0 20 0;
#X connect 9 0 3 0;
#X connect 10 0 9 0;
#X connect 10 0 7 0;
#X connect 12 0 2 0;
#X connect 13 0 10 0;
#X connect 14 0 10 0;
#X connect 15 0 17 0;
#X connect 15 1 18 0;
#X connect 15 2 19 0;
#X connect 16 0 11 0;
#X connect 17 0 16 0;
#X connect 18 0 16 0;
#X connect 19 0 16 0;
#X connect 20 0 16 0;
