#N canvas 577 181 411 476 10;
#X obj -119 357 soundfiler;
#X obj -119 276 f;
#X obj -119 303 pack f s;
#X msg -119 330 write -wave -nframes \$1 \$2 1-sequence-A-L 1-sequence-A-R
;
#X obj -104 222 r \$1-record-time;
#X obj -104 249 * 44.1;
#X obj -119 -63 bng 15 250 50 0 empty empty empty 17 7 0 10 -262144
-1 -1;
#X msg 16 197 label \$1;
#X obj -109 26 splitfilename;
#X text -26 19 save file name;
#X text -26 29 to ui display;
#X obj -119 -38 savepanel;
#X obj -119 195 t b s;
#X text -53 357 write recording from pd arrays to file on disk;
#X obj -119 -90 r \$1-sequence-save-ui;
#X text 47 -17 save file name;
#X text 47 -7 to send/catch;
#X obj 16 222 s \$1-sequence-name-ui-r;
#X obj -99 -11 s \$1-sequence-name;
#X obj 53 -90 loadbang;
#X obj 53 -70 f \$1;
#X obj 53 -50 makefilename /recorder%d.wav;
#X obj 56 83 r \$1-sequence-scroll;
#X obj 16 170 text_scroll;
#X obj 16 56 t b a;
#X obj 16 143 list;
#X obj 56 110 bng 15 250 50 0 empty scroll-bang empty 17 7 0 10 -262144
-1 -1;
#X connect 1 0 2 0;
#X connect 2 0 3 0;
#X connect 3 0 0 0;
#X connect 4 0 5 0;
#X connect 5 0 1 1;
#X connect 6 0 11 0;
#X connect 7 0 17 0;
#X connect 8 1 24 0;
#X connect 11 0 8 0;
#X connect 11 0 12 0;
#X connect 11 0 18 0;
#X connect 12 0 1 0;
#X connect 12 1 2 1;
#X connect 14 0 6 0;
#X connect 19 0 20 0;
#X connect 20 0 21 0;
#X connect 21 0 18 0;
#X connect 21 0 8 0;
#X connect 22 0 26 0;
#X connect 23 0 7 0;
#X connect 24 0 25 0;
#X connect 24 1 25 1;
#X connect 25 0 23 0;
#X connect 26 0 25 0;
