#N canvas 0 0 1265 758 10;
#X obj -260 155 list trim;
#X obj 384 -21 bng 15 250 50 0 empty empty empty 17 7 0 10 -262144
-1 -1;
#X obj 438 650 textfile;
#X msg 938 137 clear;
#X obj 438 623 prepend add;
#X obj 825 217 pack s f;
#X obj 835 197 r bpm;
#X msg 825 177 symbol bpm;
#X obj 715 277 pack s f;
#X msg 715 237 symbol beats;
#X text 797 250 standard beats;
#X text 797 260 per loop;
#X text 873 190 beats per;
#X text 873 200 minute;
#X obj 448 517 r monome-size;
#X obj 438 537 pack s f;
#X msg 438 497 symbol monome;
#X text 540 514 1 = 64;
#X text 540 524 2 = 128 horizontal;
#X text 540 534 3 = 128 vertical;
#X text 540 544 4 = 256;
#X obj 98 317 r prefix-toggle;
#X msg 88 297 symbol prefix;
#X obj 88 337 pack s f;
#X text 196 311 auto-set;
#X text 196 321 monomeserial;
#X text 196 331 prefix;
#X obj 615 347 pack s f;
#X msg 615 307 symbol quantize;
#X text 734 320 quantization;
#X text 734 334 0 = off;
#X text 734 344 1 = 1/32;
#X text 734 354 2 = 1/16;
#X text 734 364 3 = 1/8;
#X text 734 374 4 = 1/4;
#X obj 537 417 pack s f;
#X obj 547 397 r microfade;
#X msg 537 377 symbol microfade;
#X text 620 392 microfade;
#X text 620 406 in millisec's;
#X obj 725 257 r std-beats;
#X obj 227 397 r load-file-config;
#X msg 217 377 symbol lastfile;
#X text 342 397 last sample file loaded;
#X obj 217 417 pack s s;
#X obj 317 477 pack s f;
#X obj 327 457 r auto-file-toggle;
#X msg 317 437 symbol autofile;
#X text 443 457 auto-load last sample file;
#X msg -260 128 write pd_mlr_config.txt;
#X obj 384 -48 r mlr-save-config;
#X obj -260 422 r mlr-save-config;
#X msg -260 581 color 28 28 0;
#X msg -240 521 color 0 0 28;
#X msg -250 561 label saving;
#X msg -230 501 label save_current;
#X obj -230 608 s mlr-save-config-r;
#X text -103 601 ui for configuration;
#X text -103 611 save-current button;
#X obj -260 449 bng 15 250 50 0 empty empty empty 17 7 0 10 -262144
-1 -1;
#X obj -240 474 delay 1000;
#X obj 625 327 r quantize-config;
#X obj 384 4 t b b b b b b b b b b b b;
#X connect 0 0 2 0;
#X connect 1 0 62 0;
#X connect 3 0 2 0;
#X connect 4 0 2 0;
#X connect 5 0 4 0;
#X connect 6 0 5 1;
#X connect 7 0 5 0;
#X connect 8 0 4 0;
#X connect 9 0 8 0;
#X connect 14 0 15 1;
#X connect 15 0 4 0;
#X connect 16 0 15 0;
#X connect 21 0 23 1;
#X connect 22 0 23 0;
#X connect 23 0 4 0;
#X connect 27 0 4 0;
#X connect 28 0 27 0;
#X connect 35 0 4 0;
#X connect 36 0 35 1;
#X connect 37 0 35 0;
#X connect 40 0 8 1;
#X connect 41 0 44 1;
#X connect 42 0 44 0;
#X connect 44 0 4 0;
#X connect 45 0 4 0;
#X connect 46 0 45 1;
#X connect 47 0 45 0;
#X connect 49 0 0 0;
#X connect 50 0 1 0;
#X connect 51 0 59 0;
#X connect 52 0 56 0;
#X connect 53 0 56 0;
#X connect 54 0 56 0;
#X connect 55 0 56 0;
#X connect 59 0 54 0;
#X connect 59 0 52 0;
#X connect 59 0 60 0;
#X connect 60 0 55 0;
#X connect 60 0 53 0;
#X connect 61 0 27 1;
#X connect 62 0 49 0;
#X connect 62 3 22 0;
#X connect 62 4 42 0;
#X connect 62 5 47 0;
#X connect 62 6 16 0;
#X connect 62 7 37 0;
#X connect 62 8 28 0;
#X connect 62 9 9 0;
#X connect 62 10 7 0;
#X connect 62 11 3 0;
