#N canvas 35 446 552 375 10;
#X obj -41 -61 inlet;
#X obj -25 54 r 0-record-audio-toggle;
#X obj -9 74 r 1-record-audio-toggle;
#X obj 7 94 r 2-record-audio-toggle;
#X obj 23 114 r 3-record-audio-toggle;
#X obj 39 134 r 4-record-audio-toggle;
#X obj 55 154 r 5-record-audio-toggle;
#X obj 71 174 r 6-record-audio-toggle;
#X obj 88 194 r 7-record-audio-toggle;
#X msg -41 34 symbol sequence-mode;
#X obj -41 226 pack s f f f f f f f f;
#X obj 246 226 pack s f f f f f f f f;
#X obj 262 54 r 0-sequence-beats;
#X obj 278 74 r 1-sequence-beats;
#X obj 294 94 r 2-sequence-beats;
#X obj 326 134 r 4-sequence-beats;
#X obj 342 154 r 5-sequence-beats;
#X obj 358 174 r 6-sequence-beats;
#X obj 375 194 r 7-sequence-beats;
#X obj -41 -34 t b b;
#X msg 246 34 symbol sequence-beats;
#X obj -41 283 outlet;
#X obj 310 114 r 3-sequence-beats;
#X connect 0 0 19 0;
#X connect 1 0 10 1;
#X connect 2 0 10 2;
#X connect 3 0 10 3;
#X connect 4 0 10 4;
#X connect 5 0 10 5;
#X connect 6 0 10 6;
#X connect 7 0 10 7;
#X connect 8 0 10 8;
#X connect 9 0 10 0;
#X connect 10 0 21 0;
#X connect 11 0 21 0;
#X connect 12 0 11 1;
#X connect 13 0 11 2;
#X connect 14 0 11 3;
#X connect 15 0 11 5;
#X connect 16 0 11 6;
#X connect 17 0 11 7;
#X connect 18 0 11 8;
#X connect 19 0 9 0;
#X connect 19 1 20 0;
#X connect 20 0 11 0;
#X connect 22 0 11 4;
