#N canvas 296 267 978 336 10;
#X obj 305 298 outlet;
#X obj 26 -1 inlet;
#X msg 336 204 symbol filename;
#X msg 104 52 1;
#X obj 37 80 spigot;
#X obj 186 -1 loadbang;
#X msg 70 53 0;
#X obj 70 26 bang;
#X obj 305 231 pack \$1 s s;
#X obj 248 -1 r \$1-filenamesave;
#X obj 70 -1 r \$1-sample-clear;
#X obj -82 204 r \$1-speed;
#X msg -114 184 symbol speed;
#X msg 26 184 symbol pitch;
#X obj 58 204 r \$1-pitch;
#X obj 208 204 r \$1-group;
#X msg 176 184 symbol group;
#X obj -145 231 pack \$1 s f;
#X obj -5 231 pack \$1 s f;
#X obj 145 231 pack \$1 s f;
#X obj -262 204 r \$1-reverse-toggle;
#X obj -325 231 pack \$1 s f;
#X msg -294 184 symbol reverse;
#X obj 37 110 t b b b b b b b b b b;
#X connect 1 0 4 0;
#X connect 2 0 8 1;
#X connect 3 0 4 1;
#X connect 4 0 23 0;
#X connect 5 0 6 0;
#X connect 6 0 4 1;
#X connect 7 0 6 0;
#X connect 8 0 0 0;
#X connect 9 0 3 0;
#X connect 9 0 8 2;
#X connect 10 0 7 0;
#X connect 11 0 17 2;
#X connect 12 0 17 1;
#X connect 13 0 18 1;
#X connect 14 0 18 2;
#X connect 15 0 19 2;
#X connect 16 0 19 1;
#X connect 17 0 0 0;
#X connect 18 0 0 0;
#X connect 19 0 0 0;
#X connect 20 0 21 2;
#X connect 21 0 0 0;
#X connect 22 0 21 1;
#X connect 23 0 21 0;
#X connect 23 1 22 0;
#X connect 23 2 17 0;
#X connect 23 3 12 0;
#X connect 23 4 18 0;
#X connect 23 5 13 0;
#X connect 23 6 19 0;
#X connect 23 7 16 0;
#X connect 23 8 8 0;
#X connect 23 9 2 0;
