#N canvas 555 258 552 238 10;
#X obj -51 -14 unpack f f f f f f f f;
#X obj 236 -14 unpack f f f f f f f f;
#X obj -51 -41 inlet;
#X obj 236 -41 inlet;
#X obj 78 13 s 7-record-audio-toggle-r;
#X obj 59 33 s 6-record-audio-toggle-r;
#X obj 41 53 s 5-record-audio-toggle-r;
#X obj 22 73 s 4-record-audio-toggle-r;
#X obj 4 93 s 3-record-audio-toggle-r;
#X obj -15 113 s 2-record-audio-toggle-r;
#X obj -33 133 s 1-record-audio-toggle-r;
#X obj -51 153 s 0-record-audio-toggle-r;
#X obj 365 13 s 7-sequence-length;
#X obj 346 33 s 6-sequence-length;
#X obj 328 53 s 5-sequence-length;
#X obj 309 73 s 4-sequence-length;
#X obj 272 113 s 2-sequence-length;
#X obj 254 133 s 1-sequence-length;
#X obj 236 153 s 0-sequence-length;
#X obj 291 93 s 3-sequence-length;
#X connect 0 0 11 0;
#X connect 0 1 10 0;
#X connect 0 2 9 0;
#X connect 0 3 8 0;
#X connect 0 4 7 0;
#X connect 0 5 6 0;
#X connect 0 6 5 0;
#X connect 0 7 4 0;
#X connect 1 0 18 0;
#X connect 1 1 17 0;
#X connect 1 2 16 0;
#X connect 1 3 19 0;
#X connect 1 4 15 0;
#X connect 1 5 14 0;
#X connect 1 6 13 0;
#X connect 1 7 12 0;
#X connect 2 0 0 0;
#X connect 3 0 1 0;
