#N canvas 382 36 825 727 10;
#X obj -416 275 textfile;
#X obj -416 -25 openpanel;
#X msg -376 239 rewind;
#X msg -327 240 clear;
#X obj -416 239 until;
#X msg -416 157 read \$1;
#X obj -416 184 t b b a b;
#X msg -276 184 label \$1;
#X obj -351 157 splitfilename;
#X obj -378 211 bng 15 250 50 0 empty empty empty 17 7 0 10 -262144
-1 -1;
#X obj -65 412 mlr_load_row 1;
#X obj -416 482 s bpm;
#X msg -416 211 500;
#X obj -65 362 route 1 2 3 4 5 6 7 8 9 10 11 12 13 14 15 16 17 18 19
20 21 22 23 24 25 26 27 28 29 30;
#X obj -248 40 s mlr-stop;
#X text -181 34 on whole page load;
#N canvas 35 295 628 120 mlr_load_mixer 0;
#X obj 132 -13 inlet;
#X obj 132 14 unpack f f f f f f f f f;
#X obj -84 59 s master-gain-r;
#X obj 10 59 s 0-gain-r;
#X obj 74 59 s 1-gain-r;
#X obj 138 59 s 2-gain-r;
#X obj 202 59 s 3-gain-r;
#X obj 266 59 s 4-gain-r;
#X obj 330 59 s 5-gain-r;
#X obj 394 59 s 6-gain-r;
#X obj 458 59 s 7-gain-r;
#X connect 0 0 1 0;
#X connect 1 0 2 0;
#X connect 1 1 3 0;
#X connect 1 2 4 0;
#X connect 1 3 5 0;
#X connect 1 4 6 0;
#X connect 1 5 7 0;
#X connect 1 6 8 0;
#X connect 1 7 9 0;
#X connect 1 8 10 0;
#X restore -242 382 pd mlr_load_mixer;
#X obj -239 157 s load-file-config;
#X text -144 210 load file name for ui display;
#X text -124 157 load file name for config file save/load;
#X obj -276 209 s load-file-display-r;
#X obj -416 -77 r mlr-load-set;
#X obj -351 76 r lastfile;
#X text -323 -78 load sample set file - click on ui;
#X text -282 76 load sample set file - config auto load;
#X obj -351 103 l2s;
#X obj -368 40 s clear-all-sample;
#X text -181 44 clear samples \, clear leds;
#X obj -351 130 pipe s 1000;
#X obj -207 362 mlr_load_sequence;
#X obj -382 462 s beats-r;
#X obj -347 442 s quantize-r;
#X obj -277 402 s monome-size;
#X obj -312 422 s microfade-r;
#X obj -416 302 route bpm beats quantize microfade monome mixer sequence-mode
sequence-beats;
#X obj -382 342 + 0.001;
#X obj -416 2 t s b b;
#X obj -416 -50 bng 15 250 50 0 empty empty empty 17 7 0 10 -262144
-1 -1;
#X obj -54 432 mlr_load_row 2;
#X obj -42 452 mlr_load_row 3;
#X obj -30 472 mlr_load_row 4;
#X obj -19 492 mlr_load_row 5;
#X obj -7 512 mlr_load_row 6;
#X obj 7 532 mlr_load_row 7;
#X obj 40 592 mlr_load_row 10;
#X obj 52 412 mlr_load_row 11;
#X obj 63 432 mlr_load_row 12;
#X obj 75 452 mlr_load_row 13;
#X obj 87 472 mlr_load_row 14;
#X obj 98 492 mlr_load_row 15;
#X obj 26 572 mlr_load_row 9;
#X obj 16 552 mlr_load_row 8;
#X obj 110 512 mlr_load_row 16;
#X obj 122 532 mlr_load_row 17;
#X obj 133 552 mlr_load_row 18;
#X obj 145 572 mlr_load_row 19;
#X obj 157 592 mlr_load_row 20;
#X obj 169 412 mlr_load_row 21;
#X obj 180 432 mlr_load_row 22;
#X obj 192 452 mlr_load_row 23;
#X obj 204 472 mlr_load_row 24;
#X obj 215 492 mlr_load_row 25;
#X obj 227 512 mlr_load_row 26;
#X obj 239 532 mlr_load_row 27;
#X obj 250 552 mlr_load_row 28;
#X obj 262 572 mlr_load_row 29;
#X obj 274 592 mlr_load_row 30;
#X connect 0 0 34 0;
#X connect 0 1 4 1;
#X connect 1 0 36 0;
#X connect 2 0 0 0;
#X connect 3 0 0 0;
#X connect 4 0 0 0;
#X connect 5 0 6 0;
#X connect 6 0 12 0;
#X connect 6 1 2 0;
#X connect 6 2 0 0;
#X connect 6 3 3 0;
#X connect 7 0 20 0;
#X connect 8 1 7 0;
#X connect 9 0 0 0;
#X connect 12 0 4 0;
#X connect 13 0 10 0;
#X connect 13 1 38 0;
#X connect 13 2 39 0;
#X connect 13 3 40 0;
#X connect 13 4 41 0;
#X connect 13 5 42 0;
#X connect 13 6 43 0;
#X connect 13 7 51 0;
#X connect 13 8 50 0;
#X connect 13 9 44 0;
#X connect 13 10 45 0;
#X connect 13 11 46 0;
#X connect 13 12 47 0;
#X connect 13 13 48 0;
#X connect 13 14 49 0;
#X connect 13 15 52 0;
#X connect 13 16 53 0;
#X connect 13 17 54 0;
#X connect 13 18 55 0;
#X connect 13 19 56 0;
#X connect 13 20 57 0;
#X connect 13 21 58 0;
#X connect 13 22 59 0;
#X connect 13 23 60 0;
#X connect 13 24 61 0;
#X connect 13 25 62 0;
#X connect 13 26 63 0;
#X connect 13 27 64 0;
#X connect 13 28 65 0;
#X connect 13 29 66 0;
#X connect 21 0 37 0;
#X connect 22 0 25 0;
#X connect 25 0 28 0;
#X connect 28 0 5 0;
#X connect 28 0 8 0;
#X connect 34 0 11 0;
#X connect 34 1 35 0;
#X connect 34 2 31 0;
#X connect 34 3 33 0;
#X connect 34 4 32 0;
#X connect 34 5 16 0;
#X connect 34 6 29 0;
#X connect 34 7 29 1;
#X connect 34 8 13 0;
#X connect 35 0 30 0;
#X connect 36 0 28 0;
#X connect 36 0 17 0;
#X connect 36 1 26 0;
#X connect 36 2 14 0;
#X connect 37 0 1 0;
