#N canvas 24 0 1205 858 10;
#X obj 598 862 textfile;
#X msg 930 125 clear;
#X obj -20 657 savepanel;
#X obj -20 695 list trim;
#X obj 468 735 prepend add;
#X msg -20 676 write \$1;
#X obj -20 -1 bng 15 250 50 0 empty empty empty 17 7 0 10 -262144 -1
-1;
#X obj 470 346 mlr_save_row 1;
#N canvas 0 0 570 157 mlr_save_mixer 0;
#X obj 68 -21 r 0-gain;
#X obj 120 -21 r 1-gain;
#X obj 172 -21 r 2-gain;
#X obj 224 -21 r 3-gain;
#X obj 276 -21 r 4-gain;
#X obj 328 -21 r 5-gain;
#X obj 380 -21 r 6-gain;
#X obj 432 -21 r 7-gain;
#X obj -14 -21 r master-gain;
#X obj 133 74 pack s f f f f f f f f f;
#X msg -58 6 mixer;
#X obj -58 -21 inlet;
#X obj 133 101 outlet;
#X connect 0 0 9 2;
#X connect 1 0 9 3;
#X connect 2 0 9 4;
#X connect 3 0 9 5;
#X connect 4 0 9 6;
#X connect 5 0 9 7;
#X connect 6 0 9 8;
#X connect 7 0 9 9;
#X connect 8 0 9 1;
#X connect 9 0 12 0;
#X connect 10 0 9 0;
#X connect 11 0 10 0;
#X restore 593 529 pd mlr_save_mixer;
#X obj 198 735 prepend add;
#X obj 598 735 prepend add;
#X obj 850 172 prepend set bpm;
#X obj 850 145 r bpm;
#X msg 850 199 bpm 120;
#X obj 15 319 t b b b b b b b b b b b b b b b;
#X obj 287 319 t b b b b b b b b b b b b b b b;
#X text 70 -28 saves bpm \, sample loads \, sample pitch & speed \,
sample group;
#X obj -20 -28 r mlr-save-set;
#X obj 560 559 mlr_save_sequence;
#X obj 765 257 pack s f;
#X msg 765 217 symbol beats;
#X text 847 230 standard beats;
#X text 847 240 per loop;
#X obj 695 327 pack s f;
#X msg 695 287 symbol quantize;
#X text 814 300 quantization;
#X text 814 314 0 = off;
#X text 814 324 1 = 1/32;
#X text 814 334 2 = 1/16;
#X text 814 344 3 = 1/8;
#X text 814 354 4 = 1/4;
#X obj 775 237 r std-beats;
#X obj 705 307 r quantize-config;
#X obj 637 467 r monome-size;
#X obj 627 487 pack s f;
#X msg 627 447 symbol monome;
#X text 729 464 1 = 64;
#X text 729 474 2 = 128 horizontal;
#X text 729 484 3 = 128 vertical;
#X text 729 494 4 = 256;
#X obj 657 407 pack s f;
#X obj 667 387 r microfade;
#X msg 657 367 symbol microfade;
#X text 740 382 microfade;
#X text 740 396 in millisec's;
#X obj 513 125 t b b b b b b b;
#X obj -20 24 t b b b b b;
#X msg 45 762 label \$1;
#X obj -30 735 splitfilename;
#X obj 45 787 s load-file-display-r;
#X text -48 759 save file name;
#X text -48 769 to ui display;
#X obj 330 626 mlr_save_row 15;
#X obj 460 366 mlr_save_row 2;
#X obj 450 386 mlr_save_row 3;
#X obj 440 406 mlr_save_row 4;
#X obj 430 426 mlr_save_row 5;
#X obj 420 446 mlr_save_row 6;
#X obj 410 466 mlr_save_row 7;
#X obj 390 506 mlr_save_row 9;
#X obj 380 526 mlr_save_row 10;
#X obj 370 546 mlr_save_row 11;
#X obj 360 566 mlr_save_row 12;
#X obj 350 586 mlr_save_row 13;
#X obj 340 606 mlr_save_row 14;
#X obj 400 486 mlr_save_row 8;
#X obj 198 346 mlr_save_row 16;
#X obj 188 366 mlr_save_row 17;
#X obj 178 386 mlr_save_row 18;
#X obj 168 406 mlr_save_row 19;
#X obj 158 426 mlr_save_row 20;
#X obj 148 446 mlr_save_row 21;
#X obj 138 466 mlr_save_row 22;
#X obj 128 486 mlr_save_row 23;
#X obj 118 506 mlr_save_row 24;
#X obj 108 526 mlr_save_row 25;
#X obj 98 546 mlr_save_row 26;
#X obj 88 566 mlr_save_row 27;
#X obj 78 586 mlr_save_row 28;
#X obj 68 606 mlr_save_row 29;
#X obj 58 626 mlr_save_row 30;
#X connect 1 0 0 0;
#X connect 2 0 5 0;
#X connect 2 0 48 0;
#X connect 3 0 0 0;
#X connect 4 0 0 0;
#X connect 5 0 3 0;
#X connect 6 0 46 0;
#X connect 7 0 4 0;
#X connect 8 0 10 0;
#X connect 9 0 0 0;
#X connect 10 0 0 0;
#X connect 11 0 13 0;
#X connect 12 0 11 0;
#X connect 13 0 10 0;
#X connect 14 0 80 0;
#X connect 14 1 79 0;
#X connect 14 2 78 0;
#X connect 14 3 77 0;
#X connect 14 4 76 0;
#X connect 14 5 75 0;
#X connect 14 6 74 0;
#X connect 14 7 73 0;
#X connect 14 8 72 0;
#X connect 14 9 71 0;
#X connect 14 10 70 0;
#X connect 14 11 69 0;
#X connect 14 12 68 0;
#X connect 14 13 67 0;
#X connect 14 14 66 0;
#X connect 15 0 52 0;
#X connect 15 1 64 0;
#X connect 15 2 63 0;
#X connect 15 3 62 0;
#X connect 15 4 61 0;
#X connect 15 5 60 0;
#X connect 15 6 59 0;
#X connect 15 7 65 0;
#X connect 15 8 58 0;
#X connect 15 9 57 0;
#X connect 15 10 56 0;
#X connect 15 11 55 0;
#X connect 15 12 54 0;
#X connect 15 13 53 0;
#X connect 15 14 7 0;
#X connect 17 0 6 0;
#X connect 18 0 10 0;
#X connect 19 0 10 0;
#X connect 20 0 19 0;
#X connect 23 0 10 0;
#X connect 24 0 23 0;
#X connect 31 0 19 1;
#X connect 32 0 23 1;
#X connect 33 0 34 1;
#X connect 34 0 10 0;
#X connect 35 0 34 0;
#X connect 40 0 10 0;
#X connect 41 0 40 1;
#X connect 42 0 40 0;
#X connect 45 0 18 0;
#X connect 45 1 8 0;
#X connect 45 2 35 0;
#X connect 45 3 42 0;
#X connect 45 4 24 0;
#X connect 45 5 20 0;
#X connect 45 6 13 0;
#X connect 46 0 2 0;
#X connect 46 1 14 0;
#X connect 46 2 15 0;
#X connect 46 3 45 0;
#X connect 46 4 1 0;
#X connect 47 0 49 0;
#X connect 48 1 47 0;
#X connect 52 0 4 0;
#X connect 53 0 4 0;
#X connect 54 0 4 0;
#X connect 55 0 4 0;
#X connect 56 0 4 0;
#X connect 57 0 4 0;
#X connect 58 0 4 0;
#X connect 59 0 4 0;
#X connect 60 0 4 0;
#X connect 61 0 4 0;
#X connect 62 0 4 0;
#X connect 63 0 4 0;
#X connect 64 0 4 0;
#X connect 65 0 4 0;
#X connect 66 0 9 0;
#X connect 67 0 9 0;
#X connect 68 0 9 0;
#X connect 69 0 9 0;
#X connect 70 0 9 0;
#X connect 71 0 9 0;
#X connect 72 0 9 0;
#X connect 73 0 9 0;
#X connect 74 0 9 0;
#X connect 75 0 9 0;
#X connect 76 0 9 0;
#X connect 77 0 9 0;
#X connect 78 0 9 0;
#X connect 79 0 9 0;
#X connect 80 0 9 0;
