#N canvas 16 518 449 359 10;
#X msg -238 -136 read pd_mlr_config.txt;
#X obj -238 -18 textfile;
#X msg -198 -54 rewind;
#X msg -149 -53 clear;
#X obj -238 -54 until;
#X obj -238 -109 t b b a b;
#X obj -200 -82 bng 15 250 50 0 empty empty empty 17 7 0 10 -262144
-1 -1;
#X obj -238 49 s bpm;
#X msg -238 -82 500;
#X obj -63 109 s monome-size;
#X obj -195 169 s beats-r;
#X obj -151 149 s quantize-r;
#X obj -107 129 s microfade-r;
#X obj 69 49 s prefix-toggle-r;
#X obj -19 49 spigot;
#X obj -238 -163 r load-config;
#X obj -19 89 s lastfile;
#X obj -195 49 + 0.001;
#X obj 25 69 s auto-file-toggle-r;
#X obj -238 9 route bpm beats quantize microfade monome lastfile autofile
prefix;
#X connect 0 0 5 0;
#X connect 1 0 19 0;
#X connect 1 1 4 1;
#X connect 2 0 1 0;
#X connect 3 0 1 0;
#X connect 4 0 1 0;
#X connect 5 0 8 0;
#X connect 5 1 2 0;
#X connect 5 2 1 0;
#X connect 5 3 3 0;
#X connect 6 0 1 0;
#X connect 8 0 4 0;
#X connect 14 0 16 0;
#X connect 15 0 0 0;
#X connect 17 0 10 0;
#X connect 19 0 7 0;
#X connect 19 1 17 0;
#X connect 19 2 11 0;
#X connect 19 3 12 0;
#X connect 19 4 9 0;
#X connect 19 5 14 0;
#X connect 19 6 14 1;
#X connect 19 6 18 0;
#X connect 19 7 13 0;
