#N canvas 1633 226 579 427 10;
#X obj 168 188 line~;
#X obj 152 265 *~;
#X obj 168 161 pack 0 50;
#X obj -19 265 *~;
#X obj -10 319 - 92;
#X obj -10 292 env~ 8192 4096;
#X obj 161 319 - 92;
#X obj 161 292 env~ 8192 4096;
#X obj -19 238 catch~ \$1-out-L;
#X obj -10 346 s \$1-out-meter-L;
#X obj 161 346 s \$1-out-meter-R;
#X obj -20 373 outlet~;
#X obj 152 373 outlet~;
#X obj 168 -19 r \$1-out-gain;
#X obj 337 -19 r \$1-out-mute;
#X obj 471 -19 r mute-all;
#X obj 337 163 s \$1-out-gain-r;
#X msg 471 8 bang;
#X obj 471 35 tgl 15 0 empty empty empty 17 7 0 10 -262144 -1 -1 0
1;
#X obj 337 89 t b;
#X obj 337 35 f;
#X obj 337 136 f;
#X msg 394 136 0;
#X obj 394 89 t b f;
#X msg 337 8 bang;
#X obj 337 62 moses 0.01;
#X obj 379 35 moses 0.01;
#X obj 379 8 r \$1-out-gain;
#X obj 471 60 sel 0 1;
#X obj 152 238 catch~ \$1-out-R;
#X obj -21 -19 r fade-out;
#X obj 63 104 f;
#X obj 48 161 f;
#X text 176 -1 manual gain changes;
#X text -14 -1 fade to 0 \, then reset gain;
#X obj -4 104 pack 0 f;
#X obj -4 161 line;
#X obj -21 23 t b b f b;
#X obj -4 188 s \$1-out-gain-r;
#X msg 6 134 set \$1;
#X obj -21 77 delay;
#X obj 6 50 + 100;
#X connect 0 0 1 1;
#X connect 0 0 3 1;
#X connect 1 0 7 0;
#X connect 1 0 12 0;
#X connect 2 0 0 0;
#X connect 3 0 5 0;
#X connect 3 0 11 0;
#X connect 4 0 9 0;
#X connect 5 0 4 0;
#X connect 6 0 10 0;
#X connect 7 0 6 0;
#X connect 8 0 3 0;
#X connect 13 0 2 0;
#X connect 13 0 31 1;
#X connect 14 0 24 0;
#X connect 15 0 17 0;
#X connect 17 0 18 0;
#X connect 18 0 28 0;
#X connect 19 0 21 0;
#X connect 20 0 25 0;
#X connect 21 0 16 0;
#X connect 22 0 16 0;
#X connect 23 0 22 0;
#X connect 24 0 20 0;
#X connect 25 0 19 0;
#X connect 25 1 23 0;
#X connect 26 1 21 1;
#X connect 27 0 20 1;
#X connect 27 0 26 0;
#X connect 28 0 21 0;
#X connect 28 1 22 0;
#X connect 29 0 1 0;
#X connect 30 0 37 0;
#X connect 31 0 32 1;
#X connect 31 0 39 0;
#X connect 32 0 38 0;
#X connect 35 0 36 0;
#X connect 36 0 38 0;
#X connect 37 0 40 0;
#X connect 37 1 35 0;
#X connect 37 2 35 1;
#X connect 37 2 41 0;
#X connect 37 3 31 0;
#X connect 39 0 36 0;
#X connect 40 0 32 0;
#X connect 41 0 40 1;
