#N canvas 164 0 919 937 10;
#X obj 0 0 cnv 15 206 140 empty mixer-label-r IN_8_Mono 67 12 1 12
-13381 -262144 0;
#X obj 221 157 *~;
#X obj 391 156 *~;
#X obj 262 370 - 92;
#X obj 432 370 - 92;
#X obj 27 25 vu 12 80 E-meter-2 empty -1 -8 0 10 -1 -1 0 0;
#X obj 5 25 vu 12 80 E-meter-1 empty -1 -8 0 10 -1 -1 0 0;
#X obj 178 25 vsl 22 80 0.01 1 1 1 in-gain in-gain-r empty -5 86 1
10 -66577 -162280 -1 6711 1;
#X obj 232 350 env~ 4096 2048;
#X obj 402 350 env~ 4096 2048;
#X obj 222 417 send~ seq-ext-1;
#X obj 392 417 send~ seq-ext-2;
#X obj 571 156 *~;
#X obj 751 156 *~;
#X obj 612 370 - 92;
#X obj 792 370 - 92;
#X obj 582 350 env~ 4096 2048;
#X obj 762 350 env~ 4096 2048;
#X obj 572 417 send~ seq-ext-3;
#X obj 752 417 send~ seq-ext-4;
#X obj 262 390 s E-meter-1;
#X obj 432 390 s E-meter-2;
#X obj 612 390 s E-meter-3;
#X obj 792 390 s E-meter-4;
#X obj 69 25 vu 12 80 E-meter-4 empty -1 -8 0 10 -1 -1 0 0;
#X obj 48 25 vu 12 80 E-meter-3 empty -1 -8 0 10 -1 -1 0 0;
#X obj 111 25 vu 12 80 E-meter-6 empty -1 -8 0 10 -1 -1 0 0;
#X obj 90 25 vu 12 80 E-meter-5 empty -1 -8 0 10 -1 -1 0 0;
#X obj 153 25 vu 12 80 E-meter-8 empty -1 -8 0 10 -1 -1 0 0;
#X obj 132 25 vu 12 80 E-meter-7 empty -1 -8 0 10 -1 -1 0 0;
#X obj 175 108 cnv 14 14 14 empty empty gain 33 8 1 12 -13381 -262144
0;
#X obj 4 110 vsl 14 12 0 127 0 0 1-ext-mon 1-ext-mon-r 1 4 6 1 12 -42246
-42246 -262144 0 1;
#X obj 26 110 vsl 14 12 0 127 0 0 2-ext-mon 2-ext-mon-r 2 4 6 1 12
-42246 -42246 -262144 0 1;
#X obj 47 110 vsl 14 12 0 127 0 0 3-ext-mon 3-ext-mon-r 3 4 6 1 12
-42246 -42246 -262144 0 1;
#X obj 68 110 vsl 14 12 0 127 0 0 4-ext-mon 4-ext-mon-r 4 4 6 1 12
-42246 -42246 -262144 0 1;
#X obj 89 110 vsl 14 12 0 127 0 0 5-ext-mon 5-ext-mon-r 5 4 6 1 12
-42246 -42246 -262144 0 1;
#X obj 110 110 vsl 14 12 0 127 0 0 6-ext-mon 6-ext-mon-r 6 4 6 1 12
-42246 -42246 -262144 0 1;
#X obj 131 110 vsl 14 12 0 127 0 0 7-ext-mon 7-ext-mon-r 7 4 6 1 12
-42246 -42246 -262144 0 1;
#X obj 152 110 vsl 14 12 0 127 0 0 8-ext-mon 8-ext-mon-r 8 4 6 1 12
-42246 -42246 -262144 0 1;
#X obj 279 132 r 1-ext-mon;
#X obj 279 184 tgl 15 0 empty empty empty 17 7 0 10 -262144 -1 -1 0
1;
#X obj 244 239 *~;
#X obj 279 209 sel 0 1;
#X obj 279 276 s 1-ext-mon-r;
#X obj 279 159 bng 15 250 50 0 empty empty empty 17 7 0 10 -262144
-1 -1;
#X obj 449 184 tgl 15 0 empty empty empty 17 7 0 10 -262144 -1 -1 0
1;
#X obj 414 239 *~;
#X obj 449 209 sel 0 1;
#X obj 449 159 bng 15 250 50 0 empty empty empty 17 7 0 10 -262144
-1 -1;
#X obj 629 184 tgl 15 0 empty empty empty 17 7 0 10 -262144 -1 -1 0
1;
#X obj 594 239 *~;
#X obj 629 209 sel 0 1;
#X obj 629 159 bng 15 250 50 0 empty empty empty 17 7 0 10 -262144
-1 -1;
#X obj 809 184 tgl 15 0 empty empty empty 17 7 0 10 -262144 -1 -1 0
1;
#X obj 774 239 *~;
#X obj 809 209 sel 0 1;
#X obj 809 159 bng 15 250 50 0 empty empty empty 17 7 0 10 -262144
-1 -1;
#X obj 449 132 r 2-ext-mon;
#X obj 449 276 s 2-ext-mon-r;
#X obj 629 132 r 3-ext-mon;
#X obj 629 276 s 3-ext-mon-r;
#X obj 809 132 r 4-ext-mon;
#X obj 809 276 s 4-ext-mon-r;
#X obj 221 0 adc~ 1 2 3 4;
#X obj 222 638 *~;
#X obj 392 637 *~;
#X obj 263 851 - 92;
#X obj 433 851 - 92;
#X text 81 899 to all audio recorders;
#X text 81 888 send external audio;
#X obj 233 831 env~ 4096 2048;
#X obj 403 831 env~ 4096 2048;
#X obj 572 637 *~;
#X obj 752 637 *~;
#X obj 613 851 - 92;
#X obj 793 851 - 92;
#X obj 583 831 env~ 4096 2048;
#X obj 763 831 env~ 4096 2048;
#X obj 280 665 tgl 15 0 empty empty empty 17 7 0 10 -262144 -1 -1 0
1;
#X obj 245 720 *~;
#X obj 280 690 sel 0 1;
#X obj 280 640 bng 15 250 50 0 empty empty empty 17 7 0 10 -262144
-1 -1;
#X obj 450 665 tgl 15 0 empty empty empty 17 7 0 10 -262144 -1 -1 0
1;
#X obj 415 720 *~;
#X obj 450 690 sel 0 1;
#X obj 450 640 bng 15 250 50 0 empty empty empty 17 7 0 10 -262144
-1 -1;
#X obj 630 665 tgl 15 0 empty empty empty 17 7 0 10 -262144 -1 -1 0
1;
#X obj 595 720 *~;
#X obj 630 690 sel 0 1;
#X obj 630 640 bng 15 250 50 0 empty empty empty 17 7 0 10 -262144
-1 -1;
#X obj 810 665 tgl 15 0 empty empty empty 17 7 0 10 -262144 -1 -1 0
1;
#X obj 775 720 *~;
#X obj 810 690 sel 0 1;
#X obj 810 640 bng 15 250 50 0 empty empty empty 17 7 0 10 -262144
-1 -1;
#X obj 280 613 r 5-ext-mon;
#X obj 450 613 r 6-ext-mon;
#X obj 630 613 r 7-ext-mon;
#X obj 810 613 r 8-ext-mon;
#X obj 280 757 s 5-ext-mon-r;
#X obj 450 757 s 6-ext-mon-r;
#X obj 630 757 s 7-ext-mon-r;
#X obj 810 757 s 8-ext-mon-r;
#X obj 263 871 s E-meter-5;
#X obj 223 898 send~ seq-ext-5;
#X obj 393 898 send~ seq-ext-6;
#X obj 433 871 s E-meter-6;
#X obj 613 871 s E-meter-7;
#X obj 573 898 send~ seq-ext-7;
#X obj 793 871 s E-meter-8;
#X obj 753 898 send~ seq-ext-8;
#X msg 289 256 color 18 18 0;
#X msg 459 256 color 18 18 0;
#X msg 639 256 color 18 18 0;
#X msg 279 236 color 26 26 0;
#X msg 449 236 color 26 26 0;
#X msg 629 236 color 26 26 0;
#X msg 809 236 color 26 26 0;
#X msg 810 717 color 26 26 0;
#X msg 630 717 color 26 26 0;
#X msg 450 717 color 26 26 0;
#X msg 280 717 color 26 26 0;
#X msg 819 256 color 18 18 0;
#X msg 820 737 color 18 18 0;
#X msg 640 737 color 18 18 0;
#X msg 460 737 color 18 18 0;
#X msg 290 737 color 18 18 0;
#X obj 0 123 cnv 15 206 15 empty empty Click_number_to_monitor 4 9
1 12 -13381 -262144 0;
#X obj 222 481 adc~ 5 6 7 8;
#X obj 243 323 throw~ 1-out-L;
#X obj 253 303 throw~ 1-out-R;
#X obj 413 323 throw~ 1-out-L;
#X obj 423 303 throw~ 1-out-R;
#X obj 593 323 throw~ 1-out-L;
#X obj 603 303 throw~ 1-out-R;
#X obj 773 323 throw~ 1-out-L;
#X obj 783 303 throw~ 1-out-R;
#X obj 244 804 throw~ 1-out-L;
#X obj 254 784 throw~ 1-out-R;
#X obj 414 804 throw~ 1-out-L;
#X obj 424 784 throw~ 1-out-R;
#X obj 594 804 throw~ 1-out-L;
#X obj 604 784 throw~ 1-out-R;
#X obj 774 804 throw~ 1-out-L;
#X obj 784 784 throw~ 1-out-R;
#X text 81 419 to all audio recorders;
#X text 81 408 send external audio;
#X obj 416 9 r in-gain;
#X obj 417 490 r in-gain;
#X connect 1 0 8 0;
#X connect 1 0 10 0;
#X connect 1 0 41 0;
#X connect 2 0 9 0;
#X connect 2 0 11 0;
#X connect 2 0 46 0;
#X connect 3 0 20 0;
#X connect 4 0 21 0;
#X connect 8 0 3 0;
#X connect 9 0 4 0;
#X connect 12 0 16 0;
#X connect 12 0 18 0;
#X connect 12 0 50 0;
#X connect 13 0 17 0;
#X connect 13 0 19 0;
#X connect 13 0 54 0;
#X connect 14 0 22 0;
#X connect 15 0 23 0;
#X connect 16 0 14 0;
#X connect 17 0 15 0;
#X connect 39 0 44 0;
#X connect 40 0 41 1;
#X connect 40 0 42 0;
#X connect 41 0 128 0;
#X connect 41 0 129 0;
#X connect 42 0 113 0;
#X connect 42 1 110 0;
#X connect 44 0 40 0;
#X connect 45 0 46 1;
#X connect 45 0 47 0;
#X connect 46 0 131 0;
#X connect 46 0 130 0;
#X connect 47 0 114 0;
#X connect 47 1 111 0;
#X connect 48 0 45 0;
#X connect 49 0 50 1;
#X connect 49 0 51 0;
#X connect 50 0 132 0;
#X connect 50 0 133 0;
#X connect 51 0 115 0;
#X connect 51 1 112 0;
#X connect 52 0 49 0;
#X connect 53 0 54 1;
#X connect 53 0 55 0;
#X connect 54 0 135 0;
#X connect 54 0 134 0;
#X connect 55 0 116 0;
#X connect 55 1 121 0;
#X connect 56 0 53 0;
#X connect 57 0 48 0;
#X connect 59 0 52 0;
#X connect 61 0 56 0;
#X connect 63 0 1 0;
#X connect 63 1 2 0;
#X connect 63 2 12 0;
#X connect 63 3 13 0;
#X connect 64 0 70 0;
#X connect 64 0 79 0;
#X connect 64 0 103 0;
#X connect 65 0 71 0;
#X connect 65 0 83 0;
#X connect 65 0 104 0;
#X connect 66 0 102 0;
#X connect 67 0 105 0;
#X connect 70 0 66 0;
#X connect 71 0 67 0;
#X connect 72 0 76 0;
#X connect 72 0 87 0;
#X connect 72 0 107 0;
#X connect 73 0 77 0;
#X connect 73 0 91 0;
#X connect 73 0 109 0;
#X connect 74 0 106 0;
#X connect 75 0 108 0;
#X connect 76 0 74 0;
#X connect 77 0 75 0;
#X connect 78 0 79 1;
#X connect 78 0 80 0;
#X connect 79 0 137 0;
#X connect 79 0 136 0;
#X connect 80 0 120 0;
#X connect 80 1 125 0;
#X connect 81 0 78 0;
#X connect 82 0 83 1;
#X connect 82 0 84 0;
#X connect 83 0 139 0;
#X connect 83 0 138 0;
#X connect 84 0 119 0;
#X connect 84 1 124 0;
#X connect 85 0 82 0;
#X connect 86 0 87 1;
#X connect 86 0 88 0;
#X connect 87 0 141 0;
#X connect 87 0 140 0;
#X connect 88 0 118 0;
#X connect 88 1 123 0;
#X connect 89 0 86 0;
#X connect 90 0 91 1;
#X connect 90 0 92 0;
#X connect 91 0 143 0;
#X connect 91 0 142 0;
#X connect 92 0 117 0;
#X connect 92 1 122 0;
#X connect 93 0 90 0;
#X connect 94 0 81 0;
#X connect 95 0 85 0;
#X connect 96 0 89 0;
#X connect 97 0 93 0;
#X connect 110 0 43 0;
#X connect 111 0 58 0;
#X connect 112 0 60 0;
#X connect 113 0 43 0;
#X connect 114 0 58 0;
#X connect 115 0 60 0;
#X connect 116 0 62 0;
#X connect 117 0 101 0;
#X connect 118 0 100 0;
#X connect 119 0 99 0;
#X connect 120 0 98 0;
#X connect 121 0 62 0;
#X connect 122 0 101 0;
#X connect 123 0 100 0;
#X connect 124 0 99 0;
#X connect 125 0 98 0;
#X connect 127 0 64 0;
#X connect 127 1 65 0;
#X connect 127 2 72 0;
#X connect 127 3 73 0;
#X connect 146 0 2 1;
#X connect 146 0 12 1;
#X connect 146 0 13 1;
#X connect 146 0 1 1;
#X connect 147 0 65 1;
#X connect 147 0 72 1;
#X connect 147 0 73 1;
#X connect 147 0 64 1;
#X coords 0 -1 1 1 206 140 1 0 0;
