#N canvas 484 314 484 426 10;
#X obj 53 76 *~;
#X obj 289 76 *~;
#X obj 62 116 throw~ pre-L;
#X obj 298 116 throw~ pre-R;
#X obj 59 176 - 92;
#X obj 62 156 env~ 8192 4096;
#X obj 294 176 - 92;
#X obj 297 156 env~ 8192 4096;
#X obj 52 12 catch~ \$1-group-L;
#X obj 288 12 catch~ \$1-group-R;
#X obj 118 49 r \$1-gain;
#X obj 62 96 send~ \$1-row-L;
#X obj 298 96 send~ \$1-row-R;
#X obj 90 176 s \$1-meter-L;
#X obj 325 176 s \$1-meter-R;
#X obj 51 367 throw~ 1-out-L;
#X obj 52 259 demux~ . . . .;
#X obj 78 340 throw~ 2-out-L;
#X obj 105 313 throw~ 3-out-L;
#X obj 132 286 throw~ 4-out-L;
#X obj 118 213 r \$1-row-output-channel;
#X obj 288 259 demux~ . . . .;
#X obj 368 286 throw~ 4-out-R;
#X obj 341 313 throw~ 3-out-R;
#X obj 314 340 throw~ 2-out-R;
#X obj 287 367 throw~ 1-out-R;
#X connect 0 0 2 0;
#X connect 0 0 5 0;
#X connect 0 0 11 0;
#X connect 0 0 16 0;
#X connect 1 0 3 0;
#X connect 1 0 7 0;
#X connect 1 0 12 0;
#X connect 1 0 21 0;
#X connect 4 0 13 0;
#X connect 5 0 4 0;
#X connect 6 0 14 0;
#X connect 7 0 6 0;
#X connect 8 0 0 0;
#X connect 9 0 1 0;
#X connect 10 0 0 1;
#X connect 10 0 1 1;
#X connect 16 0 15 0;
#X connect 16 1 17 0;
#X connect 16 2 18 0;
#X connect 16 3 19 0;
#X connect 20 0 16 0;
#X connect 20 0 21 0;
#X connect 21 0 25 0;
#X connect 21 1 24 0;
#X connect 21 2 23 0;
#X connect 21 3 22 0;
