#N canvas 177 535 503 283 10;
#X declare -lib mrpeach;
#X msg 271 101 6 3 0;
#X obj 271 130 s leds-out;
#X msg 311 101 6 3 1;
#X obj 111 168 r leds-out;
#X text 274 74 led test send;
#X obj 111 222 s sOSC;
#X msg 362 101 7 13 1;
#X obj -39 170 bng 15 250 50 0 empty clear-all-led empty 17 7 0 10
-262144 -1 -1;
#X text -20 169 clear-all;
#X obj -39 222 s sOSC;
#X obj -39 19 loadbang;
#X msg -28 66 disconnect;
#X obj 111 130 s matrix-in;
#X msg -39 46 connect localhost 8080;
#X obj -19 86 r sOSC;
#X obj 191 130 s adc-in;
#X obj -19 106 packOSC;
#X obj -39 -18 import mrpeach;
#X obj -39 133 udpsend;
#X obj 111 19 udpreceive 8000;
#X obj 111 46 unpackOSC;
#X obj 111 103 routeOSC /press /adc;
#X msg -39 195 send /loopy/clear;
#X obj 111 195 prepend send /loopy/led;
#X obj 111 76 routeOSC /loopy;
#X obj 271 222 s sOSC;
#X obj 271 168 r leds-col-out;
#X obj 271 195 prepend send /loopy/led_col;
#X connect 0 0 1 0;
#X connect 2 0 1 0;
#X connect 3 0 23 0;
#X connect 6 0 1 0;
#X connect 7 0 22 0;
#X connect 10 0 13 0;
#X connect 11 0 18 0;
#X connect 13 0 18 0;
#X connect 14 0 16 0;
#X connect 16 0 18 0;
#X connect 19 0 20 0;
#X connect 20 0 24 0;
#X connect 21 0 12 0;
#X connect 21 1 15 0;
#X connect 22 0 9 0;
#X connect 23 0 5 0;
#X connect 24 0 21 0;
#X connect 26 0 27 0;
#X connect 27 0 25 0;
