#N canvas 315 162 340 361 10;
#X obj 123 -191 inlet;
#X obj 156 48 timer;
#X obj 156 22 select 1 0;
#X obj 6 129 outlet;
#X obj 156 129 outlet;
#X text 51 133 millisec's;
#X text 50 123 push for > n;
#X text 204 122 quick tap < n;
#X text 204 132 millisec's;
#X text 208 -193 millisec's;
#X obj 171 -191 inlet;
#X obj 181 -164 r push-n-millisec;
#X text 21 -193 button press 0/1;
#X obj 171 -137 f;
#X obj 156 75 <;
#X obj 156 102 sel 1;
#X obj -24 -164 loadbang;
#X obj -24 -80 int;
#X obj -24 -53 sel 1;
#X obj -24 -6 f;
#X obj 6 -6 + 1;
#X obj 6 48 >;
#X obj 6 102 sel 1;
#X obj -24 -137 metro 100;
#X obj 21 21 / 100;
#X obj 6 75 change;
#X connect 0 0 2 0;
#X connect 0 0 17 0;
#X connect 0 0 19 1;
#X connect 1 0 14 0;
#X connect 2 0 1 0;
#X connect 2 1 1 1;
#X connect 10 0 13 0;
#X connect 11 0 13 0;
#X connect 13 0 14 1;
#X connect 13 0 24 0;
#X connect 14 0 15 0;
#X connect 15 0 4 0;
#X connect 16 0 23 0;
#X connect 17 0 18 0;
#X connect 18 0 19 0;
#X connect 19 0 20 0;
#X connect 20 0 19 1;
#X connect 20 0 21 0;
#X connect 21 0 25 0;
#X connect 22 0 3 0;
#X connect 23 0 17 0;
#X connect 24 0 21 1;
#X connect 25 0 22 0;
