#N canvas 0 74 1280 718 10;
#X obj 36 65 inlet;
#X obj 126 144 str;
#X obj 15 513 str nsplit 0;
#X obj 84 540 str nsplit 13;
#X obj 84 567 str to_symbol;
#X obj 15 459 t b f;
#X obj 15 486 list;
#X obj 222 65 inlet;
#X obj 383 65 inlet;
#X obj 556 65 inlet;
#X text 35 46 scroll text;
#X text 221 46 scroll length;
#X text 381 46 scroll speed;
#X text 556 46 start/end hold;
#X obj 84 594 outlet;
#X obj 311 309 i 0;
#X obj 311 255 t b f;
#X obj 141 198 + 1;
#X obj 141 171 - 13;
#X msg 311 282 0;
#X obj 311 336 sel 0;
#X obj 147 620 hsl 128 15 0 127 0 0 empty empty ile_name_to_t 4 6 0
10 -262144 -262144 -1 0 1;
#X msg 144 594 label \$1;
#X msg -85 -6 this_can_also_be_used_to_test_how_my_scroller_handles_long_strings
;
#X floatatom 268 310 5 0 0 0 - - -;
#X floatatom 171 199 5 0 0 0 - - -;
#X floatatom 246 105 5 0 0 0 - - -;
#X floatatom 404 109 5 0 0 0 - - -;
#X floatatom 585 112 5 0 0 0 - - -;
#X obj -60 519 l2s;
#X symbolatom -60 659 80 0 0 0 - - -;
#X msg 141 24 here_is_another_super_long_file_name_to_test_Selah;
#X msg 276 364 1;
#X obj 400 402 sel;
#X msg 405 462 0;
#X obj 511 437 i;
#X obj 545 438 + 1;
#X obj 531 370 t b f;
#X obj 512 407 delay 200;
#X obj 311 363 delay 2000;
#X obj 401 433 delay 2000;
#X obj 46 117 t a a b;
#X connect 0 0 41 0;
#X connect 1 1 18 0;
#X connect 2 1 3 0;
#X connect 3 0 4 0;
#X connect 4 0 14 0;
#X connect 4 0 22 0;
#X connect 5 0 6 0;
#X connect 5 1 2 1;
#X connect 6 0 2 0;
#X connect 6 0 29 0;
#X connect 7 0 18 1;
#X connect 7 0 26 0;
#X connect 7 0 3 1;
#X connect 8 0 27 0;
#X connect 8 0 38 1;
#X connect 9 0 28 0;
#X connect 9 0 39 1;
#X connect 9 0 40 1;
#X connect 15 0 5 0;
#X connect 15 0 24 0;
#X connect 15 0 20 0;
#X connect 16 0 19 0;
#X connect 16 1 33 1;
#X connect 17 0 16 0;
#X connect 17 0 25 0;
#X connect 18 0 17 0;
#X connect 19 0 15 0;
#X connect 20 0 39 0;
#X connect 20 1 33 0;
#X connect 22 0 21 0;
#X connect 23 0 41 0;
#X connect 29 0 30 0;
#X connect 31 0 41 0;
#X connect 32 0 15 0;
#X connect 33 0 40 0;
#X connect 33 1 37 0;
#X connect 34 0 15 0;
#X connect 35 0 36 0;
#X connect 36 0 15 0;
#X connect 37 0 38 0;
#X connect 37 1 35 1;
#X connect 38 0 35 0;
#X connect 39 0 32 0;
#X connect 40 0 34 0;
#X connect 41 0 1 0;
#X connect 41 1 6 1;
#X connect 41 2 6 1;
