#N canvas 732 95 355 215 10;
#X obj 95 7 + 1;
#X obj 63 7 f 0;
#X msg 73 -20 0;
#X obj 63 34 sel 1;
#X obj 63 -101 inlet;
#X text 161 -103 millisec's;
#X obj 124 -101 inlet;
#X text -39 -103 button press 0/1;
#X obj 63 -74 sel 1;
#X obj 134 -74 r tap2X-millisec;
#X obj 73 -47 delay 300;
#X obj 63 61 outlet;
#X connect 0 0 1 1;
#X connect 1 0 0 0;
#X connect 1 0 3 0;
#X connect 2 0 1 1;
#X connect 3 0 11 0;
#X connect 4 0 8 0;
#X connect 6 0 10 1;
#X connect 8 0 1 0;
#X connect 8 0 10 0;
#X connect 9 0 10 1;
#X connect 10 0 2 0;
