#N canvas 79 220 525 339 10;
#X obj 95 -83 + 1;
#X obj 63 -83 f 0;
#X msg 107 -110 0;
#X obj 63 -56 sel 1;
#X obj 63 -191 inlet;
#X text 195 -193 millisec's;
#X obj 158 -191 inlet;
#X text -39 -193 button press 0/1;
#X obj 107 -137 delay 300;
#X obj 63 113 outlet;
#X obj 168 -164 r tapNoHold-millisec;
#X obj 63 -137 t b b;
#X obj 63 -164 sel 0 1;
#X obj 295 59 + 1;
#X obj 263 59 f 0;
#X msg 273 32 0;
#X obj 263 86 sel 1;
#X text 361 -193 millisec's;
#X obj 324 -191 inlet;
#X obj 334 -164 r tap2X-millisec;
#X obj 273 5 delay 300;
#X obj 263 113 outlet;
#X obj 263 -22 delay 10;
#X connect 0 0 1 1;
#X connect 1 0 0 0;
#X connect 1 0 3 0;
#X connect 2 0 1 1;
#X connect 3 0 9 0;
#X connect 3 0 22 0;
#X connect 4 0 12 0;
#X connect 6 0 8 1;
#X connect 8 0 2 0;
#X connect 10 0 8 1;
#X connect 11 0 2 0;
#X connect 11 1 1 0;
#X connect 12 0 11 0;
#X connect 12 1 8 0;
#X connect 12 1 1 0;
#X connect 13 0 14 1;
#X connect 14 0 13 0;
#X connect 14 0 16 0;
#X connect 15 0 14 1;
#X connect 16 0 21 0;
#X connect 18 0 20 1;
#X connect 19 0 20 1;
#X connect 20 0 15 0;
#X connect 22 0 20 0;
#X connect 22 0 14 0;
