#N canvas 1302 17 722 844 10;
#X obj -214 -85 inlet;
#X obj -84 191 str;
#X obj -69 600 str nsplit 0;
#X obj 0 627 str nsplit 13;
#X obj -60 674 str to_symbol;
#X obj -69 546 t b f;
#X obj -69 573 list;
#X obj -48 -85 inlet;
#X obj 303 -85 inlet;
#X obj 138 -85 inlet;
#X text -215 -104 scroll text;
#X text -49 -104 scroll length;
#X text 301 -104 scroll speed;
#X text 138 -104 start/end hold;
#X obj -60 701 outlet;
#X obj -69 519 i 0;
#X obj -69 275 t b f;
#X obj -69 218 + 1;
#X obj -69 248 - 13;
#X msg -69 302 0;
#X obj -39 329 sel 0;
#X msg -39 420 1;
#X obj 110 329 sel;
#X obj 252 420 i;
#X obj 252 447 + 1;
#X obj 252 329 t b f;
#X obj 252 393 delay 200;
#X obj -39 393 delay 2000;
#X obj 110 393 delay 2000;
#X msg 110 420 0;
#X obj -213 127 spigot;
#X obj -195 48 str;
#X obj -273 127 spigot;
#X obj -214 -33 t a a b;
#X obj -38 -58 s \$0-scroll-length;
#X obj 138 -58 s \$0-scroll-hold;
#X obj 18 356 r \$0-scroll-hold;
#X obj 138 356 r \$0-scroll-stop;
#X obj 75 600 r \$0-scroll-length;
#X msg -175 -6 stop;
#X obj -175 14 s \$0-scroll-stop;
#X obj -199 99 tgl 15 0 empty empty empty 17 7 0 10 -262144 -1 -1 1
1;
#X obj -260 103 tgl 15 0 empty empty empty 17 7 0 10 -262144 -1 -1
0 1;
#X obj -240 100 <= 13;
#X obj -180 100 > 13;
#X obj -213 144 t a a;
#X connect 0 0 33 0;
#X connect 1 1 17 0;
#X connect 2 1 3 0;
#X connect 3 0 4 0;
#X connect 4 0 14 0;
#X connect 5 0 6 0;
#X connect 5 1 2 1;
#X connect 6 0 2 0;
#X connect 7 0 18 1;
#X connect 7 0 34 0;
#X connect 7 0 43 1;
#X connect 7 0 44 1;
#X connect 8 0 26 1;
#X connect 9 0 35 0;
#X connect 15 0 5 0;
#X connect 15 0 20 0;
#X connect 16 0 19 0;
#X connect 16 1 22 1;
#X connect 17 0 18 0;
#X connect 18 0 16 0;
#X connect 19 0 15 0;
#X connect 20 0 27 0;
#X connect 20 1 22 0;
#X connect 21 0 15 0;
#X connect 22 0 28 0;
#X connect 22 1 25 0;
#X connect 23 0 24 0;
#X connect 24 0 15 0;
#X connect 25 0 26 0;
#X connect 25 1 23 1;
#X connect 26 0 23 0;
#X connect 27 0 21 0;
#X connect 28 0 29 0;
#X connect 29 0 5 0;
#X connect 30 0 45 0;
#X connect 31 1 43 0;
#X connect 31 1 44 0;
#X connect 32 0 4 0;
#X connect 33 0 30 0;
#X connect 33 0 32 0;
#X connect 33 1 31 0;
#X connect 33 2 39 0;
#X connect 36 0 28 1;
#X connect 36 0 27 1;
#X connect 37 0 28 0;
#X connect 37 0 27 0;
#X connect 37 0 26 0;
#X connect 38 0 3 1;
#X connect 39 0 40 0;
#X connect 43 0 32 1;
#X connect 43 0 42 0;
#X connect 44 0 30 1;
#X connect 44 0 41 0;
#X connect 45 0 1 0;
#X connect 45 1 6 1;
