#N canvas 198 330 363 296 10;
#X obj 49 5 inlet;
#X obj 161 179 s \$1-slice-data;
#X obj -8 164 s \$1-slices-ctrl-r;
#X obj 19 184 s \$1-len-ctrl-r;
#X obj 46 204 s \$1-poly-ctrl-r;
#X obj 73 224 s \$1-pitch-ctrl-r;
#X obj -8 87 unpack f f f f;
#X obj 161 59 list2symbol;
#X obj 49 26 route params filename;
#X obj 161 131 pack s s;
#X obj 162 79 t b s;
#X msg 162 106 filename;
#X obj 161 156 list trim;
#X connect 0 0 8 0;
#X connect 6 0 2 0;
#X connect 6 1 3 0;
#X connect 6 2 4 0;
#X connect 6 3 5 0;
#X connect 7 0 10 0;
#X connect 8 0 6 0;
#X connect 8 1 7 0;
#X connect 9 0 12 0;
#X connect 10 0 11 0;
#X connect 10 1 9 1;
#X connect 11 0 9 0;
#X connect 12 0 1 0;
