#N canvas 172 303 421 347 10;
#X obj 65 160 r \$1-slicesave;
#X obj 95 180 r \$1-barssave;
#X obj 129 200 r \$1-polysave;
#X obj 163 220 r \$1-pitchsave;
#X obj 291 6 r \$1-filenamesave;
#X obj 159 321 outlet;
#X obj 24 12 inlet;
#X obj 14 245 pack \$1 s f f f f;
#X obj 228 245 pack \$1 s s;
#X obj 145 140 t b b b b;
#X msg 259 214 symbol filename;
#X msg 33 212 symbol params;
#X msg 215 82 1;
#X obj 144 110 spigot;
#X obj 203 12 loadbang;
#X msg 181 83 0;
#X obj 80 11 r \$1-clear-smp-ctrl;
#X obj 101 33 bang;
#X connect 0 0 7 2;
#X connect 1 0 7 3;
#X connect 2 0 7 4;
#X connect 3 0 7 5;
#X connect 4 0 8 2;
#X connect 4 0 12 0;
#X connect 6 0 13 0;
#X connect 7 0 5 0;
#X connect 8 0 5 0;
#X connect 9 0 7 0;
#X connect 9 1 11 0;
#X connect 9 2 8 0;
#X connect 9 3 10 0;
#X connect 10 0 8 1;
#X connect 11 0 7 1;
#X connect 12 0 13 1;
#X connect 13 0 9 0;
#X connect 14 0 15 0;
#X connect 15 0 13 1;
#X connect 16 0 17 0;
#X connect 17 0 15 0;
