#N canvas 348 251 909 483 10;
#X obj 84 2 vsl 30 6 0 127 0 0 \$1-\$2-load-smp \$1-\$2-load-smp-r
load 5 3 1 10 -245500 -245500 -1 0 0;
#X obj 148 2 vsl 30 6 0 127 0 0 \$1-\$2-smp-clear \$1-\$2-smp-clear-r
clear 3 3 1 10 -245500 -245500 -1 0 0;
#X obj 218 2 vsl 365 6 0 127 0 0 \$1-\$2-filename-display \$1-\$2-filename-display-r
--- 1 3 0 10 -228992 -228992 -33289 0 1;
#X obj 178 2 vsl 40 6 0 127 0 0 \$1-\$2-smp-length-display \$1-\$2-smp-length-display-r
---sec 5 4 1 9 -245500 -245500 -1 0 0;
#X obj 214 175 tgl 20 0 \$1-\$2-smp-quantize-toggle \$1-\$2-smp-quantize-toggle-r
empty 17 7 0 10 -262144 -1 -1 1 1;
#X obj 214 129 bng 15 250 50 0 empty empty empty 17 7 0 10 -262144
-1 -1;
#X obj 36 2 vsl 16 6 0 1 0 0 \$1-\$2-smp-momentary \$1-\$2-smp-momentary-r
M 4 4 1 11 -228992 -228992 -33289 0 1;
#X obj 52 2 vsl 16 6 0 1 0 0 \$1-\$2-smp-trigger \$1-\$2-smp-trigger-r
T 5 4 1 11 -228992 -228992 -33289 0 1;
#X obj 68 2 vsl 16 6 0 1 0 0 \$1-\$2-smp-loop \$1-\$2-smp-loop-r L
5 4 1 11 -355 -355 -262144 0 1;
#X obj 20 2 vsl 16 6 0 1 0 0 \$1-\$2-smp-quantize \$1-\$2-smp-quantize-r
Q 4 4 1 11 -355 -355 -262144 0 1;
#X obj 96 24 loadbang;
#X obj 214 206 sel 1;
#X msg 241 233 color 8 8 12;
#X obj 214 101 r \$1-\$2-smp-quantize;
#X obj 214 287 s \$1-\$2-smp-quantize-r;
#X obj 194 71 r \$2-row-quantize-toggle;
#X msg 239 129 1;
#X obj 0 239 hradio 30 1 0 3 \$1-\$2-smp-mode \$1-\$2-smp-mode-r SAMPLE:_momentary/trigger/loop
4 36 0 10 -262144 -1 -1 2;
#X msg 0 91 0;
#X msg 10 138 1;
#X msg 20 185 2;
#X msg 80 370 color 8 8 12;
#X obj 0 289 t f b b;
#X obj 0 370 route 0 1 2;
#X obj 0 343 list;
#X obj 0 71 r \$1-\$2-smp-momentary;
#X obj 10 118 r \$1-\$2-smp-trigger;
#X obj 20 165 r \$1-\$2-smp-loop;
#X obj 0 451 s \$1-\$2-smp-momentary-r;
#X obj 21 424 s \$1-\$2-smp-trigger-r;
#X obj 42 397 s \$1-\$2-smp-loop-r;
#X obj 30 212 r \$2-sample-mode;
#X obj 114 2 vsl 34 6 0 127 0 0 \$1-\$2-smp-catch-display \$1-\$2-smp-catch-display-r
catch 3 4 1 9 -245500 -245500 -1 0 0;
#X obj 389 71 r \$1-\$2-filename-display;
#X obj 389 162 f \$1;
#X obj 417 162 f \$2;
#X msg 446 162 1;
#X obj 389 125 t b b b;
#X obj 389 275 pack f f f;
#X obj 389 302 s matrix-transpose;
#X msg 359 216 0;
#X obj 332 189 t b b;
#X obj 332 162 delay 5;
#X obj 399 98 r \$1-\$2-sample-num-display;
#X obj 1 3 vsl 18 5 0 127 0 0 \$1-\$2-sample-num-display \$1-\$2-sample-num-display-r
\$1 6 3 1 11 -13381 -13381 -262144 0 1;
#X msg 19 316 color 28 28 0;
#X msg 214 260 color 28 28 0;
#X connect 4 0 11 0;
#X connect 5 0 4 0;
#X connect 10 0 16 0;
#X connect 10 0 18 0;
#X connect 11 0 46 0;
#X connect 11 1 12 0;
#X connect 12 0 14 0;
#X connect 13 0 5 0;
#X connect 15 0 4 0;
#X connect 16 0 4 0;
#X connect 17 0 22 0;
#X connect 18 0 17 0;
#X connect 19 0 17 0;
#X connect 20 0 17 0;
#X connect 21 0 28 0;
#X connect 21 0 29 0;
#X connect 21 0 30 0;
#X connect 22 0 24 0;
#X connect 22 1 45 0;
#X connect 22 2 21 0;
#X connect 23 0 28 0;
#X connect 23 1 29 0;
#X connect 23 2 30 0;
#X connect 24 0 23 0;
#X connect 25 0 18 0;
#X connect 26 0 19 0;
#X connect 27 0 20 0;
#X connect 31 0 17 0;
#X connect 33 0 37 0;
#X connect 34 0 38 0;
#X connect 35 0 38 1;
#X connect 36 0 38 2;
#X connect 37 0 34 0;
#X connect 37 0 42 0;
#X connect 37 1 35 0;
#X connect 37 2 36 0;
#X connect 38 0 39 0;
#X connect 40 0 38 2;
#X connect 41 0 38 0;
#X connect 41 1 40 0;
#X connect 42 0 41 0;
#X connect 43 0 37 0;
#X connect 45 0 24 1;
#X connect 46 0 14 0;
#X coords 0 -1 1 1 583 11 2 0 0;
