#N canvas 189 136 1091 643 10;
#X obj 214 245 tgl 20 0 \$1-\$2-smp-quantize-toggle \$1-\$2-smp-quantize-toggle-r
empty 17 7 0 10 -262144 -1 -1 1 1;
#X obj 214 199 bng 15 250 50 0 empty empty empty 17 7 0 10 -262144
-1 -1;
#X obj 96 94 loadbang;
#X obj 214 276 sel 1;
#X obj 214 171 r \$1-\$2-smp-quantize;
#X obj 214 431 s \$1-\$2-smp-quantize-r;
#X obj 194 141 r \$2-row-quantize-toggle;
#X msg 239 199 1;
#X obj 0 309 hradio 30 1 0 3 \$1-\$2-smp-mode \$1-\$2-smp-mode-r SAMPLE:_momentary/trigger/loop
4 36 0 10 -262144 -1 -1 0;
#X msg 0 161 0;
#X msg 10 208 1;
#X msg 20 255 2;
#X obj 0 359 t f b b;
#X obj 0 440 route 0 1 2;
#X obj 0 413 list;
#X obj 0 141 r \$1-\$2-smp-momentary;
#X obj 10 188 r \$1-\$2-smp-trigger;
#X obj 20 235 r \$1-\$2-smp-loop;
#X obj 0 521 s \$1-\$2-smp-momentary-r;
#X obj 21 494 s \$1-\$2-smp-trigger-r;
#X obj 42 467 s \$1-\$2-smp-loop-r;
#X obj 30 282 r \$2-sample-mode;
#X obj 419 141 r \$1-\$2-filename-display;
#X obj 419 232 f \$1;
#X obj 447 232 f \$2;
#X msg 476 232 1;
#X obj 419 195 t b b b;
#X obj 419 345 pack f f f;
#X obj 419 372 s matrix-transpose;
#X msg 389 286 0;
#X obj 362 259 t b b;
#X obj 362 232 delay 5;
#X obj 429 168 r \$1-\$2-sample-num-display;
#X msg 80 440 color 0 0 12;
#X msg 19 386 color 2 2 0;
#X msg 214 384 label quantize_on;
#X msg 241 330 label quantize_off;
#X obj 3 3 cnv 15 72 72 \$1-\$2-sample-ui-canvas \$1-\$2-sample-ui-canvas-r
empty 2 12 1 14 -170880 -262144 0;
#X obj 42 26 vsl 30 9 0 127 0 0 \$1-\$2-smp-catch-display \$1-\$2-smp-catch-display-r
catch 2 5 1 11 -262144 -262144 -1 0 0;
#X obj 6 9 vsl 66 9 0 127 0 0 \$1-\$2-filename-display \$1-\$2-filename-display-r
120_80sSyn3.w 1 5 0 8 -262144 -262144 -33289 0 1;
#X obj 6 60 vsl 20 9 0 1 0 0 \$1-\$2-smp-momentary \$1-\$2-smp-momentary-r
M 7 5 1 11 -66577 -66577 -262144 0 1;
#X obj 29 60 vsl 20 9 0 1 0 0 \$1-\$2-smp-trigger \$1-\$2-smp-trigger-r
T 8 5 1 11 -262144 -262144 -33289 0 1;
#X obj 52 60 vsl 20 9 0 1 0 0 \$1-\$2-smp-loop \$1-\$2-smp-loop-r L
8 5 1 11 -262144 -262144 -33289 0 1;
#X obj 6 43 vsl 66 9 0 1 0 0 \$1-\$2-smp-quantize \$1-\$2-smp-quantize-r
quantize_on 3 5 1 11 -66577 -66577 -262144 0 1;
#X msg 261 303 color 0 0 12;
#X msg 224 357 color 2 2 0;
#X obj 95 45 s \$1-\$2-sample-ui-canvas-r;
#X msg 95 18 color 28 0;
#X obj 6 26 vsl 8 9 0 127 0 0 \$1-\$2-smp-scroll \$1-\$2-smp-scroll-r
empty 4 5 1 11 -66577 -66577 -1 500 0;
#X obj 12 26 vsl 28 9 0 127 0 0 \$1-\$2-load-smp \$1-\$2-load-smp-r
load 4 5 1 11 -262144 -262144 -1 0 0;
#X connect 0 0 3 0;
#X connect 1 0 0 0;
#X connect 2 0 7 0;
#X connect 2 0 9 0;
#X connect 3 0 45 0;
#X connect 3 0 35 0;
#X connect 3 1 44 0;
#X connect 3 1 36 0;
#X connect 4 0 1 0;
#X connect 6 0 0 0;
#X connect 7 0 0 0;
#X connect 8 0 12 0;
#X connect 9 0 8 0;
#X connect 10 0 8 0;
#X connect 11 0 8 0;
#X connect 12 0 14 0;
#X connect 12 1 34 0;
#X connect 12 2 33 0;
#X connect 13 0 18 0;
#X connect 13 1 19 0;
#X connect 13 2 20 0;
#X connect 14 0 13 0;
#X connect 15 0 9 0;
#X connect 16 0 10 0;
#X connect 17 0 11 0;
#X connect 21 0 8 0;
#X connect 22 0 26 0;
#X connect 23 0 27 0;
#X connect 24 0 27 1;
#X connect 25 0 27 2;
#X connect 26 0 23 0;
#X connect 26 0 31 0;
#X connect 26 1 24 0;
#X connect 26 2 25 0;
#X connect 27 0 28 0;
#X connect 29 0 27 2;
#X connect 30 0 27 0;
#X connect 30 1 29 0;
#X connect 31 0 30 0;
#X connect 32 0 26 0;
#X connect 33 0 18 0;
#X connect 33 0 19 0;
#X connect 33 0 20 0;
#X connect 34 0 14 1;
#X connect 35 0 5 0;
#X connect 36 0 5 0;
#X connect 44 0 5 0;
#X connect 45 0 5 0;
#X connect 47 0 46 0;
#X coords 0 -1 1 1 78 78 2 0 0;
