#N canvas 349 332 461 299 10;
#X declare -path tmp;
#X declare -path lib;
#N canvas 696 487 705 322 osc 0;
#X obj 22 76 r \$0-OSC-out;
#X floatatom 22 191 5 0 0 0 - - -;
#X obj 22 168 sendOSC;
#X msg 22 51 connect localhost 8080;
#X obj 284 29 dumpOSC 8000;
#X obj 22 16 loadbang;
#N canvas 260 356 536 488 gesture_sift 0;
#X obj 76 6 inlet;
#N canvas 685 158 319 152 gest_OSC-out 0;
#X obj 65 39 inlet;
#X obj 65 60 list prepend send;
#X obj 65 81 list trim;
#X obj 65 109 s \$0-OSC-out;
#X connect 0 0 1 0;
#X connect 1 0 2 0;
#X connect 2 0 3 0;
#X restore 45 430 pd gest_OSC-out;
#X obj 300 153 route 0 7;
#X text 197 30 other columns;
#N canvas 816 82 450 300 column0 0;
#X obj 53 19 inlet;
#X obj 53 244 outlet;
#X obj 53 217 gesture_parse 0 0;
#X obj 53 65 route 0 7;
#X obj 83 151 outlet;
#X obj 113 105 s 0-column;
#X obj 83 130 gesture_parse 0 7;
#X connect 0 0 3 0;
#X connect 2 0 1 0;
#X connect 3 0 2 0;
#X connect 3 1 6 0;
#X connect 3 2 5 0;
#X connect 6 0 4 0;
#X restore 19 147 pd column0;
#X obj 318 90 s \$0-OSC-in;
#X obj 382 371 r \$0-column1;
#X obj 382 392 print;
#X obj 112 318 column-sift 2 0 effects;
#X obj 86 183 s step-left;
#X obj 19 184 s home;
#X obj 374 267 s step-right;
#X obj 388 153 s 7-column;
#X obj 76 94 route 0 1 2 3 4 7;
#X obj 300 187 gesture_parse 7 0;
#X obj 374 246 gesture_parse 7 7;
#X obj 94 343 column-sift 1 0 octave;
#X obj 148 260 column-sift 4 0 keyboard;
#X obj 130 289 column-sift 3 0 velocity;
#X connect 0 0 13 0;
#X connect 2 0 14 0;
#X connect 2 1 15 0;
#X connect 2 2 12 0;
#X connect 4 0 10 0;
#X connect 4 1 9 0;
#X connect 6 0 7 0;
#X connect 13 0 4 0;
#X connect 13 1 16 0;
#X connect 13 2 8 0;
#X connect 13 3 18 0;
#X connect 13 4 17 0;
#X connect 13 5 2 0;
#X connect 13 6 5 0;
#X connect 15 0 11 0;
#X restore 284 97 pd gesture_sift;
#N canvas 526 188 914 273 rebuild-columns 0;
#X obj 33 108 list prepend 0;
#X obj 33 129 list trim;
#X obj 33 217 s \$0-OSC-in;
#X obj 125 160 list trim;
#X obj 125 139 list prepend 1;
#X obj 216 113 list trim;
#X obj 308 144 list trim;
#X obj 216 92 list prepend 2;
#X obj 309 123 list prepend 3;
#X obj 700 164 list trim;
#X obj 701 143 list prepend 7;
#X obj 418 156 list trim;
#X obj 509 109 list trim;
#X obj 601 140 list trim;
#X obj 418 135 list prepend 4;
#X obj 602 119 list prepend 6;
#X obj 509 89 list prepend 5;
#X obj 33 47 r 0-column;
#X obj 125 47 r 1-column;
#X obj 216 45 r 2-column;
#X obj 308 46 r 3-column;
#X obj 418 43 r 4-column;
#X obj 509 42 r 5-column;
#X obj 602 41 r 6-column;
#X obj 701 66 r 7-column;
#X connect 0 0 1 0;
#X connect 1 0 2 0;
#X connect 3 0 2 0;
#X connect 4 0 3 0;
#X connect 5 0 2 0;
#X connect 6 0 2 0;
#X connect 7 0 5 0;
#X connect 8 0 6 0;
#X connect 9 0 2 0;
#X connect 10 0 9 0;
#X connect 11 0 2 0;
#X connect 12 0 2 0;
#X connect 13 0 2 0;
#X connect 14 0 11 0;
#X connect 15 0 13 0;
#X connect 16 0 12 0;
#X connect 17 0 0 0;
#X connect 18 0 4 0;
#X connect 19 0 7 0;
#X connect 20 0 8 0;
#X connect 21 0 14 0;
#X connect 22 0 16 0;
#X connect 23 0 15 0;
#X connect 24 0 10 0;
#X restore 284 124 pd rebuild-columns;
#N canvas 0 22 378 305 depricated 0;
#X obj 183 138 s \$0-OSC-in;
#X obj 61 34 route 7;
#X obj 61 59 route 7;
#X obj 61 230 s \$0-OSC-out;
#X obj 61 177 list prepend send;
#X obj 61 202 list trim;
#X obj 149 128 bng 15 250 50 0 empty empty empty 17 7 0 10 -262144
-1 -1;
#X obj 183 79 list prepend 7;
#X obj 183 101 list trim;
#X obj 61 93 gesture_parse;
#X connect 1 0 2 0;
#X connect 1 1 0 0;
#X connect 2 0 9 0;
#X connect 2 1 7 0;
#X connect 4 0 5 0;
#X connect 5 0 3 0;
#X connect 7 0 8 0;
#X connect 8 0 0 0;
#X connect 9 0 4 0;
#X restore 480 67 pd depricated;
#X obj 95 106 r \$0-prefix;
#X msg 95 131 send /sys/prefix 0 /sop;
#X msg 95 152 send /sop/clear 0;
#X obj 284 52 OSCroute /sop;
#X obj 284 73 OSCroute /press;
#X connect 0 0 2 0;
#X connect 2 0 1 0;
#X connect 3 0 2 0;
#X connect 4 0 12 0;
#X connect 5 0 3 0;
#X connect 9 0 10 0;
#X connect 10 0 2 0;
#X connect 11 0 2 0;
#X connect 12 0 13 0;
#X connect 13 0 6 0;
#X restore 609 35 pd osc;
#N canvas 193 482 197 330 control 0;
#X obj 715 30 &&;
#X obj 697 53 &&;
#X obj 698 79 sel 1;
#X obj 698 112 f 0;
#X obj 728 112 == 0;
#X obj 698 137 s main-mode;
#X floatatom 702 186 5 0 0 0 - - -;
#X obj 702 204 t f f;
#X obj 700 273 pack f f;
#X obj 701 249 & 255;
#X obj 751 231 >> 8;
#X obj 752 251 % 9;
#N canvas 543 322 233 206 led_set 0;
#X obj 42 30 inlet;
#X obj 42 146 s \$0-OSC-out;
#X obj 42 89 list prepend send;
#X obj 42 114 list trim;
#X msg 42 59 /sop/led \$1 \$2 1;
#X connect 0 0 4 0;
#X connect 2 0 3 0;
#X connect 3 0 1 0;
#X connect 4 0 2 0;
#X restore 781 203 pd led_set;
#N canvas 110 56 295 549 test 0;
#X obj 36 206 route 0 1 2 3 4 5 6 7;
#X obj 36 33 r \$0-OSC-in;
#X msg 36 249 \$1;
#X obj 36 55 unpack f f f;
#X obj 117 87 == 1;
#X obj 36 132 spigot;
#X obj 36 94 pack f f;
#X obj 54 317 bng 15 250 50 0 empty empty empty 17 7 0 10 -262144 -1
-1;
#X obj 54 342 v colZero;
#X floatatom 36 463 5 0 0 0 - - -;
#X obj 36 442 &;
#X msg 54 389 1;
#X obj 54 415 <<;
#X obj 54 363 t b f;
#X floatatom 72 438 5 0 0 0 - - -;
#X obj 89 387 int2bin;
#X floatatom 43 279 5 0 0 0 - - -;
#X text 154 141 v & 1 << i;
#X connect 0 0 2 0;
#X connect 1 0 3 0;
#X connect 2 0 16 0;
#X connect 2 0 10 0;
#X connect 3 0 6 0;
#X connect 3 1 6 1;
#X connect 3 2 4 0;
#X connect 4 0 5 1;
#X connect 5 0 0 0;
#X connect 6 0 5 0;
#X connect 7 0 8 0;
#X connect 8 0 13 0;
#X connect 10 0 9 0;
#X connect 11 0 12 0;
#X connect 12 0 10 1;
#X connect 12 0 14 0;
#X connect 13 0 11 0;
#X connect 13 1 15 0;
#X connect 13 1 12 1;
#X restore 427 18 pd test;
#N canvas 534 373 450 300 note-on-parse 0;
#X obj 31 34 r \$0-OSC-in;
#X obj 31 58 unpack f f f;
#X obj 112 105 == 1;
#X obj 31 118 pack f f;
#X obj 31 156 spigot;
#X obj 185 41 r gest-in;
#X obj 185 228 outlet;
#X obj 307 101 outlet;
#X obj 307 52 r \$0-position;
#X connect 0 0 1 0;
#X connect 1 0 3 0;
#X connect 1 1 3 1;
#X connect 1 2 2 0;
#X connect 2 0 4 1;
#X connect 3 0 4 0;
#X connect 4 0 6 0;
#X connect 5 0 6 0;
#X connect 8 0 7 0;
#X restore 38 38 pd note-on-parse;
#X text 208 49 accept note on \, rebuilt column on messages;
#X obj 21 168 gate 5;
#X obj 21 94 r \$0-page-number;
#N canvas 228 133 501 627 seq/state 0;
#X obj 42 14 unpack f f;
#X obj 42 58 swap;
#X obj 42 -14 inlet;
#X obj 42 184 expr if ($f1 == $f2 \, -1 \, $f1);
#X obj 67 82 t f f f f f;
#X obj 242 153 tabread state;
#X obj 74 246 tabwrite state;
#X obj 42 205 t b f;
#X obj 42 261 f;
#X obj 42 304 tabread state;
#X obj 42 325 moses 0;
#X obj 42 379 sel -1;
#X obj 42 405 f;
#X obj 42 431 pack f 0;
#N canvas 676 496 340 223 control-OSC-out 0;
#X obj 80 50 inlet;
#X obj 80 159 s \$0-OSC-out;
#X obj 80 106 list prepend send;
#X obj 80 131 list trim;
#X msg 80 83 /sop/led_col \$1 \$2;
#X connect 0 0 4 0;
#X connect 2 0 3 0;
#X connect 3 0 1 0;
#X connect 4 0 2 0;
#X restore 42 508 pd control-OSC-out;
#X obj 213 373 int2bin;
#X obj 213 394 t b f;
#X obj 213 415 f;
#X obj 213 436 pack f f;
#X obj 197 129 +;
#X obj 215 93 r \$0-pattern-view;
#X obj 169 217 +;
#X obj 42 282 +;
#X connect 0 0 1 0;
#X connect 0 1 1 1;
#X connect 1 0 3 0;
#X connect 1 1 4 0;
#X connect 2 0 0 0;
#X connect 3 0 7 0;
#X connect 4 0 8 1;
#X connect 4 1 21 0;
#X connect 4 2 17 1;
#X connect 4 3 12 1;
#X connect 4 4 19 0;
#X connect 5 0 3 1;
#X connect 7 0 8 0;
#X connect 7 1 6 0;
#X connect 8 0 22 0;
#X connect 9 0 10 0;
#X connect 10 0 11 0;
#X connect 10 1 15 0;
#X connect 11 0 12 0;
#X connect 12 0 13 0;
#X connect 13 0 14 0;
#X connect 15 0 16 0;
#X connect 16 0 17 0;
#X connect 16 1 18 1;
#X connect 17 0 18 0;
#X connect 18 0 14 0;
#X connect 19 0 5 0;
#X connect 20 0 19 1;
#X connect 20 0 21 1;
#X connect 20 0 22 1;
#X connect 21 0 6 1;
#X connect 22 0 9 0;
#X restore 21 270 pd seq/state;
#N canvas 774 394 336 428 octave 0;
#X obj 45 25 inlet;
#X obj 45 46 unpack f f;
#X obj 45 67 swap;
#X obj 45 144 t b f;
#X obj 77 182 tabwrite octave;
#X obj 45 255 f;
#X obj 45 276 tabread octave;
#X obj 45 297 int2bin;
#X obj 45 318 t b f;
#X obj 45 339 f;
#X obj 45 360 pack f f;
#N canvas 0 22 340 223 control-OSC-out 0;
#X obj 80 50 inlet;
#X obj 80 159 s \$0-OSC-out;
#X obj 80 106 list prepend send;
#X obj 80 131 list trim;
#X msg 80 83 /sop/led_col \$1 \$2;
#X connect 0 0 4 0;
#X connect 2 0 3 0;
#X connect 3 0 1 0;
#X connect 4 0 2 0;
#X restore 45 384 pd control-OSC-out;
#X obj 70 105 t f f f;
#X obj 179 151 +;
#X obj 197 115 r \$0-pattern-view;
#X obj 63 224 +;
#X connect 0 0 1 0;
#X connect 1 0 2 0;
#X connect 1 1 2 1;
#X connect 2 0 3 0;
#X connect 2 1 12 0;
#X connect 3 0 5 0;
#X connect 3 1 4 0;
#X connect 5 0 6 0;
#X connect 6 0 7 0;
#X connect 7 0 8 0;
#X connect 8 0 9 0;
#X connect 8 1 10 1;
#X connect 9 0 10 0;
#X connect 10 0 11 0;
#X connect 12 0 15 0;
#X connect 12 1 13 0;
#X connect 12 2 9 1;
#X connect 13 0 4 1;
#X connect 14 0 13 1;
#X connect 14 0 15 1;
#X connect 15 0 5 1;
#X restore 30 249 pd octave;
#N canvas 434 242 370 454 velocity 0;
#X obj 45 25 inlet;
#X obj 45 46 unpack f f;
#X obj 45 67 swap;
#X obj 45 144 t b f;
#X obj 45 269 f;
#X obj 45 332 t b f;
#X obj 45 353 f;
#X obj 45 374 pack f f;
#N canvas 166 150 340 223 control-OSC-out 0;
#X obj 80 50 inlet;
#X obj 80 159 s \$0-OSC-out;
#X obj 80 106 list prepend send;
#X obj 80 131 list trim;
#X msg 80 83 /sop/led_col \$1 \$2;
#X connect 0 0 4 0;
#X connect 2 0 3 0;
#X connect 3 0 1 0;
#X connect 4 0 2 0;
#X restore 45 398 pd control-OSC-out;
#X obj 70 105 t f f f;
#X obj 77 182 tabwrite velocity;
#X obj 45 290 tabread velocity;
#N canvas 0 22 386 307 slider 0;
#X obj 58 57 inlet;
#X obj 58 95 sel 0 1 2 3 4 5 6 7;
#X msg 58 116 255;
#X msg 73 140 254;
#X msg 104 141 248;
#X msg 129 152 240;
#X msg 148 128 224;
#X msg 163 152 192;
#X msg 180 130 128;
#X obj 68 224 outlet;
#X msg 91 118 252;
#X connect 0 0 1 0;
#X connect 1 0 2 0;
#X connect 1 1 3 0;
#X connect 1 2 10 0;
#X connect 1 3 4 0;
#X connect 1 4 5 0;
#X connect 1 5 6 0;
#X connect 1 6 7 0;
#X connect 1 7 8 0;
#X connect 2 0 9 0;
#X connect 3 0 9 0;
#X connect 4 0 9 0;
#X connect 5 0 9 0;
#X connect 6 0 9 0;
#X connect 7 0 9 0;
#X connect 8 0 9 0;
#X connect 10 0 9 0;
#X restore 45 310 pd slider;
#X obj 193 153 +;
#X obj 211 117 r \$0-pattern-view;
#X obj 63 229 +;
#X connect 0 0 1 0;
#X connect 1 0 2 0;
#X connect 1 1 2 1;
#X connect 2 0 3 0;
#X connect 2 1 9 0;
#X connect 3 0 4 0;
#X connect 3 1 10 0;
#X connect 4 0 11 0;
#X connect 5 0 6 0;
#X connect 5 1 7 1;
#X connect 6 0 7 0;
#X connect 7 0 8 0;
#X connect 9 0 15 0;
#X connect 9 1 13 0;
#X connect 9 2 6 1;
#X connect 11 0 12 0;
#X connect 12 0 5 0;
#X connect 13 0 10 1;
#X connect 14 0 13 1;
#X connect 14 0 15 1;
#X connect 15 0 4 1;
#X restore 40 227 pd velocity;
#N canvas 548 222 354 463 effects 0;
#X obj 45 25 inlet;
#X obj 45 46 unpack f f;
#X obj 45 67 swap;
#X obj 45 144 t b f;
#X obj 45 266 f;
#X obj 45 329 t b f;
#X obj 45 350 f;
#X obj 45 371 pack f f;
#N canvas 391 150 340 223 control-OSC-out 0;
#X obj 80 50 inlet;
#X obj 80 159 s \$0-OSC-out;
#X obj 80 106 list prepend send;
#X obj 80 131 list trim;
#X msg 80 83 /sop/led_col \$1 \$2;
#X connect 0 0 4 0;
#X connect 2 0 3 0;
#X connect 3 0 1 0;
#X connect 4 0 2 0;
#X restore 45 395 pd control-OSC-out;
#X obj 70 105 t f f f;
#N canvas 0 22 386 307 slider 0;
#X obj 58 57 inlet;
#X obj 58 95 sel 0 1 2 3 4 5 6 7;
#X msg 58 116 255;
#X msg 73 140 254;
#X msg 104 141 248;
#X msg 129 152 240;
#X msg 148 128 224;
#X msg 163 152 192;
#X msg 180 130 128;
#X obj 68 224 outlet;
#X msg 91 118 252;
#X connect 0 0 1 0;
#X connect 1 0 2 0;
#X connect 1 1 3 0;
#X connect 1 2 10 0;
#X connect 1 3 4 0;
#X connect 1 4 5 0;
#X connect 1 5 6 0;
#X connect 1 6 7 0;
#X connect 1 7 8 0;
#X connect 2 0 9 0;
#X connect 3 0 9 0;
#X connect 4 0 9 0;
#X connect 5 0 9 0;
#X connect 6 0 9 0;
#X connect 7 0 9 0;
#X connect 8 0 9 0;
#X connect 10 0 9 0;
#X restore 45 307 pd slider;
#X obj 78 182 tabwrite effects;
#X obj 45 287 tabread effects;
#X obj 187 153 +;
#X obj 205 117 r \$0-pattern-view;
#X obj 63 224 +;
#X connect 0 0 1 0;
#X connect 1 0 2 0;
#X connect 1 1 2 1;
#X connect 2 0 3 0;
#X connect 2 1 9 0;
#X connect 3 0 4 0;
#X connect 3 1 11 0;
#X connect 4 0 12 0;
#X connect 5 0 6 0;
#X connect 5 1 7 1;
#X connect 6 0 7 0;
#X connect 7 0 8 0;
#X connect 9 0 15 0;
#X connect 9 1 13 0;
#X connect 9 2 6 1;
#X connect 10 0 5 0;
#X connect 12 0 10 0;
#X connect 13 0 11 1;
#X connect 14 0 13 1;
#X connect 14 0 15 1;
#X connect 15 0 4 1;
#X restore 50 202 pd effects;
#N canvas 427 115 992 712 keyboard 0;
#X obj 53 20 inlet;
#X obj 53 62 unpack f f;
#X obj 53 96 == 0;
#X obj 120 98 == 7;
#X obj 53 129 &&;
#X obj 53 150 sel 1;
#X msg 53 171 c;
#X obj 66 270 s \$0-key;
#X obj 167 61 unpack f f;
#X obj 167 128 &&;
#X obj 167 149 sel 1;
#X msg 167 170 d;
#X obj 53 192 symbol;
#X obj 167 191 symbol;
#X obj 167 95 == 1;
#X obj 234 97 == 7;
#X obj 272 61 unpack f f;
#X obj 339 97 == 7;
#X obj 272 128 &&;
#X obj 272 149 sel 1;
#X obj 386 60 unpack f f;
#X obj 386 127 &&;
#X obj 386 148 sel 1;
#X obj 272 191 symbol;
#X obj 386 190 symbol;
#X obj 453 96 == 7;
#X obj 272 95 == 2;
#X obj 386 94 == 3;
#X msg 272 169 e;
#X msg 386 169 f;
#X obj 496 64 unpack f f;
#X obj 496 131 &&;
#X obj 496 152 sel 1;
#X obj 496 194 symbol;
#X obj 563 100 == 7;
#X obj 496 98 == 4;
#X obj 607 65 unpack f f;
#X obj 607 132 &&;
#X obj 607 153 sel 1;
#X obj 607 195 symbol;
#X obj 674 101 == 7;
#X obj 607 99 == 5;
#X msg 496 173 g;
#X msg 607 174 a;
#X obj 570 625 list trim;
#X obj 571 586 list prepend send;
#X obj 573 523 pack f f;
#X obj 574 479 pow;
#X msg 573 456 2;
#X obj 573 433 t b f;
#X obj 626 437 loadbang;
#X obj 573 500 swap;
#X obj 626 469 1;
#X obj 570 654 s \$0-OSC-out;
#X obj 670 376 inlet;
#X obj 66 598 sel 0 1 2 3 4 5 6 7;
#X obj 790 493 ==;
#X obj 723 525 spigot;
#X obj 845 408 loadbang;
#X floatatom 845 493 5 0 0 0 - - -;
#X obj 845 462 f 0;
#X obj 723 446 unpack f f;
#X floatatom 723 576 5 0 0 0 - - -;
#X obj 741 610 s 1-row-pos;
#X obj 711 62 unpack f f;
#X obj 711 129 &&;
#X obj 711 150 sel 1;
#X obj 711 192 symbol;
#X obj 778 98 == 7;
#X msg 711 171 b;
#X obj 711 96 == 6;
#X obj 53 466 s \$0-key;
#X obj 53 308 unpack f f;
#X obj 53 375 &&;
#X obj 53 396 sel 1;
#X obj 53 438 symbol;
#X obj 53 342 == 1;
#X obj 120 344 == 6;
#X obj 165 303 unpack f f;
#X obj 165 370 &&;
#X obj 165 391 sel 1;
#X obj 165 433 symbol;
#X obj 232 339 == 6;
#X obj 165 337 == 2;
#X obj 282 299 unpack f f;
#X obj 282 366 &&;
#X obj 282 387 sel 1;
#X obj 282 429 symbol;
#X obj 349 335 == 6;
#X obj 394 294 unpack f f;
#X obj 394 361 &&;
#X obj 394 382 sel 1;
#X obj 394 424 symbol;
#X obj 461 330 == 6;
#X obj 282 333 == 4;
#X obj 393 328 == 5;
#X obj 507 295 unpack f f;
#X obj 507 362 &&;
#X obj 507 383 sel 1;
#X obj 507 425 symbol;
#X obj 574 331 == 6;
#X obj 506 329 == 6;
#X obj 296 655 list trim;
#X obj 296 631 list prepend send;
#X obj 296 684 s \$0-OSC-out;
#X obj 321 564 f;
#X obj 351 564 + 1;
#X obj 382 564 % 2;
#X obj 322 518 tgl 15 0 empty empty empty 17 7 0 10 -262144 -1 -1 0
1;
#X obj 321 544 metro 20;
#X msg 53 417 db;
#X msg 165 412 eb;
#X msg 282 409 gb;
#X msg 394 403 ab;
#X msg 507 404 bb;
#X obj 848 48 r \$0-key-ui;
#X obj 848 69 i;
#X obj 848 90 change;
#X obj 635 14 sel 0 1 2 3 4 5 6 7 8 9 10 11;
#X msg 572 551 /sop/led_row \$1 \$2;
#X msg 315 595 /sop/led 7 3 \$1;
#X connect 0 0 1 0;
#X connect 0 0 8 0;
#X connect 0 0 16 0;
#X connect 0 0 20 0;
#X connect 0 0 30 0;
#X connect 0 0 36 0;
#X connect 0 0 64 0;
#X connect 0 0 72 0;
#X connect 0 0 78 0;
#X connect 0 0 84 0;
#X connect 0 0 89 0;
#X connect 0 0 96 0;
#X connect 1 0 2 0;
#X connect 1 1 3 0;
#X connect 2 0 4 0;
#X connect 3 0 4 1;
#X connect 4 0 5 0;
#X connect 5 0 6 0;
#X connect 6 0 12 0;
#X connect 8 0 14 0;
#X connect 8 1 15 0;
#X connect 9 0 10 0;
#X connect 10 0 11 0;
#X connect 11 0 13 0;
#X connect 12 0 7 0;
#X connect 13 0 7 0;
#X connect 14 0 9 0;
#X connect 15 0 9 1;
#X connect 16 0 26 0;
#X connect 16 1 17 0;
#X connect 17 0 18 1;
#X connect 18 0 19 0;
#X connect 19 0 28 0;
#X connect 20 0 27 0;
#X connect 20 1 25 0;
#X connect 21 0 22 0;
#X connect 22 0 29 0;
#X connect 23 0 7 0;
#X connect 24 0 7 0;
#X connect 25 0 21 1;
#X connect 26 0 18 0;
#X connect 27 0 21 0;
#X connect 28 0 23 0;
#X connect 29 0 24 0;
#X connect 30 0 35 0;
#X connect 30 1 34 0;
#X connect 31 0 32 0;
#X connect 32 0 42 0;
#X connect 33 0 7 0;
#X connect 34 0 31 1;
#X connect 35 0 31 0;
#X connect 36 0 41 0;
#X connect 36 1 40 0;
#X connect 37 0 38 0;
#X connect 38 0 43 0;
#X connect 39 0 7 0;
#X connect 40 0 37 1;
#X connect 41 0 37 0;
#X connect 42 0 33 0;
#X connect 43 0 39 0;
#X connect 44 0 53 0;
#X connect 45 0 44 0;
#X connect 46 0 119 0;
#X connect 47 0 51 0;
#X connect 48 0 47 0;
#X connect 49 0 48 0;
#X connect 49 1 47 1;
#X connect 50 0 52 0;
#X connect 51 0 46 0;
#X connect 51 1 46 1;
#X connect 52 0 51 1;
#X connect 56 0 57 1;
#X connect 57 0 62 0;
#X connect 57 0 63 0;
#X connect 58 0 60 0;
#X connect 60 0 56 1;
#X connect 60 0 59 0;
#X connect 61 0 57 0;
#X connect 61 1 56 0;
#X connect 64 0 70 0;
#X connect 64 1 68 0;
#X connect 65 0 66 0;
#X connect 66 0 69 0;
#X connect 67 0 7 0;
#X connect 68 0 65 1;
#X connect 69 0 67 0;
#X connect 70 0 65 0;
#X connect 72 0 76 0;
#X connect 72 1 77 0;
#X connect 73 0 74 0;
#X connect 74 0 110 0;
#X connect 75 0 71 0;
#X connect 76 0 73 0;
#X connect 77 0 73 1;
#X connect 78 0 83 0;
#X connect 78 1 82 0;
#X connect 79 0 80 0;
#X connect 80 0 111 0;
#X connect 81 0 71 0;
#X connect 82 0 79 1;
#X connect 83 0 79 0;
#X connect 84 0 94 0;
#X connect 84 1 88 0;
#X connect 85 0 86 0;
#X connect 86 0 112 0;
#X connect 87 0 71 0;
#X connect 88 0 85 1;
#X connect 89 0 95 0;
#X connect 89 1 93 0;
#X connect 90 0 91 0;
#X connect 91 0 113 0;
#X connect 92 0 71 0;
#X connect 93 0 90 1;
#X connect 94 0 85 0;
#X connect 95 0 90 0;
#X connect 96 0 101 0;
#X connect 96 1 100 0;
#X connect 97 0 98 0;
#X connect 98 0 114 0;
#X connect 99 0 71 0;
#X connect 100 0 97 1;
#X connect 101 0 97 0;
#X connect 102 0 104 0;
#X connect 103 0 102 0;
#X connect 105 0 106 0;
#X connect 105 0 120 0;
#X connect 106 0 107 0;
#X connect 107 0 105 1;
#X connect 108 0 109 0;
#X connect 109 0 105 0;
#X connect 110 0 75 0;
#X connect 111 0 81 0;
#X connect 112 0 87 0;
#X connect 113 0 92 0;
#X connect 114 0 99 0;
#X connect 115 0 116 0;
#X connect 116 0 117 0;
#X connect 117 0 118 0;
#X connect 118 0 6 0;
#X connect 118 1 110 0;
#X connect 118 2 11 0;
#X connect 118 3 111 0;
#X connect 118 4 28 0;
#X connect 118 5 29 0;
#X connect 118 6 112 0;
#X connect 118 7 42 0;
#X connect 118 8 113 0;
#X connect 118 9 43 0;
#X connect 118 10 114 0;
#X connect 118 11 69 0;
#X connect 119 0 45 0;
#X connect 120 0 103 0;
#X restore 73 174 pd keyboard;
#X obj 108 144 gate 5;
#X msg 701 305 /sop/led_col \$2 \$1;
#X connect 0 0 1 1;
#X connect 1 0 2 0;
#X connect 2 0 3 0;
#X connect 3 0 4 0;
#X connect 3 0 5 0;
#X connect 4 0 3 1;
#X connect 6 0 7 0;
#X connect 7 0 9 0;
#X connect 7 1 10 0;
#X connect 8 0 24 0;
#X connect 9 0 8 0;
#X connect 10 0 11 0;
#X connect 11 0 8 1;
#X connect 11 0 9 0;
#X connect 14 0 16 1;
#X connect 14 1 23 1;
#X connect 16 0 18 0;
#X connect 16 1 19 0;
#X connect 16 2 20 0;
#X connect 16 3 21 0;
#X connect 16 4 22 0;
#X connect 17 0 16 0;
#X connect 17 0 23 0;
#X connect 23 4 22 1;
#X restore 609 56 pd control;
#N canvas 863 409 450 329 time 0;
#X obj 126 13 r \$0-BPM;
#X obj 277 57 loadbang;
#X msg 309 123 115;
#X obj 187 183 /;
#X obj 277 92 t b b;
#X msg 187 152 60000;
#X obj 187 92 t b f;
#X text 253 208 8 divisions;
#X obj 187 63 moses 251;
#X obj 126 38 moses 40;
#X obj 36 115 r \$0-play;
#X obj 187 215 * 0.25;
#X obj 278 18 r \$0-clock;
#X obj 187 263 s \$0-master;
#X obj 135 264 - 5;
#X floatatom 135 285 5 0 0 0 - - -;
#X obj 135 303 s \$0-MAXLEN;
#X connect 0 0 9 0;
#X connect 1 0 4 0;
#X connect 2 0 3 1;
#X connect 3 0 11 0;
#X connect 4 0 5 0;
#X connect 4 1 2 0;
#X connect 5 0 3 0;
#X connect 6 0 5 0;
#X connect 6 1 3 1;
#X connect 8 0 6 0;
#X connect 9 1 8 0;
#X connect 11 0 13 0;
#X connect 11 0 14 0;
#X connect 14 0 15 0;
#X connect 15 0 16 0;
#X restore 609 76 pd time;
#X obj 42 37 tgl 30 0 \$0-play \$0-midi-play Play 0 -5 1 16 -204786
-1 -1 0 1;
#N canvas 306 22 777 697 synth 0;
#X obj 330 186 r \$0-trig;
#X obj 71 524 *~;
#X obj 330 386 adsr-mc;
#X floatatom 542 361 5 0 0 0 - - -;
#X floatatom 582 360 5 0 0 0 - - -;
#X floatatom 623 361 5 0 0 0 - - -;
#X floatatom 664 362 5 0 0 0 - - -;
#X obj 72 230 *~ 2048;
#X obj 72 251 tabread4~ square;
#X obj 51 -77 loadbang;
#X obj 71 555 outlet~;
#X obj 624 -75 table square 2048;
#X obj 624 -54 table triangle 2048;
#X obj 72 189 phasor~;
#X obj 72 160 inlet~;
#X obj 615 237 loadbang;
#X obj 406 113 - 7;
#X obj 406 134 abs;
#X obj 406 218 *;
#X obj 406 155 t f b;
#X msg 438 179 1;
#X obj 438 202 / 7;
#X obj 406 64 r \$0-position;
#X obj 406 87 tabread velocity;
#X msg 542 320 5;
#X msg 582 320 10;
#X msg 664 320 5;
#X msg 623 321 90;
#X obj 406 271 s \$0-midiVel;
#X obj 406 243 * 127;
#X msg 51 -50 \; square sinesum 2048 1 0 0.33333 0 0.2 0 0.142857 0
0.111111 0 0.090909 0 0.076923 \; square normalize 1 \; triangle sinesum
2048 1 0 -0.111111 0 0.04 0 -0.0204082 0 0.0123457 0 -0.00826446 0
\; triangle normalize 1 \;;
#X obj 192 230 *~ 2048;
#X obj 192 250 tabread4~ triangle;
#X obj 72 339 +~;
#X obj 72 286 *~ 0.75;
#X obj 193 278 *~ 2.25;
#X obj 376 314 r a;
#X obj 410 315 r d;
#X obj 444 315 r s;
#X obj 486 316 r r;
#X obj 71 460 lop~ 6000;
#X obj 302 451 r \$0-MAXLEN;
#X floatatom 302 472 5 0 0 0 - - -;
#X obj 376 354 * 20;
#X obj 542 432 s a-r;
#X obj 585 433 s d-r;
#X obj 629 431 s s-r;
#X obj 678 431 s r-r;
#X obj 543 400 / 20;
#X obj 629 406 / 100;
#X obj 584 401 / 20;
#X obj 676 403 / 20;
#X obj 410 354 * 20;
#X obj 444 353 * 100;
#X obj 486 353 * 20;
#X connect 0 0 2 0;
#X connect 1 0 10 0;
#X connect 2 0 1 1;
#X connect 3 0 48 0;
#X connect 4 0 50 0;
#X connect 5 0 49 0;
#X connect 6 0 51 0;
#X connect 7 0 8 0;
#X connect 8 0 34 0;
#X connect 9 0 30 0;
#X connect 13 0 7 0;
#X connect 13 0 31 0;
#X connect 14 0 13 0;
#X connect 15 0 24 0;
#X connect 15 0 25 0;
#X connect 15 0 27 0;
#X connect 15 0 26 0;
#X connect 16 0 17 0;
#X connect 17 0 19 0;
#X connect 18 0 29 0;
#X connect 18 0 2 1;
#X connect 19 0 18 0;
#X connect 19 1 20 0;
#X connect 20 0 21 0;
#X connect 21 0 18 1;
#X connect 22 0 23 0;
#X connect 23 0 16 0;
#X connect 24 0 3 0;
#X connect 25 0 4 0;
#X connect 26 0 6 0;
#X connect 27 0 5 0;
#X connect 29 0 28 0;
#X connect 31 0 32 0;
#X connect 32 0 35 0;
#X connect 33 0 40 0;
#X connect 34 0 33 0;
#X connect 35 0 33 1;
#X connect 36 0 43 0;
#X connect 37 0 52 0;
#X connect 38 0 53 0;
#X connect 39 0 54 0;
#X connect 40 0 1 0;
#X connect 41 0 42 0;
#X connect 43 0 2 2;
#X connect 48 0 44 0;
#X connect 49 0 46 0;
#X connect 50 0 45 0;
#X connect 51 0 47 0;
#X connect 52 0 2 3;
#X connect 53 0 2 4;
#X connect 54 0 2 5;
#X restore 607 248 pd synth;
#N canvas 355 276 583 559 pitch 0;
#X obj 31 84 f;
#X obj 62 84 + 1;
#X obj 93 83 % 8;
#X obj 31 136 tabread state;
#X obj 31 171 moses 0;
#X obj 77 198 t f b;
#X obj 320 214 t b b;
#X msg 320 242 1;
#X obj 320 272 s \$0-trig;
#X msg 369 246 0;
#X obj 369 223 del 100;
#X obj 415 108 r \$0-notelen;
#X obj 433 164 r \$0-MAXLEN;
#X floatatom 415 135 5 0 0 0 - - -;
#X obj 415 196 min;
#X obj 135 284 tabread octave;
#X obj 135 305 sel 4 3 2 5 6;
#X obj 31 105 t f f;
#X obj 26 425 line~;
#X obj 26 449 mtof~;
#X obj 26 487 outlet~;
#X obj 26 354 +;
#X msg 152 330 12;
#X msg 170 353 24;
#X msg 135 350 0;
#X floatatom 236 307 5 0 0 0 - - -;
#X msg 188 332 -12;
#X msg 205 353 -24;
#N canvas 503 333 450 300 pitch-parse 0;
#X obj 71 25 inlet;
#X obj 71 82 sel 7 6 5 4 3 2 1 0;
#X obj 71 195 f;
#X obj 102 195 f;
#X obj 89 131 r \$0-1;
#X obj 120 168 r \$0-2;
#X obj 71 273 outlet;
#X obj 131 196 f;
#X obj 162 196 f;
#X obj 149 132 r \$0-3;
#X obj 180 169 r \$0-4;
#X obj 197 197 f;
#X obj 228 197 f;
#X obj 257 198 f;
#X obj 288 198 f;
#X obj 215 133 r \$0-5;
#X obj 246 170 r \$0-6;
#X obj 275 134 r \$0-7;
#X obj 306 171 r \$0-8;
#X connect 0 0 1 0;
#X connect 1 0 2 0;
#X connect 1 1 3 0;
#X connect 1 2 7 0;
#X connect 1 3 8 0;
#X connect 1 4 11 0;
#X connect 1 5 12 0;
#X connect 1 6 13 0;
#X connect 1 7 14 0;
#X connect 2 0 6 0;
#X connect 3 0 6 0;
#X connect 4 0 2 1;
#X connect 5 0 3 1;
#X connect 7 0 6 0;
#X connect 8 0 6 0;
#X connect 9 0 7 1;
#X connect 10 0 8 1;
#X connect 11 0 6 0;
#X connect 12 0 6 0;
#X connect 13 0 6 0;
#X connect 14 0 6 0;
#X connect 15 0 11 1;
#X connect 16 0 12 1;
#X connect 17 0 13 1;
#X connect 18 0 14 1;
#X restore 26 284 pd pitch-parse;
#X obj 106 166 s \$0-position;
#X obj 17 -14 r 1-row-pos;
#X obj 79 33 metro;
#X obj 126 33 r \$0-master;
#X obj 79 8 r \$0-play;
#X obj 17 7 t b f;
#X msg 17 33 1;
#X obj 118 468 s \$0-midiNote;
#X obj 26 404 pack f 10;
#X msg 118 442 \$1;
#X obj 129 84 r \$0-pattern-len;
#X connect 0 0 1 0;
#X connect 0 0 17 0;
#X connect 1 0 2 0;
#X connect 2 0 0 1;
#X connect 3 0 4 0;
#X connect 4 1 5 0;
#X connect 5 0 28 0;
#X connect 5 1 6 0;
#X connect 6 0 7 0;
#X connect 6 1 10 0;
#X connect 7 0 8 0;
#X connect 9 0 8 0;
#X connect 10 0 9 0;
#X connect 11 0 13 0;
#X connect 12 0 14 1;
#X connect 13 0 14 0;
#X connect 14 0 10 1;
#X connect 15 0 16 0;
#X connect 15 0 25 0;
#X connect 16 0 24 0;
#X connect 16 1 22 0;
#X connect 16 2 23 0;
#X connect 16 3 26 0;
#X connect 16 4 27 0;
#X connect 17 0 3 0;
#X connect 17 0 29 0;
#X connect 17 1 15 0;
#X connect 18 0 19 0;
#X connect 19 0 20 0;
#X connect 21 0 37 0;
#X connect 22 0 21 1;
#X connect 23 0 21 1;
#X connect 24 0 21 1;
#X connect 26 0 21 1;
#X connect 27 0 21 1;
#X connect 28 0 21 0;
#X connect 30 0 34 0;
#X connect 31 0 0 0;
#X connect 32 0 31 1;
#X connect 33 0 31 0;
#X connect 34 0 35 0;
#X connect 34 1 0 1;
#X connect 35 0 31 0;
#X connect 37 0 18 0;
#X connect 37 0 38 0;
#X connect 38 0 36 0;
#X connect 39 0 2 1;
#X restore 607 218 pd pitch;
#N canvas 72 78 1288 775 page-manager 0;
#X obj 1086 34 loadbang;
#N canvas 473 22 795 820 loops 0;
#X obj 22 81 until;
#X obj 22 117 f;
#X obj 52 118 + 1;
#X obj 83 118 % 8;
#X obj 129 118 sel 0;
#X obj 22 38 t b b;
#N canvas 685 159 319 152 OSC-out 0;
#X obj 65 39 inlet;
#X obj 65 60 list prepend send;
#X obj 65 81 list trim;
#X obj 65 109 s \$0-OSC-out;
#X connect 0 0 1 0;
#X connect 1 0 2 0;
#X connect 2 0 3 0;
#X restore 22 391 pd OSC-out;
#X obj 22 197 tabread octave;
#X obj 22 138 t f f;
#X obj 22 335 pack f f;
#X obj 22 250 swap;
#X obj 75 300 int2bin;
#X obj 22 14 r \$0-LED-for;
#X obj 22 168 r \$0-table;
#X obj 274 87 until;
#X obj 274 123 f;
#X obj 304 124 + 1;
#X obj 335 124 % 8;
#X obj 368 126 sel 0;
#X obj 274 44 t b b;
#N canvas 685 159 319 152 OSC-out 0;
#X obj 65 39 inlet;
#X obj 65 60 list prepend send;
#X obj 65 81 list trim;
#X obj 65 109 s \$0-OSC-out;
#X connect 0 0 1 0;
#X connect 1 0 2 0;
#X connect 2 0 3 0;
#X restore 274 401 pd OSC-out;
#X obj 274 212 tabread octave;
#X obj 274 144 t f f;
#X obj 274 341 pack f f;
#X obj 274 256 swap;
#X obj 274 187 r \$0-table;
#N canvas 0 22 386 307 slider 0;
#X obj 58 57 inlet;
#X obj 58 95 sel 0 1 2 3 4 5 6 7;
#X msg 58 116 255;
#X msg 73 140 254;
#X msg 104 141 248;
#X msg 129 152 240;
#X msg 148 128 224;
#X msg 163 152 192;
#X msg 180 130 128;
#X obj 68 224 outlet;
#X msg 91 118 252;
#X connect 0 0 1 0;
#X connect 1 0 2 0;
#X connect 1 1 3 0;
#X connect 1 2 10 0;
#X connect 1 3 4 0;
#X connect 1 4 5 0;
#X connect 1 5 6 0;
#X connect 1 6 7 0;
#X connect 1 7 8 0;
#X connect 2 0 9 0;
#X connect 3 0 9 0;
#X connect 4 0 9 0;
#X connect 5 0 9 0;
#X connect 6 0 9 0;
#X connect 7 0 9 0;
#X connect 8 0 9 0;
#X connect 10 0 9 0;
#X restore 309 294 pd slider;
#X obj 274 20 r \$0-SLIDER-for;
#X obj 228 233 moses 0;
#X obj 531 94 until;
#X obj 531 130 f;
#X obj 561 131 + 1;
#X obj 592 131 % 8;
#X obj 625 133 sel 0;
#X obj 531 51 t b b;
#N canvas 685 159 319 152 OSC-out 0;
#X obj 65 39 inlet;
#X obj 65 60 list prepend send;
#X obj 65 81 list trim;
#X obj 65 109 s \$0-OSC-out;
#X connect 0 0 1 0;
#X connect 1 0 2 0;
#X connect 2 0 3 0;
#X restore 531 404 pd OSC-out;
#X obj 531 151 t f f;
#X obj 531 348 pack f f;
#X obj 531 198 swap;
#X obj 556 233 sel 0 1 2 3 4 5 6 7;
#N canvas 0 22 386 307 slider 0;
#X obj 58 57 inlet;
#X obj 58 95 sel 0 1 2 3 4 5 6 7;
#X msg 58 116 255;
#X msg 73 140 254;
#X msg 104 141 248;
#X msg 129 152 240;
#X msg 148 128 224;
#X msg 163 152 192;
#X msg 180 130 128;
#X obj 68 224 outlet;
#X msg 91 118 252;
#X connect 0 0 1 0;
#X connect 1 0 2 0;
#X connect 1 1 3 0;
#X connect 1 2 10 0;
#X connect 1 3 4 0;
#X connect 1 4 5 0;
#X connect 1 5 6 0;
#X connect 1 6 7 0;
#X connect 1 7 8 0;
#X connect 2 0 9 0;
#X connect 3 0 9 0;
#X connect 4 0 9 0;
#X connect 5 0 9 0;
#X connect 6 0 9 0;
#X connect 7 0 9 0;
#X connect 8 0 9 0;
#X connect 10 0 9 0;
#X restore 556 307 pd slider;
#X msg 556 272 7;
#X msg 585 272 6;
#X obj 531 27 r \$0-KEYBOARD-for;
#X msg 634 276 0;
#X obj 121 162 r \$0-pattern-len;
#X obj 384 178 r \$0-pattern-len;
#X obj 307 514 until;
#X obj 337 540 + 1;
#X obj 412 540 sel 0;
#X obj 307 488 t b b;
#N canvas 685 159 319 152 OSC-out 0;
#X obj 65 39 inlet;
#X obj 65 60 list prepend send;
#X obj 65 81 list trim;
#X obj 65 109 s \$0-OSC-out;
#X connect 0 0 1 0;
#X connect 1 0 2 0;
#X connect 2 0 3 0;
#X restore 307 779 pd OSC-out;
#X obj 307 634 tabread octave;
#X obj 307 560 t f f;
#X obj 307 723 pack f f;
#X obj 307 659 swap;
#X obj 360 688 int2bin;
#X obj 307 610 r \$0-table;
#X obj 307 539 f 8;
#X obj 368 540 % 16;
#X obj 307 464 r \$0-LED-forRight;
#X obj 339 580 - 8;
#X obj 108 36 r \$0-LED-forLeft;
#X obj 444 659 gate 2;
#X msg 472 626 2;
#X msg 444 626 1;
#N canvas 0 22 386 307 slider 0;
#X obj 58 57 inlet;
#X obj 58 95 sel 0 1 2 3 4 5 6 7;
#X msg 58 116 255;
#X msg 73 140 254;
#X msg 104 141 248;
#X msg 129 152 240;
#X msg 148 128 224;
#X msg 163 152 192;
#X msg 180 130 128;
#X obj 68 224 outlet;
#X msg 91 118 252;
#X connect 0 0 1 0;
#X connect 1 0 2 0;
#X connect 1 1 3 0;
#X connect 1 2 10 0;
#X connect 1 3 4 0;
#X connect 1 4 5 0;
#X connect 1 5 6 0;
#X connect 1 6 7 0;
#X connect 1 7 8 0;
#X connect 2 0 9 0;
#X connect 3 0 9 0;
#X connect 4 0 9 0;
#X connect 5 0 9 0;
#X connect 6 0 9 0;
#X connect 7 0 9 0;
#X connect 8 0 9 0;
#X connect 10 0 9 0;
#X restore 424 688 pd slider;
#X obj 29 523 until;
#X obj 59 549 + 1;
#X obj 134 549 sel 0;
#X obj 29 497 t b b;
#N canvas 685 159 319 152 OSC-out 0;
#X obj 65 39 inlet;
#X obj 65 60 list prepend send;
#X obj 65 81 list trim;
#X obj 65 109 s \$0-OSC-out;
#X connect 0 0 1 0;
#X connect 1 0 2 0;
#X connect 2 0 3 0;
#X restore 29 788 pd OSC-out;
#X obj 29 643 tabread octave;
#X obj 29 569 t f f;
#X obj 29 732 pack f f;
#X obj 29 668 swap;
#X obj 82 697 int2bin;
#X obj 29 619 r \$0-table;
#X obj 166 668 gate 2;
#N canvas 0 22 386 307 slider 0;
#X obj 58 57 inlet;
#X obj 58 95 sel 0 1 2 3 4 5 6 7;
#X msg 58 116 255;
#X msg 73 140 254;
#X msg 104 141 248;
#X msg 129 152 240;
#X msg 148 128 224;
#X msg 163 152 192;
#X msg 180 130 128;
#X obj 68 224 outlet;
#X msg 91 118 252;
#X connect 0 0 1 0;
#X connect 1 0 2 0;
#X connect 1 1 3 0;
#X connect 1 2 10 0;
#X connect 1 3 4 0;
#X connect 1 4 5 0;
#X connect 1 5 6 0;
#X connect 1 6 7 0;
#X connect 1 7 8 0;
#X connect 2 0 9 0;
#X connect 3 0 9 0;
#X connect 4 0 9 0;
#X connect 5 0 9 0;
#X connect 6 0 9 0;
#X connect 7 0 9 0;
#X connect 8 0 9 0;
#X connect 10 0 9 0;
#X restore 146 697 pd slider;
#X obj 29 473 r \$0-LED-forLeft;
#X obj 29 548 f;
#X obj 90 549 % 8;
#X obj 444 575 r \$0-page-number;
#X obj 444 596 sel 1 2 3 4 5;
#X msg 201 640 2;
#X msg 166 640 1;
#X obj 166 587 r \$0-page-number;
#X obj 166 608 sel 1 2 3 4 5;
#X msg 112 64 /sop/clear 0;
#X obj 29 453 loadbang;
#X msg 22 361 /sop/led_col \$1 \$2;
#X msg 274 367 /sop/led_col \$1 \$2;
#X msg 531 374 /sop/led_col \$1 \$2;
#X msg 376 67 /sop/clear 0;
#X msg 633 74 /sop/clear 0;
#X msg 397 497 /sop/clear 0;
#X msg 307 749 /sop/led_col \$1 \$2;
#X msg 119 506 /sop/clear 0;
#X msg 29 758 /sop/led_col \$1 \$2;
#X connect 0 0 1 0;
#X connect 1 0 2 0;
#X connect 1 0 8 0;
#X connect 2 0 3 0;
#X connect 3 0 4 0;
#X connect 3 0 1 1;
#X connect 4 0 0 1;
#X connect 5 0 0 0;
#X connect 5 1 89 0;
#X connect 7 0 10 0;
#X connect 8 0 7 0;
#X connect 8 1 10 1;
#X connect 9 0 91 0;
#X connect 10 0 9 0;
#X connect 10 1 11 0;
#X connect 11 0 9 1;
#X connect 12 0 5 0;
#X connect 13 0 7 0;
#X connect 14 0 15 0;
#X connect 15 0 16 0;
#X connect 15 0 22 0;
#X connect 16 0 17 0;
#X connect 17 0 18 0;
#X connect 17 0 15 1;
#X connect 18 0 14 1;
#X connect 19 0 14 0;
#X connect 19 1 94 0;
#X connect 21 0 28 0;
#X connect 22 0 21 0;
#X connect 22 1 24 1;
#X connect 23 0 92 0;
#X connect 24 0 23 0;
#X connect 24 1 26 0;
#X connect 25 0 21 0;
#X connect 26 0 23 1;
#X connect 27 0 19 0;
#X connect 28 0 94 0;
#X connect 28 1 24 0;
#X connect 29 0 30 0;
#X connect 30 0 31 0;
#X connect 30 0 36 0;
#X connect 31 0 32 0;
#X connect 32 0 33 0;
#X connect 32 0 30 1;
#X connect 33 0 29 1;
#X connect 34 0 29 0;
#X connect 34 1 95 0;
#X connect 36 0 38 0;
#X connect 36 1 38 1;
#X connect 37 0 93 0;
#X connect 38 0 37 0;
#X connect 38 1 39 0;
#X connect 39 0 41 0;
#X connect 39 1 42 0;
#X connect 39 2 42 0;
#X connect 39 3 41 0;
#X connect 39 4 42 0;
#X connect 39 5 42 0;
#X connect 39 6 42 0;
#X connect 39 7 44 0;
#X connect 40 0 37 1;
#X connect 41 0 40 0;
#X connect 42 0 40 0;
#X connect 43 0 34 0;
#X connect 44 0 37 1;
#X connect 47 0 58 0;
#X connect 48 0 59 0;
#X connect 49 0 47 1;
#X connect 50 0 47 0;
#X connect 50 1 96 0;
#X connect 52 0 55 0;
#X connect 53 0 52 0;
#X connect 53 1 61 0;
#X connect 54 0 97 0;
#X connect 55 0 54 0;
#X connect 55 1 63 1;
#X connect 56 0 54 1;
#X connect 57 0 52 0;
#X connect 58 0 48 0;
#X connect 58 0 53 0;
#X connect 59 0 49 0;
#X connect 59 0 58 1;
#X connect 60 0 50 0;
#X connect 61 0 55 1;
#X connect 63 0 56 0;
#X connect 63 1 66 0;
#X connect 64 0 63 0;
#X connect 65 0 63 0;
#X connect 66 0 54 1;
#X connect 67 0 81 0;
#X connect 68 0 82 0;
#X connect 69 0 67 1;
#X connect 70 0 67 0;
#X connect 70 1 98 0;
#X connect 72 0 75 0;
#X connect 73 0 72 0;
#X connect 73 1 75 1;
#X connect 74 0 99 0;
#X connect 75 0 74 0;
#X connect 75 1 78 1;
#X connect 76 0 74 1;
#X connect 77 0 72 0;
#X connect 78 0 76 0;
#X connect 78 1 79 0;
#X connect 79 0 74 1;
#X connect 80 0 70 0;
#X connect 81 0 68 0;
#X connect 81 0 73 0;
#X connect 82 0 69 0;
#X connect 82 0 81 1;
#X connect 83 0 84 0;
#X connect 84 0 65 0;
#X connect 84 1 65 0;
#X connect 84 2 64 0;
#X connect 84 3 64 0;
#X connect 85 0 78 0;
#X connect 86 0 78 0;
#X connect 87 0 88 0;
#X connect 88 0 86 0;
#X connect 88 1 86 0;
#X connect 88 2 85 0;
#X connect 88 3 85 0;
#X connect 89 0 6 0;
#X connect 90 0 70 0;
#X connect 91 0 6 0;
#X connect 92 0 20 0;
#X connect 93 0 35 0;
#X connect 94 0 20 0;
#X connect 95 0 35 0;
#X connect 96 0 51 0;
#X connect 97 0 51 0;
#X connect 98 0 71 0;
#X connect 99 0 71 0;
#X restore 508 36 pd loops;
#X msg 148 93 1;
#X obj 148 116 s \$0-page-number;
#X obj 383 149 s \$0-page-number;
#X msg 383 126 2;
#X obj 125 284 s \$0-page-number;
#X obj 120 459 s \$0-page-number;
#X msg 125 261 3;
#X msg 120 436 4;
#X obj 360 92 t b b b;
#X obj 436 125 s \$0-table;
#X msg 436 100 set octave;
#X obj 116 64 t b b b;
#X obj 191 93 s \$0-table;
#X msg 191 68 set state;
#X obj 161 259 s \$0-table;
#X msg 161 234 set velocity;
#X obj 93 235 t b b b;
#X obj 163 435 s \$0-table;
#X obj 88 409 t b b b;
#X msg 163 410 set effects;
#X msg 1086 57 \; octave const 4 \; velocity const 0 \; state const
-1 \; effects const 7;
#X obj 67 626 s \$0-page-number;
#X obj 35 576 t b b b;
#X msg 67 603 5;
#X obj 35 657 s \$0-KEYBOARD-for;
#X obj 869 466 gate 2;
#N canvas 685 159 319 152 OSC-out 0;
#X obj 65 39 inlet;
#X obj 65 60 list prepend send;
#X obj 65 81 list trim;
#X obj 65 109 s \$0-OSC-out;
#X connect 0 0 1 0;
#X connect 1 0 2 0;
#X connect 2 0 3 0;
#X restore 869 722 pd OSC-out;
#X obj 869 493 int2bin;
#X obj 884 40 r \$0-position;
#X obj 869 614 pack f f;
#X obj 869 523 t b f;
#X obj 869 563 f;
#X obj 884 146 t f f f;
#X obj 932 311 del;
#X obj 964 311 r \$0-MAXLEN;
#X obj 1002 399 f;
#X obj 932 338 t b b;
#X obj 866 346 f;
#X obj 866 438 moses 0;
#N canvas 373 279 386 307 slider 0;
#X obj 58 57 inlet;
#X obj 58 95 sel 0 1 2 3 4 5 6 7;
#X msg 38 135 255;
#X msg 73 140 254;
#X msg 104 141 248;
#X msg 129 152 240;
#X msg 148 128 224;
#X msg 163 152 192;
#X msg 180 130 128;
#X obj 68 224 outlet;
#X msg 91 118 252;
#X connect 0 0 1 0;
#X connect 1 0 2 0;
#X connect 1 1 3 0;
#X connect 1 2 10 0;
#X connect 1 3 4 0;
#X connect 1 4 5 0;
#X connect 1 5 6 0;
#X connect 1 6 7 0;
#X connect 1 7 8 0;
#X connect 2 0 9 0;
#X connect 3 0 9 0;
#X connect 4 0 9 0;
#X connect 5 0 9 0;
#X connect 6 0 9 0;
#X connect 7 0 9 0;
#X connect 8 0 9 0;
#X connect 10 0 9 0;
#X restore 928 493 pd slider;
#X obj 932 258 t b a;
#N canvas 685 159 319 152 OSC-out 0;
#X obj 65 39 inlet;
#X obj 65 60 list prepend send;
#X obj 65 81 list trim;
#X obj 65 109 s \$0-OSC-out;
#X connect 0 0 1 0;
#X connect 1 0 2 0;
#X connect 2 0 3 0;
#X restore 964 284 pd OSC-out;
#X obj 846 382 r \$0-table;
#X obj 574 36 table state 16;
#X obj 574 57 table octave 16;
#X obj 574 78 table velocity 16;
#X obj 573 99 table effects 16;
#X obj 372 579 t b b b;
#X obj 372 680 s \$0-LED-forRight;
#X obj 249 589 t b b b;
#X obj 249 669 s \$0-LED-forLeft;
#X obj 1020 420 r \$0-pattern-view;
#X obj 1002 467 -;
#X obj 948 145 r \$0-pattern-view;
#X obj 930 178 -;
#X obj 904 588 r \$0-pattern-view;
#X obj 869 589 -;
#X obj 866 413 tabread state;
#X obj 884 115 spigot;
#X obj 923 66 r \$0-KEYBOARD-for;
#X msg 923 87 0;
#X msg 752 244 1;
#X obj 956 90 loadbang;
#X msg 956 111 1;
#X obj 116 15 loadbang;
#X obj 92 215 r velocity;
#X obj 88 388 r effects;
#X obj 34 556 r keyboard;
#X obj 116 34 r home;
#X obj 372 558 r step-right;
#X obj 249 556 r step-left;
#X obj 360 71 r octave;
#X msg 395 620 2;
#X obj 395 644 s \$0-view;
#X obj 272 635 s \$0-view;
#X msg 272 612 1;
#X obj 43 102 gate 2;
#X obj 290 124 gate 2;
#X obj 43 65 r \$0-view;
#X obj 290 93 r \$0-view;
#X obj 43 139 s \$0-LED-forLeft;
#X obj 82 174 s \$0-LED-forRight;
#X obj 290 169 s \$0-LED-forLeft;
#X obj 329 198 s \$0-LED-forRight;
#X obj 22 265 gate 2;
#X obj 22 234 r \$0-view;
#X obj 22 310 s \$0-LED-forLeft;
#X obj 61 339 s \$0-LED-forRight;
#X obj 18 438 gate 2;
#X obj 18 407 r \$0-view;
#X obj 18 483 s \$0-LED-forLeft;
#X obj 57 512 s \$0-LED-forRight;
#X obj 712 177 r \$0-page-number;
#X obj 712 198 sel 1 2 3 4 5;
#X obj 318 472 s \$0-pattern-view;
#X msg 318 439 0;
#X msg 349 439 8;
#X obj 349 415 r step-right;
#X obj 318 392 r step-left;
#X obj 100 603 s \$0-keyboard-stop;
#X obj 1052 638 r \$0-keyboard-stop;
#X obj 869 687 spigot;
#X msg 1052 661 0;
#X obj 1051 572 r \$0-page-number;
#X obj 1051 593 moses 5;
#X msg 1051 614 1;
#X msg 869 642 /sop/led_col \$1 \$2;
#X msg 1002 493 /sop/led_col \$1 0;
#X msg 932 227 /sop/led_col \$1 255;
#X obj 249 529 loadbang;
#X msg 983 253 /sop/led_col \$1 128;
#X floatatom 1035 467 5 0 0 0 - - -;
#X msg 785 256 2;
#X msg 713 256 1;
#X obj 1117 142 r \$0-page-number;
#X obj 967 178 gate 2;
#X obj 1117 163 sel 1 2 3 4 5;
#X msg 1116 197 1;
#X msg 1144 197 2;
#X connect 0 0 22 0;
#X connect 2 0 3 0;
#X connect 5 0 4 0;
#X connect 8 0 6 0;
#X connect 9 0 7 0;
#X connect 10 0 79 1;
#X connect 10 1 5 0;
#X connect 10 2 12 0;
#X connect 12 0 11 0;
#X connect 13 0 78 1;
#X connect 13 1 2 0;
#X connect 13 2 15 0;
#X connect 15 0 14 0;
#X connect 17 0 16 0;
#X connect 18 0 86 1;
#X connect 18 1 8 0;
#X connect 18 2 17 0;
#X connect 20 0 90 1;
#X connect 20 1 9 0;
#X connect 20 2 21 0;
#X connect 21 0 19 0;
#X connect 24 0 26 0;
#X connect 24 1 25 0;
#X connect 24 2 101 0;
#X connect 25 0 23 0;
#X connect 27 0 29 0;
#X connect 27 1 41 0;
#X connect 29 0 32 0;
#X connect 30 0 60 0;
#X connect 31 0 108 0;
#X connect 32 0 33 0;
#X connect 32 1 31 1;
#X connect 33 0 58 0;
#X connect 34 0 39 1;
#X connect 34 1 33 1;
#X connect 34 2 37 1;
#X connect 34 2 56 0;
#X connect 35 0 38 0;
#X connect 36 0 35 1;
#X connect 37 0 54 0;
#X connect 38 0 39 0;
#X connect 38 1 37 0;
#X connect 39 0 59 0;
#X connect 40 1 27 1;
#X connect 41 0 32 0;
#X connect 42 0 35 0;
#X connect 42 1 43 0;
#X connect 44 0 59 0;
#X connect 49 0 50 0;
#X connect 49 1 74 0;
#X connect 51 0 52 0;
#X connect 51 1 77 0;
#X connect 53 0 54 1;
#X connect 54 0 109 0;
#X connect 54 0 113 0;
#X connect 55 0 56 1;
#X connect 56 0 117 1;
#X connect 56 0 110 0;
#X connect 57 0 58 1;
#X connect 58 0 31 0;
#X connect 59 0 40 0;
#X connect 60 0 34 0;
#X connect 61 0 62 0;
#X connect 62 0 60 1;
#X connect 63 0 60 1;
#X connect 64 0 65 0;
#X connect 65 0 60 1;
#X connect 66 0 13 0;
#X connect 67 0 18 0;
#X connect 68 0 20 0;
#X connect 69 0 24 0;
#X connect 70 0 13 0;
#X connect 71 0 49 0;
#X connect 72 0 51 0;
#X connect 73 0 10 0;
#X connect 74 0 75 0;
#X connect 77 0 76 0;
#X connect 78 0 82 0;
#X connect 78 1 83 0;
#X connect 79 0 84 0;
#X connect 79 1 85 0;
#X connect 80 0 78 0;
#X connect 81 0 79 0;
#X connect 86 0 88 0;
#X connect 86 1 89 0;
#X connect 87 0 86 0;
#X connect 90 0 92 0;
#X connect 90 1 93 0;
#X connect 91 0 90 0;
#X connect 94 0 95 0;
#X connect 95 0 63 0;
#X connect 95 0 115 0;
#X connect 95 1 63 0;
#X connect 95 1 115 0;
#X connect 95 2 63 0;
#X connect 95 2 114 0;
#X connect 95 3 63 0;
#X connect 95 3 114 0;
#X connect 97 0 96 0;
#X connect 98 0 96 0;
#X connect 99 0 98 0;
#X connect 100 0 97 0;
#X connect 102 0 104 0;
#X connect 103 0 28 0;
#X connect 104 0 103 1;
#X connect 105 0 106 0;
#X connect 106 0 107 0;
#X connect 107 0 103 1;
#X connect 108 0 103 0;
#X connect 109 0 103 0;
#X connect 110 0 42 0;
#X connect 111 0 51 0;
#X connect 112 0 42 0;
#X connect 114 0 27 0;
#X connect 115 0 27 0;
#X connect 116 0 118 0;
#X connect 118 0 119 0;
#X connect 118 1 119 0;
#X connect 118 2 120 0;
#X connect 118 3 120 0;
#X connect 119 0 117 0;
#X connect 120 0 117 0;
#X restore 609 96 pd page-manager;
#N canvas 90 56 450 300 delwrite 0;
#X obj 96 88 inlet~;
#X obj 96 159 delwrite~ del-one 1000;
#X obj 189 92 r~ feedback;
#X connect 0 0 1 0;
#X connect 2 0 1 0;
#X restore 674 299 pd delwrite;
#N canvas 112 425 450 300 delread 0;
#X obj 75 91 vd~ del-one;
#X obj 75 206 outlet~;
#X obj 185 96 inlet;
#X obj 150 203 s~ feedback;
#X obj 150 157 *~;
#X obj 185 117 / 100;
#X obj 75 9 inlet;
#X obj 75 62 line~;
#X obj 75 36 pack f 0;
#X connect 0 0 1 0;
#X connect 0 0 4 0;
#X connect 2 0 5 0;
#X connect 4 0 3 0;
#X connect 5 0 4 1;
#X connect 6 0 8 0;
#X connect 7 0 0 0;
#X connect 8 0 7 0;
#X restore 674 356 pd delread;
#X obj 607 335 +~;
#X obj 607 387 *~ 0.5;
#N canvas 488 63 737 780 midi 0;
#X obj 201 207 + 1;
#X obj 163 207 f;
#X obj 163 97 == 248;
#X obj 190 156 del 500;
#X msg 190 179 0;
#X obj 163 129 t b b;
#X text 220 176 < resets counter to 0;
#X obj 225 88 sel 250;
#X obj 225 133 s \$0-midi-play;
#X obj 107 694 s \$0-clock;
#X obj 125 174 bng 15 250 50 0 empty empty empty 17 7 0 10 -262144
-1 -1;
#X obj 238 211 print;
#X obj 425 150 f;
#X obj 465 149 + 1;
#X obj 424 208 bng 15 250 50 0 empty empty empty 17 7 0 10 -262144
-1 -1;
#X obj 446 207 bng 15 250 50 0 empty empty empty 17 7 0 10 -262144
-1 -1;
#X obj 469 206 bng 15 250 50 0 empty empty empty 17 7 0 10 -262144
-1 -1;
#X obj 496 206 bng 15 250 50 0 empty empty empty 17 7 0 10 -262144
-1 -1;
#X floatatom 387 183 5 0 0 0 - - -;
#X obj 425 177 sel 0 12 24 36;
#X obj 502 150 % 37;
#X obj 104 346 timer;
#X floatatom 56 347 5 0 0 0 - - -;
#X obj 149 345 timer;
#X floatatom 111 373 5 0 0 0 - - -;
#X obj 104 421 +;
#X obj 149 369 t b f;
#X floatatom 107 629 5 0 0 0 - - -;
#X obj 196 341 timer;
#X floatatom 239 345 5 0 0 0 - - -;
#X obj 196 392 +;
#X obj 196 372 t b f;
#X obj 104 449 +;
#X obj 194 412 t b f;
#X obj 454 118 s \$0-step;
#X obj 453 42 sel 0 6 12 18 24 30 36 42;
#X obj 311 247 + 1;
#X obj 273 247 f;
#X obj 176 52 t b f;
#X obj 268 270 mod 43;
#X msg 310 206 0;
#X msg 225 109 1;
#X obj 110 306 sel 0 3 6 9 12 15 18 21 24 27 30 33 36 39 42;
#X obj 104 481 +;
#X obj 244 375 timer;
#X floatatom 287 379 5 0 0 0 - - -;
#X obj 244 426 +;
#X obj 244 406 t b f;
#X obj 242 446 t b f;
#X obj 331 378 timer;
#X floatatom 374 382 5 0 0 0 - - -;
#X obj 331 429 +;
#X obj 331 409 t b f;
#X obj 329 449 t b f;
#X obj 104 510 +;
#X obj 277 496 timer;
#X floatatom 320 500 5 0 0 0 - - -;
#X obj 277 547 +;
#X obj 277 527 t b f;
#X obj 275 567 t b f;
#X obj 364 499 timer;
#X floatatom 407 503 5 0 0 0 - - -;
#X obj 364 550 +;
#X obj 364 530 t b f;
#X obj 362 570 t b f;
#X obj 115 261 mod 37;
#X obj 104 544 +;
#X obj 106 574 +;
#X obj 107 602 / 7;
#X obj 488 534 s \$0-delay-time;
#X obj 488 436 f;
#X obj 488 503 timer;
#X floatatom 505 564 5 0 0 0 - - -;
#X obj 522 436 + 1;
#X obj 604 367 % 24;
#X obj 460 403 bng 15 250 50 0 empty empty empty 17 7 0 10 -262144
-1 -1;
#X obj 551 436 % 2;
#X obj 488 463 sel 0 1;
#X obj 488 366 mod 24;
#X obj 488 388 sel 23;
#X obj 107 647 * 2;
#X connect 0 0 1 1;
#X connect 1 0 0 0;
#X connect 1 0 65 0;
#X connect 1 0 78 0;
#X connect 2 0 5 0;
#X connect 3 0 4 0;
#X connect 4 0 1 1;
#X connect 5 0 1 0;
#X connect 5 1 3 0;
#X connect 7 0 41 0;
#X connect 12 0 13 0;
#X connect 12 0 18 0;
#X connect 12 0 19 0;
#X connect 13 0 20 0;
#X connect 19 0 14 0;
#X connect 19 1 15 0;
#X connect 19 2 16 0;
#X connect 19 3 17 0;
#X connect 20 0 12 1;
#X connect 21 0 22 0;
#X connect 21 0 25 0;
#X connect 23 0 24 0;
#X connect 23 0 26 0;
#X connect 25 0 32 0;
#X connect 26 0 25 0;
#X connect 26 1 25 1;
#X connect 27 0 80 0;
#X connect 28 0 29 0;
#X connect 28 0 31 0;
#X connect 30 0 33 0;
#X connect 31 0 30 0;
#X connect 31 1 30 1;
#X connect 32 0 43 0;
#X connect 33 0 32 0;
#X connect 33 1 32 1;
#X connect 35 0 34 0;
#X connect 35 1 34 0;
#X connect 35 2 34 0;
#X connect 35 3 34 0;
#X connect 35 4 34 0;
#X connect 35 5 34 0;
#X connect 35 6 34 0;
#X connect 35 7 34 0;
#X connect 36 0 37 1;
#X connect 37 0 36 0;
#X connect 37 0 39 0;
#X connect 38 0 2 0;
#X connect 38 1 7 0;
#X connect 40 0 37 1;
#X connect 41 0 8 0;
#X connect 42 0 21 0;
#X connect 42 1 21 1;
#X connect 42 1 23 0;
#X connect 42 2 23 1;
#X connect 42 2 28 0;
#X connect 42 3 28 1;
#X connect 42 3 44 0;
#X connect 42 4 44 1;
#X connect 42 4 49 0;
#X connect 42 5 49 1;
#X connect 42 5 55 0;
#X connect 42 6 55 1;
#X connect 42 6 60 0;
#X connect 42 7 60 1;
#X connect 43 0 54 0;
#X connect 44 0 45 0;
#X connect 44 0 47 0;
#X connect 46 0 48 0;
#X connect 47 0 46 0;
#X connect 47 1 46 1;
#X connect 48 0 43 0;
#X connect 48 1 43 1;
#X connect 49 0 50 0;
#X connect 49 0 52 0;
#X connect 51 0 53 0;
#X connect 52 0 51 0;
#X connect 52 1 51 1;
#X connect 53 0 54 0;
#X connect 53 1 54 1;
#X connect 54 0 66 0;
#X connect 55 0 56 0;
#X connect 55 0 58 0;
#X connect 57 0 59 0;
#X connect 58 0 57 0;
#X connect 58 1 57 1;
#X connect 59 0 66 0;
#X connect 59 1 66 1;
#X connect 60 0 61 0;
#X connect 60 0 63 0;
#X connect 62 0 64 0;
#X connect 63 0 62 0;
#X connect 63 1 62 1;
#X connect 64 0 67 0;
#X connect 64 1 67 1;
#X connect 65 0 42 0;
#X connect 66 0 67 0;
#X connect 67 0 68 0;
#X connect 68 0 27 0;
#X connect 70 0 77 0;
#X connect 70 0 73 0;
#X connect 71 0 72 0;
#X connect 71 0 69 0;
#X connect 73 0 76 0;
#X connect 76 0 70 1;
#X connect 77 0 71 0;
#X connect 77 1 71 1;
#X connect 78 0 79 0;
#X connect 79 0 75 0;
#X connect 79 0 70 0;
#X restore 687 56 pd midi;
#N canvas 207 328 718 391 fx-send 0;
#X obj 159 61 inlet~;
#X obj 180 -36 r \$0-position;
#X obj 180 -12 tabread effects;
#X obj 226 79 / 7;
#X obj 159 232 outlet~;
#X obj 226 233 outlet~;
#X obj 180 9 moses 0;
#X obj 226 34 - 7;
#X obj 226 56 abs;
#X obj 226 108 pack f 10;
#N canvas 0 22 450 300 wet-dry 0;
#X obj 129 35 inlet~;
#X obj 242 33 inlet;
#X obj 242 106 * 1.5708;
#X obj 242 145 sin;
#X obj 147 142 cos;
#X obj 242 166 pack f 10;
#X obj 242 197 line~;
#X obj 224 228 *~;
#X obj 147 164 pack f 10;
#X obj 147 195 line~;
#X obj 129 226 *~;
#X obj 129 258 outlet~;
#X obj 224 259 outlet~;
#X connect 0 0 7 0;
#X connect 0 0 10 0;
#X connect 1 0 2 0;
#X connect 2 0 3 0;
#X connect 2 0 4 0;
#X connect 3 0 5 0;
#X connect 4 0 8 0;
#X connect 5 0 6 0;
#X connect 6 0 7 1;
#X connect 7 0 12 0;
#X connect 8 0 9 0;
#X connect 9 0 10 1;
#X connect 10 0 11 0;
#X restore 159 144 pd wet-dry;
#X obj 270 78 s \$0-ctrlValue;
#X connect 0 0 10 0;
#X connect 1 0 2 0;
#X connect 2 0 6 0;
#X connect 3 0 9 0;
#X connect 3 0 11 0;
#X connect 6 1 7 0;
#X connect 7 0 8 0;
#X connect 8 0 3 0;
#X connect 9 0 10 1;
#X connect 10 0 4 0;
#X connect 10 1 5 0;
#X restore 607 275 pd fx-send;
#N canvas 633 504 628 305 midi-out 0;
#X obj 79 196 makenote;
#X obj 158 117 r \$0-notelen;
#X obj 140 149 f;
#X obj 79 15 r \$0-midiNote;
#X obj 130 61 r \$0-midiVel;
#X obj 106 119 f;
#X obj 79 250 noteout;
#X obj 80 36 t f b b;
#X obj 142 249 r midiCh;
#X obj 289 61 r \$0-ctrlValue;
#X obj 308 134 r \$0-ctrlNumber;
#X obj 328 175 r \$0-ctrlCh;
#X obj 289 231 ctlout;
#X obj 289 83 * 127;
#X obj 289 104 i;
#X connect 0 0 6 0;
#X connect 0 1 6 1;
#X connect 1 0 2 1;
#X connect 2 0 0 2;
#X connect 3 0 7 0;
#X connect 4 0 5 1;
#X connect 5 0 0 1;
#X connect 7 0 0 0;
#X connect 7 1 5 0;
#X connect 7 2 2 0;
#X connect 8 0 6 2;
#X connect 9 0 13 0;
#X connect 10 0 12 1;
#X connect 11 0 12 2;
#X connect 13 0 14 0;
#X connect 14 0 12 0;
#X restore 608 119 pd midi-out;
#X obj 81 37 nbx 4 30 -1e+037 1e+037 0 0 \$0-BPM BPM-r Tempo 0 -5 1
16 -204800 -1 -1 80 256;
#X obj 170 224 bng 30 250 50 0 \$0-prefix empty Prefix 0 -5 1 16 -203904
-1 -1;
#X obj 91 94 hradio 30 1 0 2 tonality tonality-r Scale-Major 0 -5 1
16 -262131 -228801 -33289 0;
#N canvas 473 362 450 300 tonality 0;
#N canvas 564 218 541 425 key/mode 0;
#N canvas 207 56 852 782 minor 0;
#X obj 33 29 inlet;
#X msg 41 361 rewind;
#X obj 40 446 textfile;
#X obj 18 397 until;
#X obj 40 484 route 7 6 5 4 3 2 1 0;
#X obj 18 312 t b b b;
#X obj 16 532 s \$0-1;
#X obj 50 552 s \$0-2;
#X obj 73 531 s \$0-3;
#X obj 107 551 s \$0-4;
#X obj 132 530 s \$0-5;
#X obj 166 550 s \$0-6;
#X obj 189 529 s \$0-7;
#X obj 223 549 s \$0-8;
#X obj 18 275 t b b;
#X obj 19 235 t b b;
#X obj 19 207 t b b;
#X obj 20 179 t b b;
#X obj 197 271 t b b;
#X obj 193 243 t b b;
#X obj 193 208 t b b;
#X obj 192 178 t b b;
#X obj 357 271 t b b;
#X obj 353 243 t b b;
#X obj 353 208 t b b;
#X obj 352 178 t b b;
#X text 450 102 minor;
#X msg 68 179 read tmp/d#min.txt;
#X msg 66 209 read tmp/dmin.txt;
#X msg 67 236 read tmp/c#min.txt;
#X msg 62 273 read tmp/cmin.txt;
#X msg 236 177 read tmp/emin.txt;
#X msg 236 207 read tmp/fmin.txt;
#X msg 236 242 read tmp/f#min.txt;
#X msg 240 272 read tmp/gmin.txt;
#X msg 395 177 read tmp/g#min.txt;
#X msg 396 207 read tmp/amin.txt;
#X msg 397 242 read tmp/a#min.txt;
#X msg 400 272 read tmp/bmin.txt;
#X obj 33 92 sel c c# d d# e f f# g g# a a# b;
#X connect 0 0 39 0;
#X connect 1 0 2 0;
#X connect 2 0 4 0;
#X connect 2 1 3 1;
#X connect 3 0 2 0;
#X connect 4 0 6 0;
#X connect 4 1 7 0;
#X connect 4 2 8 0;
#X connect 4 3 9 0;
#X connect 4 4 10 0;
#X connect 4 5 11 0;
#X connect 4 6 12 0;
#X connect 4 7 13 0;
#X connect 5 0 3 0;
#X connect 5 1 1 0;
#X connect 14 0 5 0;
#X connect 14 1 30 0;
#X connect 15 0 5 0;
#X connect 15 1 29 0;
#X connect 16 0 5 0;
#X connect 16 1 28 0;
#X connect 17 0 5 0;
#X connect 17 1 27 0;
#X connect 18 0 5 0;
#X connect 18 1 34 0;
#X connect 19 0 5 0;
#X connect 19 1 33 0;
#X connect 20 0 5 0;
#X connect 20 1 32 0;
#X connect 21 0 5 0;
#X connect 21 1 31 0;
#X connect 22 0 5 0;
#X connect 22 1 38 0;
#X connect 23 0 5 0;
#X connect 23 1 37 0;
#X connect 24 0 5 0;
#X connect 24 1 36 0;
#X connect 25 0 5 0;
#X connect 25 1 35 0;
#X connect 27 0 2 0;
#X connect 28 0 2 0;
#X connect 29 0 2 0;
#X connect 30 0 2 0;
#X connect 31 0 2 0;
#X connect 32 0 2 0;
#X connect 33 0 2 0;
#X connect 34 0 2 0;
#X connect 35 0 2 0;
#X connect 36 0 2 0;
#X connect 37 0 2 0;
#X connect 38 0 2 0;
#X connect 39 0 14 0;
#X connect 39 1 15 0;
#X connect 39 2 16 0;
#X connect 39 3 17 0;
#X connect 39 4 21 0;
#X connect 39 5 20 0;
#X connect 39 6 19 0;
#X connect 39 7 18 0;
#X connect 39 8 25 0;
#X connect 39 9 24 0;
#X connect 39 10 23 0;
#X connect 39 11 22 0;
#X restore 151 236 pd minor;
#N canvas 0 22 605 551 major 0;
#X obj 72 49 sel c c# d d# e f f# g g# a a# b;
#X text 314 49 major;
#X msg 73 294 rewind;
#X obj 72 379 textfile;
#X obj 50 330 until;
#X obj 72 417 route 7 6 5 4 3 2 1 0;
#X obj 50 245 t b b b;
#X obj 48 465 s \$0-1;
#X obj 82 485 s \$0-2;
#X obj 105 464 s \$0-3;
#X obj 139 484 s \$0-4;
#X obj 164 463 s \$0-5;
#X obj 198 483 s \$0-6;
#X obj 221 462 s \$0-7;
#X obj 255 482 s \$0-8;
#X obj 72 16 inlet;
#X obj 50 208 t b b;
#X obj 51 168 t b b;
#X obj 51 140 t b b;
#X obj 52 112 t b b;
#X msg 94 206 read tmp/cM.txt;
#X msg 98 169 read tmp/c#M.txt;
#X msg 98 142 read tmp/dM.txt;
#X msg 100 112 read tmp/d#M.txt;
#X obj 229 204 t b b;
#X obj 225 176 t b b;
#X obj 225 141 t b b;
#X obj 224 111 t b b;
#X msg 267 110 read tmp/eM.txt;
#X msg 268 140 read tmp/fM.txt;
#X msg 268 175 read tmp/f#M.txt;
#X msg 272 204 read tmp/gM.txt;
#X obj 389 204 t b b;
#X obj 385 176 t b b;
#X obj 385 141 t b b;
#X obj 384 111 t b b;
#X msg 427 110 read tmp/g#M.txt;
#X msg 428 140 read tmp/aM.txt;
#X msg 428 175 read tmp/a#M.txt;
#X msg 432 205 read tmp/bM.txt;
#X connect 0 0 16 0;
#X connect 0 1 17 0;
#X connect 0 2 18 0;
#X connect 0 3 19 0;
#X connect 0 4 27 0;
#X connect 0 5 26 0;
#X connect 0 6 25 0;
#X connect 0 7 24 0;
#X connect 0 8 35 0;
#X connect 0 9 34 0;
#X connect 0 10 33 0;
#X connect 0 11 32 0;
#X connect 2 0 3 0;
#X connect 3 0 5 0;
#X connect 3 1 4 1;
#X connect 4 0 3 0;
#X connect 5 0 7 0;
#X connect 5 1 8 0;
#X connect 5 2 9 0;
#X connect 5 3 10 0;
#X connect 5 4 11 0;
#X connect 5 5 12 0;
#X connect 5 6 13 0;
#X connect 5 7 14 0;
#X connect 6 0 4 0;
#X connect 6 1 2 0;
#X connect 15 0 0 0;
#X connect 16 0 6 0;
#X connect 16 1 20 0;
#X connect 17 0 6 0;
#X connect 17 1 21 0;
#X connect 18 0 6 0;
#X connect 18 1 22 0;
#X connect 19 0 6 0;
#X connect 19 1 23 0;
#X connect 20 0 3 0;
#X connect 21 0 3 0;
#X connect 22 0 3 0;
#X connect 23 0 3 0;
#X connect 24 0 6 0;
#X connect 24 1 31 0;
#X connect 25 0 6 0;
#X connect 25 1 30 0;
#X connect 26 0 6 0;
#X connect 26 1 29 0;
#X connect 27 0 6 0;
#X connect 27 1 28 0;
#X connect 28 0 3 0;
#X connect 29 0 3 0;
#X connect 30 0 3 0;
#X connect 31 0 3 0;
#X connect 32 0 6 0;
#X connect 32 1 39 0;
#X connect 33 0 6 0;
#X connect 33 1 38 0;
#X connect 34 0 6 0;
#X connect 34 1 37 0;
#X connect 35 0 6 0;
#X connect 35 1 36 0;
#X connect 36 0 3 0;
#X connect 37 0 3 0;
#X connect 38 0 3 0;
#X connect 39 0 3 0;
#X restore 112 276 pd major;
#X obj 112 171 gate 2;
#X obj 112 78 inlet;
#X obj 164 79 inlet;
#X connect 2 0 1 0;
#X connect 2 1 0 0;
#X connect 3 0 2 0;
#X connect 4 0 2 1;
#X restore 48 198 pd key/mode;
#X symbolatom 150 112 10 0 0 0 - - -;
#X obj 95 15 r \$0-key;
#X msg 287 73 c;
#X obj 287 37 loadbang;
#X obj 287 94 symbol;
#X obj 48 86 + 1;
#X obj 92 158 symbol;
#X obj 150 130 t b a;
#X obj 48 107 t b f;
#X obj 194 196 s \$0-key-set;
#X msg 194 168 label \$1;
#X obj 48 59 r tonality;
#X obj 17 19 loadbang;
#X msg 17 43 0;
#X connect 1 0 8 0;
#X connect 1 0 11 0;
#X connect 2 0 1 0;
#X connect 3 0 5 0;
#X connect 4 0 3 0;
#X connect 5 0 1 0;
#X connect 6 0 9 0;
#X connect 7 0 0 1;
#X connect 8 0 7 0;
#X connect 8 1 7 1;
#X connect 9 0 7 0;
#X connect 9 1 0 0;
#X connect 11 0 10 0;
#X connect 12 0 6 0;
#X connect 13 0 14 0;
#X connect 14 0 6 0;
#X restore 608 168 pd tonality;
#X obj 667 12 declare -path tmp;
#N canvas 177 241 450 300 del-time 0;
#X obj 88 32 r \$0-MAXLEN;
#X obj 70 154 f;
#X obj 23 109 sel 0 1 2 3 4;
#X obj 70 278 s \$0-del-time;
#X floatatom 18 27 5 0 0 0 - - -;
#X obj 100 180 * 2;
#X obj 100 155 f;
#X obj 88 84 + 5;
#X obj 131 155 f;
#X obj 131 180 * 3;
#X obj 160 155 f;
#X obj 160 180 * 4;
#X obj 19 51 t b f;
#X obj 19 72 f;
#X obj 88 56 t b f;
#X floatatom 147 89 5 0 0 0 - - -;
#X obj 18 6 r del-time-dur;
#X connect 0 0 14 0;
#X connect 1 0 3 0;
#X connect 2 0 1 0;
#X connect 2 1 6 0;
#X connect 2 2 8 0;
#X connect 2 3 10 0;
#X connect 5 0 3 0;
#X connect 6 0 5 0;
#X connect 7 0 1 1;
#X connect 7 0 6 1;
#X connect 7 0 8 1;
#X connect 7 0 10 1;
#X connect 8 0 9 0;
#X connect 9 0 3 0;
#X connect 10 0 11 0;
#X connect 11 0 3 0;
#X connect 12 0 13 0;
#X connect 12 1 13 1;
#X connect 13 0 2 0;
#X connect 14 0 13 0;
#X connect 14 1 7 0;
#X connect 15 0 7 1;
#X connect 16 0 4 0;
#X connect 16 0 12 0;
#X restore 608 192 pd del-time;
#X obj 252 38 hradio 30 1 0 4 del-time-dur del-time-dur-r DelayTime-1/16
0 -5 1 16 -261682 -228801 -33289 0;
#X obj 674 333 r \$0-del-time;
#X obj 158 39 vsl 85 25 1 16 0 0 pattern-len pattern-len-r -8- 30 14
1 16 -228856 -228856 -1 0 1;
#N canvas 336 22 936 418 ui 0;
#X obj 27 78 i;
#X obj 27 102 change;
#X msg 27 160 label -\$1-;
#X obj 27 45 r pattern-len;
#X obj 27 191 s pattern-len-r;
#X obj 137 47 loadbang;
#X obj 148 191 s \$0-pattern-len;
#X msg 137 71 8;
#X obj 283 95 change;
#X obj 283 116 sel 0 1 2 3 4;
#X msg 283 157 16;
#X msg 283 187 label DelayTime-1/\$1;
#X msg 429 157 16;
#X msg 312 157 8;
#X msg 342 157 4;
#X msg 429 187 label DelayTime-3/\$1;
#X obj 283 67 r del-time-dur;
#X obj 283 208 s del-time-dur-r;
#X obj 622 58 r tonality;
#X obj 622 95 change;
#X obj 622 395 s tonality-r;
#X msg 639 171 label Scale-Minor;
#X msg 622 150 label Scale-Major;
#X msg 657 193 label Scale-Ionian;
#X msg 675 217 label Scale-Dorian;
#X msg 692 240 label Scale-Phrygian;
#X msg 708 265 label Scale-Lydian;
#X msg 721 287 label Scale-Mixolydian;
#X msg 728 314 label Scale-Aeolian;
#X msg 745 339 label Scale-Locrian;
#X obj 622 116 sel 0 1 2 3 4 5 6 7 8;
#X obj 288 359 s volume-ui-r;
#X obj 288 277 loadbang;
#X msg 288 324 75;
#X msg 330 322 \; pd dsp 1;
#X obj 547 103 loadbang;
#X obj 432 294 loadbang;
#X obj 432 343 s BPM-r;
#X msg 432 315 80;
#X connect 0 0 1 0;
#X connect 1 0 2 0;
#X connect 1 0 6 0;
#X connect 2 0 4 0;
#X connect 3 0 0 0;
#X connect 5 0 7 0;
#X connect 5 0 10 0;
#X connect 7 0 1 0;
#X connect 8 0 9 0;
#X connect 9 0 10 0;
#X connect 9 1 13 0;
#X connect 9 2 12 0;
#X connect 9 3 14 0;
#X connect 10 0 11 0;
#X connect 11 0 17 0;
#X connect 12 0 15 0;
#X connect 13 0 11 0;
#X connect 14 0 11 0;
#X connect 15 0 17 0;
#X connect 16 0 8 0;
#X connect 18 0 19 0;
#X connect 19 0 30 0;
#X connect 21 0 20 0;
#X connect 22 0 20 0;
#X connect 23 0 20 0;
#X connect 24 0 20 0;
#X connect 25 0 20 0;
#X connect 26 0 20 0;
#X connect 27 0 20 0;
#X connect 28 0 20 0;
#X connect 29 0 20 0;
#X connect 30 0 22 0;
#X connect 30 1 21 0;
#X connect 30 2 23 0;
#X connect 30 3 24 0;
#X connect 30 4 25 0;
#X connect 30 5 26 0;
#X connect 30 6 27 0;
#X connect 30 7 28 0;
#X connect 30 8 29 0;
#X connect 32 0 33 0;
#X connect 32 0 34 0;
#X connect 33 0 31 0;
#X connect 35 0 22 0;
#X connect 36 0 38 0;
#X connect 38 0 37 0;
#X restore 608 146 pd ui;
#X obj 139 18 cnv 15 10 10 empty empty Steps 20 12 1 16 -262144 -33289
0;
#X obj 22 76 cnv 15 10 10 empty empty Key 20 12 1 16 -262144 -33289
0;
#X obj 43 152 vsl 30 100 0 1 0 0 a a-r A 8 -7 1 16 -262144 -1 -1 2475
1;
#X obj 73 152 vsl 30 100 0 1 0 0 d d-r D 8 -7 1 16 -262144 -1 -1 4950
1;
#X obj 103 152 vsl 30 100 0 1 0 0 s s-r S 8 -7 1 16 -262144 -1 -1 8910
1;
#X obj 133 152 vsl 30 100 0 1 0 0 r r-r R 8 -7 1 16 -262144 -1 -1 2475
1;
#X obj 42 96 vsl 40 25 0 11 0 0 \$0-key-ui \$0-key-set c 12 14 1 16
-261234 -261234 -1 0 1;
#X obj 170 151 nbx 5 25 -1e+037 1e+037 0 0 \$0-notelen \$0-MAXLEN Duration
0 -5 1 16 -203904 -1 -1 182.5 256;
#X obj 380 38 nbx 4 30 0 96 0 0 feedback-ui feedback-ui-r Feedback
0 -5 1 16 -232576 -1 -1 0 256;
#X obj 753 356 r feedback-ui;
#X obj 381 121 vsl 25 135 0 130 0 0 volume-ui volume-ui-r Volume 0
-7 1 16 -262144 -1 -1 7731 1;
#N canvas 679 419 450 300 master-vol 0;
#X obj 109 40 r volume-ui;
#X obj 109 61 dbtorms;
#X obj 109 82 pack 0 50;
#X obj 109 103 line~;
#X obj 57 227 dac~;
#X obj 57 198 *~;
#X obj 38 89 inlet~;
#X obj 40 144 hip~ 3;
#X connect 0 0 1 0;
#X connect 1 0 2 0;
#X connect 2 0 3 0;
#X connect 3 0 5 1;
#X connect 5 0 4 0;
#X connect 5 0 4 1;
#X connect 6 0 7 0;
#X connect 7 0 5 0;
#X restore 607 415 pd master-vol;
#X obj 255 152 nbx 2 25 1 16 0 1 midiCh dummy Midi-Ch 0 -5 1 16 -203904
-1 -1 1 256;
#X obj 254 200 nbx 2 25 1 127 0 1 \$0-ctrlNumber dummy Ctl-Num 0 -5
1 16 -203904 -1 -1 1 256;
#X obj 318 200 nbx 2 25 1 16 0 1 \$0-ctrlCh dummy Ctl-Ch 0 -5 1 16
-203904 -1 -1 1 256;
#X obj 666 32 declare -path lib;
#X text 158 102 Modes Soon.;
#N canvas 647 277 450 300 version 0;
#X obj 52 11 loadbang;
#X obj 52 32 t b b b b b b b b;
#X msg 52 96 v0.1;
#X obj 52 155 print step-o-potamus;
#X obj 63 -42 bng 15 250 50 0 empty empty empty 17 7 0 10 -262144 -1
-1;
#X obj 168 102 print |;
#X msg 168 80 -------;
#X obj 109 101 print |;
#X msg 109 79 -------;
#X connect 0 0 1 0;
#X connect 1 0 2 0;
#X connect 1 3 8 0;
#X connect 1 7 6 0;
#X connect 2 0 3 0;
#X connect 4 0 1 0;
#X connect 6 0 5 0;
#X connect 8 0 7 0;
#X restore 589 9 pd version;
#X connect 4 0 12 0;
#X connect 5 0 4 0;
#X connect 8 0 9 1;
#X connect 9 0 10 0;
#X connect 10 0 35 0;
#X connect 12 0 9 0;
#X connect 12 1 7 0;
#X connect 21 0 8 0;
#X connect 33 0 8 1;
