#N canvas 382 405 531 191 10;
#N canvas 63 343 502 352 initparams 0;
#X obj 148 5 r \$0-load;
#X msg 262 175 2;
#X msg 222 215 1;
#X msg 49 189 0;
#X obj 49 210 s \$0-on;
#X msg 17 127 0.47;
#X obj 112 241 s \$1-pitch-ctrl-r;
#X obj 262 199 s \$1-slices-ctrl-r;
#X msg 313 273 label record;
#X obj 313 297 s \$1-rec-ready-ctrl-r;
#X obj 178 298 s \$1-rec-len-ctrl-r;
#X msg 178 273 32;
#X obj 17 151 s \$1-gain-r;
#X msg 342 136 1;
#X obj 342 161 s \$1-poly-ctrl-r;
#X obj 221 238 s \$1-len-ctrl-r;
#X msg 112 217 1;
#X obj 233 10 r \$1-clear-smp-ctrl;
#X obj 340 104 s \$1-filename-display;
#X msg 321 69 label ---;
#X obj 445 65 s \$1-R;
#X obj 403 65 s \$1-L;
#X msg 371 40 const 0;
#X obj 392 205 s \$1-stop-ctrl;
#X connect 0 0 16 0;
#X connect 0 0 13 0;
#X connect 0 0 1 0;
#X connect 0 0 2 0;
#X connect 0 0 3 0;
#X connect 0 0 5 0;
#X connect 0 0 8 0;
#X connect 0 0 11 0;
#X connect 0 0 19 0;
#X connect 1 0 7 0;
#X connect 2 0 15 0;
#X connect 3 0 4 0;
#X connect 5 0 12 0;
#X connect 8 0 9 0;
#X connect 11 0 10 0;
#X connect 13 0 14 0;
#X connect 16 0 6 0;
#X connect 17 0 13 0;
#X connect 17 0 1 0;
#X connect 17 0 2 0;
#X connect 17 0 16 0;
#X connect 17 0 8 0;
#X connect 17 0 11 0;
#X connect 17 0 19 0;
#X connect 17 0 22 0;
#X connect 17 0 23 0;
#X connect 19 0 18 0;
#X connect 22 0 21 0;
#X connect 22 0 20 0;
#X restore 8 11 pd initparams;
#X obj 442 33 loadbang;
#X obj 442 71 s \$0-load;
#N canvas 68 123 834 367 time 0;
#X obj 93 239 f 0;
#X obj 115 239 + 1;
#X obj 123 315 s \$0-slicenumber;
#X obj 624 99 f 0;
#X obj 648 99 + 1;
#X obj 75 215 sel 0;
#X obj 150 19 r \$0-slices-amnt;
#X obj 624 225 spigot;
#X obj 391 226 float;
#X obj 391 201 spigot;
#X msg 425 226 0;
#X obj 391 291 pack f f;
#X obj 239 75 / 8;
#X msg 459 203 0;
#X obj 623 270 sel 0;
#X obj 424 73 + 1;
#X obj 650 291 - 1;
#X obj 197 40 r \$0-patternpress;
#X obj 650 313 s \$0-patternpress;
#X msg 682 206 1;
#X obj 424 97 t b f;
#X msg 447 124 1;
#X msg 424 173 1;
#X msg 478 76 -1;
#X obj 424 150 sel -1;
#X obj 224 98 *;
#X obj 391 251 t f b b;
#X obj 753 78 s \$0-pattern;
#X msg 753 57 const 0;
#X obj 682 184 t b b;
#X msg 639 79 0;
#X obj 624 174 t f f;
#X obj 624 120 t f f;
#X obj 630 39 sel 1;
#X obj 424 124 f 1;
#X obj 671 163 spigot;
#X msg 715 142 1;
#X obj 624 249 tabread \$0-pattern;
#X obj 391 314 tabwrite \$0-pattern;
#X obj 624 152 mod 64;
#X obj 123 264 mod;
#X obj 311 40 t f f b;
#X msg 342 69 1;
#X obj 671 142 sel 64;
#X obj 56 94 t b f;
#X obj 51 115 /;
#X obj 51 142 moses 1;
#X obj 705 99 table \$0-pattern 128;
#X obj 19 21 r \$0-bars-amnt;
#X obj 674 78 r \$0-reclen;
#X obj 75 193 mod;
#X obj 45 169 f 0;
#X obj 67 169 + 1;
#X obj 19 75 * 16;
#X obj 187 98 *;
#X obj 674 99 * 2;
#X obj 258 121 spigot;
#X obj 309 263 spigot;
#X msg 348 263 0;
#X msg 309 288 1;
#X obj 424 44 t b b;
#X obj 301 90 r \$1-press-stop;
#X obj 321 314 s \$1-on;
#X obj 243 263 / 8;
#X obj 228 290 div;
#X obj 228 314 s \$1-led-slice;
#X obj 630 18 r \$1-rec-ready;
#X obj 682 228 s \$1-rec-play;
#X obj 505 201 s \$1-rec-active;
#X obj 310 19 r \$1-press;
#X obj 424 6 r metro-sixteen;
#X connect 0 0 1 0;
#X connect 0 0 40 0;
#X connect 0 0 57 0;
#X connect 1 0 0 1;
#X connect 3 0 4 0;
#X connect 3 0 32 0;
#X connect 4 0 3 1;
#X connect 5 0 0 0;
#X connect 6 0 12 0;
#X connect 6 0 40 1;
#X connect 6 0 44 0;
#X connect 6 0 63 0;
#X connect 7 0 37 0;
#X connect 8 0 26 0;
#X connect 9 0 8 0;
#X connect 10 0 8 1;
#X connect 11 0 38 0;
#X connect 12 0 25 1;
#X connect 13 0 9 1;
#X connect 14 1 16 0;
#X connect 15 0 20 0;
#X connect 16 0 18 0;
#X connect 17 0 25 0;
#X connect 17 0 54 0;
#X connect 19 0 7 1;
#X connect 19 0 67 0;
#X connect 20 0 34 0;
#X connect 20 1 8 1;
#X connect 21 0 34 1;
#X connect 22 0 9 1;
#X connect 22 0 68 0;
#X connect 23 0 34 1;
#X connect 24 0 22 0;
#X connect 24 0 30 0;
#X connect 24 0 36 0;
#X connect 25 0 0 1;
#X connect 26 0 11 0;
#X connect 26 2 10 0;
#X connect 28 0 27 0;
#X connect 29 0 19 0;
#X connect 29 1 13 0;
#X connect 30 0 3 1;
#X connect 31 0 7 0;
#X connect 31 1 11 1;
#X connect 32 0 39 0;
#X connect 32 1 43 0;
#X connect 33 0 23 0;
#X connect 33 1 7 1;
#X connect 33 1 28 0;
#X connect 33 1 9 1;
#X connect 33 1 34 1;
#X connect 33 1 35 1;
#X connect 34 0 21 0;
#X connect 34 0 24 0;
#X connect 35 0 29 0;
#X connect 36 0 35 1;
#X connect 37 0 14 0;
#X connect 39 0 31 0;
#X connect 40 0 2 0;
#X connect 40 0 64 0;
#X connect 41 0 54 0;
#X connect 41 1 15 0;
#X connect 41 1 25 0;
#X connect 41 2 42 0;
#X connect 42 0 56 1;
#X connect 42 0 57 1;
#X connect 43 0 35 0;
#X connect 44 0 45 0;
#X connect 44 1 45 1;
#X connect 45 0 46 0;
#X connect 46 1 50 1;
#X connect 46 1 54 1;
#X connect 48 0 53 0;
#X connect 49 0 55 0;
#X connect 50 0 5 0;
#X connect 51 0 52 0;
#X connect 51 0 50 0;
#X connect 52 0 51 1;
#X connect 53 0 45 0;
#X connect 54 0 51 1;
#X connect 55 0 43 1;
#X connect 55 0 39 1;
#X connect 56 0 51 0;
#X connect 56 0 9 0;
#X connect 57 0 58 0;
#X connect 57 0 59 0;
#X connect 58 0 57 1;
#X connect 59 0 62 0;
#X connect 60 0 56 0;
#X connect 60 1 3 0;
#X connect 61 0 56 1;
#X connect 63 0 64 1;
#X connect 64 0 65 0;
#X connect 66 0 33 0;
#X connect 69 0 41 0;
#X connect 70 0 60 0;
#X restore 7 77 pd time;
#N canvas 0 22 462 312 (subpatch) 0;
#X array \$1-R 176399 float 0;
#X coords 0 0 176398 1 142 13 0;
#X restore 8 53 graph;
#N canvas 203 57 755 545 (subpatch) 0;
#X array \$1-L 176399 float 0;
#X coords 0 0 176398 1 142 13 0;
#X restore 8 34 graph;
#X obj 442 52 pipe 1000;
#N canvas 300 459 415 206 pitch_control 0;
#X obj 33 75 int;
#X obj 33 50 * 100;
#X obj 32 97 / 100;
#X obj 32 140 s \$1-pitch-ctrl-r;
#X msg 32 118 label pitch:\$1x;
#X obj 33 26 r \$1-pitch-ctrl;
#X obj 145 140 s \$0-pitch;
#X obj 145 80 s \$1-pitchsave;
#X connect 0 0 2 0;
#X connect 1 0 0 0;
#X connect 2 0 4 0;
#X connect 4 0 3 0;
#X connect 5 0 1 0;
#X connect 5 0 6 0;
#X connect 5 0 7 0;
#X restore 158 72 pd pitch_control;
#N canvas 526 253 409 407 slice_control 0;
#X obj 85 197 s \$0-slices-amnt;
#X msg 85 104 8;
#X msg 115 104 16;
#X msg 144 104 32;
#X msg 174 104 64;
#X obj 109 79 route 0 1 2 3;
#X obj 85 163 float;
#X obj 109 32 r \$1-slices-ctrl;
#X msg 190 177 label slices:\$1;
#X obj 109 55 int;
#X obj 190 197 s \$1-slices-ctrl-r;
#X obj 200 78 s \$1-slicesave;
#X connect 1 0 6 0;
#X connect 1 0 8 0;
#X connect 2 0 6 0;
#X connect 2 0 8 0;
#X connect 3 0 6 0;
#X connect 3 0 8 0;
#X connect 4 0 6 0;
#X connect 4 0 8 0;
#X connect 5 0 1 0;
#X connect 5 1 2 0;
#X connect 5 2 3 0;
#X connect 5 3 4 0;
#X connect 6 0 0 0;
#X connect 7 0 9 0;
#X connect 8 0 10 0;
#X connect 9 0 5 0;
#X connect 9 0 11 0;
#X restore 158 129 pd slice_control;
#N canvas 50 22 438 478 compute_slices 0;
#X obj 101 175 f;
#X obj 128 177 + 1;
#X obj 101 153 until;
#X msg 139 147 0;
#X obj 101 122 t f b;
#X obj 101 198 t f f;
#X obj 122 375 pack 0 0;
#X obj 123 354 swap;
#X obj 231 179 f;
#X obj 258 181 + 1;
#X obj 231 157 until;
#X msg 269 151 0;
#X obj 231 126 t f b;
#X obj 231 202 t f f;
#X obj 292 374 pack 0 0;
#X obj 293 353 swap;
#X obj 101 235 t b f;
#X msg 99 260 1;
#X obj 99 280 / 16;
#X obj 100 306 *;
#X obj 231 258 t b f;
#X msg 231 283 1;
#X obj 261 303 / 16;
#X obj 261 329 *;
#X obj 231 235 + 1;
#X obj 231 101 float;
#X obj 101 100 float;
#X msg 334 81 reset bang \,;
#X msg 292 395 end \$1 \$2 \,;
#X msg 122 396 start \$1 \$2 \,;
#X msg 1 179 done bang \;;
#X obj 134 20 r \$0-slices-amnt;
#X obj 134 42 t b b b b f;
#X obj 334 105 s \$1-slice-data;
#X obj 292 417 s \$1-slice-data;
#X obj 123 418 s \$1-slice-data;
#X obj 1 204 s \$1-slice-data;
#X connect 0 0 1 0;
#X connect 0 0 5 0;
#X connect 1 0 0 1;
#X connect 2 0 0 0;
#X connect 3 0 0 1;
#X connect 4 0 2 0;
#X connect 4 1 3 0;
#X connect 5 0 16 0;
#X connect 5 1 7 1;
#X connect 6 0 29 0;
#X connect 7 0 6 0;
#X connect 7 1 6 1;
#X connect 8 0 9 0;
#X connect 8 0 13 0;
#X connect 9 0 8 1;
#X connect 10 0 8 0;
#X connect 11 0 8 1;
#X connect 12 0 10 0;
#X connect 12 1 11 0;
#X connect 13 0 24 0;
#X connect 13 1 15 1;
#X connect 14 0 28 0;
#X connect 15 0 14 0;
#X connect 15 1 14 1;
#X connect 16 0 17 0;
#X connect 16 1 19 1;
#X connect 17 0 18 0;
#X connect 18 0 19 0;
#X connect 19 0 7 0;
#X connect 20 0 21 0;
#X connect 20 1 23 1;
#X connect 21 0 22 0;
#X connect 22 0 23 0;
#X connect 23 0 15 0;
#X connect 24 0 20 0;
#X connect 25 0 12 0;
#X connect 26 0 4 0;
#X connect 27 0 33 0;
#X connect 28 0 34 0;
#X connect 29 0 35 0;
#X connect 30 0 36 0;
#X connect 31 0 32 0;
#X connect 32 0 30 0;
#X connect 32 1 26 0;
#X connect 32 2 25 0;
#X connect 32 3 27 0;
#X connect 32 4 25 1;
#X connect 32 4 26 1;
#X connect 32 4 22 1;
#X connect 32 4 18 1;
#X restore 283 33 pd compute_slices;
#N canvas 28 375 232 192 load_sample 0;
#X obj 17 85 soundfiler;
#X msg 17 63 read -resize \$1 \$2-L \$2-R;
#X obj 17 107 s \$0-samples;
#X obj 17 19 r \$0-filename;
#X obj 17 41 pack s \$1;
#X connect 0 0 2 0;
#X connect 1 0 0 0;
#X connect 3 0 4 0;
#X connect 4 0 1 0;
#X restore 44 34 pd load_sample;
#N canvas 423 204 447 413 sample_playback 1;
#N canvas 0 22 486 336 rh_scalelog 0;
#X obj 20 155 exp;
#X obj 20 107 *;
#X obj 20 130 +;
#X obj 98 87 log;
#X obj 194 84 log;
#X obj 123 123 t b f;
#X obj 123 145 -;
#X obj 20 183 outlet;
#X obj 20 19 inlet;
#X obj 98 23 inlet;
#X obj 194 24 inlet;
#X connect 0 0 7 0;
#X connect 1 0 2 0;
#X connect 2 0 0 0;
#X connect 3 0 2 1;
#X connect 3 0 5 0;
#X connect 4 0 6 0;
#X connect 5 0 6 0;
#X connect 5 1 6 1;
#X connect 6 0 1 1;
#X connect 8 0 1 0;
#X connect 9 0 3 0;
#X connect 10 0 4 0;
#X restore 163 132 pd rh_scalelog;
#X msg 221 108 0.1;
#X msg 267 108 10;
#X msg 163 154 \$1 20;
#X obj 110 212 *~;
#X obj 165 212 *~;
#X obj 230 38 t b b;
#X msg 202 66 0.4999;
#X obj 163 176 line~;
#X obj 34 87 f;
#X obj 55 87 + 1;
#X obj 78 85 mod 3;
#X obj 30 39 r \$0-play;
#X obj 30 61 t b;
#N canvas 14 30 599 634 play-0 0;
#X obj 62 95 f;
#X obj 77 70 r \$0-start;
#X obj 62 118 *;
#X obj 90 94 r \$0-samples;
#X obj 388 150 *;
#X obj 414 149 t b f;
#X obj 387 125 r \$0-end;
#X obj 474 103 r \$0-len;
#X obj 472 175 samplerate~;
#X obj 472 153 loadbang;
#X obj 415 221 * 1000;
#X obj 62 317 pack 0 0 0;
#X obj 415 242 *;
#X obj 474 218 expr 1/$f1;
#X obj 62 421 vline~;
#X obj 414 198 /;
#X obj 413 177 *;
#X obj 439 176 t b f;
#X obj 17 498 *~;
#X obj 111 496 *~;
#X obj 129 421 vline~;
#X obj 223 27 route 0;
#X obj 244 574 outlet~;
#X obj 328 570 outlet~;
#X obj 227 5 inlet;
#X obj 473 198 r \$0-pitch;
#X obj 234 531 +~;
#X obj 264 531 +~;
#X obj 289 317 pack 0 0 0;
#X obj 289 421 vline~;
#X obj 244 498 *~;
#X obj 338 496 *~;
#X obj 356 421 vline~;
#X obj 289 95 f;
#X obj 304 70 r \$0-start;
#X obj 289 118 *;
#X obj 317 94 r \$0-samples;
#X obj 223 48 f 0;
#X obj 245 48 == 0;
#X obj 223 69 sel 0 1;
#X msg 129 341 1 5;
#X msg 355 341 1 5;
#X obj 289 285 t f b b;
#X obj 62 285 t f b b;
#X msg 384 388 0 6;
#X msg 160 388 0 6;
#X obj 234 180 r \$1-on;
#X obj 235 204 sel 0;
#X obj 14 470 tabread4~ \$1-L;
#X obj 106 470 tabread4~ \$1-R;
#X obj 241 470 tabread4~ \$1-L;
#X obj 333 470 tabread4~ \$1-R;
#X msg 61 338 \$1 \, \$2 \$3;
#X msg 288 338 \$1 \, \$2 \$3;
#X obj 415 265 - 10;
#X obj 389 338 del;
#X obj 192 352 del;
#X connect 0 0 2 0;
#X connect 1 0 0 1;
#X connect 2 0 43 0;
#X connect 3 0 2 1;
#X connect 3 0 5 0;
#X connect 3 0 17 0;
#X connect 4 0 28 1;
#X connect 4 0 11 1;
#X connect 5 0 4 0;
#X connect 5 1 4 1;
#X connect 6 0 4 0;
#X connect 7 0 16 0;
#X connect 8 0 15 1;
#X connect 9 0 8 0;
#X connect 10 0 12 0;
#X connect 11 0 52 0;
#X connect 12 0 28 2;
#X connect 12 0 11 2;
#X connect 12 0 54 0;
#X connect 13 0 12 1;
#X connect 14 0 48 0;
#X connect 14 0 49 0;
#X connect 15 0 10 0;
#X connect 16 0 15 0;
#X connect 17 0 16 0;
#X connect 17 1 16 1;
#X connect 18 0 26 0;
#X connect 19 0 27 0;
#X connect 20 0 18 1;
#X connect 20 0 19 1;
#X connect 21 0 37 0;
#X connect 24 0 21 0;
#X connect 25 0 13 0;
#X connect 26 0 22 0;
#X connect 27 0 23 0;
#X connect 28 0 53 0;
#X connect 29 0 50 0;
#X connect 29 0 51 0;
#X connect 30 0 26 1;
#X connect 31 0 27 1;
#X connect 32 0 30 1;
#X connect 32 0 31 1;
#X connect 33 0 35 0;
#X connect 34 0 33 1;
#X connect 35 0 42 0;
#X connect 36 0 35 1;
#X connect 37 0 38 0;
#X connect 37 0 39 0;
#X connect 38 0 37 1;
#X connect 39 0 0 0;
#X connect 39 1 33 0;
#X connect 40 0 20 0;
#X connect 41 0 32 0;
#X connect 42 0 28 0;
#X connect 42 1 41 0;
#X connect 42 1 55 0;
#X connect 42 2 45 0;
#X connect 43 0 11 0;
#X connect 43 1 40 0;
#X connect 43 1 56 0;
#X connect 43 2 44 0;
#X connect 44 0 32 0;
#X connect 45 0 20 0;
#X connect 46 0 47 0;
#X connect 47 0 45 0;
#X connect 47 0 44 0;
#X connect 48 0 18 0;
#X connect 49 0 19 0;
#X connect 50 0 30 0;
#X connect 51 0 31 0;
#X connect 52 0 14 0;
#X connect 53 0 29 0;
#X connect 54 0 55 1;
#X connect 54 0 56 1;
#X connect 55 0 44 0;
#X connect 56 0 45 0;
#X restore 12 111 pd play-0;
#N canvas 101 22 564 632 play-1 0;
#X obj 62 95 f;
#X obj 77 70 r \$0-start;
#X obj 62 118 *;
#X obj 90 94 r \$0-samples;
#X obj 388 150 *;
#X obj 414 149 t b f;
#X obj 387 125 r \$0-end;
#X obj 474 103 r \$0-len;
#X obj 472 175 samplerate~;
#X obj 472 153 loadbang;
#X obj 415 221 * 1000;
#X obj 62 317 pack 0 0 0;
#X obj 415 242 *;
#X obj 474 218 expr 1/$f1;
#X msg 61 338 \$1 \, \$2 \$3;
#X obj 62 431 vline~;
#X obj 414 198 /;
#X obj 413 177 *;
#X obj 439 176 t b f;
#X obj 17 508 *~;
#X obj 111 506 *~;
#X obj 129 431 vline~;
#X obj 244 574 outlet~;
#X obj 328 570 outlet~;
#X obj 227 5 inlet;
#X obj 473 198 r \$0-pitch;
#X obj 234 531 +~;
#X obj 264 531 +~;
#X obj 289 317 pack 0 0 0;
#X msg 288 338 \$1 \, \$2 \$3;
#X obj 289 431 vline~;
#X obj 244 508 *~;
#X obj 338 506 *~;
#X obj 356 431 vline~;
#X obj 289 95 f;
#X obj 304 70 r \$0-start;
#X obj 289 118 *;
#X obj 317 94 r \$0-samples;
#X obj 223 48 f 0;
#X obj 245 48 == 0;
#X obj 223 69 sel 0 1;
#X msg 129 341 1 5;
#X msg 355 341 1 5;
#X obj 289 285 t f b b;
#X obj 62 285 t f b b;
#X msg 384 388 0 6;
#X msg 160 388 0 6;
#X obj 234 180 r \$1-on;
#X obj 235 204 sel 0;
#X obj 223 27 route 1;
#X obj 14 480 tabread4~ \$1-L;
#X obj 106 480 tabread4~ \$1-R;
#X obj 241 480 tabread4~ \$1-L;
#X obj 333 480 tabread4~ \$1-R;
#X obj 415 265 - 10;
#X obj 389 338 del;
#X obj 192 352 del;
#X connect 0 0 2 0;
#X connect 1 0 0 1;
#X connect 2 0 44 0;
#X connect 3 0 2 1;
#X connect 3 0 5 0;
#X connect 3 0 18 0;
#X connect 4 0 11 1;
#X connect 4 0 28 1;
#X connect 5 0 4 0;
#X connect 5 1 4 1;
#X connect 6 0 4 0;
#X connect 7 0 17 0;
#X connect 8 0 16 1;
#X connect 9 0 8 0;
#X connect 10 0 12 0;
#X connect 11 0 14 0;
#X connect 12 0 11 2;
#X connect 12 0 28 2;
#X connect 12 0 54 0;
#X connect 13 0 12 1;
#X connect 14 0 15 0;
#X connect 15 0 50 0;
#X connect 15 0 51 0;
#X connect 16 0 10 0;
#X connect 17 0 16 0;
#X connect 18 0 17 0;
#X connect 18 1 17 1;
#X connect 19 0 26 0;
#X connect 20 0 27 0;
#X connect 21 0 19 1;
#X connect 21 0 20 1;
#X connect 24 0 49 0;
#X connect 25 0 13 0;
#X connect 26 0 22 0;
#X connect 27 0 23 0;
#X connect 28 0 29 0;
#X connect 29 0 30 0;
#X connect 30 0 52 0;
#X connect 30 0 53 0;
#X connect 31 0 26 1;
#X connect 32 0 27 1;
#X connect 33 0 31 1;
#X connect 33 0 32 1;
#X connect 34 0 36 0;
#X connect 35 0 34 1;
#X connect 36 0 43 0;
#X connect 37 0 36 1;
#X connect 38 0 39 0;
#X connect 38 0 40 0;
#X connect 39 0 38 1;
#X connect 40 0 0 0;
#X connect 40 1 34 0;
#X connect 41 0 21 0;
#X connect 42 0 33 0;
#X connect 43 0 28 0;
#X connect 43 1 42 0;
#X connect 43 1 55 0;
#X connect 43 2 46 0;
#X connect 44 0 11 0;
#X connect 44 1 41 0;
#X connect 44 1 56 0;
#X connect 44 2 45 0;
#X connect 45 0 33 0;
#X connect 46 0 21 0;
#X connect 47 0 48 0;
#X connect 48 0 46 0;
#X connect 48 0 45 0;
#X connect 49 0 38 0;
#X connect 50 0 19 0;
#X connect 51 0 20 0;
#X connect 52 0 31 0;
#X connect 53 0 32 0;
#X connect 54 0 55 1;
#X connect 54 0 56 1;
#X connect 55 0 45 0;
#X connect 56 0 46 0;
#X restore 35 130 pd play-1;
#N canvas 60 114 600 614 play-2 1;
#X obj 62 95 f;
#X obj 77 70 r \$0-start;
#X obj 62 118 *;
#X obj 90 94 r \$0-samples;
#X obj 388 150 *;
#X obj 414 149 t b f;
#X obj 387 125 r \$0-end;
#X obj 474 103 r \$0-len;
#X obj 472 175 samplerate~;
#X obj 472 153 loadbang;
#X obj 415 221 * 1000;
#X obj 62 317 pack 0 0 0;
#X obj 415 242 *;
#X obj 474 218 expr 1/$f1;
#X msg 61 338 \$1 \, \$2 \$3;
#X obj 62 411 vline~;
#X obj 414 198 /;
#X obj 413 177 *;
#X obj 439 176 t b f;
#X obj 17 488 *~;
#X obj 111 486 *~;
#X obj 129 411 vline~;
#X obj 244 574 outlet~;
#X obj 328 570 outlet~;
#X obj 227 5 inlet;
#X obj 473 198 r \$0-pitch;
#X obj 234 531 +~;
#X obj 264 531 +~;
#X obj 289 317 pack 0 0 0;
#X msg 288 338 \$1 \, \$2 \$3;
#X obj 289 411 vline~;
#X obj 244 488 *~;
#X obj 338 486 *~;
#X obj 356 411 vline~;
#X obj 289 95 f;
#X obj 304 70 r \$0-start;
#X obj 289 118 *;
#X obj 317 94 r \$0-samples;
#X obj 223 48 f 0;
#X obj 245 48 == 0;
#X obj 223 69 sel 0 1;
#X msg 129 341 1 5;
#X msg 355 341 1 5;
#X obj 289 285 t f b b;
#X obj 62 285 t f b b;
#X msg 384 378 0 6;
#X msg 160 378 0 6;
#X obj 234 180 r \$1-on;
#X obj 235 204 sel 0;
#X obj 223 27 route 2;
#X obj 14 460 tabread4~ \$1-L;
#X obj 106 460 tabread4~ \$1-R;
#X obj 241 460 tabread4~ \$1-L;
#X obj 333 460 tabread4~ \$1-R;
#X obj 415 265 - 10;
#X obj 389 338 del;
#X obj 192 352 del;
#X connect 0 0 2 0;
#X connect 1 0 0 1;
#X connect 2 0 44 0;
#X connect 3 0 2 1;
#X connect 3 0 5 0;
#X connect 3 0 18 0;
#X connect 4 0 11 1;
#X connect 4 0 28 1;
#X connect 5 0 4 0;
#X connect 5 1 4 1;
#X connect 6 0 4 0;
#X connect 7 0 17 0;
#X connect 8 0 16 1;
#X connect 9 0 8 0;
#X connect 10 0 12 0;
#X connect 11 0 14 0;
#X connect 12 0 11 2;
#X connect 12 0 28 2;
#X connect 12 0 54 0;
#X connect 13 0 12 1;
#X connect 14 0 15 0;
#X connect 15 0 50 0;
#X connect 15 0 51 0;
#X connect 16 0 10 0;
#X connect 17 0 16 0;
#X connect 18 0 17 0;
#X connect 18 1 17 1;
#X connect 19 0 26 0;
#X connect 20 0 27 0;
#X connect 21 0 19 1;
#X connect 21 0 20 1;
#X connect 24 0 49 0;
#X connect 25 0 13 0;
#X connect 26 0 22 0;
#X connect 27 0 23 0;
#X connect 28 0 29 0;
#X connect 29 0 30 0;
#X connect 30 0 52 0;
#X connect 30 0 53 0;
#X connect 31 0 26 1;
#X connect 32 0 27 1;
#X connect 33 0 31 1;
#X connect 33 0 32 1;
#X connect 34 0 36 0;
#X connect 35 0 34 1;
#X connect 36 0 43 0;
#X connect 37 0 36 1;
#X connect 38 0 39 0;
#X connect 38 0 40 0;
#X connect 39 0 38 1;
#X connect 40 0 0 0;
#X connect 40 1 34 0;
#X connect 41 0 21 0;
#X connect 42 0 33 0;
#X connect 43 0 28 0;
#X connect 43 1 42 0;
#X connect 43 1 55 0;
#X connect 43 2 46 0;
#X connect 44 0 11 0;
#X connect 44 1 41 0;
#X connect 44 1 56 0;
#X connect 44 2 45 0;
#X connect 45 0 33 0;
#X connect 46 0 21 0;
#X connect 47 0 48 0;
#X connect 48 0 46 0;
#X connect 48 0 45 0;
#X connect 49 0 38 0;
#X connect 50 0 19 0;
#X connect 51 0 20 0;
#X connect 52 0 31 0;
#X connect 53 0 32 0;
#X connect 54 0 55 1;
#X connect 54 0 56 1;
#X connect 55 0 45 0;
#X connect 56 0 46 0;
#X restore 73 110 pd play-2;
#X obj 33 166 +~;
#X obj 86 166 +~;
#X obj 230 16 r \$0-load;
#X obj 165 239 throw~ masterleft;
#X obj 110 262 throw~ masterright;
#X obj 99 40 r \$0-poly;
#X obj 144 16 r \$1-volparam;
#X obj 131 79 r \$1-gain;
#X obj 202 88 s \$1-gain-r;
#X connect 0 0 3 0;
#X connect 1 0 0 1;
#X connect 2 0 0 2;
#X connect 3 0 8 0;
#X connect 4 0 21 0;
#X connect 5 0 20 0;
#X connect 6 0 7 0;
#X connect 6 1 1 0;
#X connect 6 1 2 0;
#X connect 7 0 25 0;
#X connect 8 0 4 1;
#X connect 8 0 5 1;
#X connect 9 0 10 0;
#X connect 9 0 14 0;
#X connect 9 0 15 0;
#X connect 9 0 16 0;
#X connect 10 0 11 0;
#X connect 11 0 9 1;
#X connect 12 0 13 0;
#X connect 13 0 9 0;
#X connect 14 0 17 0;
#X connect 14 1 18 0;
#X connect 15 0 17 0;
#X connect 15 1 18 0;
#X connect 16 0 17 0;
#X connect 16 1 18 0;
#X connect 17 0 4 0;
#X connect 18 0 5 0;
#X connect 19 0 6 0;
#X connect 22 0 11 1;
#X connect 23 0 25 0;
#X connect 24 0 0 0;
#X restore 283 128 pd sample_playback;
#N canvas 457 328 409 407 bars_control 0;
#X obj 109 79 route 0 1 2 3;
#X msg 85 104 0.5;
#X msg 115 104 1;
#X msg 144 104 2;
#X msg 174 104 4;
#X obj 85 242 s \$0-bars-amnt;
#X obj 109 17 r \$1-len-ctrl;
#X obj 210 243 s \$1-len-ctrl-r;
#X obj 109 44 int;
#X msg 211 155 label length:4bars;
#X msg 201 175 label length:2bars;
#X msg 191 195 label length:1bar;
#X msg 181 215 label length:0.5bar;
#X obj 224 81 s \$1-barssave;
#X connect 0 0 1 0;
#X connect 0 1 2 0;
#X connect 0 2 3 0;
#X connect 0 3 4 0;
#X connect 1 0 5 0;
#X connect 1 0 12 0;
#X connect 2 0 5 0;
#X connect 2 0 11 0;
#X connect 3 0 5 0;
#X connect 3 0 10 0;
#X connect 4 0 9 0;
#X connect 4 0 5 0;
#X connect 6 0 8 0;
#X connect 8 0 0 0;
#X connect 8 0 13 0;
#X connect 9 0 7 0;
#X connect 10 0 7 0;
#X connect 11 0 7 0;
#X connect 12 0 7 0;
#X restore 158 148 pd bars_control;
#N canvas 134 218 486 336 poly_control 0;
#X obj 162 187 s \$0-poly;
#X obj 45 44 r \$1-poly-ctrl;
#X obj 45 69 int;
#X msg 45 157 label poly:\$1;
#X obj 45 186 s \$1-poly-ctrl-r;
#X obj 222 187 s \$1-polysave;
#X connect 1 0 2 0;
#X connect 2 0 3 0;
#X connect 2 0 0 0;
#X connect 2 0 5 0;
#X connect 3 0 4 0;
#X restore 158 110 pd poly_control;
#N canvas 445 429 376 170 monome_com 0;
#X text 25 -9 controllers;
#X text 139 -10 views;
#X obj 16 36 press_mute \$1;
#X obj 16 74 press_slice \$1;
#X obj 16 55 press_pattern \$1;
#X obj 127 74 led_slice \$1;
#X obj 127 36 led_mute \$1;
#X obj 127 55 led_pattern \$1;
#X restore 8 103 pd monome_com;
#N canvas 739 131 413 379 press_control 0;
#X obj 35 217 r \$1-0-press;
#X obj 115 217 r \$1-1-press;
#X obj 195 217 r \$1-2-press;
#X obj 275 217 r \$1-3-press;
#X obj 75 237 r \$1-4-press;
#X obj 155 237 r \$1-5-press;
#X obj 235 237 r \$1-6-press;
#X obj 315 237 r \$1-7-press;
#X obj 170 349 s \$1-press;
#X msg 107 274 0;
#X msg 137 274 1;
#X msg 167 274 2;
#X msg 197 274 3;
#X msg 227 274 4;
#X msg 257 274 5;
#X msg 287 274 6;
#X msg 317 274 7;
#X obj 108 18 r \$1-led-slice;
#X obj 161 164 s \$1-slice-cnv-r;
#X obj 161 93 * 15;
#X obj 161 114 + 391;
#X obj 242 14 r \$1-on;
#X obj 242 37 sel 0;
#X obj 108 42 change;
#X msg 161 135 pos \$1 36;
#X obj 242 59 float 0;
#X connect 0 0 9 0;
#X connect 1 0 10 0;
#X connect 2 0 11 0;
#X connect 3 0 12 0;
#X connect 4 0 13 0;
#X connect 5 0 14 0;
#X connect 6 0 15 0;
#X connect 7 0 16 0;
#X connect 9 0 8 0;
#X connect 10 0 8 0;
#X connect 11 0 8 0;
#X connect 12 0 8 0;
#X connect 13 0 8 0;
#X connect 14 0 8 0;
#X connect 15 0 8 0;
#X connect 16 0 8 0;
#X connect 17 0 23 0;
#X connect 19 0 20 0;
#X connect 20 0 24 0;
#X connect 21 0 22 0;
#X connect 22 0 25 0;
#X connect 23 0 19 0;
#X connect 24 0 18 0;
#X connect 25 0 19 0;
#X restore 158 53 pd press_control;
#N canvas 451 378 466 316 load_slice_data 0;
#X msg 224 180 const 0;
#X msg 14 244 0;
#X obj 224 160 t b;
#X obj 14 131 route done end start filename reset;
#X obj 14 79 openpanel;
#X msg 14 101 filename \$1;
#X obj 100 101 r \$1-slice-data;
#X obj 14 265 s \$0-sliceset;
#X obj 105 265 s \$0-slices-end;
#X obj 146 245 s \$0-slices-start;
#X obj 224 221 s \$0-slices-end;
#X obj 233 201 s \$0-slices-start;
#X obj 138 174 s \$0-filename;
#X obj 14 18 r \$1-load-smp-ctrl;
#X obj 14 41 bang;
#X obj 306 59 r \$0-filename;
#X msg 306 142 label \$1;
#X obj 306 86 symbol;
#X obj 306 167 s \$1-filename-display;
#X obj 332 195 s \$1-filenamesave;
#X obj 306 113 splitfilename;
#X connect 0 0 10 0;
#X connect 0 0 11 0;
#X connect 1 0 7 0;
#X connect 2 0 0 0;
#X connect 3 0 1 0;
#X connect 3 1 8 0;
#X connect 3 2 9 0;
#X connect 3 3 12 0;
#X connect 3 4 2 0;
#X connect 4 0 5 0;
#X connect 5 0 3 0;
#X connect 6 0 3 0;
#X connect 13 0 14 0;
#X connect 14 0 4 0;
#X connect 15 0 17 0;
#X connect 16 0 18 0;
#X connect 17 0 19 0;
#X connect 17 0 20 0;
#X connect 20 1 16 0;
#X restore 283 52 pd load_slice_data;
#N canvas 721 424 303 254 read_slice_infos 0;
#X obj 89 171 s \$0-len;
#X obj 142 115 tabread \$0-slices-start;
#X obj 99 82 tabread \$0-slices-end;
#X obj 100 143 -;
#X obj 99 60 t f f;
#X obj 71 10 r \$0-slicenumber;
#X obj 71 32 t b f;
#X obj 219 164 s \$0-start;
#X obj 71 192 s \$0-play;
#X obj 157 164 s \$0-end;
#X obj 99 104 t f f;
#X obj 117 36 r \$0-sliceset;
#X obj 142 137 t f f;
#X connect 1 0 12 0;
#X connect 2 0 10 0;
#X connect 3 0 0 0;
#X connect 4 0 2 0;
#X connect 4 1 1 0;
#X connect 5 0 6 0;
#X connect 6 0 8 0;
#X connect 6 1 4 0;
#X connect 10 0 3 0;
#X connect 10 1 9 0;
#X connect 11 0 4 0;
#X connect 12 0 3 1;
#X connect 12 1 7 0;
#X restore 283 109 pd read_slice_infos;
#N canvas 250 322 687 391 pattern_control 0;
#X obj 81 181 sel 1;
#X obj 61 290 sel 1;
#X msg 81 201 label recording;
#X msg 61 310 label playing;
#X obj 551 119 s \$0-reclen;
#X obj 172 24 r \$1-rec-ready-ctrl;
#X obj 261 349 s \$1-rec-ready-ctrl-r;
#X obj 194 67 == 0;
#X obj 172 67 f 1;
#X obj 172 45 bang;
#X obj 172 93 sel 1 0;
#X obj 428 16 r \$1-rec-len-ctrl;
#X obj 428 40 int;
#X obj 428 61 change;
#X obj 428 119 s \$1-rec-len-ctrl-r;
#X msg 428 88 label \$1/16;
#X obj 73 91 s \$1-rec-ready;
#X obj 76 162 r \$1-rec-active;
#X obj 56 269 r \$1-rec-play;
#X msg 198 181 label press;
#X msg 228 205 label record;
#X connect 0 0 2 0;
#X connect 1 0 3 0;
#X connect 2 0 6 0;
#X connect 3 0 6 0;
#X connect 5 0 9 0;
#X connect 7 0 8 1;
#X connect 8 0 7 0;
#X connect 8 0 10 0;
#X connect 8 0 16 0;
#X connect 9 0 8 0;
#X connect 10 0 19 0;
#X connect 10 1 20 0;
#X connect 11 0 12 0;
#X connect 12 0 13 0;
#X connect 13 0 15 0;
#X connect 13 0 4 0;
#X connect 15 0 14 0;
#X connect 17 0 0 0;
#X connect 18 0 1 0;
#X connect 19 0 6 0;
#X connect 20 0 6 0;
#X coords 0 0 1 1 55 12 0;
#X restore 158 91 pd pattern_control;
#X obj 283 71 table \$0-slices-start 64;
#X obj 283 90 table \$0-slices-end 64;
#N canvas 360 403 443 316 stop_control 0;
#X msg 92 141 0;
#X obj 38 161 s \$1-on;
#X obj 93 162 s \$1-press-stop;
#X obj 92 35 r \$1-stop-ctrl;
#X obj 92 61 bang;
#X obj 255 35 r \$1-on;
#X obj 255 59 sel 0 1;
#X msg 255 92 label STOPPED;
#X msg 274 112 label PLAYING;
#X obj 258 162 s \$1-stop-ctrl-r;
#X connect 0 0 1 0;
#X connect 0 0 2 0;
#X connect 3 0 4 0;
#X connect 4 0 0 0;
#X connect 5 0 6 0;
#X connect 6 0 7 0;
#X connect 6 1 8 0;
#X connect 7 0 9 0;
#X connect 8 0 9 0;
#X restore 158 34 pd stop_control;
#X connect 1 0 6 0;
#X connect 6 0 2 0;
#X coords 0 0 1 1 380 50 0;
