#N canvas 508 592 408 481 10;
#X obj 23 16 inlet;
#X obj 108 74 unpack f f f;
#X obj 148 106 t f f;
#X obj 108 106 t f f;
#X obj 225 127 t f f;
#X obj 233 172 &&;
#X obj 125 127 t f f;
#X obj 133 172 &&;
#X obj 190 127 +;
#X obj 298 127 +;
#X obj 108 346 spigot;
#X obj 160 197 &&;
#X obj 108 451 outlet;
#X obj 108 380 - 1;
#X obj 108 276 + 1;
#X obj 155 149 <;
#X obj 274 149 <;
#X obj 108 327 +;
#X obj 142 276 *;
#X obj 225 149 >=;
#X obj 118 149 >=;
#X obj 142 254 -;
#X obj 108 254 -;
#X obj 108 410 pack f f;
#N canvas 0 0 309 159 load-coords 0;
#X obj 5 65 i \$1;
#X obj 38 65 i \$2;
#X obj 5 15 loadbang;
#X obj 71 65 i \$3;
#X obj 104 65 i \$4;
#X obj 5 88 s \$0-x;
#X obj 38 108 s \$0-y;
#X obj 71 88 s \$0-xn;
#X obj 104 108 s \$0-yn;
#X obj 5 34 t b b b b;
#X connect 0 0 5 0;
#X connect 1 0 6 0;
#X connect 2 0 9 0;
#X connect 3 0 7 0;
#X connect 4 0 8 0;
#X connect 9 0 0 0;
#X connect 9 1 1 0;
#X connect 9 2 3 0;
#X connect 9 3 4 0;
#X restore 177 40 pd load-coords;
#X obj 23 41 route coords;
#N canvas 0 0 343 165 unpack-coords 0;
#X obj 33 19 inlet;
#X obj 33 82 s \$0-x;
#X obj 60 102 s \$0-y;
#X obj 87 82 s \$0-xn;
#X obj 114 102 s \$0-yn;
#X obj 33 53 unpack f f f f f f;
#X obj 147 82 s \$0-time;
#X obj 174 102 s \$0-int;
#X connect 0 0 5 0;
#X connect 5 0 1 0;
#X connect 5 1 2 0;
#X connect 5 2 3 0;
#X connect 5 3 4 0;
#X connect 5 4 6 0;
#X connect 5 5 7 0;
#X restore 23 203 pd unpack-coords;
#X obj 173 238 r \$0-x;
#X obj 219 238 r \$0-y;
#X obj 191 74 r \$0-x;
#X obj 237 74 r \$0-y;
#X obj 283 74 r \$0-xn;
#X obj 333 74 r \$0-yn;
#X connect 0 0 25 0;
#X connect 1 0 3 0;
#X connect 1 1 2 0;
#X connect 1 2 23 1;
#X connect 2 0 21 0;
#X connect 2 1 4 0;
#X connect 3 0 22 0;
#X connect 3 1 6 0;
#X connect 4 0 19 0;
#X connect 4 1 16 0;
#X connect 5 0 11 1;
#X connect 6 0 20 0;
#X connect 6 1 15 0;
#X connect 7 0 11 0;
#X connect 8 0 15 1;
#X connect 9 0 16 1;
#X connect 10 0 13 0;
#X connect 11 0 10 1;
#X connect 13 0 23 0;
#X connect 14 0 17 0;
#X connect 15 0 7 1;
#X connect 16 0 5 1;
#X connect 17 0 10 0;
#X connect 18 0 17 1;
#X connect 19 0 5 0;
#X connect 20 0 7 0;
#X connect 21 0 18 0;
#X connect 22 0 14 0;
#X connect 23 0 12 0;
#X connect 25 0 26 0;
#X connect 25 1 1 0;
#X connect 27 0 22 1;
#X connect 28 0 21 1;
#X connect 29 0 20 1;
#X connect 29 0 8 0;
#X connect 30 0 19 1;
#X connect 30 0 9 0;
#X connect 31 0 18 1;
#X connect 31 0 8 1;
#X connect 32 0 9 1;
