#N canvas 204 579 397 494 10;
#X obj 21 15 inlet;
#X obj 71 64 unpack f f f;
#X obj 111 96 t f f;
#X obj 71 96 t f f;
#X obj 234 139 == 1;
#X obj 148 117 t f f;
#X obj 156 162 &&;
#X obj 88 117 t f f;
#X obj 96 162 &&;
#X obj 251 110 +;
#X obj 312 109 +;
#X obj 71 314 spigot;
#X obj 123 187 &&;
#X obj 123 211 &&;
#X obj 71 423 outlet;
#X obj 71 333 - 1;
#X obj 71 271 + 1;
#X obj 118 139 <;
#X obj 197 139 <;
#X obj 71 292 +;
#X obj 105 271 *;
#X obj 148 139 >=;
#X obj 81 139 >=;
#X obj 105 251 -;
#X obj 71 251 -;
#N canvas 0 0 309 159 load-coords 0;
#X obj 5 65 i \$1;
#X obj 38 65 i \$2;
#X obj 5 15 loadbang;
#X obj 71 65 i \$3;
#X obj 104 65 i \$4;
#X obj 5 88 s \$0-x;
#X obj 38 108 s \$0-y;
#X obj 71 88 s \$0-xn;
#X obj 104 108 s \$0-yn;
#X obj 147 89 s \$0-time;
#X obj 174 109 s \$0-int;
#X obj 174 65 i \$6;
#X obj 141 65 i \$5;
#X obj 5 34 t b b b b b b;
#X connect 0 0 5 0;
#X connect 1 0 6 0;
#X connect 2 0 13 0;
#X connect 3 0 7 0;
#X connect 4 0 8 0;
#X connect 11 0 10 0;
#X connect 12 0 9 0;
#X connect 13 0 0 0;
#X connect 13 1 1 0;
#X connect 13 2 3 0;
#X connect 13 3 4 0;
#X connect 13 4 12 0;
#X connect 13 5 11 0;
#X restore 110 14 pd load-coords;
#X obj 251 70 r \$0-x;
#X obj 312 69 r \$0-y;
#X obj 266 90 r \$0-xn;
#X obj 327 89 r \$0-yn;
#X obj 131 234 r \$0-xn;
#X obj 50 224 r \$0-y;
#X obj 7 224 r \$0-x;
#X obj 213 90 r \$0-x;
#X obj 163 70 r \$0-y;
#X obj 21 37 route coords;
#N canvas 0 0 343 165 unpack-coords 0;
#X obj 33 19 inlet;
#X obj 33 82 s \$0-x;
#X obj 60 102 s \$0-y;
#X obj 87 82 s \$0-xn;
#X obj 114 102 s \$0-yn;
#X obj 33 53 unpack f f f f f f;
#X obj 147 82 s \$0-time;
#X obj 174 102 s \$0-int;
#X connect 0 0 5 0;
#X connect 5 0 1 0;
#X connect 5 1 2 0;
#X connect 5 2 3 0;
#X connect 5 3 4 0;
#X connect 5 4 6 0;
#X connect 5 5 7 0;
#X restore 5 201 pd unpack-coords;
#X msg 202 334 1;
#X obj 202 422 outlet;
#X obj 202 391 f;
#X msg 234 334 0;
#X obj 71 360 f;
#X msg 216 289 stop;
#X obj 311 310 loadbang;
#X obj 171 210 == 1;
#X obj 214 209 == 1;
#X obj 180 233 &&;
#X obj 247 209 == 0;
#X obj 230 233 &&;
#X obj 191 258 sel 1;
#X obj 241 258 sel 1;
#X obj 202 352 metro 120;
#X obj 202 316 del 300;
#X obj 297 265 i \$5;
#X obj 297 244 loadbang;
#X obj 311 331 i \$6;
#X obj 286 225 r \$0-time;
#X obj 297 290 r \$0-int;
#X connect 0 0 35 0;
#X connect 1 0 3 0;
#X connect 1 1 2 0;
#X connect 1 2 4 0;
#X connect 2 0 23 0;
#X connect 2 1 5 0;
#X connect 3 0 24 0;
#X connect 3 1 7 0;
#X connect 4 0 13 1;
#X connect 4 0 45 0;
#X connect 4 0 47 0;
#X connect 5 0 21 0;
#X connect 5 1 18 0;
#X connect 6 0 12 1;
#X connect 7 0 22 0;
#X connect 7 1 17 0;
#X connect 8 0 12 0;
#X connect 9 0 17 1;
#X connect 10 0 18 1;
#X connect 11 0 15 0;
#X connect 12 0 13 0;
#X connect 12 0 44 0;
#X connect 13 0 11 1;
#X connect 15 0 41 1;
#X connect 15 0 39 1;
#X connect 16 0 19 0;
#X connect 17 0 8 1;
#X connect 18 0 6 1;
#X connect 19 0 11 0;
#X connect 20 0 19 1;
#X connect 21 0 6 0;
#X connect 22 0 8 0;
#X connect 23 0 20 0;
#X connect 24 0 16 0;
#X connect 26 0 9 0;
#X connect 27 0 10 0;
#X connect 28 0 9 1;
#X connect 29 0 10 1;
#X connect 30 0 20 1;
#X connect 31 0 23 1;
#X connect 32 0 24 1;
#X connect 33 0 22 1;
#X connect 34 0 21 1;
#X connect 35 0 36 0;
#X connect 35 1 1 0;
#X connect 37 0 51 0;
#X connect 39 0 38 0;
#X connect 40 0 51 0;
#X connect 41 0 14 0;
#X connect 42 0 52 0;
#X connect 43 0 55 0;
#X connect 44 0 46 0;
#X connect 44 0 48 0;
#X connect 45 0 46 1;
#X connect 46 0 49 0;
#X connect 47 0 48 1;
#X connect 48 0 50 0;
#X connect 49 0 52 0;
#X connect 50 0 42 0;
#X connect 50 0 40 0;
#X connect 50 0 41 0;
#X connect 51 0 39 0;
#X connect 52 0 37 0;
#X connect 53 0 52 1;
#X connect 54 0 53 0;
#X connect 55 0 51 1;
#X connect 56 0 52 1;
#X connect 57 0 51 1;
