#N canvas 639 47 341 217 10;
#X declare -path ./lib/monome;
#X declare -path ./lib/slicer;
#X declare -path ./lib/uc33;
#X declare -path ./lib/ui;
#X declare -path ./lib/file;
#N canvas 485 308 510 317 state_save 0;
#X obj 273 238 textfile;
#X msg 271 57 clear;
#X obj 281 83 savepanel;
#X obj 281 121 list trim;
#X obj 180 82 machine_save 1;
#X obj 90 2 r state-save;
#X obj 143 226 prepend add;
#X text 105 263 saves machine \, sample loade \, slices settings \,
length settings \, poly settings \, pitch settings;
#X obj 22 95 r main-bpm-ctrl;
#X msg 22 142 bpm 85;
#X obj 22 119 prepend set bpm;
#X obj 90 30 t b b b b b b b b b b;
#X msg 281 102 write \$1;
#X obj 180 102 machine_save 2;
#X obj 180 122 machine_save 3;
#X obj 180 142 machine_save 4;
#X obj 180 162 machine_save 5;
#X obj 180 182 machine_save 6;
#X obj 180 202 machine_save 7;
#X connect 1 0 0 0;
#X connect 2 0 12 0;
#X connect 3 0 0 0;
#X connect 4 0 6 0;
#X connect 5 0 11 0;
#X connect 6 0 0 0;
#X connect 8 0 10 0;
#X connect 9 0 6 0;
#X connect 10 0 9 0;
#X connect 11 0 2 0;
#X connect 11 1 18 0;
#X connect 11 2 17 0;
#X connect 11 3 16 0;
#X connect 11 4 15 0;
#X connect 11 5 14 0;
#X connect 11 6 13 0;
#X connect 11 7 4 0;
#X connect 11 8 9 0;
#X connect 11 9 1 0;
#X connect 12 0 3 0;
#X connect 13 0 6 0;
#X connect 14 0 6 0;
#X connect 15 0 6 0;
#X connect 16 0 6 0;
#X connect 17 0 6 0;
#X connect 18 0 6 0;
#X restore 14 91 pd state_save;
#N canvas 4 103 450 300 abs_paths 0;
#X obj 72 68 declare -path ./lib/monome;
#X obj 72 88 declare -path ./lib/slicer;
#X obj 72 108 declare -path ./lib/uc33;
#X obj 72 128 declare -path ./lib/ui;
#X obj 72 148 declare -path ./lib/file;
#X restore 14 51 pd abs_paths;
#N canvas 564 356 352 129 control_main 0;
#N canvas 321 344 256 221 mode_led 0;
#X obj 56 151 s sOSC;
#X obj 44 66 sel 1 0;
#X obj 43 35 r main-mode;
#X msg 43 97 send /box/led 7 0 1;
#X msg 69 117 send /box/led 7 0 0;
#X connect 1 0 3 0;
#X connect 1 1 4 0;
#X connect 2 0 1 0;
#X connect 3 0 0 0;
#X connect 4 0 0 0;
#X restore 18 90 pd mode_led;
#N canvas 384 505 443 228 init_params 0;
#X obj 107 19 loadbang;
#X obj 265 130 s beattime;
#X obj 265 107 expr (60000/8)/$f1;
#X obj 265 46 r main-bpm;
#X obj 46 148 s main-level-ctrl-r;
#X msg 46 93 94;
#X obj 146 128 s main-bpm-ctrl-r;
#X msg 146 85 85;
#X obj 106 168 s main-enable-ctrl-r;
#X connect 0 0 7 0;
#X connect 0 0 5 0;
#X connect 0 0 8 0;
#X connect 2 0 1 0;
#X connect 3 0 2 0;
#X connect 5 0 4 0;
#X connect 7 0 6 0;
#X restore 133 14 pd init_params;
#N canvas 195 242 314 308 clock 0;
#X obj 95 56 metro 160;
#X obj 94 79 s metro;
#X obj 146 34 r beattime;
#X obj 53 105 f 0;
#X obj 75 105 + 1;
#X obj 68 34 t f f;
#X obj 151 199 sel 0;
#X obj 151 177 mod 2;
#X obj 151 251 s metro-sixteen;
#X obj 53 251 s metro-count;
#X obj 68 13 r main-enable;
#X obj 56 59 sel 1;
#X connect 0 0 1 0;
#X connect 0 0 3 0;
#X connect 2 0 0 1;
#X connect 3 0 4 0;
#X connect 3 0 7 0;
#X connect 3 0 9 0;
#X connect 4 0 3 1;
#X connect 5 0 11 0;
#X connect 5 1 0 0;
#X connect 6 0 8 0;
#X connect 7 0 6 0;
#X connect 10 0 5 0;
#X connect 11 1 3 1;
#X restore 134 91 pd clock;
#N canvas 520 33 495 696 oscSocket 0;
#X obj 41 107 s matrix-in;
#X obj 43 134 r leds-out;
#X obj 43 159 prepend send /box/led;
#X obj 43 191 s sOSC;
#X obj 41 30 r dOSC;
#X obj 145 419 s dOSC;
#X obj 145 442 r sOSC;
#X obj 32 287 loadbang;
#X msg 71 372 disconnect;
#X obj 145 472 sendOSC;
#N canvas 87 362 861 410 clear 0;
#X obj 1 76 inlet;
#X msg 14 109 send /box/led_row 0 0;
#X msg 14 129 send /box/led_row 1 0;
#X msg 14 149 send /box/led_row 2 0;
#X msg 14 169 send /box/led_row 3 0;
#X msg 14 189 send /box/led_row 4 0;
#X msg 14 209 send /box/led_row 5 0;
#X obj -7 274 outlet;
#X msg 14 249 send /box/led_row 7 0;
#X msg 14 229 send /box/led_row 6 0;
#X connect 0 0 1 0;
#X connect 0 0 2 0;
#X connect 0 0 3 0;
#X connect 0 0 4 0;
#X connect 0 0 5 0;
#X connect 0 0 6 0;
#X connect 0 0 9 0;
#X connect 0 0 8 0;
#X connect 1 0 7 0;
#X connect 2 0 7 0;
#X connect 3 0 7 0;
#X connect 4 0 7 0;
#X connect 5 0 7 0;
#X connect 6 0 7 0;
#X connect 8 0 7 0;
#X connect 9 0 7 0;
#X restore 21 455 pd clear;
#X msg 21 432 bang;
#X obj 32 310 t b b;
#X obj 41 54 OSCroute /box;
#X obj 41 83 OSCroute /press;
#X obj 211 161 r raw-out;
#X obj 7 347 del 1000;
#X msg 71 348 connect localhost 8081;
#X obj 145 395 dumpOSC 8001;
#X obj 0 409 r clear-display;
#X connect 1 0 2 0;
#X connect 2 0 3 0;
#X connect 4 0 13 0;
#X connect 6 0 9 0;
#X connect 7 0 12 0;
#X connect 8 0 9 0;
#X connect 10 0 9 0;
#X connect 11 0 10 0;
#X connect 12 0 16 0;
#X connect 12 1 17 0;
#X connect 13 0 14 0;
#X connect 14 0 0 0;
#X connect 15 0 3 0;
#X connect 17 0 9 0;
#X connect 18 0 5 0;
#X connect 19 0 10 0;
#X restore 133 52 pd oscSocket;
#N canvas 328 280 680 444 run_control 0;
#X obj 320 108 sel 0 1;
#X obj 320 75 f 0;
#X obj 320 54 bang;
#X obj 342 75 == 0;
#X obj 320 29 r main-enable-ctrl;
#X obj 333 237 s main-enable-ctrl-r;
#X obj 230 108 s main-enable;
#X msg 320 129 label STOPPED;
#X msg 339 147 label RUNNING;
#X connect 0 0 7 0;
#X connect 0 1 8 0;
#X connect 1 0 0 0;
#X connect 1 0 3 0;
#X connect 1 0 6 0;
#X connect 2 0 1 0;
#X connect 3 0 1 1;
#X connect 4 0 2 0;
#X connect 7 0 5 0;
#X connect 8 0 5 0;
#X restore 18 14 pd run_control;
#N canvas 338 237 680 444 bpm_control 0;
#X obj 320 29 r main-bpm-ctrl;
#X obj 320 238 s main-bpm-ctrl-r;
#X obj 234 156 s main-bpm;
#X obj 320 96 int;
#X obj 331 173 float;
#X obj 320 75 * 10;
#X obj 320 116 / 10;
#X msg 320 205 label \$1bpm;
#X connect 0 0 5 0;
#X connect 3 0 6 0;
#X connect 4 0 7 0;
#X connect 5 0 3 0;
#X connect 6 0 2 0;
#X connect 6 0 4 0;
#X connect 7 0 1 0;
#X restore 18 33 pd bpm_control;
#N canvas 34 28 567 314 level_control 0;
#X msg 70 61 set \$1;
#X obj 70 244 s main-level-ctrl-r;
#X obj 194 152 int;
#X obj 153 194 - 100;
#X obj 149 110 moses 60;
#X obj 149 152 int;
#X obj 149 132 / 10;
#X obj 149 171 * 10;
#X obj 235 172 int;
#X obj 70 32 r master-lvl;
#X msg 149 217 label \$1dB;
#X obj 190 244 s main-level-cnv-r;
#X obj 86 88 moses 1;
#X obj 194 131 moses 90;
#X obj 235 152 * 10;
#X obj 235 191 / 10;
#X msg 76 138 label -inf;
#X obj 417 131 t b;
#X obj 417 81 f;
#X obj 417 156 f;
#X msg 504 149 0;
#X msg 417 56 bang;
#X obj 417 106 moses 1;
#X obj 504 124 t b f;
#X obj 476 88 moses 1;
#X obj 476 63 r master-lvl;
#X obj 417 181 s master-lvl;
#X obj 298 90 s master-lvl;
#X msg 313 54 \; pd dsp 1;
#X obj 298 31 r main-level-ctrl;
#X obj 417 31 r main-mute-ctrl;
#X connect 0 0 1 0;
#X connect 2 0 3 0;
#X connect 3 0 10 0;
#X connect 4 0 6 0;
#X connect 4 1 13 0;
#X connect 5 0 7 0;
#X connect 6 0 5 0;
#X connect 7 0 3 0;
#X connect 8 0 15 0;
#X connect 9 0 0 0;
#X connect 9 0 12 0;
#X connect 10 0 11 0;
#X connect 12 0 16 0;
#X connect 12 1 4 0;
#X connect 13 0 2 0;
#X connect 13 1 14 0;
#X connect 14 0 8 0;
#X connect 15 0 3 0;
#X connect 16 0 11 0;
#X connect 17 0 19 0;
#X connect 18 0 22 0;
#X connect 19 0 26 0;
#X connect 20 0 26 0;
#X connect 21 0 18 0;
#X connect 22 0 17 0;
#X connect 22 1 23 0;
#X connect 23 0 20 0;
#X connect 24 1 19 1;
#X connect 25 0 18 1;
#X connect 25 0 24 0;
#X connect 29 0 27 0;
#X connect 29 0 28 0;
#X connect 30 0 21 0;
#X restore 18 52 pd level_control;
#N canvas 337 209 232 266 mode_control 0;
#X obj 13 11 r matrix-in;
#X obj 13 44 unpack f f f;
#X obj 82 78 == 1;
#X obj 47 78 == 0;
#X obj 60 114 &&;
#X obj 34 140 &&;
#X obj 34 160 sel 1;
#X obj 124 35 loadbang;
#X obj 34 193 f 0;
#X obj 56 193 == 0;
#X obj 123 62 delay 1100;
#X obj 34 218 s main-mode;
#X obj 13 78 == 7;
#X connect 0 0 1 0;
#X connect 1 0 12 0;
#X connect 1 1 3 0;
#X connect 1 2 2 0;
#X connect 2 0 4 1;
#X connect 3 0 4 0;
#X connect 4 0 5 1;
#X connect 5 0 6 0;
#X connect 6 0 8 0;
#X connect 7 0 10 0;
#X connect 8 0 9 0;
#X connect 8 0 11 0;
#X connect 9 0 8 1;
#X connect 10 0 8 0;
#X connect 12 0 5 0;
#X restore 18 71 pd mode_control;
#N canvas 337 209 212 127 save_control 0;
#X obj 59 46 bang;
#X obj 59 22 r state-save-ctrl;
#X obj 59 73 s state-save;
#X connect 0 0 2 0;
#X connect 1 0 0 0;
#X restore 238 14 pd save_control;
#N canvas 441 173 199 171 load_control 0;
#X obj 45 37 r state-load-ctrl;
#X obj 45 63 bang;
#X obj 45 88 s state-load;
#X connect 0 0 1 0;
#X connect 1 0 2 0;
#X restore 238 34 pd load_control;
#X coords 0 0 1 1 380 19 0;
#X restore 14 71 pd control_main;
#N canvas 596 107 332 416 state_load 0;
#X obj 72 169 textfile;
#X obj 55 19 r state-load;
#X obj 55 45 openpanel;
#X msg 72 135 rewind;
#X msg 121 135 clear;
#X obj 28 138 until;
#X msg 28 116 32;
#X obj 123 247 machine_load 1;
#X obj 72 367 s main-bpm-ctrl-r;
#X msg 55 65 read \$1;
#X obj 55 85 t b b a b;
#X obj 125 224 route 1 2 3 4 5 6 7;
#X obj 72 201 route bpm;
#X msg 225 89 label \$1;
#X obj 150 65 splitfilename;
#X obj 225 123 s top-display-r;
#X obj 140 267 machine_load 2;
#X obj 156 287 machine_load 3;
#X obj 172 307 machine_load 4;
#X obj 188 327 machine_load 5;
#X obj 204 347 machine_load 6;
#X obj 220 367 machine_load 7;
#X connect 0 0 12 0;
#X connect 0 1 5 1;
#X connect 1 0 2 0;
#X connect 2 0 9 0;
#X connect 2 0 14 0;
#X connect 3 0 0 0;
#X connect 4 0 0 0;
#X connect 5 0 0 0;
#X connect 6 0 5 0;
#X connect 9 0 10 0;
#X connect 10 0 6 0;
#X connect 10 1 3 0;
#X connect 10 2 0 0;
#X connect 10 3 4 0;
#X connect 11 0 7 0;
#X connect 11 1 16 0;
#X connect 11 2 17 0;
#X connect 11 3 18 0;
#X connect 11 4 19 0;
#X connect 11 5 20 0;
#X connect 11 6 21 0;
#X connect 12 0 8 0;
#X connect 12 1 11 0;
#X connect 13 0 15 0;
#X connect 14 1 13 0;
#X restore 14 111 pd state_load;
#N canvas 244 347 234 236 output~ 0;
#X obj 139 39 dbtorms;
#X obj 139 12 r master-lvl;
#X obj 139 85 line~;
#X obj 62 132 *~;
#X obj 139 62 pack 0 50;
#X obj 12 132 *~;
#X obj 12 204 dac~;
#X obj 20 32 catch~ masterright;
#X obj 6 11 catch~ masterleft;
#X connect 0 0 4 0;
#X connect 1 0 0 0;
#X connect 2 0 3 1;
#X connect 2 0 5 1;
#X connect 3 0 6 1;
#X connect 4 0 2 0;
#X connect 5 0 6 0;
#X connect 7 0 3 0;
#X connect 8 0 5 0;
#X restore 14 131 pd output~;
#X text 13 185 Slicer derived from hardoff's (hard.off@gmail.com);
#X obj 272 11 slicer 1;
#X text 70 11 <-- Press to open gui;
#X text 13 172 Original concept by tehn (http://monome.org);
#X text 13 158 Axiome 0.1b coded by gwen (http://www.lsxdesign.net)
;
#X obj 14 11 ui_main;
#X obj 272 31 slicer 2;
#X obj 272 51 slicer 3;
#X obj 272 71 slicer 4;
#X obj 272 91 slicer 5;
#X obj 272 111 slicer 6;
#X obj 272 131 slicer 7;
#X coords 0 0 1 1 600 600 0;
