#N canvas 258 107 398 399 10;
#X obj 92 361 s sOSC;
#X obj 92 306 prepend send /box/led;
#X msg 92 278 0 0 0;
#X obj 92 250 prepend set;
#X obj 69 125 t b b f;
#X obj 92 148 float \$1;
#X obj 92 228 pack f 0 0;
#X obj 92 171 - 1;
#X obj 244 202 sel 1;
#X obj 92 197 int;
#X obj 244 115 r main-mode;
#X obj 92 330 spigot;
#X obj 244 175 t f f;
#X obj 244 141 pipe 1;
#X obj 69 58 r \$1-rec-ready;
#X connect 1 0 11 0;
#X connect 2 0 1 0;
#X connect 3 0 2 0;
#X connect 4 0 2 0;
#X connect 4 1 5 0;
#X connect 4 2 6 2;
#X connect 5 0 7 0;
#X connect 6 0 3 0;
#X connect 7 0 9 0;
#X connect 8 0 2 0;
#X connect 9 0 6 0;
#X connect 10 0 13 0;
#X connect 11 0 0 0;
#X connect 12 0 8 0;
#X connect 12 1 11 1;
#X connect 13 0 12 0;
#X connect 14 0 4 0;
