#N canvas 0 22 440 467 10;
#X obj 148 268 prepend send /box/led;
#X obj 105 222 float;
#X obj 105 184 change;
#X obj 105 203 bang;
#X obj 194 210 change;
#X obj 246 213 float \$1;
#X obj 125 163 t f f;
#X obj 210 170 sel 1;
#X obj 194 240 pack f f 1;
#X obj 105 241 pack f f 0;
#X obj 209 141 r \$1-on;
#X obj 246 185 loadbang;
#X obj 157 81 r \$1-led-slice;
#X obj 148 363 s sOSC;
#X connect 0 0 13 0;
#X connect 1 0 9 0;
#X connect 2 0 3 0;
#X connect 3 0 1 0;
#X connect 4 0 8 0;
#X connect 5 0 8 1;
#X connect 5 0 9 1;
#X connect 6 0 1 1;
#X connect 6 1 2 0;
#X connect 7 0 4 0;
#X connect 8 0 0 0;
#X connect 9 0 0 0;
#X connect 10 0 7 0;
#X connect 11 0 5 0;
#X connect 12 0 6 0;
#X connect 12 0 4 0;
