#N canvas 315 28 472 460 10;
#X obj 12 119 float \$1;
#X obj 12 163 pack f 0 1;
#X obj 12 139 - 1;
#X obj 254 217 pack f 0;
#X obj 181 372 s sOSC;
#X obj 255 248 prepend send /box/led_row;
#X obj 255 71 float \$1;
#X obj 104 161 pack f 0 0;
#X obj 104 106 float \$1;
#X obj 104 126 - 1;
#X obj 70 243 prepend send /box/led;
#X obj 80 291 spigot;
#X obj 253 295 spigot;
#X obj 286 274 == 0;
#X obj 132 191 prepend set;
#X msg 151 218 0 0 0;
#X obj 116 270 == 0;
#X obj 118 54 sel 1 0;
#X obj 179 159 pipe 1;
#X msg 192 278 0 0;
#X obj 167 321 prepend send /box/led \$1;
#X obj 321 92 t f f;
#X obj 272 107 sel 0 1;
#X obj 321 50 r main-mode;
#X obj 118 19 r \$1-on;
#X connect 0 0 2 0;
#X connect 1 0 14 0;
#X connect 1 0 10 0;
#X connect 2 0 1 0;
#X connect 3 0 5 0;
#X connect 5 0 12 0;
#X connect 6 0 3 0;
#X connect 7 0 14 0;
#X connect 7 0 10 0;
#X connect 8 0 9 0;
#X connect 9 0 7 0;
#X connect 10 0 11 0;
#X connect 11 0 4 0;
#X connect 12 0 4 0;
#X connect 13 0 12 1;
#X connect 14 0 15 0;
#X connect 15 0 10 0;
#X connect 16 0 11 1;
#X connect 17 0 0 0;
#X connect 17 1 8 0;
#X connect 17 1 6 0;
#X connect 18 0 15 0;
#X connect 19 0 20 0;
#X connect 20 0 4 0;
#X connect 21 0 22 0;
#X connect 21 1 13 0;
#X connect 21 1 16 0;
#X connect 22 0 18 0;
#X connect 22 1 19 0;
#X connect 23 0 21 0;
#X connect 24 0 17 0;
