#N canvas 0 22 336 337 10;
#X obj 79 21 r matrix-in;
#X obj 104 118 unpack f f f;
#X obj 147 191 &&;
#X obj 172 160 == 1;
#X obj 115 222 &&;
#X obj 117 249 sel 1;
#X obj 138 160 == 0;
#X obj 112 191 == \$1;
#X obj 107 156 + 1;
#X obj 104 71 spigot;
#X obj 162 41 == 0;
#X obj 162 15 r main-mode;
#X obj 117 276 s \$1-stop-ctrl-r;
#X connect 0 0 9 0;
#X connect 1 0 8 0;
#X connect 1 1 6 0;
#X connect 1 2 3 0;
#X connect 2 0 4 1;
#X connect 3 0 2 1;
#X connect 4 0 5 0;
#X connect 5 0 12 0;
#X connect 6 0 2 0;
#X connect 7 0 4 0;
#X connect 8 0 7 0;
#X connect 9 0 1 0;
#X connect 10 0 9 1;
#X connect 11 0 10 0;
