#N canvas 262 144 379 329 10;
#X obj 70 22 r matrix-in;
#X obj 70 95 unpack f f f;
#X obj 146 149 == 1;
#X obj 111 149 == 0;
#X obj 70 149 == \$1;
#X obj 70 122 + 1;
#X obj 158 44 == 1;
#X obj 70 67 spigot;
#X obj 122 172 &&;
#X obj 91 192 &&;
#X obj 91 217 sel 1;
#X obj 158 21 r main-mode;
#X obj 91 261 s \$1-rec-ready-ctrl-r;
#X connect 0 0 7 0;
#X connect 1 0 5 0;
#X connect 1 1 3 0;
#X connect 1 2 2 0;
#X connect 2 0 8 1;
#X connect 3 0 8 0;
#X connect 4 0 9 0;
#X connect 5 0 4 0;
#X connect 6 0 7 1;
#X connect 7 0 1 0;
#X connect 8 0 9 1;
#X connect 9 0 10 0;
#X connect 10 0 12 0;
#X connect 11 0 6 0;
