#N canvas 773 155 608 588 10;
#X floatatom 213 42 5 0 0 0 - - -;
#X msg 212 245 0 0;
#X floatatom 297 42 5 0 0 0 - - -;
#X obj 265 233 delay;
#X floatatom 430 45 5 0 0 0 - - -;
#X obj 265 348 *;
#X floatatom 363 45 5 0 0 0 - - -;
#X obj 265 288 t b f;
#X obj 213 15 inlet;
#X obj 297 15 inlet;
#X obj 362 17 inlet;
#X obj 430 19 inlet;
#X floatatom 504 54 5 0 0 0 - - -;
#X obj 504 28 inlet;
#X obj 267 541 outlet~;
#X obj 65 10 inlet;
#X obj 267 487 vline~;
#X obj 66 82 bng 15 250 50 0 empty empty empty 17 7 0 10 -262144 -1
-1;
#X obj 119 80 bng 15 250 50 0 empty empty empty 17 7 0 10 -262144 -1
-1;
#X obj 66 49 select 0;
#X msg 265 184 stop;
#X obj 429 70 / 100;
#X obj 142 206 f;
#X obj 142 247 pack f f;
#X obj 265 261 f;
#X obj 265 372 pack f f;
#X obj 445 149 pack 0 0;
#X obj 119 145 t b b b;
#X obj 265 321 f;
#X connect 0 0 22 1;
#X connect 0 0 28 1;
#X connect 1 0 16 0;
#X connect 2 0 3 1;
#X connect 2 0 23 1;
#X connect 3 0 24 0;
#X connect 4 0 21 0;
#X connect 5 0 25 0;
#X connect 6 0 25 1;
#X connect 7 0 28 0;
#X connect 7 1 5 1;
#X connect 8 0 0 0;
#X connect 9 0 2 0;
#X connect 10 0 6 0;
#X connect 11 0 4 0;
#X connect 12 0 26 1;
#X connect 13 0 12 0;
#X connect 15 0 19 0;
#X connect 16 0 14 0;
#X connect 17 0 20 0;
#X connect 17 0 26 0;
#X connect 18 0 27 0;
#X connect 19 0 17 0;
#X connect 19 1 18 0;
#X connect 20 0 3 0;
#X connect 21 0 24 1;
#X connect 22 0 23 0;
#X connect 23 0 16 0;
#X connect 24 0 7 0;
#X connect 25 0 16 0;
#X connect 26 0 16 0;
#X connect 27 0 3 0;
#X connect 27 1 22 0;
#X connect 27 2 1 0;
#X connect 28 0 5 0;
