#N canvas 164 177 872 676 10;
#X msg 117 283 stop;
#X obj 162 205 sel 0 1;
#X obj 117 250 t b b;
#X obj 572 112 + 1;
#X obj 606 113 % 2;
#X obj 178 406 spigot;
#X msg 190 357 0;
#X obj 185 233 t b b;
#X msg 217 357 1;
#X obj 162 161 inlet;
#X obj 537 133 sel 0 1;
#X msg 530 163 0;
#X obj 544 232 t f b;
#X msg 537 308 -1;
#X obj 555 586 pack \$1 f;
#X obj 555 565 t b f;
#X obj 573 428 int2bin;
#X obj 555 526 f;
#X obj 573 358 loadbang;
#X obj 524 388 bng 15 250 50 0 empty empty empty 17 7 0 10 -262144
-1 -1;
#X obj 573 395 f \$2;
#X floatatom 573 449 5 0 0 0 - - -;
#X msg 560 163 1;
#X obj 544 280 sel 0 1;
#X obj 610 138 bng 15 250 50 0 empty empty empty 17 7 0 10 -262144
-1 -1;
#X obj 185 314 delay 400;
#X obj 178 506 pack f f;
#X obj 178 532 s gest-in;
#X obj 555 63 loadbang;
#X obj 178 447 t b b;
#X obj 537 112 f 0;
#X msg 555 89 0;
#X obj 178 478 f \$1;
#X obj 225 478 f \$2;
#X msg 123 391 1;
#X obj 147 333 t b b;
#X obj 123 454 outlet;
#X msg 555 610 /sop/led_col \$1 \$2;
#X connect 0 0 25 0;
#X connect 1 0 2 0;
#X connect 1 1 7 0;
#X connect 2 0 0 0;
#X connect 2 1 5 0;
#X connect 3 0 4 0;
#X connect 4 0 30 1;
#X connect 5 0 29 0;
#X connect 6 0 5 1;
#X connect 7 0 25 0;
#X connect 7 1 8 0;
#X connect 8 0 5 1;
#X connect 9 0 1 0;
#X connect 10 0 11 0;
#X connect 10 1 24 0;
#X connect 10 1 22 0;
#X connect 11 0 12 0;
#X connect 12 0 23 0;
#X connect 14 0 37 0;
#X connect 15 0 14 0;
#X connect 15 1 14 1;
#X connect 16 0 21 0;
#X connect 16 0 17 1;
#X connect 17 0 15 0;
#X connect 18 0 20 0;
#X connect 19 0 20 0;
#X connect 20 0 16 0;
#X connect 22 0 12 0;
#X connect 23 0 13 0;
#X connect 25 0 35 0;
#X connect 26 0 27 0;
#X connect 28 0 31 0;
#X connect 29 0 32 0;
#X connect 29 1 33 0;
#X connect 30 0 3 0;
#X connect 30 0 10 0;
#X connect 31 0 30 1;
#X connect 32 0 26 0;
#X connect 33 0 26 1;
#X connect 34 0 36 0;
#X connect 35 0 34 0;
#X connect 35 1 6 0;
