#N canvas 1340 208 279 427 10;
#X obj 44 51 inlet;
#X msg 44 94 1;
#X floatatom 44 114 5 0 0 0 - - -;
#X msg 155 102 1;
#X floatatom 155 153 5 0 0 0 - - -;
#X obj 44 167 +;
#X obj 89 85 inlet;
#X msg 189 136 0;
#X floatatom 89 30 5 0 0 0 - - -;
#X floatatom 44 30 5 0 0 0 - - -;
#X obj 44 290 pack f f;
#X floatatom 44 187 5 0 0 0 - - -;
#X obj 44 204 sel 2;
#X obj 118 221 tgl 15 0 empty empty empty 0 -6 0 10 -262144 -1 -1 0
1;
#X obj 155 307 spigot;
#X floatatom 188 236 1 0 0 0 - - -;
#X obj 155 367 outlet;
#X obj 189 102 pipe 2;
#X msg 155 204 0;
#X connect 0 0 1 0;
#X connect 0 0 10 0;
#X connect 0 0 9 0;
#X connect 1 0 2 0;
#X connect 2 0 5 0;
#X connect 3 0 4 0;
#X connect 4 0 5 1;
#X connect 5 0 11 0;
#X connect 6 0 3 0;
#X connect 6 0 10 1;
#X connect 6 0 8 0;
#X connect 6 0 17 0;
#X connect 7 0 4 0;
#X connect 10 0 14 0;
#X connect 11 0 12 0;
#X connect 12 0 13 0;
#X connect 13 0 15 0;
#X connect 14 0 16 0;
#X connect 14 0 18 0;
#X connect 15 0 14 1;
#X connect 17 0 7 0;
#X connect 18 0 13 0;
