#N canvas 386 49 612 614 10;
#X obj 186 300 ==;
#X obj 259 300 ==;
#X obj 316 283 inlet;
#X obj 372 283 inlet;
#X obj 316 317 &&;
#X obj 372 511 outlet;
#X floatatom 316 337 5 0 0 0 - - -;
#X obj 316 354 sel 1;
#X floatatom 469 300 5 0 0 0 - - -;
#X floatatom 434 300 5 0 0 0 - - -;
#X msg 281 371 1;
#X obj 372 410 cup;
#X obj 372 430 + 1;
#X msg 399 371 0;
#X obj 372 466 sel 12;
#X floatatom 397 447 5 0 0 0 - - -;
#X obj 343 400 bng 10 250 50 0 empty empty empty 0 -6 0 10 -262144
-1 -1;
#X obj 399 393 once;
#X obj 434 376 r from_corral;
#X obj 88 92 t b b;
#X msg 88 112 0;
#X obj 88 193 +;
#X obj 113 193 f;
#X msg 59 176 1;
#X msg 139 176 0;
#X obj 141 210 moses;
#X obj 59 248 bang;
#X obj 168 159 bang;
#X obj 168 109 arraysize col;
#X obj 186 248 tabread col;
#X obj 141 231 t b f;
#X obj 259 248 tabread row;
#X obj 88 79 bng 10 250 50 0 empty empty empty 0 -6 0 10 -262144 -1
-1;
#X obj 88 39 r from_array;
#X obj 88 59 pipe 1;
#X obj 281 511 outlet;
#X msg 372 486 0;
#X obj 188 42 r array_clear;
#X obj 273 42 r array_clear2;
#X connect 0 0 4 0;
#X connect 1 0 4 1;
#X connect 2 0 0 1;
#X connect 2 0 9 0;
#X connect 3 0 1 1;
#X connect 3 0 8 0;
#X connect 4 0 6 0;
#X connect 6 0 7 0;
#X connect 7 0 10 0;
#X connect 7 1 13 0;
#X connect 7 1 16 0;
#X connect 10 0 35 0;
#X connect 11 0 12 0;
#X connect 12 0 14 0;
#X connect 12 0 15 0;
#X connect 13 0 17 0;
#X connect 14 0 36 0;
#X connect 16 0 11 0;
#X connect 17 0 11 0;
#X connect 18 0 17 1;
#X connect 19 0 20 0;
#X connect 19 1 28 0;
#X connect 20 0 21 0;
#X connect 21 0 22 0;
#X connect 21 0 25 0;
#X connect 22 0 21 1;
#X connect 23 0 21 0;
#X connect 24 0 22 0;
#X connect 25 0 30 0;
#X connect 25 1 27 0;
#X connect 26 0 23 0;
#X connect 27 0 24 0;
#X connect 28 0 25 1;
#X connect 29 0 0 0;
#X connect 30 0 26 0;
#X connect 30 1 31 0;
#X connect 30 1 29 0;
#X connect 31 0 1 0;
#X connect 32 0 19 0;
#X connect 33 0 34 0;
#X connect 34 0 32 0;
#X connect 36 0 5 0;
#X connect 37 0 34 0;
#X connect 38 0 34 0;
