#N canvas 267 35 674 564 10;
#X obj 294 118 inlet;
#X msg 76 152 bang;
#X msg 76 401 bang;
#X obj 76 294 \$1 \$2;
#X obj 267 169 \$1 \$2;
#X obj 267 387 s send_osc;
#X obj 76 276 bng 15 50 10 0 empty empty empty 0 -6 0 10 -262144 -1
-1;
#X obj 76 435 spigot;
#X floatatom 482 421 1 0 0 0 - - -;
#X msg 482 152 1;
#X msg 521 404 0;
#X obj 521 135 bng 15 250 50 0 empty empty empty 0 -6 0 10 -262144
-1 -1;
#X obj 395 253 i;
#X obj 420 253 + 1;
#X floatatom 421 290 5 0 0 0 - - -;
#X obj 395 273 % 9;
#X obj 371 304 sel 1 3;
#X msg 341 321 1;
#X msg 311 321 0;
#X msg 267 236 bang;
#X obj 267 355 spigot;
#X floatatom 298 338 1 0 0 0 - - -;
#X msg 521 236 0;
#X obj 213 135 pipe 2;
#X obj 395 135 pipe 1;
#X obj 267 61 \$1 \$2;
#X msg 267 83 send /box/led \$1 \$2 1;
#X obj 466 44 inlet;
#X msg 267 191 send /box/led \$1 \$2 0;
#X msg 76 370 send /box/led \$1 \$2 1;
#X obj 521 154 s south2_on;
#X obj 521 384 r south2_on;
#X obj 153 186 s s2_present_on;
#X obj 121 277 r s2_present_on;
#X obj 76 217 delay 160;
#X obj 121 418 delay 160;
#X obj 153 44 r init_south2_on;
#X obj 80 44 r south2_on;
#X obj 521 364 r array_clear2;
#X obj 439 452 \$1 \$2;
#X obj 439 486 r control_clear;
#X msg 267 469 send /box/led \$1 \$2 0;
#X connect 0 0 4 1;
#X connect 0 0 11 0;
#X connect 0 0 23 0;
#X connect 0 0 24 0;
#X connect 0 0 25 1;
#X connect 1 0 4 0;
#X connect 1 0 34 0;
#X connect 2 0 35 0;
#X connect 3 0 29 0;
#X connect 4 0 28 0;
#X connect 4 0 32 0;
#X connect 6 0 3 0;
#X connect 7 0 1 0;
#X connect 8 0 7 1;
#X connect 9 0 8 0;
#X connect 10 0 8 0;
#X connect 11 0 22 0;
#X connect 11 0 30 0;
#X connect 12 0 13 0;
#X connect 12 0 15 0;
#X connect 13 0 12 1;
#X connect 14 0 16 0;
#X connect 15 0 14 0;
#X connect 16 0 17 0;
#X connect 16 1 18 0;
#X connect 17 0 21 0;
#X connect 18 0 21 0;
#X connect 19 0 12 0;
#X connect 20 0 5 0;
#X connect 21 0 20 1;
#X connect 22 0 12 1;
#X connect 23 0 1 0;
#X connect 24 0 9 0;
#X connect 25 0 26 0;
#X connect 26 0 5 0;
#X connect 27 0 25 1;
#X connect 27 0 39 1;
#X connect 28 0 19 0;
#X connect 28 0 20 0;
#X connect 29 0 5 0;
#X connect 29 0 2 0;
#X connect 31 0 10 0;
#X connect 33 0 3 1;
#X connect 34 0 6 0;
#X connect 35 0 7 0;
#X connect 36 0 25 0;
#X connect 37 0 25 0;
#X connect 38 0 10 0;
#X connect 39 0 41 0;
#X connect 40 0 39 0;
#X connect 41 0 5 0;
