#N canvas 1040 23 607 273 10;
#X obj 41 92 dist_pack;
#X obj 41 113 s a;
#X msg 41 55 1;
#X obj 73 45 bng 10 250 50 0 empty empty empty 0 -6 0 10 -262144 -1
-1;
#X obj 92 28 r first;
#X obj 111 92 dist_pack;
#X obj 143 45 bng 10 250 50 0 empty empty empty 0 -6 0 10 -262144 -1
-1;
#X obj 162 28 r first;
#X obj 181 92 dist_pack;
#X obj 213 45 bng 10 250 50 0 empty empty empty 0 -6 0 10 -262144 -1
-1;
#X obj 232 28 r first;
#X obj 251 92 dist_pack;
#X obj 283 45 bng 10 250 50 0 empty empty empty 0 -6 0 10 -262144 -1
-1;
#X obj 302 28 r first;
#X obj 321 92 dist_pack;
#X obj 353 45 bng 10 250 50 0 empty empty empty 0 -6 0 10 -262144 -1
-1;
#X obj 372 28 r first;
#X obj 391 92 dist_pack;
#X obj 423 45 bng 10 250 50 0 empty empty empty 0 -6 0 10 -262144 -1
-1;
#X obj 442 28 r first;
#X obj 461 92 dist_pack;
#X obj 493 45 bng 10 250 50 0 empty empty empty 0 -6 0 10 -262144 -1
-1;
#X obj 512 28 r first;
#X obj 41 202 dist_pack;
#X obj 73 155 bng 10 250 50 0 empty empty empty 0 -6 0 10 -262144 -1
-1;
#X obj 92 138 r first;
#X obj 111 202 dist_pack;
#X obj 143 155 bng 10 250 50 0 empty empty empty 0 -6 0 10 -262144
-1 -1;
#X obj 162 138 r first;
#X obj 181 202 dist_pack;
#X obj 213 155 bng 10 250 50 0 empty empty empty 0 -6 0 10 -262144
-1 -1;
#X obj 232 138 r first;
#X obj 251 202 dist_pack;
#X obj 283 155 bng 10 250 50 0 empty empty empty 0 -6 0 10 -262144
-1 -1;
#X obj 302 138 r first;
#X obj 321 202 dist_pack;
#X obj 353 155 bng 10 250 50 0 empty empty empty 0 -6 0 10 -262144
-1 -1;
#X obj 372 138 r first;
#X obj 391 202 dist_pack;
#X obj 423 155 bng 10 250 50 0 empty empty empty 0 -6 0 10 -262144
-1 -1;
#X obj 442 138 r first;
#X obj 461 202 dist_pack;
#X obj 493 155 bng 10 250 50 0 empty empty empty 0 -6 0 10 -262144
-1 -1;
#X obj 512 138 r first;
#X obj 111 113 s b;
#X obj 181 113 s c;
#X obj 251 113 s d;
#X obj 321 113 s e;
#X obj 391 113 s f;
#X obj 461 113 s g;
#X obj 41 223 s h;
#X obj 111 223 s i;
#X obj 181 223 s j;
#X obj 251 223 s k;
#X obj 321 223 s l;
#X obj 391 223 s m;
#X obj 461 223 s n;
#X msg 111 55 2;
#X msg 181 55 3;
#X msg 251 55 4;
#X msg 321 55 5;
#X msg 391 55 6;
#X msg 461 55 7;
#X msg 41 165 8;
#X msg 111 165 9;
#X msg 181 165 10;
#X msg 251 165 11;
#X msg 321 165 12;
#X msg 391 165 13;
#X msg 461 165 14;
#X connect 0 0 1 0;
#X connect 2 0 0 0;
#X connect 3 0 2 0;
#X connect 4 0 0 1;
#X connect 4 0 3 0;
#X connect 5 0 44 0;
#X connect 6 0 57 0;
#X connect 7 0 5 1;
#X connect 7 0 6 0;
#X connect 8 0 45 0;
#X connect 9 0 58 0;
#X connect 10 0 8 1;
#X connect 10 0 9 0;
#X connect 11 0 46 0;
#X connect 12 0 59 0;
#X connect 13 0 11 1;
#X connect 13 0 12 0;
#X connect 14 0 47 0;
#X connect 15 0 60 0;
#X connect 16 0 14 1;
#X connect 16 0 15 0;
#X connect 17 0 48 0;
#X connect 18 0 61 0;
#X connect 19 0 17 1;
#X connect 19 0 18 0;
#X connect 20 0 49 0;
#X connect 21 0 62 0;
#X connect 22 0 20 1;
#X connect 22 0 21 0;
#X connect 23 0 50 0;
#X connect 24 0 63 0;
#X connect 25 0 23 1;
#X connect 25 0 24 0;
#X connect 26 0 51 0;
#X connect 27 0 64 0;
#X connect 28 0 26 1;
#X connect 28 0 27 0;
#X connect 29 0 52 0;
#X connect 30 0 65 0;
#X connect 31 0 29 1;
#X connect 31 0 30 0;
#X connect 32 0 53 0;
#X connect 33 0 66 0;
#X connect 34 0 32 1;
#X connect 34 0 33 0;
#X connect 35 0 54 0;
#X connect 36 0 67 0;
#X connect 37 0 35 1;
#X connect 37 0 36 0;
#X connect 38 0 55 0;
#X connect 39 0 68 0;
#X connect 40 0 38 1;
#X connect 40 0 39 0;
#X connect 41 0 56 0;
#X connect 42 0 69 0;
#X connect 43 0 41 1;
#X connect 43 0 42 0;
#X connect 57 0 5 0;
#X connect 58 0 8 0;
#X connect 59 0 11 0;
#X connect 60 0 14 0;
#X connect 61 0 17 0;
#X connect 62 0 20 0;
#X connect 63 0 23 0;
#X connect 64 0 26 0;
#X connect 65 0 29 0;
#X connect 66 0 32 0;
#X connect 67 0 35 0;
#X connect 68 0 38 0;
#X connect 69 0 41 0;
