#N canvas 110 143 918 421 10;
#X obj 32 25 inlet;
#X obj 276 42 select 11 12 13 14 15 16 17 18 19 20;
#X obj 511 42 select 21 22 23 24 25 26 27 28 29 30;
#X obj 744 42 select 31 32 33 34 35;
#X msg 98 87 40;
#X msg 114 107 42;
#X msg 129 127 44;
#X msg 145 147 46;
#X msg 160 167 48;
#X msg 176 187 50;
#X msg 191 207 52;
#X msg 207 227 54;
#X msg 222 247 56;
#X msg 238 267 58;
#X msg 276 68 60;
#X msg 297 88 63;
#X msg 318 108 66;
#X msg 339 128 69;
#X msg 361 148 72;
#X msg 382 168 76;
#X msg 403 188 80;
#X msg 425 208 84;
#X msg 446 228 88;
#X msg 467 248 92;
#X msg 511 68 96;
#X msg 532 88 100;
#X msg 553 108 104;
#X msg 574 128 108;
#X msg 596 148 112;
#X msg 617 168 116;
#X msg 638 188 120;
#X msg 660 208 126;
#X msg 681 228 132;
#X msg 702 248 138;
#X msg 744 68 144;
#X msg 768 88 152;
#X msg 793 108 160;
#X msg 817 128 168;
#X msg 842 148 176;
#X obj 83 42 select 0 1 2 3 4 5 6 7 8 9 10;
#X msg 83 67 20;
#X obj 463 363 outlet;
#X obj 83 314 any;
#X obj 276 314 any;
#X obj 511 314 any;
#X obj 744 314 any;
#X connect 0 0 39 0;
#X connect 0 0 1 0;
#X connect 0 0 2 0;
#X connect 0 0 3 0;
#X connect 1 0 14 0;
#X connect 1 1 15 0;
#X connect 1 2 16 0;
#X connect 1 3 17 0;
#X connect 1 4 18 0;
#X connect 1 5 19 0;
#X connect 1 6 20 0;
#X connect 1 7 21 0;
#X connect 1 8 22 0;
#X connect 1 9 23 0;
#X connect 2 0 24 0;
#X connect 2 1 25 0;
#X connect 2 2 26 0;
#X connect 2 3 27 0;
#X connect 2 4 28 0;
#X connect 2 5 29 0;
#X connect 2 6 30 0;
#X connect 2 7 31 0;
#X connect 2 8 32 0;
#X connect 2 9 33 0;
#X connect 3 0 34 0;
#X connect 3 1 35 0;
#X connect 3 2 36 0;
#X connect 3 3 37 0;
#X connect 3 4 38 0;
#X connect 4 0 42 0;
#X connect 5 0 42 0;
#X connect 6 0 42 0;
#X connect 7 0 42 0;
#X connect 8 0 42 0;
#X connect 9 0 42 0;
#X connect 10 0 42 0;
#X connect 11 0 42 0;
#X connect 12 0 42 0;
#X connect 13 0 42 0;
#X connect 14 0 43 0;
#X connect 15 0 43 0;
#X connect 16 0 43 0;
#X connect 17 0 43 0;
#X connect 18 0 43 0;
#X connect 19 0 43 0;
#X connect 20 0 43 0;
#X connect 21 0 43 0;
#X connect 22 0 43 0;
#X connect 23 0 43 0;
#X connect 24 0 44 0;
#X connect 25 0 44 0;
#X connect 26 0 44 0;
#X connect 27 0 44 0;
#X connect 28 0 44 0;
#X connect 29 0 44 0;
#X connect 30 0 44 0;
#X connect 31 0 44 0;
#X connect 32 0 44 0;
#X connect 33 0 44 0;
#X connect 34 0 45 0;
#X connect 35 0 45 0;
#X connect 36 0 45 0;
#X connect 37 0 45 0;
#X connect 38 0 45 0;
#X connect 39 0 40 0;
#X connect 39 1 4 0;
#X connect 39 2 5 0;
#X connect 39 3 6 0;
#X connect 39 4 7 0;
#X connect 39 5 8 0;
#X connect 39 6 9 0;
#X connect 39 7 10 0;
#X connect 39 8 11 0;
#X connect 39 9 12 0;
#X connect 39 10 13 0;
#X connect 40 0 42 0;
#X connect 42 0 41 0;
#X connect 43 0 41 0;
#X connect 44 0 41 0;
#X connect 45 0 41 0;
