#N canvas 232 54 729 479 10;
#X obj 206 163 unpack f f;
#X obj 59 129 inlet;
#X obj 347 227 ==;
#X obj 304 227 ==;
#X obj 435 58 cup;
#X obj 59 48 bng 10 250 50 0 empty empty empty 0 -6 0 10 -262144 -1
-1;
#X msg 571 41 0;
#X floatatom 435 78 5 0 0 0 - - -;
#X obj 162 146 spigot;
#X floatatom 195 129 1 0 0 0 - - -;
#X obj 402 146 spigot;
#X floatatom 435 129 1 0 0 0 - - -;
#X msg 111 112 0;
#X msg 140 112 1;
#X obj 435 95 moses 1;
#X obj 445 163 unpack f f;
#X obj 362 180 pipe 1;
#X obj 319 180 pipe 1;
#X obj 515 244 &&;
#X floatatom 515 264 5 0 0 0 - - -;
#X obj 571 299 s erase_step;
#X obj 571 278 sel 1;
#X msg 571 247 set 0;
#X obj 486 112 moses 2;
#X obj 59 385 outlet;
#X obj 571 363 outlet;
#X obj 59 326 spigot;
#X floatatom 140 312 1 0 0 0 - - -;
#X msg 304 295 0;
#X obj 162 363 outlet;
#X obj 59 346 unpack f f;
#X obj 571 92 r array_clear;
#X obj 571 112 r array_clear2;
#X connect 0 0 3 1;
#X connect 0 1 2 1;
#X connect 1 0 5 0;
#X connect 1 0 10 0;
#X connect 1 0 8 0;
#X connect 1 0 26 0;
#X connect 2 0 18 1;
#X connect 3 0 18 0;
#X connect 4 0 7 0;
#X connect 5 0 4 0;
#X connect 6 0 4 0;
#X connect 7 0 14 0;
#X connect 8 0 0 0;
#X connect 9 0 8 1;
#X connect 10 0 15 0;
#X connect 11 0 10 1;
#X connect 12 0 9 0;
#X connect 13 0 9 0;
#X connect 13 0 27 0;
#X connect 14 0 13 0;
#X connect 14 0 11 0;
#X connect 14 1 23 0;
#X connect 14 1 12 0;
#X connect 15 0 3 0;
#X connect 15 0 17 0;
#X connect 15 1 2 0;
#X connect 15 1 16 0;
#X connect 16 0 2 1;
#X connect 17 0 3 1;
#X connect 18 0 19 0;
#X connect 19 0 21 0;
#X connect 21 0 6 0;
#X connect 21 0 22 0;
#X connect 21 0 20 0;
#X connect 21 0 25 0;
#X connect 21 0 28 0;
#X connect 22 0 19 0;
#X connect 23 0 11 0;
#X connect 26 0 30 0;
#X connect 27 0 26 1;
#X connect 28 0 27 0;
#X connect 30 0 24 0;
#X connect 30 1 29 0;
#X connect 31 0 6 0;
#X connect 32 0 6 0;
