#N canvas 387 331 623 337 10;
#X obj 172 157 spigot;
#X floatatom 205 140 1 0 0 0 - - -;
#X obj 269 157 spigot;
#X floatatom 302 140 1 0 0 0 - - -;
#X msg 39 123 1;
#X msg 67 123 0;
#X msg 302 51 1;
#X msg 205 51 0;
#X obj 524 140 inlet;
#X obj 519 174 outlet;
#X obj 95 106 r solid_sel;
#X obj 330 34 r broken_sel;
#X obj 172 188 spigot;
#X floatatom 216 174 1 0 0 0 - - -;
#X obj 269 188 spigot;
#X floatatom 313 174 1 0 0 0 - - -;
#X obj 443 248 r solid_off;
#X msg 443 157 1;
#X msg 478 157 0;
#X obj 172 222 s solid_play;
#X msg 142 205 1;
#X obj 269 248 s broken_play;
#X connect 0 0 12 0;
#X connect 0 0 9 0;
#X connect 1 0 0 1;
#X connect 2 0 14 0;
#X connect 2 0 9 0;
#X connect 3 0 2 1;
#X connect 4 0 1 0;
#X connect 5 0 3 0;
#X connect 6 0 3 0;
#X connect 7 0 1 0;
#X connect 8 0 2 0;
#X connect 8 0 0 0;
#X connect 8 0 18 0;
#X connect 10 0 5 0;
#X connect 10 0 4 0;
#X connect 11 0 7 0;
#X connect 11 0 6 0;
#X connect 12 0 20 0;
#X connect 13 0 12 1;
#X connect 14 0 21 0;
#X connect 15 0 14 1;
#X connect 16 0 17 0;
#X connect 17 0 13 0;
#X connect 17 0 15 0;
#X connect 18 0 13 0;
#X connect 18 0 15 0;
#X connect 20 0 19 0;
