#N canvas 1164 334 376 233 10;
#X obj 92 97 moses \$1;
#X obj 137 117 moses \$2;
#X obj 211 80 inlet;
#X obj 211 100 inlet;
#X floatatom 137 137 5 0 0 0 - - -;
#X obj 137 154 outlet;
#X obj 92 47 inlet;
#X floatatom 250 97 5 0 0 0 - - -;
#X floatatom 250 117 5 0 0 0 - - -;
#X connect 0 1 1 0;
#X connect 1 0 4 0;
#X connect 2 0 0 1;
#X connect 2 0 7 0;
#X connect 3 0 1 1;
#X connect 3 0 8 0;
#X connect 4 0 5 0;
#X connect 6 0 0 0;
