#N canvas 205 130 740 482 10;
#X obj 402 54 inlet;
#X obj 402 94 array_gate;
#X obj 402 74 unpack f f;
#X obj 240 37 inlet;
#X obj 155 156 pipe 2;
#X obj 316 156 pipe 1;
#X floatatom 273 111 1 0 0 0 - - -;
#X msg 47 173 bang;
#X msg 47 382 bang;
#X obj 47 207 \$1 \$2;
#X obj 213 368 s send_osc;
#X obj 47 155 bng 15 50 10 0 empty empty empty 0 -6 0 10 -262144 -1
-1;
#X obj 47 416 spigot;
#X obj 213 336 spigot;
#X obj 246 299 uni_timer;
#X floatatom 246 319 1 0 0 0 - - -;
#X obj 47 135 delay 60;
#X obj 92 399 delay 60;
#X msg 213 210 send /box/led \$1 \$2 1;
#X msg 47 351 send /box/led \$1 \$2 0;
#X floatatom 439 402 1 0 0 0 - - -;
#X msg 439 173 1;
#X msg 516 385 0;
#X obj 516 345 r array_clear2;
#X obj 516 325 r play+clear;
#X obj 516 365 r array_clear;
#X obj 516 189 r play+repeat;
#X obj 483 252 spigot;
#X floatatom 516 234 1 0 0 0 - - -;
#X msg 516 209 1;
#X obj 483 169 r stop_metro;
#X obj 240 139 spigot;
#X obj 516 125 sel 0;
#X obj 277 37 inlet;
#X obj 213 190 \$1 \$2;
#X obj 240 71 pack f f;
#X obj 314 54 pipe f f 2;
#X msg 516 305 0;
#X floatatom 663 125 1 0 0 0 - - -;
#X obj 622 139 spigot;
#X obj 609 269 bng 10 250 50 0 empty empty empty 0 -6 0 10 -262144
-1 -1;
#X obj 622 279 delay 200;
#X connect 0 0 2 0;
#X connect 1 0 6 0;
#X connect 1 1 6 0;
#X connect 2 0 1 0;
#X connect 2 1 1 1;
#X connect 3 0 36 0;
#X connect 4 0 7 0;
#X connect 5 0 21 0;
#X connect 6 0 31 1;
#X connect 6 0 32 0;
#X connect 6 0 38 0;
#X connect 7 0 16 0;
#X connect 7 0 34 0;
#X connect 8 0 17 0;
#X connect 9 0 19 0;
#X connect 11 0 9 0;
#X connect 12 0 7 0;
#X connect 13 0 10 0;
#X connect 14 0 15 0;
#X connect 15 0 13 1;
#X connect 16 0 11 0;
#X connect 17 0 12 0;
#X connect 18 0 13 0;
#X connect 19 0 10 0;
#X connect 19 0 8 0;
#X connect 20 0 12 1;
#X connect 21 0 20 0;
#X connect 22 0 20 0;
#X connect 23 0 22 0;
#X connect 24 0 22 0;
#X connect 24 0 37 0;
#X connect 25 0 22 0;
#X connect 26 0 29 0;
#X connect 26 0 22 0;
#X connect 27 0 40 0;
#X connect 28 0 27 1;
#X connect 29 0 28 0;
#X connect 30 0 27 0;
#X connect 31 0 5 0;
#X connect 31 0 4 0;
#X connect 31 0 34 1;
#X connect 32 0 22 0;
#X connect 33 0 36 1;
#X connect 34 0 18 0;
#X connect 34 0 9 1;
#X connect 35 0 31 0;
#X connect 36 0 35 0;
#X connect 36 1 35 1;
#X connect 37 0 28 0;
#X connect 38 0 39 1;
#X connect 39 0 5 0;
#X connect 39 0 4 0;
#X connect 40 0 41 0;
#X connect 41 0 39 0;
