#N canvas 133 5 824 589 10;
#X obj 69 142 moses 1;
#X obj 385 159 bng 15 250 50 0 empty empty empty 0 -6 0 10 -262144
-1 -1;
#X obj 69 281 bng 15 250 50 0 empty empty empty 0 -6 0 10 -262144 -1
-1;
#X msg 208 333 \$1 0 \$2;
#X obj 208 310 pack f f;
#X obj 275 188 pack f f f;
#X msg 275 211 \$1 \$2 \$3;
#X floatatom 476 174 5 0 0 0 - - -;
#X floatatom 425 174 5 0 0 0 - - -;
#X floatatom 527 174 5 0 0 0 - - -;
#X floatatom 109 296 5 0 0 0 - - -;
#X floatatom 160 296 5 0 0 0 - - -;
#X obj 425 259 inlet;
#X msg 425 279 set \$1;
#X obj 275 350 noteout;
#X msg 476 137 set \$1;
#X msg 569 157 set \$1;
#X msg 160 250 set \$1;
#X obj 69 230 r solid_off;
#X obj 476 117 r velocity_select;
#X obj 569 137 r channel_select;
#X obj 160 230 r channel_select;
#X obj 491 276 bng 10 250 50 0 empty empty empty 0 -6 0 10 -262144
-1 -1;
#X obj 69 122 spigot;
#X floatatom 102 106 1 0 0 0 - - -;
#X obj 672 72 inlet;
#X obj 709 72 inlet;
#X obj 385 271 bng 10 250 50 0 empty empty empty 0 -6 0 10 -228856
-1 -1;
#X obj 554 355 r broken_in;
#X obj 554 375 unpack f f;
#X obj 657 392 ==;
#X obj 694 392 ==;
#X obj 599 409 &&;
#X obj 342 271 bng 10 250 50 0 empty empty empty 0 -6 0 10 -228856
-1 -1;
#X obj 385 426 sel 1;
#X obj 206 406 r broken_metro;
#X obj 69 416 bng 10 250 50 0 empty empty empty 0 -6 0 10 -228856 -1
-1;
#X msg 82 426 0;
#X obj 342 443 metro;
#X obj 342 464 cup;
#X floatatom 381 480 5 0 0 0 - - -;
#X obj 342 494 sel 1;
#X obj 206 426 + 2;
#X obj 82 447 pipe 1;
#X obj 69 48 r solid_play;
#X msg 275 89 0;
#X obj 275 68 r array_clear;
#X obj 425 149 bng 10 250 50 0 empty empty empty 0 -6 0 10 -262144
-1 -1;
#X obj 342 333 r audition_off;
#X obj 425 239 spigot;
#X floatatom 458 223 1 0 0 0 - audition_on -;
#X obj 275 47 r array_clear2;
#X obj 160 89 array_gate;
#X connect 0 0 2 0;
#X connect 0 1 1 0;
#X connect 1 0 9 0;
#X connect 1 0 7 0;
#X connect 1 0 8 0;
#X connect 2 0 11 0;
#X connect 2 0 10 0;
#X connect 2 0 36 0;
#X connect 3 0 14 0;
#X connect 4 0 3 0;
#X connect 5 0 6 0;
#X connect 6 0 14 0;
#X connect 7 0 5 1;
#X connect 8 0 5 0;
#X connect 9 0 5 2;
#X connect 10 0 4 0;
#X connect 11 0 4 1;
#X connect 12 0 13 0;
#X connect 12 0 22 0;
#X connect 13 0 8 0;
#X connect 13 0 10 0;
#X connect 13 0 49 0;
#X connect 15 0 7 0;
#X connect 16 0 9 0;
#X connect 17 0 11 0;
#X connect 18 0 2 0;
#X connect 19 0 15 0;
#X connect 20 0 16 0;
#X connect 21 0 17 0;
#X connect 23 0 0 0;
#X connect 24 0 23 1;
#X connect 25 0 30 1;
#X connect 25 0 52 0;
#X connect 26 0 31 1;
#X connect 26 0 52 1;
#X connect 27 0 1 0;
#X connect 28 0 29 0;
#X connect 29 0 30 0;
#X connect 29 1 31 0;
#X connect 30 0 32 0;
#X connect 31 0 32 1;
#X connect 32 0 34 0;
#X connect 33 0 2 0;
#X connect 34 0 27 0;
#X connect 34 0 38 0;
#X connect 35 0 42 0;
#X connect 36 0 37 0;
#X connect 37 0 38 0;
#X connect 37 0 43 0;
#X connect 38 0 39 0;
#X connect 39 0 40 0;
#X connect 39 0 41 0;
#X connect 41 0 33 0;
#X connect 42 0 38 1;
#X connect 43 0 39 0;
#X connect 44 0 23 0;
#X connect 46 0 45 0;
#X connect 47 0 1 0;
#X connect 48 0 33 0;
#X connect 49 0 47 0;
#X connect 50 0 49 1;
#X connect 51 0 45 0;
#X connect 52 0 24 0;
#X connect 52 1 24 0;
