#N canvas 358 110 247 250 10;
#X obj 73 93 bng 10 250 50 0 empty empty empty 0 -6 0 10 -262144 -1
-1;
#X obj 158 120 line;
#X msg 30 103 36;
#X msg 100 103 2000;
#X obj 158 140 int;
#X obj 158 198 outlet;
#X obj 73 27 r init_def;
#X msg 158 44 0;
#X obj 73 47 pipe 1;
#X connect 0 0 3 0;
#X connect 0 0 2 0;
#X connect 1 0 4 0;
#X connect 2 0 1 0;
#X connect 3 0 1 1;
#X connect 4 0 5 0;
#X connect 6 0 8 0;
#X connect 6 0 7 0;
#X connect 7 0 1 0;
#X connect 8 0 0 0;
