#N canvas 384 98 546 318 10;
#X obj 74 85 t b b;
#X msg 74 105 0;
#X obj 74 186 +;
#X obj 99 186 f;
#X msg 45 169 1;
#X msg 89 166 0;
#X obj 45 241 bang;
#X obj 154 149 bang;
#X obj 154 102 arraysize col;
#X obj 127 224 t b f;
#X obj 74 72 bng 10 250 50 0 empty empty empty 0 -6 0 10 -262144 -1
-1;
#X obj 74 32 r from_array;
#X obj 74 52 pipe 1;
#X obj 265 183 cup;
#X floatatom 312 220 5 0 0 0 - - -;
#X obj 347 234 - 12;
#X obj 347 185 abs;
#X floatatom 443 202 5 0 0 0 - - -;
#X obj 443 258 outlet;
#X obj 127 203 moses;
#X obj 265 203 + 1;
#X obj 189 241 tabread col;
#X obj 265 258 sel 0;
#X connect 0 0 1 0;
#X connect 0 1 8 0;
#X connect 1 0 2 0;
#X connect 2 0 3 0;
#X connect 2 0 19 0;
#X connect 3 0 2 1;
#X connect 4 0 2 0;
#X connect 5 0 2 1;
#X connect 5 0 13 0;
#X connect 6 0 4 0;
#X connect 7 0 5 0;
#X connect 8 0 19 1;
#X connect 9 0 6 0;
#X connect 9 1 21 0;
#X connect 10 0 0 0;
#X connect 11 0 12 0;
#X connect 12 0 10 0;
#X connect 13 0 20 0;
#X connect 14 0 15 0;
#X connect 15 0 16 0;
#X connect 16 0 17 0;
#X connect 17 0 18 0;
#X connect 19 0 9 0;
#X connect 19 1 7 0;
#X connect 20 0 14 0;
#X connect 21 0 22 0;
#X connect 22 0 13 0;
