#N canvas -33 447 832 403 12;
#X floatatom 48 223 0 0 0 0 - - -;
#X obj 48 133 cputime;
#X obj 48 -12 loadbang;
#X obj 48 73 metro 1000;
#X msg 48 18 1;
#X obj 48 103 t b b;
#X obj 48 193 * 0.1;
#X obj 48 163 int;
#X text 93 46 <-- on/off;
#X text 81 224 CPU load in percent;
#X obj 48 357 s cpu-load-r;
#X obj 48 253 ftos;
#X msg 48 283 label \$1;
#X obj 48 48 tgl 15 0 empty empty empty 17 7 0 10 -262144 -1 -1 1 1
;
#X obj -11 73 sel 0;
#X msg -11 103 label;
#X msg 124 283 color \$1 12;
#X obj 124 253 expr if($f1>80 \, 13 \, if($f1>50 \, 14 \, 1));
#X obj 609 185 s cpu-meter-on-r;
#X msg 313 119 color 28 28 0;
#X msg 224 119 color 0 0 28;
#X obj 264 72 sel 0;
#X msg 234 99 label OFF;
#X msg 323 99 label ON;
#X obj 549 35 r cpu-meter-on;
#X obj 553 72 bng 15 250 50 0 empty empty empty 17 7 0 10 -262144 -1
-1;
#X connect 0 0 11 0;
#X connect 0 0 17 0;
#X connect 1 0 7 0;
#X connect 2 0 4 0;
#X connect 3 0 5 0;
#X connect 4 0 13 0;
#X connect 5 0 1 0;
#X connect 5 1 1 1;
#X connect 6 0 0 0;
#X connect 7 0 6 0;
#X connect 11 0 12 0;
#X connect 12 0 10 0;
#X connect 13 0 3 0;
#X connect 13 0 14 0;
#X connect 13 0 21 0;
#X connect 14 0 15 0;
#X connect 15 0 10 0;
#X connect 16 0 10 0;
#X connect 17 0 16 0;
#X connect 19 0 18 0;
#X connect 20 0 18 0;
#X connect 21 0 20 0;
#X connect 21 0 22 0;
#X connect 21 1 19 0;
#X connect 21 1 23 0;
#X connect 22 0 18 0;
#X connect 23 0 18 0;
#X connect 24 0 25 0;
#X connect 25 0 13 0;
