#N canvas 681 442 564 207 10;
#X obj 377 69 t b;
#X obj 377 15 f;
#X obj 377 96 f;
#X msg 446 95 0;
#X obj 446 68 t b f;
#X msg -12 -12 \; pd dsp 1;
#X obj -22 -39 r master-gain;
#X obj 377 -39 r master-mute;
#X msg 377 -12 bang;
#X obj -22 136 s master-gain-label;
#X obj -22 28 * 100;
#X obj -22 55 int;
#X obj 446 -12 r master-gain;
#X obj 377 123 s master-gain-r;
#X obj 377 42 moses 0.01;
#X obj 446 15 moses 0.01;
#X msg 97 89 label_pos \$1 \$2;
#X obj 97 62 pack f f;
#X obj 142 8 expr 104 + 117*(1-$f1);
#X obj 97 35 expr if ($f1==1 \, 10 \, if ($f1>=.1 \, 17 \, 24));
#X obj -22 82 ftos;
#X msg -22 109 label \$1;
#X connect 0 0 2 0;
#X connect 1 0 14 0;
#X connect 2 0 13 0;
#X connect 3 0 13 0;
#X connect 4 0 3 0;
#X connect 6 0 5 0;
#X connect 6 0 10 0;
#X connect 6 0 18 0;
#X connect 6 0 19 0;
#X connect 7 0 8 0;
#X connect 8 0 1 0;
#X connect 10 0 11 0;
#X connect 11 0 20 0;
#X connect 12 0 1 1;
#X connect 12 0 15 0;
#X connect 14 0 0 0;
#X connect 14 1 4 0;
#X connect 15 1 2 1;
#X connect 16 0 9 0;
#X connect 17 0 16 0;
#X connect 18 0 17 1;
#X connect 19 0 17 0;
#X connect 20 0 21 0;
#X connect 21 0 9 0;
