#N canvas 551 7 694 662 10;
#X obj 222 2 catch~ 0-group-L;
#X obj 332 2 catch~ 0-group-R;
#X obj 223 49 *~;
#X obj 238 22 r 0-gain;
#X obj 333 49 *~;
#X obj 223 167 *~;
#X obj 333 167 *~;
#X obj 222 120 catch~ 1-group-L;
#X obj 332 120 catch~ 1-group-R;
#X obj 238 140 r 1-gain;
#X obj 223 285 *~;
#X obj 333 285 *~;
#X obj 223 403 *~;
#X obj 333 403 *~;
#X obj 222 238 catch~ 2-group-L;
#X obj 332 238 catch~ 2-group-R;
#X obj 238 258 r 2-gain;
#X obj 222 356 catch~ 3-group-L;
#X obj 332 356 catch~ 3-group-R;
#X obj 238 376 r 3-gain;
#X obj 463 49 *~;
#X obj 573 49 *~;
#X obj 463 167 *~;
#X obj 573 167 *~;
#X obj 463 285 *~;
#X obj 573 285 *~;
#X obj 463 403 *~;
#X obj 573 403 *~;
#X obj 462 2 catch~ 4-group-L;
#X obj 572 2 catch~ 4-group-R;
#X obj 478 22 r 4-gain;
#X obj 462 120 catch~ 5-group-L;
#X obj 572 120 catch~ 5-group-R;
#X obj 478 140 r 5-gain;
#X obj 462 238 catch~ 6-group-L;
#X obj 572 238 catch~ 6-group-R;
#X obj 462 356 catch~ 7-group-L;
#X obj 478 258 r 6-gain;
#X obj 478 376 r 7-gain;
#X obj 572 356 catch~ 7-group-R;
#X obj 0 0 cnv 15 206 148 empty mixer-label-r Mixer_8_Groups_x_1_Master
14 8 0 10 -13381 -262144 0;
#X obj 82 237 s master-gain-r;
#X obj 72 264 s 0-gain-r;
#X obj 62 284 s 1-gain-r;
#X obj 52 305 s 2-gain-r;
#X obj 42 325 s 3-gain-r;
#X obj 32 345 s 4-gain-r;
#X obj 22 365 s 5-gain-r;
#X obj 12 385 s 6-gain-r;
#X obj 2 405 s 7-gain-r;
#X obj 171 18 vsl 35 115 0 1 0 0 master-gain master-gain-r empty 1
-8 0 10 -133184 -1 -1 11172 1;
#X obj 11 18 vsl 20 127 0 1 0 0 0-gain 0-gain-r empty 0 -9 0 10 -66577
-162280 -1 10080 0;
#X obj 171 138 vsl 35 7 0 100 0 0 master-mute master-mute-r mute 4
4 0 11 -262144 -262144 -1 0 1;
#X obj 31 18 vsl 20 127 0 1 0 0 1-gain 1-gain-r empty 0 -9 0 10 -66577
-162280 -1 10080 0;
#X obj 51 18 vsl 20 127 0 1 0 0 2-gain 2-gain-r empty 0 -9 0 10 -66577
-162280 -1 10080 0;
#X obj 71 18 vsl 20 127 0 1 0 0 3-gain 3-gain-r empty 0 -9 0 10 -66577
-162280 -1 10080 0;
#X obj 91 18 vsl 20 127 0 1 0 0 4-gain 4-gain-r empty 0 -9 0 10 -66577
-162280 -1 10080 0;
#X obj 111 18 vsl 20 127 0 1 0 0 5-gain 5-gain-r empty 0 -9 0 10 -66577
-162280 -1 10080 0;
#X obj 131 18 vsl 20 127 0 1 0 0 6-gain 6-gain-r empty 0 -9 0 10 -66577
-162280 -1 10080 0;
#X obj 151 18 vsl 20 127 0 1 0 0 7-gain 7-gain-r empty 0 -9 0 10 -66577
-162280 -1 10080 0;
#X obj 171 0 cnv 8 35 15 empty master-gain-label 98 17 106 1 13 -45076
-262144 0;
#X obj 2 190 r load-gain;
#X obj 222 443 throw~ masterleft;
#X obj 332 443 throw~ masterright;
#X obj 232 69 throw~ pre-left;
#X obj 342 69 throw~ pre-right;
#X obj 472 69 throw~ pre-left;
#X obj 582 69 throw~ pre-right;
#X obj 472 187 throw~ pre-left;
#X obj 342 187 throw~ pre-right;
#X obj 232 187 throw~ pre-left;
#X obj 582 187 throw~ pre-right;
#X obj 232 305 throw~ pre-left;
#X obj 342 305 throw~ pre-right;
#X obj 472 305 throw~ pre-left;
#X obj 582 305 throw~ pre-right;
#X obj 582 423 throw~ pre-right;
#X obj 472 423 throw~ pre-left;
#X obj 342 423 throw~ pre-right;
#X obj 232 423 throw~ pre-left;
#X obj 462 443 throw~ masterleft;
#X obj 572 443 throw~ masterright;
#X obj 222 89 throw~ masterleft;
#X obj 332 89 throw~ masterright;
#X obj 462 89 throw~ masterleft;
#X obj 572 89 throw~ masterright;
#X obj 222 207 throw~ masterleft;
#X obj 332 207 throw~ masterright;
#X obj 462 207 throw~ masterleft;
#X obj 572 207 throw~ masterright;
#X obj 222 325 throw~ masterleft;
#X obj 332 325 throw~ masterright;
#X obj 462 325 throw~ masterleft;
#X obj 572 325 throw~ masterright;
#X obj 222 483 catch~ pre-left;
#X obj 332 483 catch~ pre-right;
#X obj 222 513 send~ seq-left;
#X obj 332 513 send~ seq-right;
#X text 439 481 send all button press audio;
#X text 439 511 to audio recorders;
#X connect 0 0 2 0;
#X connect 1 0 4 0;
#X connect 2 0 64 0;
#X connect 2 0 82 0;
#X connect 3 0 2 1;
#X connect 3 0 4 1;
#X connect 4 0 65 0;
#X connect 4 0 83 0;
#X connect 5 0 70 0;
#X connect 5 0 86 0;
#X connect 6 0 69 0;
#X connect 6 0 87 0;
#X connect 7 0 5 0;
#X connect 8 0 6 0;
#X connect 9 0 5 1;
#X connect 9 0 6 1;
#X connect 10 0 72 0;
#X connect 10 0 90 0;
#X connect 11 0 73 0;
#X connect 11 0 91 0;
#X connect 12 0 79 0;
#X connect 12 0 62 0;
#X connect 13 0 78 0;
#X connect 13 0 63 0;
#X connect 14 0 10 0;
#X connect 15 0 11 0;
#X connect 16 0 10 1;
#X connect 16 0 11 1;
#X connect 17 0 12 0;
#X connect 18 0 13 0;
#X connect 19 0 12 1;
#X connect 19 0 13 1;
#X connect 20 0 66 0;
#X connect 20 0 84 0;
#X connect 21 0 67 0;
#X connect 21 0 85 0;
#X connect 22 0 68 0;
#X connect 22 0 88 0;
#X connect 23 0 71 0;
#X connect 23 0 89 0;
#X connect 24 0 74 0;
#X connect 24 0 92 0;
#X connect 25 0 75 0;
#X connect 25 0 93 0;
#X connect 26 0 77 0;
#X connect 26 0 80 0;
#X connect 27 0 76 0;
#X connect 27 0 81 0;
#X connect 28 0 20 0;
#X connect 29 0 21 0;
#X connect 30 0 20 1;
#X connect 30 0 21 1;
#X connect 31 0 22 0;
#X connect 32 0 23 0;
#X connect 33 0 22 1;
#X connect 33 0 23 1;
#X connect 34 0 24 0;
#X connect 35 0 25 0;
#X connect 36 0 26 0;
#X connect 37 0 24 1;
#X connect 37 0 25 1;
#X connect 38 0 26 1;
#X connect 38 0 27 1;
#X connect 39 0 27 0;
#X connect 61 0 41 0;
#X connect 61 0 42 0;
#X connect 61 0 43 0;
#X connect 61 0 44 0;
#X connect 61 0 45 0;
#X connect 61 0 46 0;
#X connect 61 0 47 0;
#X connect 61 0 48 0;
#X connect 61 0 49 0;
#X connect 94 0 96 0;
#X connect 95 0 97 0;
#X coords 0 -1 1 1 206 148 1 0 0;
