#N canvas 269 100 1003 378 10;
#X declare -path ./lib/file;
#X declare -path ./lib/sample;
#X declare -path ./lib/ui;
#X declare -path ./lib/sequence;
#X declare -path ./lib/utility;
#X obj 528 -115 output~;
#X obj 528 -75 OSC_socket;
#N canvas 170 309 311 132 groups 0;
#N canvas 4 4 1351 721 mlr_group_smp_press 0;
#X obj -45 190 r 1-group;
#X obj -60 -60 unpack f f f;
#X obj -60 163 r 1-row-press;
#X obj -60 191 bng 15 250 50 0 empty empty empty 17 7 0 10 -262144
-1 -1;
#X obj -26 -33 spigot;
#X obj -60 217 int;
#X msg -16 -6 \; \$1-row-press bang;
#X obj 22 191 bng 15 250 50 0 empty empty empty 17 7 0 10 -262144 -1
-1;
#X obj 22 217 int;
#X obj 22 163 r 2-row-press;
#X obj 37 190 r 2-group;
#X obj 104 191 bng 15 250 50 0 empty empty empty 17 7 0 10 -262144
-1 -1;
#X obj 104 217 int;
#X obj 186 191 bng 15 250 50 0 empty empty empty 17 7 0 10 -262144
-1 -1;
#X obj 186 217 int;
#X obj 104 163 r 3-row-press;
#X obj 119 190 r 3-group;
#X obj 186 163 r 4-row-press;
#X obj 201 190 r 4-group;
#X obj -26 88 pack f f;
#X msg -26 115 \; stop-group \$1 \$2;
#X obj 268 191 bng 15 250 50 0 empty empty empty 17 7 0 10 -262144
-1 -1;
#X obj 268 217 int;
#X obj 350 191 bng 15 250 50 0 empty empty empty 17 7 0 10 -262144
-1 -1;
#X obj 350 217 int;
#X obj 432 191 bng 15 250 50 0 empty empty empty 17 7 0 10 -262144
-1 -1;
#X obj 432 217 int;
#X obj 268 163 r 5-row-press;
#X obj 350 163 r 6-row-press;
#X obj 432 163 r 7-row-press;
#X obj 283 190 r 5-group;
#X obj 365 190 r 6-group;
#X obj 447 190 r 7-group;
#X text 78 125 if group # matches & row # does not \, sample play is
stopped;
#X obj -60 -87 r smp-press;
#X obj 483 356 s group-smp-press;
#X text 591 354 group# for button pressed;
#X obj 19 31 r group-smp-press;
#X text 78 115 row#-group# \, sent to each sample player;
#X obj 596 191 bng 15 250 50 0 empty empty empty 17 7 0 10 -262144
-1 -1;
#X obj 596 217 int;
#X obj 678 191 bng 15 250 50 0 empty empty empty 17 7 0 10 -262144
-1 -1;
#X obj 678 217 int;
#X obj 766 191 bng 15 250 50 0 empty empty empty 17 7 0 10 -262144
-1 -1;
#X obj 766 217 int;
#X obj 854 191 bng 15 250 50 0 empty empty empty 17 7 0 10 -262144
-1 -1;
#X obj 854 217 int;
#X obj 942 191 bng 15 250 50 0 empty empty empty 17 7 0 10 -262144
-1 -1;
#X obj 942 217 int;
#X obj 1030 191 bng 15 250 50 0 empty empty empty 17 7 0 10 -262144
-1 -1;
#X obj 1030 217 int;
#X obj 1118 191 bng 15 250 50 0 empty empty empty 17 7 0 10 -262144
-1 -1;
#X obj 1118 217 int;
#X obj 596 163 r 9-row-press;
#X obj 678 163 r 10-row-press;
#X obj 766 163 r 11-row-press;
#X obj 854 163 r 12-row-press;
#X obj 942 163 r 13-row-press;
#X obj 1030 163 r 14-row-press;
#X obj 1118 163 r 15-row-press;
#X obj 611 190 r 9-group;
#X obj 693 190 r 10-group;
#X obj 781 190 r 11-group;
#X obj 869 190 r 12-group;
#X obj 957 190 r 13-group;
#X obj 1045 190 r 14-group;
#X obj 1133 190 r 15-group;
#X obj -60 431 bng 15 250 50 0 empty empty empty 17 7 0 10 -262144
-1 -1;
#X obj -60 457 int;
#X obj 28 431 bng 15 250 50 0 empty empty empty 17 7 0 10 -262144 -1
-1;
#X obj 28 457 int;
#X obj 116 431 bng 15 250 50 0 empty empty empty 17 7 0 10 -262144
-1 -1;
#X obj 116 457 int;
#X obj 204 431 bng 15 250 50 0 empty empty empty 17 7 0 10 -262144
-1 -1;
#X obj 204 457 int;
#X obj 292 431 bng 15 250 50 0 empty empty empty 17 7 0 10 -262144
-1 -1;
#X obj 292 457 int;
#X obj 380 431 bng 15 250 50 0 empty empty empty 17 7 0 10 -262144
-1 -1;
#X obj 380 457 int;
#X obj 468 431 bng 15 250 50 0 empty empty empty 17 7 0 10 -262144
-1 -1;
#X obj 468 457 int;
#X obj 483 596 s group-smp-press;
#X text 591 594 group# for button pressed;
#X obj 556 431 bng 15 250 50 0 empty empty empty 17 7 0 10 -262144
-1 -1;
#X obj 556 457 int;
#X obj 644 431 bng 15 250 50 0 empty empty empty 17 7 0 10 -262144
-1 -1;
#X obj 644 457 int;
#X obj 732 431 bng 15 250 50 0 empty empty empty 17 7 0 10 -262144
-1 -1;
#X obj 732 457 int;
#X obj 820 431 bng 15 250 50 0 empty empty empty 17 7 0 10 -262144
-1 -1;
#X obj 820 457 int;
#X obj 908 431 bng 15 250 50 0 empty empty empty 17 7 0 10 -262144
-1 -1;
#X obj 908 457 int;
#X obj 996 431 bng 15 250 50 0 empty empty empty 17 7 0 10 -262144
-1 -1;
#X obj 996 457 int;
#X obj 1084 431 bng 15 250 50 0 empty empty empty 17 7 0 10 -262144
-1 -1;
#X obj 1084 457 int;
#X obj -60 403 r 16-row-press;
#X obj -45 430 r 16-group;
#X obj 28 403 r 17-row-press;
#X obj 43 430 r 17-group;
#X obj 116 403 r 18-row-press;
#X obj 131 430 r 18-group;
#X obj 204 403 r 19-row-press;
#X obj 219 430 r 19-group;
#X obj 292 403 r 20-row-press;
#X obj 307 430 r 20-group;
#X obj 380 403 r 21-row-press;
#X obj 395 430 r 21-group;
#X obj 468 403 r 22-row-press;
#X obj 483 430 r 22-group;
#X obj 556 403 r 23-row-press;
#X obj 571 430 r 23-group;
#X obj 644 403 r 24-row-press;
#X obj 659 430 r 24-group;
#X obj 732 403 r 25-row-press;
#X obj 747 430 r 25-group;
#X obj 820 403 r 26-row-press;
#X obj 835 430 r 26-group;
#X obj 908 403 r 27-row-press;
#X obj 923 430 r 27-group;
#X obj 996 403 r 28-row-press;
#X obj 1011 430 r 28-group;
#X obj 514 191 bng 15 250 50 0 empty empty empty 17 7 0 10 -262144
-1 -1;
#X obj 514 217 int;
#X obj 514 163 r 8-row-press;
#X obj 529 190 r 8-group;
#X obj 1084 403 r 29-row-press;
#X obj 1099 430 r 29-group;
#X obj 1174 431 bng 15 250 50 0 empty empty empty 17 7 0 10 -262144
-1 -1;
#X obj 1174 457 int;
#X obj 1174 403 r 30-row-press;
#X obj 1189 430 r 30-group;
#X connect 0 0 5 1;
#X connect 1 1 4 0;
#X connect 1 2 4 1;
#X connect 2 0 3 0;
#X connect 3 0 5 0;
#X connect 4 0 6 0;
#X connect 4 0 19 0;
#X connect 5 0 35 0;
#X connect 7 0 8 0;
#X connect 8 0 35 0;
#X connect 9 0 7 0;
#X connect 10 0 8 1;
#X connect 11 0 12 0;
#X connect 12 0 35 0;
#X connect 13 0 14 0;
#X connect 14 0 35 0;
#X connect 15 0 11 0;
#X connect 16 0 12 1;
#X connect 17 0 13 0;
#X connect 18 0 14 1;
#X connect 19 0 20 0;
#X connect 21 0 22 0;
#X connect 22 0 35 0;
#X connect 23 0 24 0;
#X connect 24 0 35 0;
#X connect 25 0 26 0;
#X connect 26 0 35 0;
#X connect 27 0 21 0;
#X connect 28 0 23 0;
#X connect 29 0 25 0;
#X connect 30 0 22 1;
#X connect 31 0 24 1;
#X connect 32 0 26 1;
#X connect 34 0 1 0;
#X connect 37 0 19 1;
#X connect 39 0 40 0;
#X connect 40 0 35 0;
#X connect 41 0 42 0;
#X connect 42 0 35 0;
#X connect 43 0 44 0;
#X connect 44 0 35 0;
#X connect 45 0 46 0;
#X connect 46 0 35 0;
#X connect 47 0 48 0;
#X connect 48 0 35 0;
#X connect 49 0 50 0;
#X connect 50 0 35 0;
#X connect 51 0 52 0;
#X connect 52 0 35 0;
#X connect 53 0 39 0;
#X connect 54 0 41 0;
#X connect 55 0 43 0;
#X connect 56 0 45 0;
#X connect 57 0 47 0;
#X connect 58 0 49 0;
#X connect 59 0 51 0;
#X connect 60 0 40 1;
#X connect 61 0 42 1;
#X connect 62 0 44 1;
#X connect 63 0 46 1;
#X connect 64 0 48 1;
#X connect 65 0 50 1;
#X connect 66 0 52 1;
#X connect 67 0 68 0;
#X connect 68 0 81 0;
#X connect 69 0 70 0;
#X connect 70 0 81 0;
#X connect 71 0 72 0;
#X connect 72 0 81 0;
#X connect 73 0 74 0;
#X connect 74 0 81 0;
#X connect 75 0 76 0;
#X connect 76 0 81 0;
#X connect 77 0 78 0;
#X connect 78 0 81 0;
#X connect 79 0 80 0;
#X connect 80 0 81 0;
#X connect 83 0 84 0;
#X connect 84 0 81 0;
#X connect 85 0 86 0;
#X connect 86 0 81 0;
#X connect 87 0 88 0;
#X connect 88 0 81 0;
#X connect 89 0 90 0;
#X connect 90 0 81 0;
#X connect 91 0 92 0;
#X connect 92 0 81 0;
#X connect 93 0 94 0;
#X connect 94 0 81 0;
#X connect 95 0 96 0;
#X connect 96 0 81 0;
#X connect 97 0 67 0;
#X connect 98 0 68 1;
#X connect 99 0 69 0;
#X connect 100 0 70 1;
#X connect 101 0 71 0;
#X connect 102 0 72 1;
#X connect 103 0 73 0;
#X connect 104 0 74 1;
#X connect 105 0 75 0;
#X connect 106 0 76 1;
#X connect 107 0 77 0;
#X connect 108 0 78 1;
#X connect 109 0 79 0;
#X connect 110 0 80 1;
#X connect 111 0 83 0;
#X connect 112 0 84 1;
#X connect 113 0 85 0;
#X connect 114 0 86 1;
#X connect 115 0 87 0;
#X connect 116 0 88 1;
#X connect 117 0 89 0;
#X connect 118 0 90 1;
#X connect 119 0 91 0;
#X connect 120 0 92 1;
#X connect 121 0 93 0;
#X connect 122 0 94 1;
#X connect 123 0 124 0;
#X connect 124 0 35 0;
#X connect 125 0 123 0;
#X connect 126 0 124 1;
#X connect 127 0 95 0;
#X connect 128 0 96 1;
#X connect 129 0 130 0;
#X connect 130 0 81 0;
#X connect 131 0 129 0;
#X connect 132 0 130 1;
#X restore -12 -12 pd mlr_group_smp_press;
#N canvas 139 570 399 177 mlr_group_press 0;
#X obj -12 -70 r group-smp-press;
#X obj 152 -67 r group-press;
#X obj 152 -40 unpack f f f;
#X obj 152 -13 spigot;
#X msg -12 14 \; \$1-group-toggle-r 1;
#X msg 152 14 \; \$1-group-toggle-r 0;
#X connect 0 0 4 0;
#X connect 1 0 2 0;
#X connect 2 0 3 0;
#X connect 2 2 3 1;
#X connect 3 0 5 0;
#X restore -12 15 pd mlr_group_press;
#N canvas 790 17 366 122 mlr_group_led_message 0;
#X obj -8 -10 r group-led;
#X msg -8 17 \; leds \$1 0 \$2;
#X connect 0 0 1 0;
#X restore -12 42 pd mlr_group_led_message;
#N canvas 1006 264 309 227 mlr_group_off 0;
#X obj -83 -119 r group-led;
#X obj -83 -92 unpack f f;
#X obj -26 -64 == 0;
#X obj -59 -37 spigot;
#X msg -59 -10 \; stop-group 0 \$1;
#X connect 0 0 1 0;
#X connect 1 0 3 0;
#X connect 1 1 2 0;
#X connect 2 0 3 1;
#X connect 3 0 4 0;
#X restore -12 69 pd mlr_group_off;
#X restore -117 -75 pd groups;
#X text 525 -148 UTILITIES;
#X text 604 -115 main audio out;
#X text 594 -75 OSC to/from monome;
#X text 527 -133 standard;
#X text 527 -3 pd_mlr specific;
#N canvas 419 344 469 269 mlr_paths 0;
#X obj 6 9 declare -path ./lib/file;
#X obj 6 29 declare -path ./lib/sample;
#X obj 6 69 declare -path ./lib/ui;
#X obj 6 49 declare -path ./lib/sequence;
#X obj 6 89 declare -path ./lib/utility;
#X restore 528 15 pd mlr_paths;
#X text 605 15 paths to patch library;
#X obj 528 -95 master_gain;
#X text 604 -95 main volume gain & mute;
#X obj 193 45 mlr_save;
#X obj 194 65 mlr_load;
#N canvas 966 5 314 539 samples 1;
#X text -69 -89 containers for sample load \,;
#X text -69 -79 clear \, stop & play;
#X obj -66 -60 mlr_sample 1;
#X obj 24 226 mlr_sample 30;
#X obj -66 100 mlr_sample 9;
#X obj -66 -20 mlr_sample 3;
#X obj -66 -40 mlr_sample 2;
#X obj 24 -60 mlr_sample 16;
#X obj 24 -40 mlr_sample 17;
#X obj 24 -20 mlr_sample 18;
#X obj -66 120 mlr_sample 10;
#X obj -66 0 mlr_sample 4;
#X obj -66 20 mlr_sample 5;
#X obj -66 40 mlr_sample 6;
#X obj -66 60 mlr_sample 7;
#X obj -66 142 mlr_sample 11;
#X obj -66 162 mlr_sample 12;
#X obj -66 182 mlr_sample 13;
#X obj -66 226 mlr_sample 15;
#X obj -66 204 mlr_sample 14;
#X obj -66 80 mlr_sample 8;
#X obj 24 0 mlr_sample 19;
#X obj 24 20 mlr_sample 20;
#X obj 24 40 mlr_sample 21;
#X obj 24 60 mlr_sample 22;
#X obj 24 80 mlr_sample 23;
#X obj 24 100 mlr_sample 24;
#X obj 24 120 mlr_sample 25;
#X obj 24 142 mlr_sample 26;
#X obj 24 162 mlr_sample 27;
#X obj 24 182 mlr_sample 28;
#X obj 24 204 mlr_sample 29;
#X restore -117 -115 pd samples;
#N canvas 0 0 319 189 sequences 0;
#N canvas 360 214 416 243 mlr_sequence_press 0;
#X obj -280 -100 r sequence-press;
#X obj -280 -73 unpack f f f;
#X msg -203 48 \; \$1-tap bang;
#X obj -295 21 f;
#X obj -203 21 f;
#X obj -280 -19 - 8;
#X obj -248 -19 tap2X;
#X msg -295 48 \; \$1-reset bang;
#X obj -203 -19 sel 1;
#X obj -211 -46 pipe 1;
#X text -294 78 if sequence button tapped;
#X text -294 88 quickly \, then send reset;
#X text -294 98 else send tap;
#X connect 0 0 1 0;
#X connect 1 0 5 0;
#X connect 1 2 9 0;
#X connect 3 0 7 0;
#X connect 4 0 2 0;
#X connect 5 0 4 1;
#X connect 5 0 3 1;
#X connect 6 0 3 0;
#X connect 8 0 4 0;
#X connect 9 0 8 0;
#X connect 9 0 6 0;
#X restore 26 -3 pd mlr_sequence_press;
#X obj -44 -3 sequence 0;
#X obj -44 18 sequence 1;
#X obj -45 78 sequence 4;
#X obj -45 58 sequence 3;
#X obj -45 138 sequence 7;
#X obj -45 98 sequence 5;
#X obj -45 38 sequence 2;
#X obj -45 118 sequence 6;
#X restore -117 -35 pd sequences;
#N canvas 556 330 378 198 mlr_stop_all 0;
#X obj 165 -10 bng 15 250 50 0 empty empty empty 17 7 0 10 -262144
-1 -1;
#X obj 165 15 s mlr-stop;
#X obj -50 -7 r mlr-stop;
#X msg -50 66 0;
#X msg -20 66 1;
#X msg -50 126 \; group-press \$1 0 1;
#X msg 10 66 2;
#X obj -50 20 t b b b b b b b b;
#X msg 40 66 3;
#X msg 70 66 4;
#X msg 100 66 5;
#X msg 130 66 6;
#X msg 160 66 7;
#X connect 0 0 1 0;
#X connect 2 0 7 0;
#X connect 3 0 5 0;
#X connect 4 0 5 0;
#X connect 6 0 5 0;
#X connect 7 0 3 0;
#X connect 7 1 4 0;
#X connect 7 2 6 0;
#X connect 7 3 8 0;
#X connect 7 4 9 0;
#X connect 7 5 10 0;
#X connect 7 6 11 0;
#X connect 7 7 12 0;
#X connect 8 0 5 0;
#X connect 9 0 5 0;
#X connect 10 0 5 0;
#X connect 11 0 5 0;
#X connect 12 0 5 0;
#X restore 529 82 pd mlr_stop_all;
#X text 605 55 potentiometer router;
#N canvas 670 736 322 209 microfade 0;
#X obj 44 -4 s microfade;
#X obj 44 -57 int;
#X floatatom 54 -30 5 0 0 0 - - -;
#X obj -12 78 s microfade-r;
#X obj 44 -86 r microfade-s;
#X obj -12 23 moses 10;
#X msg -12 50 label 0\$1ms;
#X msg 68 50 label \$1ms;
#X connect 1 0 2 0;
#X connect 1 0 0 0;
#X connect 1 0 5 0;
#X connect 4 0 1 0;
#X connect 5 0 6 0;
#X connect 5 1 7 0;
#X connect 6 0 3 0;
#X connect 7 0 3 0;
#X restore 193 -35 pd microfade;
#N canvas 218 329 351 248 mlr_layout 0;
#N canvas 71 155 787 464 mlr-transpose-button 0;
#X obj -163 222 unpack f f f;
#X obj -163 302 pack f f f;
#X obj -163 329 s matrix-transpose;
#X obj -51 -42 gate 4;
#X obj -51 -96 r monome-size;
#X text 23 30 1 = 64;
#X text -137 191 2 = 128 horizontal;
#X text 23 40 3 = 128 vertical;
#X text -137 201 4 = 256;
#X obj 17 62 unpack f f f;
#X obj 17 165 pack f f f;
#X obj 17 192 s matrix-transpose;
#X obj -18 -69 r matrix-in;
#X floatatom -93 -41 5 0 0 0 - - -;
#X obj -163 249 expr if ($f2>0 && $f1>7 \, $f1-8 \, $f1) \; if ($f2>0
&& $f1>7 \, $f2+15 \, $f2) \; $f3;
#X text 59 -70 input from monome (see OSC_socket);
#X text 146 45 for top row (=0) \, map 4 right buttons (col=4-7);
#X text 146 55 to 1st 4 sequence recorders (col=8-11);
#X text 66 245 for 16 button wide configurations \,;
#X text 66 265 map right half of row (col>7);
#X text 66 275 to row+15 \, col 0-7;
#X text 146 35 for 8 button wide configurations \,;
#X text 66 255 for other than top row (=0) \,;
#X text 39 -96 monome layout from ui;
#X obj 17 89 expr if ($f2==0 && $f1>=4 && $f1<=7 \, $f1+4 \, if ($f2==0
&& $f1>=8 && $f1<=11 \, $f1-4 \, $f1)) \; $f2 \; $f3;
#X connect 0 0 14 0;
#X connect 0 1 14 1;
#X connect 0 2 14 2;
#X connect 1 0 2 0;
#X connect 3 0 9 0;
#X connect 3 1 0 0;
#X connect 3 2 9 0;
#X connect 3 3 0 0;
#X connect 4 0 3 0;
#X connect 4 0 13 0;
#X connect 9 0 24 0;
#X connect 9 1 24 1;
#X connect 9 2 24 2;
#X connect 10 0 11 0;
#X connect 12 0 3 1;
#X connect 14 0 1 0;
#X connect 14 1 1 1;
#X connect 14 2 1 2;
#X connect 24 0 10 0;
#X connect 24 1 10 1;
#X connect 24 2 10 2;
#X restore -30 54 pd mlr-transpose-button;
#N canvas 557 155 723 449 mlr-transpose-led-single 0;
#X obj -173 279 s leds-out;
#X obj -61 -82 gate 4;
#X obj -61 -136 r monome-size;
#X floatatom -103 -81 5 0 0 0 - - -;
#X text 29 -136 monome layout from ui;
#X obj -28 -109 r leds;
#X text 17 -110 output to individual LEDs;
#X text 3 -20 1 = 64;
#X text 3 -10 3 = 128 vertical;
#X obj -3 12 unpack f f f;
#X obj -3 115 pack f f f;
#X text 116 -5 for 8 button wide configurations \,;
#X obj -3 142 s leds-out;
#X obj -173 172 unpack f f f;
#X obj -173 252 pack f f f;
#X text -147 141 2 = 128 horizontal;
#X text -147 151 4 = 256;
#X text 16 195 for 16 button wide configurations \,;
#X text 116 5 for top row (=0) \, map 1st 4 sequence;
#X text 116 15 record led's to col=4-7 on monome;
#X text 16 205 for rows>15 (right side of ui) \,;
#X text 16 215 map to row-15 & col+8;
#X obj -173 199 expr if ($f2>15 \, $f1+8 \, $f1) \; if ($f2>15 \, $f2-15
\, $f2) \; $f3;
#X obj -3 39 expr if ($f2==0 && $f1>=8 && $f1<=11 \, $f1-4 \, if ($f2==0
&& $f1>=4 && $f1<=7 \, $f1+4 \, $f1)) \; $f2 \; $f3;
#X connect 1 0 9 0;
#X connect 1 1 13 0;
#X connect 1 2 9 0;
#X connect 1 3 13 0;
#X connect 2 0 1 0;
#X connect 2 0 3 0;
#X connect 5 0 1 1;
#X connect 9 0 23 0;
#X connect 9 1 23 1;
#X connect 9 2 23 2;
#X connect 10 0 12 0;
#X connect 13 0 22 0;
#X connect 13 1 22 1;
#X connect 13 2 22 2;
#X connect 14 0 0 0;
#X connect 22 0 14 0;
#X connect 22 1 14 1;
#X connect 22 2 14 2;
#X connect 23 0 10 0;
#X connect 23 1 10 1;
#X connect 23 2 10 2;
#X restore -29 114 pd mlr-transpose-led-single;
#N canvas 0 0 758 669 mlr-transpose-led-row 0;
#X obj -538 -75 r 1-led-row;
#X obj -538 60 s sOSC;
#X msg -538 33 send /pd_mlr/led_row 1 \$1 \$2;
#X obj -538 -21 f;
#X obj -431 -21 f;
#X obj -538 -48 t f b;
#X obj -538 6 pack f f;
#X obj -458 -48 t b f;
#X obj -354 60 s sOSC;
#X obj -354 -21 f;
#X obj -247 -21 f;
#X obj -354 -48 t f b;
#X obj -354 6 pack f f;
#X obj -274 -48 t b f;
#X obj -354 -75 r 2-led-row;
#X msg -354 33 send /pd_mlr/led_row 2 \$1 \$2;
#X obj -170 60 s sOSC;
#X obj -170 -21 f;
#X obj -63 -21 f;
#X obj -170 -48 t f b;
#X obj -170 6 pack f f;
#X obj -90 -48 t b f;
#X obj 14 60 s sOSC;
#X obj 14 -21 f;
#X obj 121 -21 f;
#X obj 14 -48 t f b;
#X obj 14 6 pack f f;
#X obj 94 -48 t b f;
#X obj -170 -75 r 3-led-row;
#X obj 14 -75 r 4-led-row;
#X msg -170 33 send /pd_mlr/led_row 3 \$1 \$2;
#X msg 14 33 send /pd_mlr/led_row 4 \$1 \$2;
#X obj -538 222 s sOSC;
#X obj -538 141 f;
#X obj -431 141 f;
#X obj -538 114 t f b;
#X obj -538 168 pack f f;
#X obj -458 114 t b f;
#X obj -354 222 s sOSC;
#X obj -354 141 f;
#X obj -247 141 f;
#X obj -354 114 t f b;
#X obj -354 168 pack f f;
#X obj -274 114 t b f;
#X obj -170 222 s sOSC;
#X obj -170 141 f;
#X obj -63 141 f;
#X obj -170 114 t f b;
#X obj -170 168 pack f f;
#X obj -90 114 t b f;
#X obj -538 87 r 5-led-row;
#X msg -538 195 send /pd_mlr/led_row 5 \$1 \$2;
#X obj -354 87 r 6-led-row;
#X msg -354 195 send /pd_mlr/led_row 6 \$1 \$2;
#X obj -170 87 r 7-led-row;
#X msg -170 195 send /pd_mlr/led_row 7 \$1 \$2;
#X obj -458 -75 r 16-led-row;
#X obj -274 -75 r 17-led-row;
#X obj -90 -75 r 18-led-row;
#X obj 94 -75 r 19-led-row;
#X obj -458 87 r 20-led-row;
#X obj -274 87 r 21-led-row;
#X obj -90 87 r 22-led-row;
#X obj 14 222 s sOSC;
#X obj 14 141 f;
#X obj 121 141 f;
#X obj 14 114 t f b;
#X obj 14 168 pack f f;
#X obj 94 114 t b f;
#X obj 14 87 r 8-led-row;
#X obj 94 87 r 23-led-row;
#X obj -538 384 s sOSC;
#X obj -431 303 f;
#X obj -538 276 t f b;
#X obj -538 330 pack f f;
#X obj -458 276 t b f;
#X obj -354 384 s sOSC;
#X obj -354 303 f;
#X obj -247 303 f;
#X obj -354 276 t f b;
#X obj -354 330 pack f f;
#X obj -274 276 t b f;
#X obj -170 384 s sOSC;
#X obj -170 303 f;
#X obj -63 303 f;
#X obj -170 276 t f b;
#X obj -170 330 pack f f;
#X obj -90 276 t b f;
#X obj 14 384 s sOSC;
#X obj 14 303 f;
#X obj 121 303 f;
#X obj 14 276 t f b;
#X obj 14 330 pack f f;
#X obj 94 276 t b f;
#X obj -538 554 s sOSC;
#X obj -431 473 f;
#X obj -538 446 t f b;
#X obj -538 500 pack f f;
#X obj -458 446 t b f;
#X obj -354 554 s sOSC;
#X obj -354 473 f;
#X obj -247 473 f;
#X obj -354 446 t f b;
#X obj -354 500 pack f f;
#X obj -274 446 t b f;
#X obj -170 554 s sOSC;
#X obj -170 473 f;
#X obj -63 473 f;
#X obj -170 446 t f b;
#X obj -170 500 pack f f;
#X obj -90 446 t b f;
#X obj -539 249 r 9-led-row;
#X obj -354 249 r 10-led-row;
#X obj -170 249 r 11-led-row;
#X obj 14 249 r 12-led-row;
#X obj -538 419 r 13-led-row;
#X obj -354 419 r 14-led-row;
#X obj -170 419 r 15-led-row;
#X obj -458 249 r 24-led-row;
#X obj -274 249 r 25-led-row;
#X obj -90 249 r 26-led-row;
#X obj 94 249 r 27-led-row;
#X obj -458 419 r 28-led-row;
#X obj -274 419 r 29-led-row;
#X obj -90 419 r 30-led-row;
#X msg 14 195 send /pd_mlr/led_row 8 \$1 \$2;
#X msg -538 357 send /pd_mlr/led_row 9 \$1 \$2;
#X msg -354 357 send /pd_mlr/led_row 10 \$1 \$2;
#X msg -170 357 send /pd_mlr/led_row 11 \$1 \$2;
#X msg 14 357 send /pd_mlr/led_row 12 \$1 \$2;
#X msg -538 527 send /pd_mlr/led_row 13 \$1 \$2;
#X msg -354 527 send /pd_mlr/led_row 14 \$1 \$2;
#X msg -170 527 send /pd_mlr/led_row 15 \$1 \$2;
#X obj -538 303 f;
#X obj -538 473 f;
#X connect 0 0 5 0;
#X connect 2 0 1 0;
#X connect 3 0 6 0;
#X connect 4 0 6 1;
#X connect 5 0 3 0;
#X connect 5 1 4 0;
#X connect 6 0 2 0;
#X connect 7 0 3 0;
#X connect 7 1 4 0;
#X connect 9 0 12 0;
#X connect 10 0 12 1;
#X connect 11 0 9 0;
#X connect 11 1 10 0;
#X connect 12 0 15 0;
#X connect 13 0 9 0;
#X connect 13 1 10 0;
#X connect 14 0 11 0;
#X connect 15 0 8 0;
#X connect 17 0 20 0;
#X connect 18 0 20 1;
#X connect 19 0 17 0;
#X connect 19 1 18 0;
#X connect 20 0 30 0;
#X connect 21 0 17 0;
#X connect 21 1 18 0;
#X connect 23 0 26 0;
#X connect 24 0 26 1;
#X connect 25 0 23 0;
#X connect 25 1 24 0;
#X connect 26 0 31 0;
#X connect 27 0 23 0;
#X connect 27 1 24 0;
#X connect 28 0 19 0;
#X connect 29 0 25 0;
#X connect 30 0 16 0;
#X connect 31 0 22 0;
#X connect 33 0 36 0;
#X connect 34 0 36 1;
#X connect 35 0 33 0;
#X connect 35 1 34 0;
#X connect 36 0 51 0;
#X connect 37 0 33 0;
#X connect 37 1 34 0;
#X connect 39 0 42 0;
#X connect 40 0 42 1;
#X connect 41 0 39 0;
#X connect 41 1 40 0;
#X connect 42 0 53 0;
#X connect 43 0 39 0;
#X connect 43 1 40 0;
#X connect 45 0 48 0;
#X connect 46 0 48 1;
#X connect 47 0 45 0;
#X connect 47 1 46 0;
#X connect 48 0 55 0;
#X connect 49 0 45 0;
#X connect 49 1 46 0;
#X connect 50 0 35 0;
#X connect 51 0 32 0;
#X connect 52 0 41 0;
#X connect 53 0 38 0;
#X connect 54 0 47 0;
#X connect 55 0 44 0;
#X connect 56 0 7 0;
#X connect 57 0 13 0;
#X connect 58 0 21 0;
#X connect 59 0 27 0;
#X connect 60 0 37 0;
#X connect 61 0 43 0;
#X connect 62 0 49 0;
#X connect 64 0 67 0;
#X connect 65 0 67 1;
#X connect 66 0 64 0;
#X connect 66 1 65 0;
#X connect 67 0 125 0;
#X connect 68 0 64 0;
#X connect 68 1 65 0;
#X connect 69 0 66 0;
#X connect 70 0 68 0;
#X connect 72 0 74 1;
#X connect 73 0 133 0;
#X connect 73 1 72 0;
#X connect 74 0 126 0;
#X connect 75 0 133 0;
#X connect 75 1 72 0;
#X connect 77 0 80 0;
#X connect 78 0 80 1;
#X connect 79 0 77 0;
#X connect 79 1 78 0;
#X connect 80 0 127 0;
#X connect 81 0 77 0;
#X connect 81 1 78 0;
#X connect 83 0 86 0;
#X connect 84 0 86 1;
#X connect 85 0 83 0;
#X connect 85 1 84 0;
#X connect 86 0 128 0;
#X connect 87 0 83 0;
#X connect 87 1 84 0;
#X connect 89 0 92 0;
#X connect 90 0 92 1;
#X connect 91 0 89 0;
#X connect 91 1 90 0;
#X connect 92 0 129 0;
#X connect 93 0 89 0;
#X connect 93 1 90 0;
#X connect 95 0 97 1;
#X connect 96 0 134 0;
#X connect 96 1 95 0;
#X connect 97 0 130 0;
#X connect 98 0 134 0;
#X connect 98 1 95 0;
#X connect 100 0 103 0;
#X connect 101 0 103 1;
#X connect 102 0 100 0;
#X connect 102 1 101 0;
#X connect 103 0 131 0;
#X connect 104 0 100 0;
#X connect 104 1 101 0;
#X connect 106 0 109 0;
#X connect 107 0 109 1;
#X connect 108 0 106 0;
#X connect 108 1 107 0;
#X connect 109 0 132 0;
#X connect 110 0 106 0;
#X connect 110 1 107 0;
#X connect 111 0 73 0;
#X connect 112 0 79 0;
#X connect 113 0 85 0;
#X connect 114 0 91 0;
#X connect 115 0 96 0;
#X connect 116 0 102 0;
#X connect 117 0 108 0;
#X connect 118 0 75 0;
#X connect 119 0 81 0;
#X connect 120 0 87 0;
#X connect 121 0 93 0;
#X connect 122 0 98 0;
#X connect 123 0 104 0;
#X connect 124 0 110 0;
#X connect 125 0 63 0;
#X connect 126 0 71 0;
#X connect 127 0 76 0;
#X connect 128 0 82 0;
#X connect 129 0 88 0;
#X connect 130 0 94 0;
#X connect 131 0 99 0;
#X connect 132 0 105 0;
#X connect 133 0 74 0;
#X connect 134 0 97 0;
#X restore -29 134 pd mlr-transpose-led-row;
#X text 90 74 pd button press router;
#X text 114 48 monome->pd button transpose;
#X text 114 58 based upon chosen layout;
#X text 140 129 based upon chosen layout;
#X text 140 119 pd->monome led transpose;
#N canvas 181 525 583 623 mlr-button-press 0;
#X obj -37 -64 unpack f f f;
#X obj -213 33 spigot;
#X obj -18 33 spigot;
#X obj -18 87 s smp-press;
#X obj -213 87 s group-press;
#X obj -123 33 spigot;
#X obj 162 33 r smp-press;
#X msg 162 60 \; \$2-step-press \$1;
#X obj -123 87 s sequence-press;
#X obj -213 -64 l2s;
#X symbolatom -213 -37 6 0 0 0 - - -;
#X obj -8 60 s smp-press-record;
#X obj -203 60 s group-press-record;
#X obj -123 -123 r matrix-transpose;
#X obj -123 -92 t l l;
#X obj -157 -27 expr if ($f2==0 & $f1<=7 \, 1 \, 0) \; if ($f2==0 &
$f1>=8 \, 1 \, 0) \; if ($f2!=0 & $f3==1 \, 1 \, 0);
#X obj -203 114 l2s;
#X symbolatom -203 141 6 0 0 0 - - -;
#X obj -113 114 l2s;
#X symbolatom -113 141 6 0 0 0 - - -;
#X obj -7 114 l2s;
#X symbolatom -7 141 6 0 0 0 - - -;
#X connect 0 0 15 0;
#X connect 0 1 15 1;
#X connect 0 2 15 2;
#X connect 1 0 4 0;
#X connect 1 0 12 0;
#X connect 1 0 16 0;
#X connect 2 0 3 0;
#X connect 2 0 11 0;
#X connect 2 0 20 0;
#X connect 5 0 8 0;
#X connect 5 0 18 0;
#X connect 6 0 7 0;
#X connect 9 0 10 0;
#X connect 13 0 14 0;
#X connect 14 0 1 0;
#X connect 14 0 5 0;
#X connect 14 0 2 0;
#X connect 14 0 9 0;
#X connect 14 1 0 0;
#X connect 15 0 1 1;
#X connect 15 1 5 1;
#X connect 15 2 2 1;
#X connect 16 0 17 0;
#X connect 18 0 19 0;
#X connect 20 0 21 0;
#X restore -30 74 pd mlr-button-press;
#N canvas 136 248 856 449 mlr-layout-ui 0;
#X obj -19 -16 r monome-size;
#X obj 11 134 s monome-size-64;
#X msg 64 68 color 28 28 0;
#X text 73 -19 1 = 64;
#X text 73 -9 2 = 128 horizontal;
#X text 73 1 3 = 128 vertical;
#X text 73 11 4 = 256;
#X obj 1 154 s monome-size-128H;
#X obj -9 174 s monome-size-128V;
#X obj -19 194 s monome-size-256;
#X obj 31 95 gate 4;
#X msg -19 68 color 0 0 28;
#X msg 347 345 0 0;
#X msg 295 372 \; cover-groups vis_size \$1 \$2;
#X obj 476 237 r monome-size;
#X obj 476 264 sel 1 2 3 4;
#X msg 528 345 0 0;
#X msg 476 372 \; cover-right vis_size \$1 \$2;
#X msg 700 345 0 0;
#X msg 648 372 \; cover-bottom vis_size \$1 \$2;
#X msg 476 345 447 749;
#X msg 648 345 904 399;
#X msg 295 345 223 40;
#X obj -19 11 t b f b b b;
#X text 117 131 on monome layout change;
#X text 117 141 change ui monome shape colors;
#X text 557 261 on monome layout change;
#X text 557 271 cover unused groups \, recorders \, samples;
#X obj 476 149 s mixer-label-r;
#X msg 511 95 label Mixer_8_Groups_x_1_Master;
#X msg 476 122 label Mixer_4_Groups_x_1_Master;
#X msg 427 149 0 0;
#X obj 476 7 r monome-size;
#X obj 476 34 sel 1 2 3 4;
#X text 557 31 on monome layout change;
#X text 557 41 cover unused mixer channels \, change label;
#X msg 375 176 \; cover-mixer vis_size \$1 \$2;
#X msg 375 149 78 130;
#X connect 0 0 23 0;
#X connect 2 0 10 1;
#X connect 10 0 1 0;
#X connect 10 1 7 0;
#X connect 10 2 8 0;
#X connect 10 3 9 0;
#X connect 11 0 1 0;
#X connect 11 0 7 0;
#X connect 11 0 8 0;
#X connect 11 0 9 0;
#X connect 12 0 13 0;
#X connect 14 0 15 0;
#X connect 15 0 22 0;
#X connect 15 0 21 0;
#X connect 15 0 20 0;
#X connect 15 1 12 0;
#X connect 15 1 21 0;
#X connect 15 1 16 0;
#X connect 15 2 22 0;
#X connect 15 2 18 0;
#X connect 15 2 20 0;
#X connect 15 3 12 0;
#X connect 15 3 18 0;
#X connect 15 3 16 0;
#X connect 16 0 17 0;
#X connect 18 0 19 0;
#X connect 20 0 17 0;
#X connect 21 0 19 0;
#X connect 22 0 13 0;
#X connect 23 0 2 0;
#X connect 23 1 10 0;
#X connect 23 2 11 0;
#X connect 29 0 28 0;
#X connect 30 0 28 0;
#X connect 31 0 36 0;
#X connect 32 0 33 0;
#X connect 33 0 30 0;
#X connect 33 0 37 0;
#X connect 33 1 29 0;
#X connect 33 1 31 0;
#X connect 33 2 30 0;
#X connect 33 2 37 0;
#X connect 33 3 29 0;
#X connect 33 3 31 0;
#X connect 37 0 36 0;
#X restore -29 -66 pd mlr-layout-ui;
#X text 74 -72 select monome layout on ui;
#X text 74 -62 & hide/show samples \, groups \, recorders;
#N canvas 0 0 338 182 mlr-layout-all-stop 0;
#X obj -24 -45 r monome-size;
#X obj -24 7 s clear-all;
#X obj 56 7 s mlr-stop;
#X text 129 0 on monome layout change;
#X text 129 10 stop samples \, clear leds;
#X obj -24 -18 bng 15 250 50 0 empty empty empty 17 7 0 10 -262144
-1 -1;
#X connect 0 0 5 0;
#X connect 5 0 1 0;
#X connect 5 0 2 0;
#X restore -29 -26 pd mlr-layout-all-stop;
#X text 109 -32 on monome layout change;
#X text 109 -22 stop samples \, clear leds;
#X text 99 8 on monome layout change;
#X text 99 18 adjust sample group assignment;
#N canvas 1281 6 1261 497 mlr-layout-groups 0;
#X obj -24 -45 r monome-size;
#X obj -24 -18 sel 1 3;
#X obj -9 127 r 1-group;
#X obj -24 182 expr if ($f1>=4 \, 0 \, $f1);
#X obj -24 208 s 1-group-r;
#X obj -24 155 f;
#X obj -24 73 r layout-group-64;
#X obj -14 100 r layout-group-128V;
#X obj 136 182 expr if ($f1>=4 \, 0 \, $f1);
#X obj 136 155 f;
#X obj 136 73 r layout-group-64;
#X obj 146 100 r layout-group-128V;
#X obj 296 182 expr if ($f1>=4 \, 0 \, $f1);
#X obj 296 155 f;
#X obj 296 73 r layout-group-64;
#X obj 306 100 r layout-group-128V;
#X obj 456 182 expr if ($f1>=4 \, 0 \, $f1);
#X obj 456 155 f;
#X obj 456 73 r layout-group-64;
#X obj 466 100 r layout-group-128V;
#X obj 616 182 expr if ($f1>=4 \, 0 \, $f1);
#X obj 616 155 f;
#X obj 616 73 r layout-group-64;
#X obj 626 100 r layout-group-128V;
#X obj 776 182 expr if ($f1>=4 \, 0 \, $f1);
#X obj 776 155 f;
#X obj 776 73 r layout-group-64;
#X obj 786 100 r layout-group-128V;
#X obj 936 182 expr if ($f1>=4 \, 0 \, $f1);
#X obj 936 155 f;
#X obj 936 73 r layout-group-64;
#X obj 946 100 r layout-group-128V;
#X obj -24 362 expr if ($f1>=4 \, 0 \, $f1);
#X obj -24 335 f;
#X obj -14 280 r layout-group-128V;
#X obj 136 362 expr if ($f1>=4 \, 0 \, $f1);
#X obj 136 335 f;
#X obj 146 280 r layout-group-128V;
#X obj 296 362 expr if ($f1>=4 \, 0 \, $f1);
#X obj 296 335 f;
#X obj 306 280 r layout-group-128V;
#X obj 456 362 expr if ($f1>=4 \, 0 \, $f1);
#X obj 456 335 f;
#X obj 466 280 r layout-group-128V;
#X obj 616 362 expr if ($f1>=4 \, 0 \, $f1);
#X obj 616 335 f;
#X obj 626 280 r layout-group-128V;
#X obj 776 362 expr if ($f1>=4 \, 0 \, $f1);
#X obj 776 335 f;
#X obj 786 280 r layout-group-128V;
#X obj 936 362 expr if ($f1>=4 \, 0 \, $f1);
#X obj 936 335 f;
#X obj 946 280 r layout-group-128V;
#X obj 1096 362 expr if ($f1>=4 \, 0 \, $f1);
#X obj 1096 335 f;
#X obj 1106 280 r layout-group-128V;
#X obj 151 127 r 2-group;
#X obj 136 208 s 2-group-r;
#X obj 311 127 r 3-group;
#X obj 296 208 s 3-group-r;
#X obj 471 127 r 4-group;
#X obj 456 208 s 4-group-r;
#X obj 631 127 r 5-group;
#X obj 616 208 s 5-group-r;
#X obj 791 127 r 6-group;
#X obj 776 208 s 6-group-r;
#X obj 951 127 r 7-group;
#X obj 936 208 s 7-group-r;
#X obj 1096 388 s 15-group-r;
#X obj 1111 307 r 15-group;
#X obj 951 307 r 14-group;
#X obj 936 388 s 14-group-r;
#X obj 776 388 s 13-group-r;
#X obj 791 307 r 13-group;
#X obj 631 307 r 12-group;
#X obj 616 388 s 12-group-r;
#X obj 471 307 r 11-group;
#X obj 456 388 s 11-group-r;
#X obj 296 388 s 10-group-r;
#X obj 311 307 r 10-group;
#X obj 151 307 r 9-group;
#X obj 136 388 s 9-group-r;
#X obj -24 388 s 8-group-r;
#X obj -9 307 r 8-group;
#X obj -24 36 s layout-group-64;
#X obj -5 9 s layout-group-128V;
#X connect 0 0 1 0;
#X connect 1 0 84 0;
#X connect 1 1 85 0;
#X connect 2 0 5 1;
#X connect 3 0 4 0;
#X connect 5 0 3 0;
#X connect 6 0 5 0;
#X connect 7 0 5 0;
#X connect 8 0 57 0;
#X connect 9 0 8 0;
#X connect 10 0 9 0;
#X connect 11 0 9 0;
#X connect 12 0 59 0;
#X connect 13 0 12 0;
#X connect 14 0 13 0;
#X connect 15 0 13 0;
#X connect 16 0 61 0;
#X connect 17 0 16 0;
#X connect 18 0 17 0;
#X connect 19 0 17 0;
#X connect 20 0 63 0;
#X connect 21 0 20 0;
#X connect 22 0 21 0;
#X connect 23 0 21 0;
#X connect 24 0 65 0;
#X connect 25 0 24 0;
#X connect 26 0 25 0;
#X connect 27 0 25 0;
#X connect 28 0 67 0;
#X connect 29 0 28 0;
#X connect 30 0 29 0;
#X connect 31 0 29 0;
#X connect 32 0 82 0;
#X connect 33 0 32 0;
#X connect 34 0 33 0;
#X connect 35 0 81 0;
#X connect 36 0 35 0;
#X connect 37 0 36 0;
#X connect 38 0 78 0;
#X connect 39 0 38 0;
#X connect 40 0 39 0;
#X connect 41 0 77 0;
#X connect 42 0 41 0;
#X connect 43 0 42 0;
#X connect 44 0 75 0;
#X connect 45 0 44 0;
#X connect 46 0 45 0;
#X connect 47 0 72 0;
#X connect 48 0 47 0;
#X connect 49 0 48 0;
#X connect 50 0 71 0;
#X connect 51 0 50 0;
#X connect 52 0 51 0;
#X connect 53 0 68 0;
#X connect 54 0 53 0;
#X connect 55 0 54 0;
#X connect 56 0 9 1;
#X connect 58 0 13 1;
#X connect 60 0 17 1;
#X connect 62 0 21 1;
#X connect 64 0 25 1;
#X connect 66 0 29 1;
#X connect 69 0 54 1;
#X connect 70 0 51 1;
#X connect 73 0 48 1;
#X connect 74 0 45 1;
#X connect 76 0 42 1;
#X connect 79 0 39 1;
#X connect 80 0 36 1;
#X connect 83 0 33 1;
#X restore -29 14 pd mlr-layout-groups;
#X restore 528 35 pd mlr_layout;
#X text 612 35 monome layouts - button/led routing;
#N canvas 0 0 683 262 mlr_adc 0;
#X obj -24 -4 r adc-in;
#X obj -24 137 int;
#X obj -24 164 change;
#X obj -24 23 route 0 1 2 3 4 5 6 7;
#X obj 76 110 * 100;
#X obj 76 137 int;
#X obj 76 164 change;
#X obj 76 191 / 100;
#X obj 76 218 s 0-gain-r;
#X obj 146 110 * 100;
#X obj 146 137 int;
#X obj 146 164 change;
#X obj 146 191 / 100;
#X obj 216 110 * 100;
#X obj 216 137 int;
#X obj 216 164 change;
#X obj 216 191 / 100;
#X obj 286 110 * 100;
#X obj 286 137 int;
#X obj 286 164 change;
#X obj 286 191 / 100;
#X obj 356 110 * 100;
#X obj 356 137 int;
#X obj 356 164 change;
#X obj 356 191 / 100;
#X obj 426 110 * 100;
#X obj 426 137 int;
#X obj 426 164 change;
#X obj 426 191 / 100;
#X obj 496 110 * 100;
#X obj 496 137 int;
#X obj 496 164 change;
#X obj 496 191 / 100;
#X obj 146 218 s 1-gain-r;
#X obj 216 218 s 2-gain-r;
#X obj 286 218 s 3-gain-r;
#X obj 356 218 s 4-gain-r;
#X obj 426 218 s 5-gain-r;
#X obj 496 218 s 6-gain-r;
#X obj 566 218 s 7-gain-r;
#X obj -24 192 / 100;
#X obj -24 218 s master-gain-r;
#X obj -24 110 * 100.1;
#X connect 0 0 3 0;
#X connect 1 0 2 0;
#X connect 2 0 40 0;
#X connect 3 0 42 0;
#X connect 3 1 4 0;
#X connect 3 2 9 0;
#X connect 3 3 13 0;
#X connect 3 4 17 0;
#X connect 3 5 21 0;
#X connect 3 6 25 0;
#X connect 3 7 29 0;
#X connect 4 0 5 0;
#X connect 5 0 6 0;
#X connect 6 0 7 0;
#X connect 7 0 8 0;
#X connect 9 0 10 0;
#X connect 10 0 11 0;
#X connect 11 0 12 0;
#X connect 12 0 33 0;
#X connect 13 0 14 0;
#X connect 14 0 15 0;
#X connect 15 0 16 0;
#X connect 16 0 34 0;
#X connect 17 0 18 0;
#X connect 18 0 19 0;
#X connect 19 0 20 0;
#X connect 20 0 35 0;
#X connect 21 0 22 0;
#X connect 22 0 23 0;
#X connect 23 0 24 0;
#X connect 24 0 36 0;
#X connect 25 0 26 0;
#X connect 26 0 27 0;
#X connect 27 0 28 0;
#X connect 28 0 37 0;
#X connect 29 0 30 0;
#X connect 30 0 31 0;
#X connect 31 0 32 0;
#X connect 32 0 38 0;
#X connect 32 0 39 0;
#X connect 40 0 41 0;
#X connect 42 0 1 0;
#X restore 528 55 pd mlr_adc;
#N canvas 724 332 363 337 mlr_clear_all_led 0;
#X obj -59 -20 bng 15 250 50 0 empty clear-all-led empty 17 7 0 10
-262144 -1 -1;
#X msg -39 32 \; \$1-group-led-r color 10;
#X msg -49 72 \; \$1-sequence-led-r color 10;
#X obj -59 230 pack f f;
#X msg -59 257 \; \$2-\$1-smp-led-r color 0;
#X obj -59 176 t b f;
#X obj -49 5 for++ 0 7 1;
#X obj -59 203 for++ 0 7 1;
#X obj -59 122 for++ 1 30 10;
#X text -40 -21 clear all led;
#X connect 0 0 6 0;
#X connect 0 0 8 0;
#X connect 3 0 4 0;
#X connect 5 0 7 0;
#X connect 5 1 3 1;
#X connect 6 0 1 0;
#X connect 6 0 2 0;
#X connect 7 0 3 0;
#X connect 8 0 5 0;
#X restore 529 102 pd mlr_clear_all_led;
#N canvas 298 587 366 166 mlr_clear_all_samples 0;
#X obj -256 -11 bng 15 250 50 0 empty clear-all-sample empty 17 7 0
10 -262144 -1 -1;
#X text -238 -12 clear all samples;
#X obj -256 41 for++ 1 30 1;
#X msg -256 68 \; \$1-sample-clear bang;
#X obj -107 68 s load-file-display-r;
#X msg -107 41 label ---;
#X obj -256 14 t b b;
#X connect 0 0 6 0;
#X connect 2 0 3 0;
#X connect 5 0 4 0;
#X connect 6 0 2 0;
#X connect 6 1 5 0;
#X restore 529 122 pd mlr_clear_all_samples;
#X text 624 82 stop all samples/groups;
#X text 655 101 clear all monome/ui led's;
#X text 678 122 clear all loaded samples;
#N canvas 46 7 1195 769 mlr_initialize 0;
#X obj 325 -137 loadbang;
#X obj 838 85 s monome-size;
#X obj -102 172 s master-gain-r;
#X obj -1 91 for++ 0 7 1;
#X msg -1 199 \; \$1-gain-r \$2;
#X obj -1 118 t f b;
#X obj -1 172 pack f f;
#X obj -102 64 t b b;
#X text -61 63 set initial mixer volume;
#X obj 738 243 s bpm;
#X msg 738 216 120;
#X obj 378 235 s microfade-r;
#X msg 378 208 3;
#X msg -102 145 0.8;
#X text 838 101 1 = 64;
#X text 838 111 2 = 128 horizontal;
#X text 838 121 3 = 128 vertical;
#X text 838 131 4 = 256;
#X text 952 4 clear all samples;
#X obj 838 4 s clear-all-sample;
#X obj 838 31 s clear-all-led;
#X text 935 31 clear all LEDs;
#X msg 26 145 0.8;
#X msg 838 58 1;
#X obj -102 91 delay 100;
#X text 184 276 set initial sequence;
#X text 184 286 record length in beats;
#X msg 129 336 \; \$1-sequence-length-r \$2;
#X obj 129 228 for++ 0 7 1;
#X obj 129 255 t f b;
#X obj 129 309 pack f f;
#X obj 388 -135 bng 15 250 50 0 empty empty empty 17 7 0 10 -262144
-1 -1;
#X text 14 396 set initial sequence;
#X obj -41 348 for++ 0 7 1;
#X obj -41 375 t f b;
#X obj -41 429 pack f f;
#X text 14 406 record mode;
#X text 6 416 (0=button \, 1=audio);
#X text 766 381 beats per loop;
#X text 766 219 beats per minute;
#X text 766 209 set initial;
#X obj 738 405 s beats-r;
#X msg -14 402 0;
#X obj 565 363 for++ 1 30 1;
#X obj 565 390 t f b;
#X obj 565 444 pack f f;
#X msg 592 417 8;
#X text 766 371 set initial standard;
#X text 621 420 for each sample;
#X text 621 410 set initial beats;
#X msg 565 471 \; \$1-beats-set \$2;
#X obj 738 298 s quantize-r;
#X msg 738 271 2;
#X text 765 270 set initial quantization;
#X text 738 313 0 = off;
#X text 738 323 1 = 1/32;
#X text 738 333 2 = 1/16;
#X text 738 343 3 = 1/8;
#X text 738 353 4 = 1/4;
#X text 408 202 set cross-fade;
#X text 408 212 in millisec's;
#X msg 738 378 8.1;
#X text 806 398 (PD BUG: sending 8.1;
#X text 806 408 to set value to 8;
#X text 806 418 Sending 8 actually sets;
#X text 806 428 to 7.999999);
#X msg 451 471 \; \$1-speed-set 1;
#X obj 565 336 delay 100;
#X text 341 480 for each sample;
#X text 341 470 set initial speed;
#X msg -41 456 \; \$1-record-audio-toggle-r \$2;
#X obj 838 185 s prefix-toggle-r;
#X msg 838 158 0;
#X obj 325 -110 t b b b b b b b b b b b b b;
#X text 865 152 set monome serial prefix;
#X text 865 162 0=manual \, 1=auto-load;
#X obj 323 46 s load-config;
#X msg 156 282 8.1;
#X obj 228 185 s tap2X-millisec;
#X msg 228 158 300;
#X text 260 154 set double tap time (millisec's);
#X text 260 164 to reset sequence recorder;
#X text 507 -115 NOTE: DISCONNECTED ITEMS ARE NOW SET AUTOMATICALLY
FROM SAVED CONFIG FILE (SEE HELP FOR MORE INFO);
#X connect 0 0 73 0;
#X connect 3 0 5 0;
#X connect 5 0 6 0;
#X connect 5 1 22 0;
#X connect 6 0 4 0;
#X connect 7 0 24 0;
#X connect 7 1 3 0;
#X connect 10 0 9 0;
#X connect 12 0 11 0;
#X connect 13 0 2 0;
#X connect 22 0 6 1;
#X connect 23 0 1 0;
#X connect 24 0 13 0;
#X connect 28 0 29 0;
#X connect 29 0 30 0;
#X connect 29 1 77 0;
#X connect 30 0 27 0;
#X connect 31 0 73 0;
#X connect 33 0 34 0;
#X connect 34 0 35 0;
#X connect 34 1 42 0;
#X connect 35 0 70 0;
#X connect 42 0 35 1;
#X connect 43 0 44 0;
#X connect 43 0 66 0;
#X connect 44 0 45 0;
#X connect 44 1 46 0;
#X connect 45 0 50 0;
#X connect 46 0 45 1;
#X connect 52 0 51 0;
#X connect 61 0 41 0;
#X connect 67 0 43 0;
#X connect 72 0 71 0;
#X connect 73 0 7 0;
#X connect 73 1 33 0;
#X connect 73 2 28 0;
#X connect 73 3 79 0;
#X connect 73 7 76 0;
#X connect 73 10 67 0;
#X connect 73 11 20 0;
#X connect 73 12 19 0;
#X connect 77 0 30 1;
#X connect 79 0 78 0;
#X restore 193 -115 pd mlr_initialize;
#X text 273 -36 adjust cross-fade duration;
#X text 302 -115 initialize many parameters;
#X text -51 -120 sample load \, clear \, play \, stop;
#X text -51 -110 & led/ui messages;
#X text -37 -35 sequence recorders;
#X text -50 -81 toggle sample off when another;
#X text -50 -61 turn whole group off;
#X text -50 -71 sample in same group is pressed \;;
#N canvas 279 227 1001 523 beats 0;
#X obj -265 71 ftos;
#X msg -265 98 label \$1;
#X obj -136 98 expr 1/$f1*60000;
#X obj -186 17 r bpm;
#X obj -265 125 s bpm-display-r;
#X obj -265 317 r bpm-4;
#X obj -215 317 r bpm-1;
#X obj -115 317 r bpm+4;
#X obj -165 317 r bpm+1;
#X msg -265 344 -4;
#X msg -215 344 -1;
#X msg -165 344 1;
#X msg -115 344 4;
#X obj -253 472 s bpm;
#X obj -265 381 t b f;
#X obj -221 381 r bpm;
#X obj -265 418 f;
#X obj -253 445 +;
#X obj -175 71 moses 1;
#X obj -136 125 s mpb;
#X floatatom -92 126 5 0 0 0 - - -;
#X text -139 142 millisec's/beat;
#X floatatom -178 433 5 0 0 0 - - -;
#X floatatom -145 45 5 0 0 0 - - -;
#X obj -356 17 r bpm-clear;
#X msg -356 44 0;
#X obj -356 71 s bpm;
#X text -139 162 to sequence recorders;
#X text -139 152 to sample loaders &;
#X obj 372 17 r beats-s;
#X obj 372 44 int;
#X obj 372 71 change;
#X obj 432 152 ftos;
#X msg 432 179 label \$1;
#X obj 372 206 s beats-r;
#X obj 372 125 moses 10;
#X msg 372 179 label 0\$1;
#X text 436 16 standard beats per loop;
#X obj 444 125 s std-beats;
#X obj 372 98 expr if ($f1>=17 \, ($f1-16)*32 \, $f1);
#X obj 50 17 r quantize-s;
#X obj 50 44 int;
#X obj 50 71 change;
#X msg 50 178 off;
#X msg 65 158 1/32;
#X msg 95 178 1/8;
#X msg 110 158 1/4;
#X obj 50 232 s quantize-r;
#X obj 50 205 prepend label;
#X msg 80 138 1/16;
#X msg 277 158 1;
#X msg 262 178 2;
#X msg 247 138 4;
#X msg 232 158 8;
#X obj 173 118 r mpb;
#X obj 173 232 f;
#X obj 173 313 metro;
#X obj 193 477 bng 15 250 50 0 empty empty empty 17 7 0 10 -262144
-1 -1;
#X obj 240 394 int;
#X obj 240 421 change;
#X obj 315 450 bng 15 250 50 0 empty empty empty 17 7 0 10 -262144
-1 -1;
#X obj 173 286 t b f;
#X obj 50 118 sel 0 1 2 3 4;
#X obj 217 118 sel 0 1 2 3 4;
#X obj 240 448 s bpm-bang;
#X obj 223 475 s quantize-bang;
#X obj -265 152 r bpm-bang;
#X obj 173 259 /;
#X floatatom 205 260 5 0 0 0 - - -;
#X obj 240 367 /;
#X obj 193 340 count 32;
#X text 239 253 millisec's per;
#X text 239 263 quantize beat;
#X obj 204 206 t b f f f;
#X text 272 340 for every 32 quantize beats;
#X text 272 350 divide by # of quantize beats;
#X text 272 360 per quarter note to get;
#X text 272 370 main quarter note beats;
#X msg -265 258 color \$1;
#X msg -265 231 10;
#X obj -265 285 s bpm-blink;
#X msg -237 231 2;
#X obj -265 204 delay 70;
#X obj -265 179 bng 15 250 50 0 empty empty empty 17 7 0 10 -262144
-1 -1;
#X msg 180 177 0;
#X msg 180 157 1;
#X obj 29 471 s quantize-off;
#X obj 217 98 s quantize-config;
#X connect 0 0 1 0;
#X connect 1 0 4 0;
#X connect 2 0 19 0;
#X connect 2 0 20 0;
#X connect 3 0 0 0;
#X connect 3 0 18 0;
#X connect 3 0 23 0;
#X connect 5 0 9 0;
#X connect 6 0 10 0;
#X connect 7 0 12 0;
#X connect 8 0 11 0;
#X connect 9 0 14 0;
#X connect 10 0 14 0;
#X connect 11 0 14 0;
#X connect 12 0 14 0;
#X connect 14 0 16 0;
#X connect 14 1 17 1;
#X connect 15 0 16 1;
#X connect 15 0 22 0;
#X connect 16 0 17 0;
#X connect 17 0 13 0;
#X connect 18 1 2 0;
#X connect 24 0 25 0;
#X connect 25 0 26 0;
#X connect 29 0 30 0;
#X connect 30 0 31 0;
#X connect 31 0 39 0;
#X connect 32 0 33 0;
#X connect 33 0 34 0;
#X connect 35 0 36 0;
#X connect 35 1 32 0;
#X connect 36 0 34 0;
#X connect 39 0 35 0;
#X connect 39 0 38 0;
#X connect 40 0 41 0;
#X connect 41 0 42 0;
#X connect 42 0 62 0;
#X connect 42 0 63 0;
#X connect 42 0 87 0;
#X connect 43 0 48 0;
#X connect 44 0 48 0;
#X connect 45 0 48 0;
#X connect 46 0 48 0;
#X connect 48 0 47 0;
#X connect 49 0 48 0;
#X connect 50 0 73 0;
#X connect 51 0 73 0;
#X connect 52 0 73 0;
#X connect 53 0 73 0;
#X connect 54 0 55 0;
#X connect 55 0 67 0;
#X connect 56 0 70 0;
#X connect 57 0 65 0;
#X connect 58 0 59 0;
#X connect 59 0 60 0;
#X connect 59 0 64 0;
#X connect 61 0 56 0;
#X connect 61 1 56 1;
#X connect 62 0 43 0;
#X connect 62 1 44 0;
#X connect 62 2 49 0;
#X connect 62 3 45 0;
#X connect 62 4 46 0;
#X connect 63 0 85 0;
#X connect 63 1 53 0;
#X connect 63 2 52 0;
#X connect 63 3 51 0;
#X connect 63 4 50 0;
#X connect 66 0 83 0;
#X connect 67 0 61 0;
#X connect 67 0 68 0;
#X connect 69 0 58 0;
#X connect 70 0 57 0;
#X connect 70 0 69 0;
#X connect 73 0 55 0;
#X connect 73 0 84 0;
#X connect 73 1 67 1;
#X connect 73 3 69 1;
#X connect 78 0 80 0;
#X connect 79 0 78 0;
#X connect 81 0 78 0;
#X connect 82 0 79 0;
#X connect 83 0 82 0;
#X connect 83 0 81 0;
#X connect 84 0 86 0;
#X connect 85 0 86 0;
#X restore 193 -75 pd beats;
#X text 249 -76 adjust standard beats per loop;
#X text -115 -148 MLR CORE - SAMPLES \, GROUPS \, SEQUENCE RECORDERS
;
#X text 193 -148 MLR GLOBAL SETTINGS & CONTROLS;
#X text 249 -86 adjust bpm;
#X text 249 -66 adjust quantization;
#X obj 528 -55 load-meter;
#X text 594 -55 CPU load meter;
#N canvas 187 92 594 440 auto-load 0;
#X msg -7 319 color 28 28 0;
#X msg -96 319 color 0 0 28;
#X obj -56 195 r prefix;
#X obj -56 366 s prefix-r;
#X obj -56 247 tgl 15 0 prefix-toggle prefix-toggle-r empty 17 7 0
10 -262144 -1 -1 1 1;
#X obj -56 222 bng 15 250 50 0 empty empty empty 17 7 0 10 -262144
-1 -1;
#X obj -56 272 sel 0;
#X msg -86 299 label OFF;
#X msg 3 299 label ON;
#X obj 200 310 spigot;
#X obj 194 222 t b b f;
#X msg 213 283 send /sys/prefix /pd_mlr;
#X msg 194 263 send /pd_mlr/clear;
#X obj 200 337 s sOSC;
#X text -35 245 prefix-toggle;
#X text 11 359 set ui for;
#X text 11 369 monomeserial prefix;
#X text 301 189 receive auto-set toggle;
#X text 301 199 for monomeserial prefix;
#X text 301 209 from config file;
#X text 244 304 set prefix and clear monome;
#X text 244 314 if toggle is on;
#X obj 194 195 r prefix-toggle-r;
#X msg -7 89 color 28 28 0;
#X msg -96 89 color 0 0 28;
#X obj -56 17 tgl 15 0 auto-file-toggle auto-file-toggle-r empty 17
7 0 10 -262144 -1 -1 1 1;
#X obj -56 -8 bng 15 250 50 0 empty empty empty 17 7 0 10 -262144 -1
-1;
#X obj -56 42 sel 0;
#X msg -86 69 label OFF;
#X msg 3 69 label ON;
#X text 41 129 set ui for sample set;
#X text 41 139 load last toggle;
#X obj -55 -35 r auto-file;
#X obj -56 136 s auto-file-r;
#X text -35 15 auto-file-toggle;
#X connect 0 0 3 0;
#X connect 1 0 3 0;
#X connect 2 0 5 0;
#X connect 4 0 6 0;
#X connect 5 0 4 0;
#X connect 6 0 1 0;
#X connect 6 0 7 0;
#X connect 6 1 0 0;
#X connect 6 1 8 0;
#X connect 7 0 3 0;
#X connect 8 0 3 0;
#X connect 9 0 13 0;
#X connect 10 0 12 0;
#X connect 10 1 11 0;
#X connect 10 2 9 1;
#X connect 11 0 9 0;
#X connect 12 0 9 0;
#X connect 22 0 10 0;
#X connect 23 0 33 0;
#X connect 24 0 33 0;
#X connect 25 0 27 0;
#X connect 26 0 25 0;
#X connect 27 0 24 0;
#X connect 27 0 28 0;
#X connect 27 1 23 0;
#X connect 27 1 29 0;
#X connect 28 0 33 0;
#X connect 29 0 33 0;
#X connect 32 0 26 0;
#X restore 193 5 pd auto-load;
#X text 274 -2 auto-set/load on/off for;
#X text 274 8 monomeserial prefix \, sample set;
#X obj 193 106 mlr_save_config;
#X obj 193 126 mlr_load_config;
#X text 248 41 save & load bpm \, std beats \,;
#X text 248 51 quantize \, microfade \, monome;
#X text 248 61 layout \, pattern recorder and;
#X text 248 71 sample settings;
#X text 288 101 save & load bpm \, std beats \,;
#X text 288 111 quantize \, microfade \, monome;
#X text 288 121 layout \, sample set and prefix;
#X text 288 131 settings;
