#N canvas 156 362 384 254 10;
#X obj -16 56 +~;
#X obj 0 29 line~;
#X obj 100 29 snapshot~;
#X msg 0 2 \$1 \, 0 10;
#X obj 73 -106 t b b;
#X obj 2 -51 line~;
#X obj -16 -25 *~;
#X msg 2 -77 0 \, 1 5;
#X obj 73 -133 inlet;
#X obj -16 83 outlet~;
#X obj -15 -133 inlet~;
#X text 63 -2 try adjusting 3rd argument '10' to another value;
#X text 53 -78 try adjusting 3rd argument '5' to another value;
#X connect 0 0 2 0;
#X connect 0 0 9 0;
#X connect 1 0 0 1;
#X connect 2 0 3 0;
#X connect 3 0 1 0;
#X connect 4 0 7 0;
#X connect 4 1 2 0;
#X connect 5 0 6 1;
#X connect 6 0 0 0;
#X connect 7 0 5 0;
#X connect 8 0 4 0;
#X connect 10 0 6 0;
