#N canvas 378 477 450 399 10;
#X obj 93 -18 counter;
#X obj 93 -131 inlet;
#X text 192 -133 millisec's;
#X obj 155 -131 inlet;
#X text -9 -133 button press 0/1;
#X obj 93 -104 sel 1;
#X obj 165 -104 r tap2X-millisec;
#X obj 93 9 sel 1;
#X obj 93 36 outlet;
#X text -8 -165 check for two button taps within;
#X text -8 -155 defined number of millisec's;
#X obj 125 -45 loadbang;
#X obj 104 -72 delay 300;
#X connect 0 0 7 0;
#X connect 1 0 5 0;
#X connect 3 0 12 1;
#X connect 5 0 0 0;
#X connect 5 0 12 0;
#X connect 6 0 12 1;
#X connect 7 0 8 0;
#X connect 11 0 0 2;
#X connect 12 0 0 2;
